<svg xmlns="http://www.w3.org/2000/svg" viewBox="0 0 681.53 676.11"><path fill="#fff" d="M-34.9-114.01c45.63.16 91.27 0 136.9.1 61.65.31 123.29.31 184.94.91 71.68.27 143.37-.12 215.06.31 69.62 0 139.23.95 208.85.79-.46 50-.57 100-.84 150 0 57.33.1 114.66-.12 171.99-.55 52.68-.18 105.36-.63 158.04-.35 145.64-.24 291.29-.26 436.93 0 1.95 0 3.92-.1 5.89-57.29-.57-114.59-.5-171.88-.67-71.67-.33-143.34-.16-215.02-.19-41.65.1-83.3-.42-124.96-.57-77.68-.17-155.37-.59-233.05-.44-.03-109-.02-218 .27-326.99.04-29.34-.13-58.68.11-88.01-.17-16.33.74-32.64.36-48.97-.38-23.34.04-46.68.04-70.01-.62-31.36.08-62.72-.13-94.07.3-98.34.3-196.68.44-295.01z"/><path d="M241.18.06c3.85-.23 7.68.21 11.44 1.04.48 1.96.14 3.95-.1 5.92-3.04 34.66-6.03 69.32-8.95 103.93-.93 4.94-.24 10.02-1.39 14.95.1 6.43-1.45 12.72-1.27 19.15-1.19 6.26-.62 12.67-1.85 18.92.22 6.77-1.42 13.38-1.19 20.15-1.18 6.56-.54 13.25-1.58 19.83-.56 3.99-.1 8.03-.49 12.02-.26 4.05-1.14 8.1-.61 12.16 10.32-28.42 18.23-57.63 27.47-86.41 9.74-32.29 19.15-64.68 28.91-96.97 3.9-12.92 7.24-26.03 11.48-38.84 3.55.2 6.88 1.69 10.21 2.82 1.9.69.98 2.92.59 4.27-10.77 34.9-20.74 70.04-31.57 104.92-10.55 36.7-22.16 73.11-32.67 109.81 36.29-61.69 72.35-123.55 108.49-185.34 1.63-2.47 2.74-5.34 4.91-7.41 3.81 1.29 7.12 3.81 10.68 5.66 1.83 1.17 0 3.22-.59 4.55-39.34 65.89-78.52 131.9-118.01 197.69 19.46-22.14 38.32-44.82 57.58-67.14 30.88-36.14 61.65-72.37 92.48-108.55 1.35-1.31 2.38-3.49 4.58-3.26 2.57 2.93 5.73 5.25 8.34 8.12.66 2.36-2.18 3.94-3.34 5.73-45.16 52.85-90.21 105.81-135.49 158.57-1.23 1.63-3.21 2.81-3.91 4.78 55.13-44.8 110.73-89.04 165.83-133.88.85-.78 2.49-2.03 3.44-.66 2.63 3.04 5.02 6.31 7.38 9.57 1.64 2.3-1.64 3.86-3.05 5.14-57.19 45.21-114.43 90.37-171.68 135.49 65.43-34.01 130.75-68.28 196.11-102.43 1.48-.79 2.99-1.51 4.51-2.23 2.39 2.22 3.14 5.51 4.7 8.28.81 1.26.62 2.94-1 3.36-64.82 34.67-129.54 69.54-194.48 104 3.6-.54 6.93-2.07 10.36-3.2 65.24-21.7 130.41-43.57 195.62-65.35 2.1-.61 4.37-1.95 6.57-.93.77 2.96 1.53 5.92 2.1 8.93-1.09 2.53-4.45 2.29-6.61 3.4-67.47 23.41-134.99 46.69-202.37 70.33 67.74-7.47 135.53-15.32 203.3-22.91 4.67-.15 9.28-1.74 13.98-.96 1.67 3.62 1.81 8.03 2.06 12.05-3.52 1.44-7.39.68-11.02 1.57-43.61 4.4-87.24 9.46-130.89 13.85-19.03 1.87-38.03 4.31-57.12 5.92 9.28 6.57 19.05 12.49 28.55 18.76 29.99 19.54 60.15 38.82 89.99 58.59 72.8-32.29 145.76-64.25 218.52-96.64 4.19-.89 8.81-.25 12.2 2.54 6.04 4.61 12.01 9.35 17.86 14.2 2.68 2.28.9 6.46-2.13 7.38-75.08 31.53-150.21 62.94-225.22 94.63-39.01 16.31-78.17 32.27-117.07 48.84-13.14 5.81-26.76 10.59-40.54 14.65-7.13 18.93-14.19 37.88-21.04 56.91-7.53 20.96-15.62 41.71-23.09 62.69-7.94 22-16.36 43.83-24.19 65.86-4.65 12.41-8.95 24.96-13.95 37.23-2.68-.1-5.35-.1-8.02 0-.27-.48-.83-1.44-1.1-1.92 14.25-38.29 27.79-76.84 41.96-115.16 8.43-23.99 17.46-47.79 25.95-71.75-10.88 15.03-20.99 30.61-31.66 45.79-26.46 38.35-52.8 76.78-79.21 115.16-2.8-.19-6.82-1.22-7.79-4.07 9.03-14.33 19.08-28.03 28.35-42.21 22.81-33.64 45.71-67.22 68.48-100.89 2.81-4.67 6.45-8.85 8.9-13.71-13.6 11.66-27.86 22.53-41.62 34-36.49 29.48-72.96 58.99-109.38 88.55-1.56 1.15-2.9 2.88-4.88 3.28-2.14-1.79-3.41-4.37-5.15-6.5.98-1.27 2.09-2.44 3.35-3.43 53.3-43.08 106.73-86 159.92-129.21-52.23 21.75-104.33 43.88-156.53 65.72-7.52 2.94-14.77 6.6-22.42 9.16-2.25-1.95-2.18-5.32-3.3-7.93 2.7-1.87 5.8-2.99 8.82-4.23 53.4-22.69 106.76-45.46 160.16-68.15.82-.4 1.61-.87 2.36-1.39-16.73 3.12-33.61 5.29-50.37 8.26-46.59 7.45-93.19 14.86-139.76 22.43-2.9-.89-2.15-4.66-2.85-7-.56-1.89 1.98-1.98 3.18-2.32 38.83-6.19 77.68-12.25 116.51-18.49 17.38-2.89 34.92-5.06 52.19-8.59-36.6-3.82-71.99-17.37-102.53-37.8-19.3-13.02-36.33-29.69-48.81-49.4-13.45-20.68-22.06-44.14-27.55-68.08-1.39-6.68-2.88-13.39-3.32-20.19-1.62-9.58-.67-19.36-.81-29.02.76-3.93.68-7.99 1.89-11.82-5.89.18-11.66-1.31-17.55-1.2-6.06-1.07-12.24-.72-18.29-1.79-3.99-.57-8.96.64-12.11-2.41.74-.86 1.38-1.86 2.38-2.44 11.9-7.15 23.8-14.29 35.66-21.51 2.75-1.72 5.71-3.12 8.21-5.22-11.64-9.24-22.9-18.96-34.47-28.3-1.39-1.37-3.52-2.32-4.09-4.3.38-2.65 3.4-1.91 5.27-1.95 7.69.59 15.39 1.15 23.1 1.01 7.25-.26 14.46.81 21.71.88 14.38-12.22 32.04-21.63 51.15-22.9 15.75-.22 32.17 1.51 46.42 8.62 13.08 14.63 25.82 29.58 38.81 44.3 2.52 2.82 4.73 6 7.7 8.38-1.35-10.73-1.55-21.57-2.76-32.32-.54-10.97-1.91-21.87-2.33-32.83-1.08-5.35-.42-10.84-1.44-16.19-.62-3.65 0-7.39-.78-11.02-.9-4.29-.23-8.71-1.1-13-.76-3.65-.14-7.4-.74-11.06-1.14-5.55-.32-11.26-1.61-16.8.3-6.1-1.35-12.05-1.1-18.14 0-3.29-1.04-6.49-.99-9.78.21-5.12-1.34-10.12-1.03-15.25-1.28-11.62-1.67-23.3-2.97-34.93-.42-1.35.99-2.18 2.11-2.3 3.9-.93 7.92-.64 11.9-.68 1.23 4.62.78 9.43 1.43 14.13 3.29 39.56 6.23 79.19 9.57 118.73 0 5.44 1.36 10.76 1.11 16.21 1.11 6.07.68 12.25 1.84 18.31-.19 4.57.59 9.07 1.04 13.59-.26 5.1 1.42 10.04 1.04 15.14 1.6 12.65 1.71 25.49 3.6 38.08 6.45-72.35 13.51-144.94 20.36-217.18.89-6.32.95-12.71 2.18-18.99z"/><path fill="#fff" d="M244.01 4.05h5.03c-2.46 28.72-5.08 57.39-7.4 86.07-1.01 5.03-.37 10.2-1.54 15.22.3 5.28-1.28 10.41-1.1 15.68-1.91 20.24-3.27 40.54-4.99 60.81.34 5.79-1.25 11.47-1.02 17.26-.1 5.01-1.17 9.95-.99 14.97.17 7.29-1.51 14.65-.3 21.9.11 2.28 3.23 2.98 4.07.76 2.08-4.09 3.49-8.48 5.04-12.78 10.47-30.74 19.4-61.99 29.11-92.98 8.21-28.03 16.59-56.01 24.97-83.98 3.37-12.36 7.42-24.55 10.45-36.98 1.56.51 3.14.98 4.77 1.26l-.44 2.59c-4.94 15.87-9.65 31.8-14.31 47.75-5.39 18.44-11.19 36.75-16.64 55.16-12.36 42.15-25.33 84.11-37.73 126.24-.34 2.18 3.2 2.94 3.81.71 20.18-34.75 40.63-69.34 60.84-104.08 19.57-33.19 38.73-66.64 58.45-99.73 2.16.15 3.97 1.98 6.02 2.74-5.16 9.28-10.8 18.3-16.25 27.42-34.32 57.62-68.66 115.22-103.13 172.74-1.86 2.12.57 4.09 1.9 5.67.82 1.19 2.69.65 3.32-.49 49.69-58.09 99.28-116.27 148.8-174.51 1.4-1.47 2.43-3.66 4.3-4.46 1.89.89 3.23 2.73 4.9 4.01-51.74 60.34-103.22 120.92-155.01 181.22.1.68.18 2.02.25 2.7.6 0 1.81.1 2.41.13 58.92-47.93 118.38-95.21 177.28-143.15 1.47-.94 2.79-3.07 4.69-2.81 1.51 1.98 3.01 3.96 4.46 5.99-60.14 47.89-120.71 95.26-181.01 142.96-2.99 2.45-6.24 4.62-8.97 7.36-.57 1.46.99 2.01 1.88 2.79 72.24-37.78 144.47-75.58 216.72-113.33.64 1.35 1.29 2.7 1.97 4.04-70.9 38.42-142.22 76.15-213.26 114.34-1.21.49-1.66 1.36-1.35 2.63 1.56 2.53 4.44.13 6.51-.3 75.42-25.27 150.87-50.44 226.3-75.69.16 1.25.4 2.5.69 3.74-38.72 13.79-77.66 27-116.46 40.57-35.59 12.43-71.31 24.51-106.79 37.23-.2.38-.58 1.16-.77 1.54 1 3.03 4.3.9 6.48 1.13 50.73-5.35 101.44-11.53 152.13-17.05 25.08-2.83 50.15-5.76 75.2-8.59.33 1.81.61 3.64.82 5.49-27.65 3.53-55.43 5.75-83.13 9.03-47.27 4.96-94.47 10.34-141.82 14.63-8.72.72-17.44 1.39-26.14 2.38-5.09-.34-10.04 1.28-15.12 1.05-10.08 1.15-20.19 1.71-30.29 2.68-5.24-66.49-10.15-133.19-15.59-199.66.19-5.43-1.37-10.74-1.06-16.19-1.16-6.55-.68-13.22-1.85-19.76.2-4.72-.75-9.34-1.09-14.02.37-4.72-1.17-9.31-1.01-14.02.28-4.39-1.27-8.65-1-13.04.18-4.37-1.24-8.61-1.02-12.98 2.32 0 4.65-.1 6.97-.15 6.4 82.69 13.09 165.55 20.02 248.09-.1 2.09 0 4.24 1.02 6.13.7 0 2.11-.13 2.81-.18 1.83-13.86 2.63-27.8 4.17-41.7 5-53.09 9.82-106.22 15.03-159.18 0-4.4 1.31-8.69 1.11-13.11 1.15-5.36.7-10.87 1.84-16.24-.23-4.64 1.27-9.12 1.11-13.75.35-3.98 1.32-7.91.93-11.94z"/><path fill="#fff" d="M103.05 159.38c16.77-1.53 34.12.15 49.64 6.98 16.02 17.98 31.68 36.29 47.58 54.38 1.72 1.57 3.38 4.87.92 6.53-31.38 25.83-62.73 51.7-94.11 77.53-10.27-11.05-20.11-22.49-30.13-33.77-8.13-9.39-16.61-18.49-24.57-28.02 2.92-20.78 5.59-41.63 8.09-62.49 12.23-10.27 26.72-18.36 42.58-21.14z"/><path fill="#fff" d="M14.98 180.15c6.67-.26 13.36.1 20 .81 7.06.26 14.14 0 21.2.21-.33 9.97-2.94 19.79-3.09 29.72l-1.47.83c-.57-2.3-2.65-3.52-4.28-4.98-10.81-8.82-21.49-17.83-32.36-26.59z"/><path d="M86.41 184.52c10.52-1.97 21.66 6.71 21.8 17.55.99 10.88-9.35 20.75-20.12 19.66-8.09-.42-15.17-6.8-17.07-14.54-.19-3.69-.65-7.63.92-11.1 2.39-6.01 8.04-10.63 14.47-11.57z"/><path fill="#fff" d="M86.21 188.29c9.39-2.26 19.25 6.21 18.23 15.84-.41 8.73-9.67 15.71-18.16 13.59-5.58-1.26-10.38-5.87-11.47-11.53-2.03-7.72 3.63-16.3 11.4-17.9z"/><path d="M83.96 190.87c7.3-3.21 16.59 1.47 18.25 9.29 1.81 6.52-2.27 13.45-8.45 15.81-5.35 1.42-11.69.23-15.11-4.43-5.49-6.43-2.72-17.74 5.31-20.67z"/><path fill="#fff" d="M85.34 194.32c3.24-.79 7.29-1.02 9.86 1.52 2.12 1.78 3.51 4.43 3.81 7.19.13 7.01-8.41 12.72-14.58 8.66-6.87-3.48-6.24-14.58.91-17.37z"/><path fill="#fff" d="M51.27 211.58c1.96 3.11.17 7.02-.14 10.41-.42 6.53-2.19 12.91-2.16 19.47-7.7-.14-15.31-1.32-22.99-1.62-5.72-1.03-11.55-.66-17.27-1.68 11.62-7.63 23.86-14.43 35.68-21.79 2.29-1.59 5.22-2.44 6.88-4.79z"/><path fill="#fff" d="M113.75 304.03c29.88-24.12 59.2-48.92 89.04-73.09 1.84 21.67 3.09 43.4 5.25 65.03-5.79 1.15-11.72.81-17.52 1.8-14.18.99-28.29 2.58-42.46 3.54-4.98 1.11-10.13.37-15.1 1.56-6.45-.12-12.75 1.63-19.21 1.16z"/><path fill="#fff" d="M51.17 247.83c16.94 18.72 33.26 38.01 50.24 56.7 1.83 1.83 3.2 5.1 6.29 4.57 1.8-1.38 4.17-.93 6.27-1.03 64.31-5.58 128.64-11.23 192.96-16.75 40.48 26.04 80.89 52.25 121.18 78.61 7.48 5.33 14.34 11.5 21.73 16.95-7.98 3.87-16.37 6.94-24.52 10.47-20.28 8.32-40.47 16.85-60.74 25.21-24.61 10.15-48.75 21.8-74.63 28.45-13.68 2.57-27.4 4.9-41.09 7.41-5.87 1.48-11.9.11-17.81-.36-38.71-4.05-76.19-18.6-107.82-41.26-13.17-9.59-25.01-21.03-34.98-33.91-21.44-28.61-33.5-63.45-37.95-98.69-.79-12.1-1.17-24.37.87-36.37z"/><path fill="#fff" d="M651.52 274.71c2.45-1.05 5.24.18 7.48 1.3 6.48 4.71 12.62 9.86 18.95 14.77-1.67 1.55-3.97 2.06-5.98 3-71.32 30.06-142.8 59.73-214.04 89.97-1.45.69-2.96 1.24-4.57 1.37-5.93-5.08-12.16-9.8-18.26-14.67 72.07-32.06 144.34-63.7 216.42-95.74z"/><path fill="#fff" d="M262.11 462.02c9.53-1.95 18.98-4.33 28.32-7.06-26.51 72.36-53.17 144.67-79.77 216.99-.46.2-1.37.59-1.83.78.4-2.65 1.53-5.08 2.44-7.57 7.06-19.29 14.17-38.57 21.01-57.95 15.81-43.33 31.56-86.69 47.25-130.07.51-1.55 1.25-3.07 1.37-4.71-.87-1.52-2.63-1.64-3.62-.21-39.19 57.08-78.49 114.1-117.67 171.19-.45.2-1.36.6-1.81.8.72-2.19 2.27-3.91 3.5-5.8 31.18-45.91 62.35-91.82 93.51-137.74 5.01-7.39 9.88-14.89 15.18-22.08v-2.57c-1.37.1-2.94-.31-3.98.82-53.76 43.73-107.74 87.21-161.52 130.92-.4.12-1.19.37-1.59.49.1-.44.22-1.33.29-1.77 56.06-45.34 112.23-90.54 168.29-135.87 1.32-1.34 3.99-2.24 3.62-4.52-.72-1.43-2.43-1.27-3.64-.65-59.37 24.98-118.72 50.02-178.12 74.93-3.21 1.16-6.18 2.97-9.52 3.74l-.58-1.12c1.7-1.37 3.87-1.91 5.84-2.77 55.93-23.78 111.85-47.61 167.79-71.37.78-.49 1.53-1.01 2.26-1.56-.1-1.79.1-3.63-.85-5.23h3.84z"/><path fill="#fff" d="M240.12 463.84c4.51-1.31 9.22-.6 13.8-1.36-4.5 1.61-9.32 1.85-14 2.68-59.27 9.58-118.59 18.98-177.85 28.63-.32-.33-.94-.98-1.25-1.31 28.49-4.97 57.11-9.21 85.67-13.75 31.21-5.04 62.42-9.89 93.63-14.89z"/></svg>