<svg id="Capa_1" data-name="Capa 1" xmlns="http://www.w3.org/2000/svg" viewBox="0 0 746.87 924.96"><title>kfkfkf</title><g id="Color"><path d="M-34.9-114c45.63.16,91.27,0,136.9.1,61.65.31,123.29.31,184.94.91,71.68.27,143.37-.12,215.06.31,69.62,0,139.23,1,208.85.79-.46,50-.57,100-.84,150,0,57.33.1,114.66-.12,172-.55,52.68-.18,105.36-.63,158q-.53,218.46-.26,436.93c0,2,0,3.92-.1,5.89-57.29-.57-114.59-.5-171.88-.67-71.67-.33-143.34-.16-215-.19-41.65.1-83.3-.42-125-.57-77.68-.17-155.37-.59-233-.44q0-163.5.27-327c0-29.34-.13-58.68.11-88-.17-16.33.74-32.64.36-49-.38-23.34,0-46.68,0-70-.62-31.36.08-62.72-.13-94.07q.45-147.51.44-295Z" transform="translate(36.02 114.01)" style="fill:#fff"/><path d="M241.18.06a41.55,41.55,0,0,1,11.44,1,16.37,16.37,0,0,1-.1,5.92Q248,59,243.57,111c-.93,4.94-.24,10-1.39,15,.1,6.43-1.45,12.72-1.27,19.15-1.19,6.26-.62,12.67-1.85,18.92.22,6.77-1.42,13.38-1.19,20.15-1.18,6.56-.54,13.25-1.58,19.83-.56,4-.1,8-.49,12s-1.14,8.1-.61,12.16c10.32-28.42,18.23-57.63,27.47-86.41,9.74-32.29,19.15-64.68,28.91-97,3.9-12.92,7.24-26,11.48-38.84,3.55.2,6.88,1.69,10.21,2.82,1.9.69,1,2.92.59,4.27-10.77,34.9-20.74,70-31.57,104.92-10.55,36.7-22.16,73.11-32.67,109.81Q304,135.2,358.1,42.39c1.63-2.47,2.74-5.34,4.91-7.41,3.81,1.29,7.12,3.81,10.68,5.66,1.83,1.17,0,3.22-.59,4.55q-59,98.84-118,197.69c19.46-22.14,38.32-44.82,57.58-67.14Q359,121.53,405.15,67.19c1.35-1.31,2.38-3.49,4.58-3.26,2.57,2.93,5.73,5.25,8.34,8.12.66,2.36-2.18,3.94-3.34,5.73Q347,157.06,279.24,236.35c-1.23,1.63-3.21,2.81-3.91,4.78,55.13-44.8,110.73-89,165.83-133.88.85-.78,2.49-2,3.44-.66,2.63,3,5,6.31,7.38,9.57,1.64,2.3-1.64,3.86-3.05,5.14q-85.79,67.82-171.68,135.49,98.14-51,196.11-102.43c1.48-.79,3-1.51,4.51-2.23,2.39,2.22,3.14,5.51,4.7,8.28.81,1.26.62,2.94-1,3.36-64.82,34.67-129.54,69.54-194.48,104,3.6-.54,6.93-2.07,10.36-3.2Q395.31,232,493.07,199.22c2.1-.61,4.37-1.95,6.57-.93.77,3,1.53,5.92,2.1,8.93-1.09,2.53-4.45,2.29-6.61,3.4C427.66,234,360.14,257.31,292.76,281c67.74-7.47,135.53-15.32,203.3-22.91,4.67-.15,9.28-1.74,14-1,1.67,3.62,1.81,8,2.06,12.05-3.52,1.44-7.39.68-11,1.57-43.61,4.4-87.24,9.46-130.89,13.85-19,1.87-38,4.31-57.12,5.92,9.28,6.57,19.05,12.49,28.55,18.76,30,19.54,60.15,38.82,90,58.59,72.8-32.29,145.76-64.25,218.52-96.64a14.45,14.45,0,0,1,12.2,2.54q9.06,6.91,17.86,14.2c2.68,2.28.9,6.46-2.13,7.38Q565.44,342.6,452.84,389.93c-39,16.31-78.17,32.27-117.07,48.84a332.75,332.75,0,0,1-40.54,14.65c-7.13,18.93-14.19,37.88-21,56.91-7.53,21-15.62,41.71-23.09,62.69-7.94,22-16.36,43.83-24.19,65.86-4.65,12.41-8.95,25-13.95,37.23q-4-.15-8,0l-1.1-1.92c14.25-38.29,27.79-76.84,42-115.16,8.43-24,17.46-47.79,25.95-71.75-10.88,15-21,30.61-31.66,45.79q-39.69,57.52-79.21,115.16c-2.8-.19-6.82-1.22-7.79-4.07,9-14.33,19.08-28,28.35-42.21q34.22-50.46,68.48-100.89c2.81-4.67,6.45-8.85,8.9-13.71-13.6,11.66-27.86,22.53-41.62,34q-54.73,44.22-109.38,88.55c-1.56,1.15-2.9,2.88-4.88,3.28-2.14-1.79-3.41-4.37-5.15-6.5a19.43,19.43,0,0,1,3.35-3.43Q181.09,538.63,261.06,474c-52.23,21.75-104.33,43.88-156.53,65.72-7.52,2.94-14.77,6.6-22.42,9.16-2.25-1.95-2.18-5.32-3.3-7.93a45.28,45.28,0,0,1,8.82-4.23q80.1-34,160.16-68.15a18,18,0,0,0,2.36-1.39c-16.73,3.12-33.61,5.29-50.37,8.26Q129.89,486.66,60,497.91c-2.9-.89-2.15-4.66-2.85-7-.56-1.89,2-2,3.18-2.32C99.18,482.4,138,476.34,176.86,470.1c17.38-2.89,34.92-5.06,52.19-8.59-36.6-3.82-72-17.37-102.53-37.8-19.3-13-36.33-29.69-48.81-49.4-13.45-20.68-22.06-44.14-27.55-68.08-1.39-6.68-2.88-13.39-3.32-20.19-1.62-9.58-.67-19.36-.81-29,.76-3.93.68-8,1.89-11.82-5.89.18-11.66-1.31-17.55-1.2-6.06-1.07-12.24-.72-18.29-1.79-4-.57-9,.64-12.11-2.41a10.22,10.22,0,0,1,2.38-2.44Q20.2,226.64,38,215.85c2.75-1.72,5.71-3.12,8.21-5.22-11.64-9.24-22.9-19-34.47-28.3C10.36,181,8.23,180,7.66,178c.38-2.65,3.4-1.91,5.27-1.95,7.69.59,15.39,1.15,23.1,1,7.25-.26,14.46.81,21.71.88,14.38-12.22,32-21.63,51.15-22.9,15.75-.22,32.17,1.51,46.42,8.62,13.08,14.63,25.82,29.58,38.81,44.3,2.52,2.82,4.73,6,7.7,8.38-1.35-10.73-1.55-21.57-2.76-32.32-.54-11-1.91-21.87-2.33-32.83-1.08-5.35-.42-10.84-1.44-16.19-.62-3.65,0-7.39-.78-11-.9-4.29-.23-8.71-1.1-13-.76-3.65-.14-7.4-.74-11.06-1.14-5.55-.32-11.26-1.61-16.8.3-6.1-1.35-12.05-1.1-18.14,0-3.29-1-6.49-1-9.78.21-5.12-1.34-10.12-1-15.25-1.28-11.62-1.67-23.3-3-34.93-.42-1.35,1-2.18,2.11-2.3,3.9-.93,7.92-.64,11.9-.68,1.23,4.62.78,9.43,1.43,14.13,3.29,39.56,6.23,79.19,9.57,118.73,0,5.44,1.36,10.76,1.11,16.21,1.11,6.07.68,12.25,1.84,18.31-.19,4.57.59,9.07,1,13.59-.26,5.1,1.42,10,1,15.14,1.6,12.65,1.71,25.49,3.6,38.08C225.06,163.91,232.12,91.32,239,19.08c.89-6.32.95-12.71,2.18-19Z" transform="translate(36.02 114.01)"/><path d="M244,4.05h5c-2.46,28.72-5.08,57.39-7.4,86.07-1,5-.37,10.2-1.54,15.22.3,5.28-1.28,10.41-1.1,15.68-1.91,20.24-3.27,40.54-5,60.81.34,5.79-1.25,11.47-1,17.26-.1,5-1.17,9.95-1,15,.17,7.29-1.51,14.65-.3,21.9a2.11,2.11,0,0,0,4.07.76,110.46,110.46,0,0,0,5-12.78c10.47-30.74,19.4-62,29.11-93q12.31-42,25-84c3.37-12.36,7.42-24.55,10.45-37a33.82,33.82,0,0,0,4.77,1.26l-.44,2.59c-4.94,15.87-9.65,31.8-14.31,47.75C290,80,284.17,98.35,278.72,116.76,266.36,158.91,253.39,200.87,241,243c-.34,2.18,3.2,2.94,3.81.71C265,209,285.43,174.37,305.64,139.63,325.21,106.44,344.37,73,364.09,39.9c2.16.15,4,2,6,2.74-5.16,9.28-10.8,18.3-16.25,27.42Q302.38,156.49,250.73,242.8c-1.86,2.12.57,4.09,1.9,5.67.82,1.19,2.69.65,3.32-.49q74.54-87.14,148.8-174.51c1.4-1.47,2.43-3.66,4.3-4.46,1.89.89,3.23,2.73,4.9,4-51.74,60.34-103.22,120.92-155,181.22.1.68.18,2,.25,2.7.6,0,1.81.1,2.41.13C320.52,209.14,380,161.86,438.88,113.92c1.47-.94,2.79-3.07,4.69-2.81,1.51,2,3,4,4.46,6-60.14,47.89-120.71,95.26-181,143-3,2.45-6.24,4.62-9,7.36-.57,1.46,1,2,1.88,2.79q108.36-56.67,216.72-113.33c.64,1.35,1.29,2.7,2,4-70.9,38.42-142.22,76.15-213.26,114.34a2,2,0,0,0-1.35,2.63c1.56,2.53,4.44.13,6.51-.3q113.13-37.9,226.3-75.69a37.21,37.21,0,0,0,.69,3.74c-38.72,13.79-77.66,27-116.46,40.57-35.59,12.43-71.31,24.51-106.79,37.23-.2.38-.58,1.16-.77,1.54,1,3,4.3.9,6.48,1.13,50.73-5.35,101.44-11.53,152.13-17.05,25.08-2.83,50.15-5.76,75.2-8.59.33,1.81.61,3.64.82,5.49-27.65,3.53-55.43,5.75-83.13,9-47.27,5-94.47,10.34-141.82,14.63-8.72.72-17.44,1.39-26.14,2.38-5.09-.34-10,1.28-15.12,1.05-10.08,1.15-20.19,1.71-30.29,2.68C206.38,229.24,201.47,162.54,196,96.07c.19-5.43-1.37-10.74-1.06-16.19-1.16-6.55-.68-13.22-1.85-19.76.2-4.72-.75-9.34-1.09-14,.37-4.72-1.17-9.31-1-14,.28-4.39-1.27-8.65-1-13s-1.24-8.61-1-13c2.32,0,4.65-.1,7-.15,6.4,82.69,13.09,165.55,20,248.09a11.53,11.53,0,0,0,1,6.13c.7,0,2.11-.13,2.81-.18,1.83-13.86,2.63-27.8,4.17-41.7,5-53.09,9.82-106.22,15-159.18,0-4.4,1.31-8.69,1.11-13.11,1.15-5.36.7-10.87,1.84-16.24-.23-4.64,1.27-9.12,1.11-13.75.35-4,1.32-7.91.93-11.94Z" transform="translate(36.02 114.01)" style="fill:#fff"/><path d="M103.05,159.38c16.77-1.53,34.12.15,49.64,7,16,18,31.68,36.29,47.58,54.38,1.72,1.57,3.38,4.87.92,6.53Q154.12,266,107.08,304.8C96.81,293.75,87,282.31,77,271c-8.13-9.39-16.61-18.49-24.57-28q4.38-31.17,8.09-62.49c12.23-10.27,26.72-18.36,42.58-21.14Z" transform="translate(36.02 114.01)" style="fill:#fff"/><path d="M15,180.15A137.8,137.8,0,0,1,35,181c7.06.26,14.14,0,21.2.21-.33,10-2.94,19.79-3.09,29.72l-1.47.83c-.57-2.3-2.65-3.52-4.28-5C36.53,197.92,25.85,188.91,15,180.15Z" transform="translate(36.02 114.01)" style="fill:#fff"/><path d="M86.41,184.52c10.52-2,21.66,6.71,21.8,17.55,1,10.88-9.35,20.75-20.12,19.66-8.09-.42-15.17-6.8-17.07-14.54-.19-3.69-.65-7.63.92-11.1a18.86,18.86,0,0,1,14.47-11.57Z" transform="translate(36.02 114.01)"/><path d="M86.21,188.29c9.39-2.26,19.25,6.21,18.23,15.84-.41,8.73-9.67,15.71-18.16,13.59a15.2,15.2,0,0,1-11.47-11.53C72.78,198.47,78.44,189.89,86.21,188.29Z" transform="translate(36.02 114.01)" style="fill:#fff"/><path d="M84,190.87c7.3-3.21,16.59,1.47,18.25,9.29,1.81,6.52-2.27,13.45-8.45,15.81-5.35,1.42-11.69.23-15.11-4.43C73.16,205.11,75.93,193.8,84,190.87Z" transform="translate(36.02 114.01)"/><path d="M85.34,194.32c3.24-.79,7.29-1,9.86,1.52A11.07,11.07,0,0,1,99,203c.13,7-8.41,12.72-14.58,8.66-6.87-3.48-6.24-14.58.91-17.37Z" transform="translate(36.02 114.01)" style="fill:#fff"/><path d="M51.27,211.58c2,3.11.17,7-.14,10.41-.42,6.53-2.19,12.91-2.16,19.47-7.7-.14-15.31-1.32-23-1.62-5.72-1-11.55-.66-17.27-1.68,11.62-7.63,23.86-14.43,35.68-21.79,2.29-1.59,5.22-2.44,6.88-4.79Z" transform="translate(36.02 114.01)" style="fill:#fff"/><path d="M113.75,304c29.88-24.12,59.2-48.92,89-73.09,1.84,21.67,3.09,43.4,5.25,65-5.79,1.15-11.72.81-17.52,1.8-14.18,1-28.29,2.58-42.46,3.54-5,1.11-10.13.37-15.1,1.56C126.51,302.75,120.21,304.5,113.75,304Z" transform="translate(36.02 114.01)" style="fill:#fff"/><path d="M51.17,247.83c16.94,18.72,33.26,38,50.24,56.7,1.83,1.83,3.2,5.1,6.29,4.57,1.8-1.38,4.17-.93,6.27-1q96.47-8.37,193-16.75,60.72,39.06,121.18,78.61c7.48,5.33,14.34,11.5,21.73,16.95-8,3.87-16.37,6.94-24.52,10.47-20.28,8.32-40.47,16.85-60.74,25.21C340,432.71,315.83,444.36,290,451c-13.68,2.57-27.4,4.9-41.09,7.41-5.87,1.48-11.9.11-17.81-.36A226.85,226.85,0,0,1,123.23,416.8a173.24,173.24,0,0,1-35-33.91c-21.44-28.61-33.5-63.45-37.95-98.69-.79-12.1-1.17-24.37.87-36.37Z" transform="translate(36.02 114.01)" style="fill:#fff"/><path d="M651.52,274.71c2.45-1,5.24.18,7.48,1.3,6.48,4.71,12.62,9.86,19,14.77-1.67,1.55-4,2.06-6,3-71.32,30.06-142.8,59.73-214,90a13.14,13.14,0,0,1-4.57,1.37c-5.93-5.08-12.16-9.8-18.26-14.67,72.07-32.06,144.34-63.7,216.42-95.74Z" transform="translate(36.02 114.01)" style="fill:#fff"/><path d="M262.11,462c9.53-1.95,19-4.33,28.32-7.06Q250.67,563.5,210.66,672l-1.83.78a39.55,39.55,0,0,1,2.44-7.57c7.06-19.29,14.17-38.57,21-57.95q23.72-65,47.25-130.07a20.14,20.14,0,0,0,1.37-4.71,2,2,0,0,0-3.62-.21Q218.5,557.84,159.61,643.41l-1.81.8c.72-2.19,2.27-3.91,3.5-5.8q46.77-68.86,93.51-137.74c5-7.39,9.88-14.89,15.18-22.08V476c-1.37.1-2.94-.31-4,.82q-80.64,65.6-161.52,130.92l-1.59.49c.1-.44.22-1.33.29-1.77q84.09-68,168.29-135.87c1.32-1.34,4-2.24,3.62-4.52-.72-1.43-2.43-1.27-3.64-.65q-89.05,37.47-178.12,74.93c-3.21,1.16-6.18,3-9.52,3.74L83.24,543c1.7-1.37,3.87-1.91,5.84-2.77Q173,504.55,256.87,468.85c.78-.49,1.53-1,2.26-1.56-.1-1.79.1-3.63-.85-5.23h3.84Z" transform="translate(36.02 114.01)" style="fill:#fff"/><path d="M240.12,463.84c4.51-1.31,9.22-.6,13.8-1.36-4.5,1.61-9.32,1.85-14,2.68-59.27,9.58-118.59,19-177.85,28.63l-1.25-1.31c28.49-5,57.11-9.21,85.67-13.75C177.7,473.69,208.91,468.84,240.12,463.84Z" transform="translate(36.02 114.01)" style="fill:#fff"/></g></svg>