<svg id="Capa_1" data-name="Capa 1" xmlns="http://www.w3.org/2000/svg" viewBox="0 0 793 613"><title>titoauto</title><g id="Color"><rect x="0.5" y="0.5" width="792" height="612" style="fill:none;stroke:#231f20;stroke-miterlimit:10"/><path d="M372.57,257.11,374.49,227l38,8.67s4.66,1,4-5l.33-19s14.33.33,12-27c0,0,0-21-9.67-21.67l1.67-42s6.33-4.33,5.67-13.67-8.34-12-12-12.66-13.17,10.32-3.67,24.66v37.34s-2.67-28-20.5-32.34l-40.75-9.66-46.08-9s-10-.67-17.17,20.16V91s6-3,5.5-11.67c0,0,.5-13.16-12.17-12.5,0,0-7.83,1.34-7.5,10.84,0,0-1.16,4.33,4.84,12.66v39.84s-7,1.66-6.5,17.33V162s0,12.83,10.67,15v24.17s-.84,1.66,6.33,3.66l33.33,8v30.43" transform="translate(0.5 0.5)" style="fill:none;stroke:#231f20;stroke-miterlimit:10"/><polygon points="296.99 237.19 400.32 265.19 378.65 344.85 314.65 327.52 296.99 237.19" style="fill:none;stroke:#231f20;stroke-miterlimit:10"/><polyline points="338.45 299.89 325.65 296.85 313.32 251.52 385.99 269.52 371.99 307.85 346.09 301.71" style="fill:none;stroke:#231f20;stroke-miterlimit:10"/><polygon points="327.32 310.69 370.39 322.77 365.68 334.64 329.65 322.77 327.32 310.69" style="fill:#fff;stroke:#231f20;stroke-miterlimit:10"/><path d="M309.33,137.92l80.62,18a4.53,4.53,0,0,1,3.54,4.42v38.26a4.53,4.53,0,0,1-5.61,4.4L307.27,183.2a4.52,4.52,0,0,1-3.45-4.4V142.33A4.52,4.52,0,0,1,309.33,137.92Z" transform="translate(0.5 0.5)" style="fill:none;stroke:#231f20;stroke-miterlimit:10"/><path d="M331.82,164.35c0,5.53-3.58,10-8,10s-8-4.47-8-10,3.58-10,8-10S331.82,158.83,331.82,164.35Zm-8-7.16c-3.38,0-6.13,3.43-6.13,7.66s2.75,7.66,6.13,7.66,6.13-3.43,6.13-7.66S327.2,157.19,323.82,157.19Z" transform="translate(0.5 0.5)" style="fill:none;stroke:#231f20;stroke-miterlimit:10"/><path d="M380.49,176.85c0,5.53-3.58,10-8,10s-8-4.47-8-10,3.58-10,8-10S380.49,171.33,380.49,176.85Zm-8-7.16c-3.39,0-6.13,3.43-6.13,7.66s2.74,7.66,6.13,7.66,6.13-3.43,6.13-7.66S375.87,169.69,372.49,169.69Z" transform="translate(0.5 0.5)" style="fill:none;stroke:#231f20;stroke-miterlimit:10"/><path d="M309.26,189.09c16.78,4,67.31,16.3,80.85,19.61a4.42,4.42,0,0,1,3.38,4.3v.41a4.43,4.43,0,0,1-5.46,4.31l-80.8-19.22a4.44,4.44,0,0,1-3.41-4.31v-.78A4.43,4.43,0,0,1,309.26,189.09Z" transform="translate(0.5 0.5)" style="fill:none;stroke:#231f20;stroke-miterlimit:10"/><path d="M327.59,214.63c8.5,2,34.09,8.25,41,9.92a2.26,2.26,0,0,1,1.71,2.18v.21a2.26,2.26,0,0,1-2.77,2.19l-40.92-9.74a2.25,2.25,0,0,1-1.73-2.18v-.4A2.24,2.24,0,0,1,327.59,214.63Z" transform="translate(0.5 0.5)" style="fill:none;stroke:#231f20;stroke-miterlimit:10"/><path d="M327.59,222.36c8.5,2,34.09,8.26,41,9.93a2.26,2.26,0,0,1,1.71,2.18v.21a2.24,2.24,0,0,1-2.77,2.18l-40.92-9.73a2.26,2.26,0,0,1-1.73-2.19v-.39A2.25,2.25,0,0,1,327.59,222.36Z" transform="translate(0.5 0.5)" style="fill:#fff;stroke:#231f20;stroke-miterlimit:10"/><path d="M327.59,229.67c8.5,2,34.09,8.26,41,9.93a2.26,2.26,0,0,1,1.71,2.18V242a2.24,2.24,0,0,1-2.77,2.18l-40.92-9.73a2.26,2.26,0,0,1-1.73-2.19v-.39A2.25,2.25,0,0,1,327.59,229.67Z" transform="translate(0.5 0.5)" style="fill:none;stroke:#231f20;stroke-miterlimit:10"/><path d="M245.32,222.51s3.78-2.61,10.92-.74l64.58,16.92v-6.5L261.15,217s-3.16-1.18-7.66.82a51.36,51.36,0,0,0-8.17,4.67" transform="translate(0.5 0.5)" style="fill:none;stroke:#231f20;stroke-miterlimit:10"/><path d="M445.15,271.69c11.34,0,11,19,11,19L451.49,523l5.83-7.83,6.25-230.5s1.58-17-13.08-18.5l-71.42-19V228.07l-4.5-.63-1.42,24.25,72,20" transform="translate(0.5 0.5)" style="fill:none;stroke:#231f20;stroke-miterlimit:10"/><path d="M414.44,235.55l8.63-3.86V209l8-4.34s2.5-2.25,3-11.5a146,146,0,0,0,0-16.34s1.25-11.91-7.5-16.66l2.5-43.5s7.5-4.75,2.25-16.5c0,0-3.92-10.5-16.83-5.5,0,0,16.16,2.83,10.83,20.66l-4.5,5.67-1.67,42s6.67-.5,9.17,16.25-1.83,25.58-1.83,25.58-5.67,7.67-9.67,6.84C416.82,211.69,418.39,229.59,414.44,235.55Z" transform="translate(0.5 0.5)" style="fill:none;stroke:#231f20;stroke-miterlimit:10"/><path d="M281.41,95.46l2.19.75a1.34,1.34,0,0,1,.89,1.25v30.65a1.32,1.32,0,0,1-2,1.16l-2.19-1.21a1.32,1.32,0,0,1-.69-1.15V96.71A1.32,1.32,0,0,1,281.41,95.46Z" transform="translate(0.5 0.5)" style="fill:#fff;stroke:#231f20;stroke-miterlimit:10"/><path d="M414.37,124.29l2.18.75a1.32,1.32,0,0,1,.9,1.25v30.65a1.33,1.33,0,0,1-2,1.16l-2.18-1.21a1.3,1.3,0,0,1-.69-1.16V125.54A1.32,1.32,0,0,1,414.37,124.29Z" transform="translate(0.5 0.5)" style="fill:none;stroke:#231f20;stroke-miterlimit:10"/><path d="M284.49,135.85s-8-6.5-11,4.67v17.17s.33,6,8.58,5.33Z" transform="translate(0.5 0.5)" style="fill:none;stroke:#231f20;stroke-miterlimit:10"/><path d="M411,164.35l4,29,8,.84s1.59-3,1.38-13.5S421.65,164.69,411,164.35Z" transform="translate(0.5 0.5)" style="fill:none;stroke:#231f20;stroke-miterlimit:10"/><path d="M346.54,279.79a10.07,10.07,0,0,1,10.89,5.77s1,2.57-.81,9.57L346.29,301s-8.34,2.83-10.84-6c0,0-3-8.33,2-10.33Z" transform="translate(0.5 0.5)" style="fill:none;stroke:#231f20;stroke-miterlimit:10"/><path d="M272.65,245.19s-6.83-2-6.33,7l.25,85.5v4.41l.24,83.33-6.51,3-.88-175.53s2.93-10.49,13.22-7.74" transform="translate(0.5 0.5)" style="fill:none;stroke:#231f20;stroke-miterlimit:10"/><path d="M293.92,111.41l.15-23.72s5.25-1.5,3.75-13.5-11.5-10.25-11.5-10.25l-6.67,2.91s11.84-1,12.17,12.5c0,0,.5,9.17-5.5,11.67v34.83S290.69,114,293.92,111.41Z" transform="translate(0.5 0.5)" style="fill:none;stroke:#231f20;stroke-miterlimit:10"/><path d="M410.82,136.69c-5.56-15.17-21.75-19.4-35.76-23.16a407.12,407.12,0,0,0-52.18-10c-7.55-1-14-1.33-20.9,2.37l73,13.89s20.5,4.43,26.66,12.59,8.5,19.17,8.5,19.17Z" transform="translate(0.5 0.5)" style="fill:none;stroke:#231f20;stroke-miterlimit:10"/><path d="M684.86,353.83l-44.59-14.89c-9.93-3.11-24.48,15.15-32.51,40.78s-6.3,50.44,3.62,53.55l44.4,13.38" transform="translate(0.5 0.5)" style="fill:none;stroke:#231f20;stroke-miterlimit:10"/><ellipse cx="673.7" cy="401.41" rx="48.74" ry="18.5" transform="translate(72.51 904.87) rotate(-70.68)" style="fill:none;stroke:#231f20;stroke-miterlimit:10"/><path d="M388.46,489.23l-44.17-21.5c-15.35-7.47-39.53,10.59-54,40.34S276.5,568,291.85,575.46l49.48,19.66" transform="translate(0.5 0.5)" style="fill:none;stroke:#231f20;stroke-miterlimit:10"/><path d="M259.82,457.19l-17.33-7s-.44-209.76-.17-220,9.5-9.5,9.5-9.5L266,224.32c20.76,2.69,54.84,14.37,54.84,14.37v4.59l-24.33-6.59L314.15,327l32,8.48-.92,3.1-34.9-9.91-13.83-77-23.84-6.5s-13.84-3.64-13.33,12.43.5,199.57.5,199.57" transform="translate(0.5 0.5)" style="fill:#fff;stroke:#231f20;stroke-miterlimit:10"/><path d="M373.15,251.69l72,20c14,1.66,10.67,26,10.67,26L450.49,520l-33.67-10.67s0-6-.67-6h15.34l1-12.66L417.15,486l1-8.67L433.49,482l4-174c3.33-20-4.34-19.67-4.34-19.67l-34.66-9.16-17.17,69.66-36.1-10.25.92-3.1,32,8.85,21.67-79.66-27.25-7.58.58-5.42,0-.67" transform="translate(0.5 0.5)" style="fill:#fff;stroke:#231f20;stroke-miterlimit:10"/><ellipse cx="363" cy="541.52" rx="58.16" ry="30.91" transform="translate(-282.27 631.42) rotate(-64.05)" style="fill:none;stroke:#231f20;stroke-miterlimit:10"/><polygon points="297.17 237.5 400.5 265.5 378.83 345.17 314.83 327.83 297.17 237.5" style="fill:none;stroke:#231f20;stroke-miterlimit:10"/><ellipse cx="508.42" cy="356.83" rx="3.08" ry="4.67" style="fill:none;stroke:#231f20;stroke-miterlimit:10"/><ellipse cx="508.42" cy="356.83" rx="1.42" ry="2.15" style="fill:none;stroke:#231f20;stroke-miterlimit:10"/><ellipse cx="517.5" cy="351.13" rx="3.08" ry="4.67" style="fill:none;stroke:#231f20;stroke-miterlimit:10"/><ellipse cx="517.5" cy="351.13" rx="1.42" ry="2.15" style="fill:none;stroke:#231f20;stroke-miterlimit:10"/><ellipse cx="526.79" cy="345.98" rx="3.08" ry="4.67" style="fill:none;stroke:#231f20;stroke-miterlimit:10"/><ellipse cx="526.79" cy="345.98" rx="1.42" ry="2.15" style="fill:none;stroke:#231f20;stroke-miterlimit:10"/><polyline points="531.18 338.25 531.18 352.17 502.88 368.64 502.21 350.64 530.52 338.25" style="fill:none;stroke:#231f20;stroke-miterlimit:10"/><polyline points="338.63 300.2 325.83 297.17 313.5 251.83 386.17 269.83 372.17 308.17 346.27 302.02" style="fill:#fff;stroke:#231f20;stroke-miterlimit:10"/><path d="M309.51,138.23l80.62,18a4.53,4.53,0,0,1,3.54,4.42V198.9a4.53,4.53,0,0,1-5.61,4.39l-80.61-19.78a4.51,4.51,0,0,1-3.45-4.39V142.65A4.52,4.52,0,0,1,309.51,138.23Z" transform="translate(0.5 0.5)" style="fill:#fff;stroke:#231f20;stroke-miterlimit:10"/><ellipse cx="324.5" cy="165.17" rx="8" ry="10" style="fill:#fff;stroke:#231f20;stroke-miterlimit:10"/><ellipse cx="373.17" cy="177.67" rx="8" ry="10" style="fill:#fff;stroke:#231f20;stroke-miterlimit:10"/><ellipse cx="324.5" cy="165.66" rx="6.13" ry="7.66" style="fill:#fff;stroke:#231f20;stroke-miterlimit:10"/><ellipse cx="282.25" cy="78.16" rx="5.75" ry="7.19" transform="translate(-9.73 93.82) rotate(-18.45)" style="fill:#fff;stroke:#231f20;stroke-miterlimit:10"/><ellipse cx="282.36" cy="78.5" rx="4.41" ry="5.51" transform="matrix(0.95, -0.32, 0.32, 0.95, -9.83, 93.88)" style="fill:#fff;stroke:#231f20;stroke-miterlimit:10"/><ellipse cx="416.25" cy="106.75" rx="5.75" ry="7.19" transform="translate(-11.89 137.69) rotate(-18.45)" style="fill:none;stroke:#231f20;stroke-miterlimit:10"/><ellipse cx="416.36" cy="107.09" rx="4.41" ry="5.51" transform="translate(-11.99 137.74) rotate(-18.45)" style="fill:#fff;stroke:#231f20;stroke-miterlimit:10"/><ellipse cx="373.17" cy="177.67" rx="6.13" ry="7.66" style="fill:#fff;stroke:#231f20;stroke-miterlimit:10"/><path d="M309.44,189.41c16.78,4,67.3,16.29,80.85,19.6a4.42,4.42,0,0,1,3.38,4.3v.41a4.43,4.43,0,0,1-5.46,4.31l-80.8-19.22A4.43,4.43,0,0,1,304,194.5v-.78A4.42,4.42,0,0,1,309.44,189.41Z" transform="translate(0.5 0.5)" style="fill:#fff;stroke:#231f20;stroke-miterlimit:10"/><path d="M327.77,214.94c8.5,2,34.09,8.25,41,9.93a2.24,2.24,0,0,1,1.71,2.18v.2a2.26,2.26,0,0,1-2.77,2.19l-40.92-9.74a2.25,2.25,0,0,1-1.73-2.18v-.4A2.25,2.25,0,0,1,327.77,214.94Z" transform="translate(0.5 0.5)" style="fill:#fff;stroke:#231f20;stroke-miterlimit:10"/><path d="M327.77,222.68c8.5,2,34.09,8.25,41,9.92a2.26,2.26,0,0,1,1.71,2.18V235a2.26,2.26,0,0,1-2.77,2.19l-40.92-9.74a2.26,2.26,0,0,1-1.73-2.19v-.39A2.24,2.24,0,0,1,327.77,222.68Z" transform="translate(0.5 0.5)" style="fill:none;stroke:#231f20;stroke-miterlimit:10"/><path d="M327.77,230c8.5,2,34.09,8.25,41,9.93a2.24,2.24,0,0,1,1.71,2.18v.2a2.26,2.26,0,0,1-2.77,2.19l-40.92-9.74a2.25,2.25,0,0,1-1.73-2.18v-.4A2.24,2.24,0,0,1,327.77,230Z" transform="translate(0.5 0.5)" style="fill:#fff;stroke:#231f20;stroke-miterlimit:10"/><path d="M245.5,222.83s3.78-2.62,10.92-.75L321,239v-6.5l-59.67-15.17s-3.16-1.18-7.66.83a51.36,51.36,0,0,0-8.17,4.67" transform="translate(0.5 0.5)" style="fill:none;stroke:#231f20;stroke-miterlimit:10"/><path d="M311,479.48l-27,18.35s-6.17,4.17-10-2.08" transform="translate(0.5 0.5)" style="fill:none;stroke:#231f20;stroke-miterlimit:10"/><path d="M279.29,545.55c-2,.19-3.81.59-5.66-2.43" transform="translate(0.5 0.5)" style="fill:none;stroke:#231f20;stroke-miterlimit:10"/><path d="M290.24,540.41" transform="translate(0.5 0.5)" style="fill:none;stroke:#231f20;stroke-miterlimit:10"/><path d="M450.67,520.33l6.83-4.83L463.75,285s1.58-17-13.08-18.5l-71.42-19V228.38" transform="translate(0.5 0.5)" style="fill:none;stroke:#231f20;stroke-miterlimit:10"/><path d="M414.62,235.87l8.63-3.87V209.34l8-4.34s2.5-2.25,3-11.5a145.83,145.83,0,0,0,0-16.33s1.25-11.92-7.5-16.67l2.5-43.5s7.5-4.75,2.25-16.5c0,0-3.92-10.5-16.83-5.5" transform="translate(0.5 0.5)" style="fill:none;stroke:#231f20;stroke-miterlimit:10"/><path d="M281.59,95.77l2.19.76a1.32,1.32,0,0,1,.89,1.25v30.65a1.32,1.32,0,0,1-2,1.15l-2.19-1.2a1.35,1.35,0,0,1-.69-1.16V97A1.33,1.33,0,0,1,281.59,95.77Z" transform="translate(0.5 0.5)" style="fill:none;stroke:#231f20;stroke-miterlimit:10"/><path d="M414.54,124.6l2.19.75a1.33,1.33,0,0,1,.9,1.25v30.65a1.33,1.33,0,0,1-2,1.16l-2.18-1.21a1.3,1.3,0,0,1-.69-1.15v-30.2A1.32,1.32,0,0,1,414.54,124.6Z" transform="translate(0.5 0.5)" style="fill:#fff;stroke:#231f20;stroke-miterlimit:10"/><path d="M284.67,136.17s-8-6.5-11,4.66V158s.33,6,8.58,5.33Z" transform="translate(0.5 0.5)" style="fill:#fff;stroke:#231f20;stroke-miterlimit:10"/><path d="M411.17,164.67l4,29,8,.83s1.59-3,1.38-13.5S421.83,165,411.17,164.67Z" transform="translate(0.5 0.5)" style="fill:#fff;stroke:#231f20;stroke-miterlimit:10"/><path d="M346.72,280.1a10.09,10.09,0,0,1,10.89,5.77s1,2.57-.81,9.57l-10.33,5.83s-8.34,2.83-10.84-6c0,0-3-8.33,2-10.33Z" transform="translate(0.5 0.5)" style="fill:#fff;stroke:#231f20;stroke-miterlimit:10"/><path d="M266.74,338l-.24-85.5c-.5-9,6.33-7,6.33-7" transform="translate(0.5 0.5)" style="fill:none;stroke:#231f20;stroke-miterlimit:10"/><line x1="267.5" y1="426.24" x2="267.26" y2="342.92" style="fill:none;stroke:#231f20;stroke-miterlimit:10"/><polyline points="267.29 434.69 273.92 436.17 280.54 431.5 273.3 428.58" style="fill:none;stroke:#231f20;stroke-miterlimit:10"/><polyline points="281.5 439.38 280.54 431.5 273.76 436.5 274.5 443" style="fill:none;stroke:#231f20;stroke-miterlimit:10"/><polyline points="260.99 438.93 274.5 443 281.41 438.63" style="fill:none;stroke:#231f20;stroke-miterlimit:10"/><path d="M279.83,67.17l6.67-2.92s10-1.75,11.5,10.25S294.25,88,294.25,88l-.15,23.72" transform="translate(0.5 0.5)" style="fill:none;stroke:#231f20;stroke-miterlimit:10"/><path d="M302.16,106.18c6.92-3.7,13.35-3.37,20.9-2.37a408.85,408.85,0,0,1,52.18,10c14,3.76,30.2,8,35.76,23.16" transform="translate(0.5 0.5)" style="fill:none;stroke:#231f20;stroke-miterlimit:10"/><path d="M589,363.67l15.3-10s6.37-3.67,6.37-12.67l2.5-55.5s3.83-8.83-3.84-8.5L493,241l-23.67,10.33s-4.47,2.26-5.53,13.67l-.58,39.66" transform="translate(0.5 0.5)" style="fill:none;stroke:#231f20;stroke-miterlimit:10"/><polyline points="295.75 391.25 274.5 404.83 354 428 354 436.5 361 438.5 361 430.5 433.75 453.5" style="fill:none;stroke:#231f20;stroke-miterlimit:10"/><line x1="357.01" y1="351.84" x2="335.75" y2="367.06" style="fill:none;stroke:#231f20;stroke-miterlimit:10"/><polygon points="294 437.69 285.5 435.18 285.5 419.75 294 422.75 294 437.69" style="fill:#fff;stroke:#231f20;stroke-miterlimit:10"/><polygon points="362.63 455.62 354.13 453.46 354.13 440.13 362.63 442.72 362.63 455.62" style="fill:#fff;stroke:#231f20;stroke-miterlimit:10"/><line x1="477.04" y1="345.9" x2="480.7" y2="343.27" style="fill:none;stroke:#231f20;stroke-miterlimit:10"/><line x1="455.19" y1="361.66" x2="472.31" y2="349.32" style="fill:none;stroke:#231f20;stroke-miterlimit:10"/><line x1="432.17" y1="377.81" x2="436.78" y2="374.94" style="fill:none;stroke:#231f20;stroke-miterlimit:10"/><line x1="360.17" y1="430.18" x2="427.37" y2="381.72" style="fill:none;stroke:#231f20;stroke-miterlimit:10"/><path d="M435.28,390.41" transform="translate(0.5 0.5)" style="fill:none;stroke:#231f20;stroke-miterlimit:10"/><path d="M366.61,436.62" transform="translate(0.5 0.5)" style="fill:none;stroke:#231f20;stroke-miterlimit:10"/><path d="M436.28,391.41" transform="translate(0.5 0.5)" style="fill:none;stroke:#231f20;stroke-miterlimit:10"/><path d="M367.61,437.63" transform="translate(0.5 0.5)" style="fill:none;stroke:#231f20;stroke-miterlimit:10"/><path d="M440.35,395.48" transform="translate(0.5 0.5)" style="fill:none;stroke:#231f20;stroke-miterlimit:10"/><path d="M371.69,441.7" transform="translate(0.5 0.5)" style="fill:none;stroke:#231f20;stroke-miterlimit:10"/><line x1="477.15" y1="341.09" x2="485.54" y2="335.17" style="fill:none;stroke:#231f20;stroke-miterlimit:10"/><line x1="462.46" y1="351.46" x2="472.31" y2="344.51" style="fill:none;stroke:#231f20;stroke-miterlimit:10"/><line x1="429.21" y1="374.94" x2="436.48" y2="369.8" style="fill:none;stroke:#231f20;stroke-miterlimit:10"/><line x1="353.45" y1="428.42" x2="423.87" y2="378.7" style="fill:none;stroke:#231f20;stroke-miterlimit:10"/><polyline points="351.13 376.87 349.95 376.51 346.62 380.19 353.55 382.72 357.67 378.33 355.26 377.73" style="fill:none;stroke:#231f20;stroke-miterlimit:10"/><polyline points="360.1 415.46 358 378.33 353.55 382.72 354.58 420.5 360.1 415.46 354.58 420.5 347.95 418.33 347.69 411.02 347.66 409.96 346.62 380.19 353.55 382.72 354.59 420.28" style="fill:#fff;stroke:#231f20;stroke-miterlimit:10"/><line x1="347.64" y1="409.55" x2="347.66" y2="409.96" style="fill:none;stroke:#231f20;stroke-miterlimit:10"/><path d="M609.19,347.93c6.85,3.6,4.14,8.07,4.14,8.07a8.31,8.31,0,0,0-2.08,2.84A30.14,30.14,0,0,0,609,367L458.41,482l.31-10.67" transform="translate(0.5 0.5)" style="fill:none;stroke:#231f20;stroke-miterlimit:10"/><path d="M607.17,287.93c-2.87,2.9-2.87,55.39-2.87,55.39l-12.8,8.35.64-54.93Z" transform="translate(0.5 0.5)" style="fill:#fff;stroke:#231f20;stroke-miterlimit:10"/><polygon points="473.63 367 482.25 368.13 477.38 416.63 467.25 416.63 473.63 367" style="fill:#fff;stroke:#231f20;stroke-miterlimit:10"/><polyline points="487.22 390.31 485.88 407.07 492.5 409.75 497.88 407.07 500.63 368.13 495.63 370.88 489 368.13 487.22 390.31" style="fill:#fff;stroke:#231f20;stroke-miterlimit:10"/><line x1="495.63" y1="370.88" x2="494" y2="409.75" style="fill:none;stroke:#231f20;stroke-miterlimit:10"/><path d="M459.83,429.68" transform="translate(0.5 0.5)" style="fill:none;stroke:#231f20;stroke-miterlimit:10"/><path d="M230.25,466.35l-8.5-4.35L213,467.5s-2,1.58-1.5,8.17L196.25,504.5l1.39.87,4.86,3.06,15.25-31.68L223,474.5l7.25-4Z" transform="translate(0.5 0.5)" style="fill:#fff;stroke:#231f20;stroke-miterlimit:10"/><path d="M334.49,366.91c-3.94-6.91-15.34-22-42.24-28.41-35.5-8.5-68,22.75-68,22.75s-33.25,27.25-45,78.38,6.5,75.62,6.5,75.62,7.94,11.47,16.75-6.82" transform="translate(0.5 0.5)" style="fill:none;stroke:#231f20;stroke-miterlimit:10"/><path d="M197.64,505.37,193,512.88s-1.5,2.37-4.75-3.88-9.75-29.5-6.25-56,19.75-59.33,29.25-69.54,26-36,59.25-41.21c0,0,41-4.74,59.78,27.32" transform="translate(0.5 0.5)" style="fill:none;stroke:#231f20;stroke-miterlimit:10"/><polyline points="330.79 375.12 334.63 373.3 340.06 370.52 336.06 408.99 330.99 412.56 324.07 409.65 328.5 376.34" style="fill:#fff;stroke:#231f20;stroke-miterlimit:10"/><line x1="334.99" y1="372.98" x2="330.99" y2="412.56" style="fill:none;stroke:#231f20;stroke-miterlimit:10"/><path d="M339.63,370.5" transform="translate(0.5 0.5)" style="fill:none;stroke:#231f20;stroke-miterlimit:10"/><path d="M220.83,462l-1-1.17,22.84-10.33,3.9,1.69,5,1.91s2.24,5.57-5.59,7.9l-14,8.5h-1.75" transform="translate(0.5 0.5)" style="fill:#fff;stroke:#231f20;stroke-miterlimit:10"/><path d="M242.67,450.5c-.53-.14-.67-8,4.83-12.5l17.83-12.67s5.45-2.06,4.26,7.21l-13.95,9.21a16,16,0,0,1-4,12.35A65.3,65.3,0,0,0,242.67,450.5Z" transform="translate(0.5 0.5)" style="fill:#fff;stroke:#231f20;stroke-miterlimit:10"/><path d="M354.5,358.27c1.6-6.06,3.42-11.75,5.17-14.44" transform="translate(0.5 0.5)" style="fill:none;stroke:#231f20;stroke-miterlimit:10"/><path d="M359.68,362,354,379.29s-3.37,1.54-4.21.21c0,0,1.17-6.89,3.12-15.16" transform="translate(0.5 0.5)" style="fill:none;stroke:#231f20;stroke-miterlimit:10"/><line x1="364.83" y1="346" x2="361.83" y2="356.64" style="fill:none;stroke:#231f20;stroke-miterlimit:10"/><path d="M502.54,294.73c-5.86,3.27-13,8.85-22,13.6,0,0-13.73,8.67-17.28,20.34" transform="translate(0.5 0.5)" style="fill:none;stroke:#231f20;stroke-miterlimit:10"/><path d="M463.22,317.9s13.3-12.57,24.87-19.23c4.4-2.54,10.66-5.67,17.7-10.74" transform="translate(0.5 0.5)" style="fill:none;stroke:#231f20;stroke-miterlimit:10"/><line x1="467.25" y1="255" x2="488.45" y2="261.86" style="fill:none;stroke:#231f20;stroke-miterlimit:10"/><line x1="514" y1="270.13" x2="492.84" y2="263.28" style="fill:none;stroke:#231f20;stroke-miterlimit:10"/><line x1="522.82" y1="272.98" x2="519.65" y2="271.96" style="fill:none;stroke:#231f20;stroke-miterlimit:10"/><line x1="587.21" y1="291.5" x2="533" y2="276.28" style="fill:none;stroke:#231f20;stroke-miterlimit:10"/><line x1="542.14" y1="316.35" x2="524.03" y2="312.47" style="fill:none;stroke:#231f20;stroke-miterlimit:10"/><line x1="521.4" y1="335.59" x2="539.51" y2="339.47" style="fill:none;stroke:#231f20;stroke-miterlimit:10"/><path d="M584.1,335.57c-.6,5.25-2.94,9.29-5.22,9s-3.66-4.72-3.06-10c.45-3.94,1.88-7.19,3.53-8.47a2.32,2.32,0,0,1,1.69-.56C583.33,325.86,584.7,330.32,584.1,335.57Z" transform="translate(0.5 0.5)" style="fill:none;stroke:#231f20;stroke-miterlimit:10"/><path d="M542.55,336.91c-2.29-.26-3.66-4.72-3.06-10,.45-3.94,1.88-7.2,3.53-8.47a2.32,2.32,0,0,1,1.69-.56" transform="translate(0.5 0.5)" style="fill:none;stroke:#231f20;stroke-miterlimit:10"/><path d="M542.42,336.82c-1,1.47-2.23,2.28-3.41,2.15-2.78-.32-4.45-5.75-3.72-12.13.55-4.79,2.28-8.75,4.29-10.3a2.83,2.83,0,0,1,2.06-.69,3.07,3.07,0,0,1,2.14,1.51" transform="translate(0.5 0.5)" style="fill:none;stroke:#231f20;stroke-miterlimit:10"/><path d="M520.9,335.09c-2.79-.32-4.45-5.75-3.72-12.14.54-4.78,2.28-8.75,4.28-10.3a2.88,2.88,0,0,1,2.07-.68" transform="translate(0.5 0.5)" style="fill:none;stroke:#231f20;stroke-miterlimit:10"/><path d="M578.38,325.61" transform="translate(0.5 0.5)" style="fill:none;stroke:#231f20;stroke-miterlimit:10"/><path d="M543,317.9" transform="translate(0.5 0.5)" style="fill:none;stroke:#231f20;stroke-miterlimit:10"/><line x1="543.5" y1="337.45" x2="578.88" y2="345.17" style="fill:none;stroke:#231f20;stroke-miterlimit:10"/><line x1="542.14" y1="316.35" x2="524.03" y2="312.47" style="fill:none;stroke:#231f20;stroke-miterlimit:10"/><line x1="521.4" y1="335.59" x2="539.51" y2="339.47" style="fill:none;stroke:#231f20;stroke-miterlimit:10"/><path d="M584.1,335.57c-.6,5.25-2.94,9.29-5.22,9s-3.66-4.72-3.06-10c.45-3.94,1.88-7.19,3.53-8.47a2.32,2.32,0,0,1,1.69-.56C583.33,325.86,584.7,330.32,584.1,335.57Z" transform="translate(0.5 0.5)" style="fill:none;stroke:#231f20;stroke-miterlimit:10"/><path d="M542.55,336.91c-2.29-.26-3.66-4.72-3.06-10,.45-3.94,1.88-7.2,3.53-8.47.55-.42.74-.63,1.31-.56" transform="translate(0.5 0.5)" style="fill:none;stroke:#231f20;stroke-miterlimit:10"/><path d="M542.42,336.82c-1,1.47-2.23,2.28-3.41,2.15-2.78-.32-4.45-5.75-3.72-12.13.55-4.79,2.28-8.75,4.29-10.3a2.83,2.83,0,0,1,2.06-.69,2.58,2.58,0,0,1,2.35,2.26" transform="translate(0.5 0.5)" style="fill:none;stroke:#231f20;stroke-miterlimit:10"/><path d="M520.9,335.09c-2.79-.32-4.45-5.75-3.72-12.14.54-4.78,2.28-8.75,4.28-10.3a2.88,2.88,0,0,1,2.07-.68" transform="translate(0.5 0.5)" style="fill:none;stroke:#231f20;stroke-miterlimit:10"/><path d="M526.77,336.35c-1.95,4.08-4.6,4.75-7.14,4.46-4.42-.5-6.62-8.06-5.46-18.2.86-7.6,3.62-13.9,6.81-16.36a4.48,4.48,0,0,1,3.27-1.08c2.83.32,4.93,2.95,5.77,8.19" transform="translate(0.5 0.5)" style="fill:none;stroke:#231f20;stroke-miterlimit:10"/><path d="M510.08,346c-2.31-5.66-3.41-14.6-2.36-23.84,1.38-12.06,5.75-22.05,10.81-25.95a7.15,7.15,0,0,1,5.2-1.72c4.48.51,7.81,6.3,9.15,14.62V314" transform="translate(0.5 0.5)" style="fill:none;stroke:#231f20;stroke-miterlimit:10"/><line x1="543.5" y1="318.4" x2="581.54" y2="326.1" style="fill:#fff;stroke:#231f20;stroke-miterlimit:10"/><line x1="542.54" y1="337.3" x2="577.91" y2="345.02" style="fill:none;stroke:#231f20;stroke-miterlimit:10"/><polygon points="461.18 416.9 460.88 414.65 467.88 409.79 467.93 412.06 461.18 416.9" style="fill:none;stroke:#231f20;stroke-miterlimit:10;opacity:0.5"/><polygon points="478.79 404.15 478.62 401.95 486.44 396.35 486.32 398.87 478.79 404.15" style="fill:none;stroke:#231f20;stroke-miterlimit:10;opacity:0.5"/><polygon points="498.83 389.81 498.85 387.46 556.25 346.35 557.41 347.98 498.83 389.81" style="fill:none;stroke:#231f20;stroke-miterlimit:10;opacity:0.5"/><line x1="327.23" y1="388.88" x2="302.73" y2="404.68" style="fill:none;stroke:#231f20;stroke-miterlimit:10;opacity:0.5"/><line x1="351.63" y1="373.16" x2="340.13" y2="380.57" style="fill:none;stroke:#231f20;stroke-miterlimit:10;opacity:0.5"/><line x1="369.58" y1="361.03" x2="358.48" y2="368.55" style="fill:none;stroke:#231f20;stroke-miterlimit:10;opacity:0.5"/><line x1="426.52" y1="322.44" x2="378.68" y2="354.86" style="fill:none;stroke:#231f20;stroke-miterlimit:10;opacity:0.5"/><line x1="437.48" y1="314.91" x2="431.5" y2="319.63" style="fill:none;stroke:#231f20;stroke-miterlimit:10;opacity:0.5"/><line x1="274.5" y1="404.83" x2="274.5" y2="419.25" style="fill:none;stroke:#231f20;stroke-miterlimit:10"/><path d="M433.25,475c-.58-.17-8.92-3-8.92-3l-6,5.67" transform="translate(0.5 0.5)" style="fill:none;stroke:#231f20;stroke-miterlimit:10"/><path d="M634.5,339.5s-9.35-.36-15,7.17c0,0-16,21.25-18.5,47.91s5.39,35.36,8.69,37.47" transform="translate(0.5 0.5)" style="fill:#fff;stroke:#231f20;stroke-miterlimit:10"/><polyline points="477.02 340.75 476.56 358.98 472 359.97 472 320.44 474.77 320.44 477.54 320.44 477.02 340.75" style="fill:#fff;stroke:#231f20;stroke-miterlimit:10"/><line x1="477.15" y1="311" x2="474.77" y2="320.44" style="fill:none;stroke:#231f20;stroke-miterlimit:10"/><line x1="482.14" y1="308.17" x2="477.53" y2="320.44" style="fill:none;stroke:#231f20;stroke-miterlimit:10"/><path d="M478.22,305.31s19.72-52.81,5.12-92.81l5.75,2.38s8.54,43.92-4.34,85.33" transform="translate(0.5 0.5)" style="fill:#fff;stroke:#231f20;stroke-miterlimit:10"/><line x1="280.85" y1="434" x2="340.13" y2="453.5" style="fill:none;stroke:#231f20;stroke-miterlimit:10"/><line x1="354.13" y1="456.54" x2="418.83" y2="478.17" style="fill:none;stroke:#231f20;stroke-miterlimit:10"/><path d="M584.21,344.61l1.54-46.11s-1-7.14,3.25-10.57L609.33,277" transform="translate(0.5 0.5)" style="fill:none;stroke:#231f20;stroke-miterlimit:10"/><polyline points="311.34 351.84 313.18 378.33 313.5 386.07 313.5 390.33 310 394.22 304.01 393.15 301.59 385.81 299 345.51" style="fill:none;stroke:#231f20;stroke-miterlimit:10"/><path d="M498.12,398.14" transform="translate(0.5 0.5)" style="fill:none;stroke:#231f20;stroke-miterlimit:10;opacity:0.5"/><polyline points="492.55 410.14 461.44 432.34 461.1 426.75 487.07 407.93" style="fill:none;stroke:#231f20;stroke-miterlimit:10;opacity:0.5"/><line x1="497.98" y1="405.52" x2="492.23" y2="409.64" style="fill:none;stroke:#231f20;stroke-miterlimit:10;opacity:0.5"/><polyline points="498.78 399.44 565.2 351.29 572.29 353.24 498.16 406.13" style="fill:none;stroke:#231f20;stroke-miterlimit:10;opacity:0.5"/><polygon points="296.26 402.81 297.75 399.81 304.01 393.15 309.19 394.38 296.26 402.81" style="fill:none;stroke:#231f20;stroke-miterlimit:10;opacity:0.5"/><path d="M304.4,394.25" transform="translate(0.5 0.5)" style="fill:none;stroke:#231f20;stroke-miterlimit:10;opacity:0.5"/><polygon points="312.51 392.17 313.5 385.55 328.5 376.34 328.07 382.43 312.51 392.17" style="fill:none;stroke:#231f20;stroke-miterlimit:10;opacity:0.5"/><polygon points="339.98 374.86 340.06 370.52 352.82 365.08 352.84 366.42 339.98 374.86" style="fill:none;stroke:#231f20;stroke-miterlimit:10;opacity:0.5"/><polygon points="370.32 355.07 362.94 355.94 374 348.36 378.93 349.84 370.32 355.07" style="fill:none;stroke:#231f20;stroke-miterlimit:10;opacity:0.5"/><polygon points="392.59 341.19 394.13 335.17 430.67 310.71 437.81 312.13 392.59 341.19" style="fill:none;stroke:#231f20;stroke-miterlimit:10;opacity:0.5"/><line x1="576.18" y1="353.44" x2="460.11" y2="438.13" style="fill:none;stroke:#231f20;stroke-miterlimit:10;opacity:0.5"/><path d="M274,416.25" transform="translate(0.5 0.5)" style="fill:none;stroke:#231f20;stroke-miterlimit:10"/><path d="M436.64,312.05" transform="translate(0.5 0.5)" style="fill:none;stroke:#231f20;stroke-miterlimit:10"/><path d="M382.39,299.25" transform="translate(0.5 0.5)" style="fill:none;stroke:#231f20;stroke-miterlimit:10"/><path d="M604.3,350.14" transform="translate(0.5 0.5)" style="fill:none;stroke:#231f20;stroke-miterlimit:10"/><polygon points="311.35 404.69 317.79 400.49 325.5 403.67 319.39 407.67 311.35 404.69" style="fill:none;stroke:#231f20;stroke-miterlimit:10"/><polygon points="334.94 413.44 340.27 409.96 346.65 412.59 341.59 415.9 334.94 413.44" style="fill:none;stroke:#231f20;stroke-miterlimit:10"/><polyline points="325.5 400.88 321.02 399.23 326.06 395.94" style="fill:none;stroke:#231f20;stroke-miterlimit:10"/><polyline points="337.1 400 343.48 402.63 338.42 405.93 336.45 405.2" style="fill:none;stroke:#231f20;stroke-miterlimit:10"/><polyline points="360.05 410.02 361.52 409.07 367.9 411.7 362.83 415 360.28 414.06" style="fill:none;stroke:#231f20;stroke-miterlimit:10"/><polyline points="338.11 391.54 341.47 392.92 337.63 395.43" style="fill:none;stroke:#231f20;stroke-miterlimit:10"/><polyline points="347.15 400.48 340.5 398.02 345.83 394.54 346.94 395" style="fill:none;stroke:#231f20;stroke-miterlimit:10"/><polyline points="347.64 409.55 343.83 408.29 347.51 405.88" style="fill:none;stroke:#231f20;stroke-miterlimit:10"/><polyline points="359.42 399.87 363.86 401.7 359.48 404.56" style="fill:none;stroke:#231f20;stroke-miterlimit:10"/><polygon points="364.91 407.09 370.25 403.61 376.63 406.24 371.57 409.55 364.91 407.09" style="fill:none;stroke:#231f20;stroke-miterlimit:10"/><polyline points="346.95 389.8 346.05 390.39 338.01 387.42 344.45 383.22 346.76 384.17" style="fill:none;stroke:#231f20;stroke-miterlimit:10"/><polyline points="358.9 389.64 361.67 390.78 358.95 392.56" style="fill:none;stroke:#231f20;stroke-miterlimit:10"/><polygon points="361.6 396.16 366.93 392.69 373.31 395.31 368.25 398.62 361.6 396.16" style="fill:none;stroke:#231f20;stroke-miterlimit:10"/><polygon points="374.37 400.7 379.7 397.22 386.08 399.85 381.02 403.16 374.37 400.7" style="fill:none;stroke:#231f20;stroke-miterlimit:10"/><polygon points="358.43 386.2 363.77 382.72 370.15 385.35 365.09 388.66 358.43 386.2" style="fill:none;stroke:#231f20;stroke-miterlimit:10"/><polygon points="370.08 390.73 375.41 387.25 381.79 389.88 376.73 393.19 370.08 390.73" style="fill:none;stroke:#231f20;stroke-miterlimit:10"/><polygon points="382.85 395.27 388.18 391.79 394.56 394.42 389.5 397.73 382.85 395.27" style="fill:none;stroke:#231f20;stroke-miterlimit:10"/><polygon points="356.42 376.49 361.75 373.02 368.13 375.65 363.07 378.95 356.42 376.49" style="fill:none;stroke:#231f20;stroke-miterlimit:10"/><polygon points="367.16 380.74 372.5 377.26 378.88 379.89 373.82 383.2 367.16 380.74" style="fill:none;stroke:#231f20;stroke-miterlimit:10"/><polygon points="378.81 385.27 384.14 381.8 390.52 384.43 385.46 387.73 378.81 385.27" style="fill:none;stroke:#231f20;stroke-miterlimit:10"/><polygon points="391.58 389.81 396.91 386.33 403.29 388.96 398.23 392.27 391.58 389.81" style="fill:none;stroke:#231f20;stroke-miterlimit:10"/><polygon points="363.86 370.33 370.3 366.13 378.01 369.31 371.9 373.3 363.86 370.33" style="fill:none;stroke:#231f20;stroke-miterlimit:10"/><polygon points="375.8 374.54 381.13 371.06 387.52 373.69 382.45 377 375.8 374.54" style="fill:none;stroke:#231f20;stroke-miterlimit:10"/><polygon points="387.45 379.07 392.78 375.6 399.16 378.23 394.1 381.53 387.45 379.07" style="fill:none;stroke:#231f20;stroke-miterlimit:10"/><polygon points="400.21 383.61 405.55 380.13 411.93 382.76 406.87 386.07 400.21 383.61" style="fill:none;stroke:#231f20;stroke-miterlimit:10"/><polygon points="373.54 364.86 378.87 361.38 385.25 364.01 380.19 367.32 373.54 364.86" style="fill:none;stroke:#231f20;stroke-miterlimit:10"/><polygon points="384.28 369.11 389.62 365.63 396 368.26 390.94 371.57 384.28 369.11" style="fill:none;stroke:#231f20;stroke-miterlimit:10"/><polygon points="395.93 373.64 401.26 370.17 407.64 372.8 402.58 376.1 395.93 373.64" style="fill:none;stroke:#231f20;stroke-miterlimit:10"/><polygon points="408.69 378.18 414.03 374.7 420.41 377.33 415.35 380.64 408.69 378.18" style="fill:none;stroke:#231f20;stroke-miterlimit:10"/><polyline points="390.61 360.76 388.92 361.87 384.36 360.18" style="fill:none;stroke:#231f20;stroke-miterlimit:10"/><polyline points="402.17 364.48 399.67 366.11 393.01 363.65 395.51 362.02" style="fill:none;stroke:#231f20;stroke-miterlimit:10"/><polyline points="412.61 369.8 411.31 370.64 404.66 368.19 406.99 366.67" style="fill:none;stroke:#231f20;stroke-miterlimit:10"/><polyline points="422.76 369.25 429.14 371.88 427.02 373.26" style="fill:none;stroke:#231f20;stroke-miterlimit:10"/><polygon points="389.44 353.42 395.88 349.22 403.59 352.4 397.48 356.39 389.44 353.42" style="fill:none;stroke:#231f20;stroke-miterlimit:10"/><polygon points="401.38 357.63 406.71 354.16 413.1 356.79 408.04 360.09 401.38 357.63" style="fill:none;stroke:#231f20;stroke-miterlimit:10"/><polygon points="413.03 362.17 418.36 358.69 424.74 361.32 419.68 364.63 413.03 362.17" style="fill:none;stroke:#231f20;stroke-miterlimit:10"/><polygon points="425.8 366.7 431.13 363.23 437.51 365.86 432.45 369.16 425.8 366.7" style="fill:none;stroke:#231f20;stroke-miterlimit:10"/><polygon points="399.12 347.95 404.45 344.48 410.83 347.11 405.77 350.42 399.12 347.95" style="fill:none;stroke:#231f20;stroke-miterlimit:10"/><polygon points="409.86 352.2 415.2 348.73 421.58 351.36 416.51 354.66 409.86 352.2" style="fill:none;stroke:#231f20;stroke-miterlimit:10"/><polygon points="421.51 356.74 426.84 353.26 433.22 355.89 428.16 359.19 421.51 356.74" style="fill:none;stroke:#231f20;stroke-miterlimit:10"/><polyline points="437.22 362.36 434.27 361.27 437.38 359.25" style="fill:none;stroke:#231f20;stroke-miterlimit:10"/><polygon points="407.85 342.5 413.18 339.02 419.56 341.65 414.5 344.96 407.85 342.5" style="fill:none;stroke:#231f20;stroke-miterlimit:10"/><polygon points="417.23 336.19 422.56 332.72 428.94 335.35 423.88 338.65 417.23 336.19" style="fill:none;stroke:#231f20;stroke-miterlimit:10"/><polygon points="425.64 330.71 430.98 327.23 437.36 329.86 432.3 333.17 425.64 330.71" style="fill:none;stroke:#231f20;stroke-miterlimit:10"/><polygon points="418.59 346.75 423.93 343.27 430.31 345.9 425.25 349.2 418.59 346.75" style="fill:none;stroke:#231f20;stroke-miterlimit:10"/><polygon points="425.64 340.1 430.98 336.62 437.36 339.25 432.3 342.56 425.64 340.1" style="fill:none;stroke:#231f20;stroke-miterlimit:10"/><polyline points="437.97 353.03 436.89 353.74 430.24 351.28 435.57 347.8 437.82 348.73" style="fill:none;stroke:#231f20;stroke-miterlimit:10"/><polyline points="482.24 367.01 484.42 367.75 482.27 369.35" style="fill:none;stroke:#231f20;stroke-miterlimit:10;opacity:0.1"/><polygon points="377.09 426.92 382.2 423.11 388.73 425.34 383.89 428.95 377.09 426.92" style="fill:none;stroke:#231f20;stroke-miterlimit:10"/><polygon points="388.08 430.48 393.19 426.68 399.72 428.9 394.88 432.52 388.08 430.48" style="fill:none;stroke:#231f20;stroke-miterlimit:10"/><polygon points="399.99 434.28 405.09 430.47 411.63 432.7 406.78 436.32 399.99 434.28" style="fill:none;stroke:#231f20;stroke-miterlimit:10"/><polygon points="413.01 438.01 418.12 434.2 424.65 436.43 419.81 440.05 413.01 438.01" style="fill:none;stroke:#231f20;stroke-miterlimit:10"/><polygon points="386.13 421.31 391.23 417.5 397.77 419.73 392.92 423.34 386.13 421.31" style="fill:none;stroke:#231f20;stroke-miterlimit:10"/><polygon points="397.12 424.87 402.22 421.07 408.76 423.29 403.91 426.91 397.12 424.87" style="fill:none;stroke:#231f20;stroke-miterlimit:10"/><polygon points="408.76 428.67 413.86 424.86 420.39 427.09 415.55 430.7 408.76 428.67" style="fill:none;stroke:#231f20;stroke-miterlimit:10"/><polygon points="420.16 432.53 425.27 428.72 431.8 430.95 426.96 434.56 420.16 432.53" style="fill:none;stroke:#231f20;stroke-miterlimit:10"/><polyline points="435.63 427.46 433.94 428.72 427.14 426.68 432.25 422.88 435.35 423.94" style="fill:none;stroke:#231f20;stroke-miterlimit:10"/><polygon points="394.95 414.75 400.06 410.95 406.59 413.17 401.74 416.79 394.95 414.75" style="fill:none;stroke:#231f20;stroke-miterlimit:10"/><polygon points="405.94 418.32 411.05 414.52 417.58 416.74 412.73 420.36 405.94 418.32" style="fill:none;stroke:#231f20;stroke-miterlimit:10"/><polygon points="417.85 422.12 422.95 418.31 429.49 420.54 424.64 424.15 417.85 422.12" style="fill:none;stroke:#231f20;stroke-miterlimit:10"/><polygon points="418.99 397 424.09 393.2 430.62 395.42 425.78 399.04 418.99 397" style="fill:none;stroke:#231f20;stroke-miterlimit:10"/><polyline points="436.32 402.47 429.97 400.57 435.08 396.76 436.5 397.25" style="fill:none;stroke:#231f20;stroke-miterlimit:10"/><polyline points="461.1 404.66 466.54 406.51 461.7 410.13 460.89 409.89" style="fill:none;stroke:#231f20;stroke-miterlimit:10"/><polyline points="436.48 392.18 434.81 393.43 428.02 391.39 432.7 387.9" style="fill:none;stroke:#231f20;stroke-miterlimit:10"/><polyline points="468.85 404.65 462.05 402.61 467.16 398.81 469.44 399.58" style="fill:none;stroke:#231f20;stroke-miterlimit:10"/><polyline points="470.51 391.27 466.53 394.24 461.71 392.79" style="fill:none;stroke:#231f20;stroke-miterlimit:10"/><polyline points="461.53 390.86 464.84 388.4 470.63 390.37" style="fill:none;stroke:#231f20;stroke-miterlimit:10"/><polyline points="479.86 392.64 482.51 393.54 479.51 395.79" style="fill:none;stroke:#231f20;stroke-miterlimit:10"/><polyline points="462.1 378.4 466.56 379.92 461.71 383.53" style="fill:none;stroke:#231f20;stroke-miterlimit:10"/><polyline points="471.1 386.57 466.83 385.29 471.75 381.63" style="fill:none;stroke:#231f20;stroke-miterlimit:10"/><polyline points="487.31 390.57 486.65 391.06 479.85 389.02 484.96 385.21 487.56 386.1" style="fill:none;stroke:#231f20;stroke-miterlimit:10"/><polyline points="461.96 369.84 464.61 370.74 461.88 372.77" style="fill:none;stroke:#231f20;stroke-miterlimit:10"/><polyline points="472.49 376.62 470.75 377.92 463.96 375.88 469.06 372.08 472.6 373.28" style="fill:none;stroke:#231f20;stroke-miterlimit:10"/><polyline points="481.41 376.12 487.23 378.1 481.17 382.92" style="fill:none;stroke:#231f20;stroke-miterlimit:10"/><polyline points="462.59 365.17 466.89 361.96 473.43 364.19 468.58 367.8 462.73 366.05" style="fill:none;stroke:#231f20;stroke-miterlimit:10"/><polyline points="488.51 374.27 484.69 373.13 488.7 370.14" style="fill:none;stroke:#231f20;stroke-miterlimit:10"/><polyline points="500.03 372.91 500.93 372.25 507.46 374.47 502.62 378.09 500.22 377.37" style="fill:none;stroke:#231f20;stroke-miterlimit:10"/><polygon points="503.39 368.64 509.12 365.59 515.66 367.82 510.81 371.43 503.39 368.64" style="fill:none;stroke:#231f20;stroke-miterlimit:10"/><polygon points="513.11 362.84 518.93 359.28 525.43 361.5 519.9 364.88 513.11 362.84" style="fill:none;stroke:#231f20;stroke-miterlimit:10"/><polygon points="523.14 356.54 529.48 353.16 535.63 355.25 529.93 358.58 523.14 356.54" style="fill:none;stroke:#231f20;stroke-miterlimit:10"/><polygon points="403.99 409.14 409.09 405.34 415.62 407.56 410.78 411.18 403.99 409.14" style="fill:none;stroke:#231f20;stroke-miterlimit:10"/><polygon points="414.98 412.71 420.08 408.91 426.61 411.13 421.77 414.75 414.98 412.71" style="fill:none;stroke:#231f20;stroke-miterlimit:10"/><polyline points="435.86 416.71 433.41 418.54 426.61 416.5 431.72 412.7 435.75 414.07" style="fill:none;stroke:#231f20;stroke-miterlimit:10"/><polygon points="412.07 402.27 417.17 398.47 423.71 400.69 418.86 404.31 412.07 402.27" style="fill:none;stroke:#231f20;stroke-miterlimit:10"/><polygon points="423.06 405.84 428.16 402.03 434.7 404.26 429.85 407.88 423.06 405.84" style="fill:none;stroke:#231f20;stroke-miterlimit:10"/><path d="M463.8,265s-10-17.17,8.5-15" transform="translate(0.5 0.5)" style="fill:none;stroke:#231f20;stroke-miterlimit:10"/><path d="M432.67,491a107.54,107.54,0,0,1-47.7-3.25" transform="translate(0.5 0.5)" style="fill:none;stroke:#231f20;stroke-miterlimit:10"/><ellipse cx="363.18" cy="541.83" rx="58.16" ry="30.91" transform="translate(-282.45 631.76) rotate(-64.05)" style="fill:#fff;stroke:#231f20;stroke-miterlimit:10"/><path d="M686.48,354.73l-44.6-14.89C632,336.73,617.4,355,609.37,380.62s-6.29,50.44,3.63,53.55l44.39,13.37" transform="translate(0.5 0.5)" style="fill:#fff;stroke:#231f20;stroke-miterlimit:10"/><ellipse cx="672.67" cy="401.38" rx="48.74" ry="18.5" transform="translate(71.85 903.87) rotate(-70.68)" style="fill:#fff;stroke:#231f20;stroke-miterlimit:10"/><line x1="243.92" y1="531.13" x2="253.74" y2="532.73" style="fill:none;stroke:#231f20;stroke-miterlimit:10"/><polyline points="502.21 350.64 499.32 350.03 507.46 345.72" style="fill:none;stroke:#231f20;stroke-miterlimit:10"/><line x1="500.63" y1="344.93" x2="510.31" y2="346.05" style="fill:none;stroke:#231f20;stroke-miterlimit:10"/><polyline points="499.65 350.64 500.63 365.63 502.88 368.64" style="fill:none;stroke:#231f20;stroke-miterlimit:10"/><path d="M208.93,495.06c-3.9,13.69,2.9,24.31,15.24,29.94" transform="translate(0.5 0.5)" style="fill:none;stroke:#231f20;stroke-miterlimit:10"/><path d="M485.38,306s-5.13,9.22-.88,24.81" transform="translate(0.5 0.5)" style="fill:none;stroke:#231f20;stroke-miterlimit:10"/><polyline points="494 409.75 495.63 370.88 489 368.13 493.09 364.17 497.7 364.17 500.63 368.13" style="fill:none;stroke:#231f20;stroke-miterlimit:10"/><path d="M496.08,344.43l-4.21-.31s-1.09-.29-3.37-5" transform="translate(0.5 0.5)" style="fill:none;stroke:#231f20;stroke-miterlimit:10"/><line x1="524.23" y1="294.95" x2="518.61" y2="294.95" style="fill:none;stroke:#231f20;stroke-miterlimit:10"/><line x1="513.74" y1="294.24" x2="510.7" y2="294.24" style="fill:none;stroke:#231f20;stroke-miterlimit:10"/><path d="M296.67,252s-6.29,12.92-2.1,43.08,6.52,46,6.52,46" transform="translate(0.5 0.5)" style="fill:none;stroke:#231f20;stroke-miterlimit:10"/><path d="M306.75,342.42s-6.75-30.57-8.25-45.87-2.73-27.91,0-32.05" transform="translate(0.5 0.5)" style="fill:none;stroke:#231f20;stroke-miterlimit:10"/><path d="M419.71,435.1" transform="translate(0.5 0.5)" style="fill:none;stroke:#231f20;stroke-miterlimit:10"/><path d="M423.52,432" transform="translate(0.5 0.5)" style="fill:none;stroke:#231f20;stroke-miterlimit:10"/><path d="M425.56,443c-.14.28-3.25,4.37-3.25,4.37" transform="translate(0.5 0.5)" style="fill:none;stroke:#231f20;stroke-miterlimit:10"/><line x1="421.81" y1="444.78" x2="427.05" y2="446.78" style="fill:none;stroke:#231f20;stroke-miterlimit:10"/><line x1="298.86" y1="406.44" x2="304.33" y2="407.7" style="fill:none;stroke:#231f20;stroke-miterlimit:10"/><line x1="428.83" y1="439.31" x2="434.75" y2="434.94" style="fill:none;stroke:#231f20;stroke-miterlimit:10;opacity:0.5"/><polygon points="570.5 316.35 566.67 348.98 574 351.13 578.88 315.67 574.17 316.05 570.5 316.35" style="fill:none;stroke:#231f20;stroke-miterlimit:10"/><path d="M572.27,315.67s2.15-22.34,6.11-36.17,15.29-47.52,17-61.34S606.81,170,584.24,146s-51.74-28.33-51.74-28.33S493.67,102,468,120.07c0,0-21.19,11.17-14.93,36.22s14.78,61.2,13.68,80.71v12.5l-3.53,1.83s1.53-25.08-2-44.83-9.33-49.75-9.33-49.75-8.35-19.7,4.74-32.23S479.32,104,517,109.75s64.22,27.75,69,33,21.25,25.5,15,62.5-25.9,93.39-25.32,110.14" transform="translate(0.5 0.5)" style="fill:#fff;stroke:#231f20;stroke-miterlimit:10"/><path d="M257.66,457.15,224.5,476.67s-6,2.5-7.83,21.16c0,0,10.16,2.34,4.5,6.5v5.34l2.16,4.5-5.66-3a17.06,17.06,0,0,0,6.5,13.83l20.16,5.9s1.84-24.57,9.3-43.08c0,0,7.87-20,16.54-26Z" transform="translate(0.5 0.5)" style="fill:#fff;stroke:#231f20;stroke-miterlimit:10"/><line x1="225" y1="477.17" x2="253.38" y2="488.5" style="fill:none;stroke:#231f20;stroke-miterlimit:10"/><line x1="589.5" y1="347.17" x2="459.98" y2="443" style="fill:none;stroke:#231f20;stroke-miterlimit:10"/><line x1="395.46" y1="327.57" x2="439" y2="299.75" style="fill:none;stroke:#231f20;stroke-miterlimit:10"/><path d="M388.64,489.54,344.47,468c-15.35-7.47-39.53,10.59-54,40.34S276.68,568.3,292,575.77l49.48,19.67" transform="translate(0.5 0.5)" style="fill:none;stroke:#231f20;stroke-miterlimit:10"/><path d="M352.5,453.25,321,466.35c1.64-8.09-6.84-14.52-13.95-15.39-17.05-2.08-31.65,12.86-39.77,26.15-8.39,13.73-12.89,29.87-14,45.87-.55,7.82-.74,12.52,2.83,19.45L274,543.69s-10.25-6.94,0-47.94l47-29.4,4.6,2.77s10-4.66,18.87-1.08l9.16-4.54V453Z" transform="translate(0.5 0.5)" style="fill:#fff;stroke:#231f20;stroke-miterlimit:10"/><polyline points="581.54 344.68 589.5 347.17 589.5 374.86 575.17 384.83 575.17 388.17 568.17 394.02 563.5 392.17 477.83 457.5 477.83 461.83 470.5 466.86 466.5 465.5 459.22 471.16" style="fill:none;stroke:#231f20;stroke-miterlimit:10"/><line x1="463.72" y1="306.14" x2="474.12" y2="309.39" style="fill:none;stroke:#231f20;stroke-miterlimit:10"/><path d="M259.71,339.92,259.5,255s-.67-12,13.33-9.5l23.84,6.5,13.83,77,30.5,8.4" transform="translate(0.5 0.5)" style="fill:none;stroke:#231f20;stroke-miterlimit:10"/><line x1="260.43" y1="429.67" x2="260.22" y2="345.31" style="fill:none;stroke:#231f20;stroke-miterlimit:10"/><polyline points="252.39 454.72 260.5 458 260.45 439.3" style="fill:none;stroke:#231f20;stroke-miterlimit:10"/><path d="M242.15,354c.18,48,.48,91.32.52,96.5" transform="translate(0.5 0.5)" style="fill:none;stroke:#231f20;stroke-miterlimit:10"/><path d="M370.74,346.13l10.76,3,17.17-69.67,34.66,9.17s7.67-.34,4.34,19.66l-4,174-15.34-4.66-1,8.66L432.67,491l-1,12.67H416.33c.67,0,.67,6,.67,6l33.67,10.66L456,298s3.33-24.33-10.67-26l-72-20,1.34-24.67,38,8.67s4.66,1,4-5l.33-19s14.33.33,12-27c0,0,0-21-9.67-21.67l1.67-42s6.33-4.33,5.67-13.66-8.34-12-12-12.67S401.5,105.33,411,119.67V157s-2.67-28-20.5-32.33L349.75,115l-46.08-9s-10-.67-17.17,20.17V91.33s6-3,5.5-11.66c0,0,.5-13.17-12.17-12.5,0,0-7.83,1.33-7.5,10.83,0,0-1.16,4.33,4.84,12.67V130.5s-7,1.67-6.5,17.33v14.5s0,12.84,10.67,15V201.5s-.84,1.67,6.33,3.67l33.33,8V239l-66.17-17.33s-10.66-3.34-12.16,6.66c-.78,5.19-.74,63-.53,119.25" transform="translate(0.5 0.5)" style="fill:none;stroke:#231f20;stroke-miterlimit:10"/><path d="M379.25,228.38" transform="translate(0.5 0.5)" style="fill:none;stroke:#231f20;stroke-miterlimit:10"/><path d="M398.38,501.11s22.95,3.89,33.29,2.56" transform="translate(0.5 0.5)" style="fill:none;stroke:#231f20;stroke-miterlimit:10"/><polygon points="382 349.67 391 346.13 405.75 282.75 399.17 280 382 349.67" style="fill:none;stroke:#231f20;stroke-miterlimit:10"/><polyline points="321.39 462.33 344 451.6 354.13 453.46" style="fill:none;stroke:#231f20;stroke-miterlimit:10"/><path d="M432.44,321.94c2.17,3.12,3.54,5.13,3.54,5.13v12.64c-3.51-14-32.77-48.71-32.77-48.71l2-4C408.53,288.05,425.07,311.37,432.44,321.94Z" transform="translate(0.5 0.5)" style="fill:none;stroke:#231f20;stroke-miterlimit:10"/><path d="M510.67,308.89c-1.74,4.68-6.15,19.6-7.49,24.4-3.09,11.09-5.65,22.82-6.27,34.31v0l-4.34-1.24c-.33-.09,2.38-16,2.56-16.88,3-15.73,3.69-20.86,7.41-33.86,5-17.44,12.38-24.72,23.3-38.78,9.07-11.66,22.14-32.08,26.33-46.39,6.4-21.85-2-48.87-18.15-64.75-27.69-27.25-69.18-29-105.52-28.75v-5c45.83-.83,86.83,6.17,111.5,32.67,29.6,31.8,21,78.08-7.78,109.74-6.28,6.91-13.54,18.7-18,26.74" transform="translate(0.5 0.5)" style="fill:#fff;stroke:#231f20;stroke-miterlimit:10"/><path d="M492.33,262.78S518,193.24,517,138.12c0,0-1.82-57.79-37.66-60,0,0-19.35-8.42-50.54,18.46l3.94,7.29s29.45-38.53,55.35-16,23.81,65.63,19.2,96.89-15,66.5-15,66.5Z" transform="translate(0.5 0.5)" style="fill:#fff;stroke:#231f20;stroke-miterlimit:10"/><path d="M511.58,291c22.73-16.71,22.09-34.67,22.09-34.67.66-15.33.66-19-20.67-54.66S441.42,137,441.42,137l-13.33.2c36,13,62.58,44.76,62.58,44.76s36,43.66,37.66,69.33c.71,10.86-4.31,19.81-11.22,27Z" transform="translate(0.5 0.5)" style="fill:#fff;stroke:#231f20;stroke-miterlimit:10"/><path d="M481.75,208.33" transform="translate(0.5 0.5)" style="fill:none;stroke:#231f20;stroke-miterlimit:10"/><path d="M481.75,206.5s-18.92-41.59-53.91-63.87v-3c37,18.91,57.74,67.41,57.74,67.41l-3.83-.58Z" transform="translate(0.5 0.5)" style="fill:#fff;stroke:#231f20;stroke-miterlimit:10"/><path d="M481,367.53s7.51-36.78,19.14-56,23.87-41.58,20.12-60.17-6.25-35.58-38.5-44.83V212s24.5,6.5,31,29S511,276.75,511,276.75s-13.25,29-21.25,43S474.5,360,475.25,366.5Z" transform="translate(0.5 0.5)" style="fill:#fff;stroke:#231f20;stroke-miterlimit:10"/><path d="M481.75,206.5s-22,3.73-39,16.11c0,0-23.33,12.64-27.54,18.39l-17.46,11.5,7.75,2s59.05-43,76.25-42.5Z" transform="translate(0.5 0.5)" style="fill:#fff;stroke:#231f20;stroke-miterlimit:10"/><polygon points="422.76 370.17 416.5 370.17 416.5 330.2 419.56 330.2 422.76 330.2 422.76 370.17" style="fill:none;stroke:#231f20;stroke-miterlimit:10"/><path d="M411.85,301.7s10.17,19.8,9.16,27l-5,1s4.95-2.48-9.94-35.25Z" transform="translate(0.5 0.5)" style="fill:none;stroke:#231f20;stroke-miterlimit:10"/><polygon points="384.28 366.67 390.61 370.17 396.5 366.67 399.12 332.72 394.56 331.31 391.89 347.17 385.25 348.73 384.28 366.67" style="fill:none;stroke:#231f20;stroke-miterlimit:10"/><polygon points="397.29 373.46 397.29 373.46 403.29 376.37 406.56 372.35 409.86 325.95 406.07 329.17 402.6 325.95 397.29 373.46" style="fill:none;stroke:#231f20;stroke-miterlimit:10"/><path d="M402.77,295.08s6.38,25.81,4.68,32l-1.88,1.6L403.88,326s-.25-16.2-2.94-25.23Z" transform="translate(0.5 0.5)" style="fill:none;stroke:#231f20;stroke-miterlimit:10"/><line x1="406.07" y1="329.17" x2="403.29" y2="377.26" style="fill:none;stroke:#231f20;stroke-miterlimit:10"/><line x1="495.63" y1="370.88" x2="501.26" y2="368.03" style="fill:none;stroke:#231f20;stroke-miterlimit:10"/><path d="M435,392.79a44.29,44.29,0,0,0-3.25-5.15c-7.83-10.51-32.44-37.1-73.87-25.14a224,224,0,0,0-27.59,12.12c-11.21,5.87-23.36,13.62-31.29,22.63,0,0-20.08,26-28.6,33l-2.95-4.32S278,415.25,280,411.63s17.71-28,38.34-36.63c1.1-.46,2.2-.94,3.3-1.43,11.49-5.08,22.54-11.3,33.22-15.3,7.33-2.75,14.49-4.45,21.48-4,17,1.06,33.09,2.36,55.29,23.06,1.42,1.32,2.85,2.71,4.31,4.19" transform="translate(0.5 0.5)" style="fill:none;stroke:#231f20;stroke-miterlimit:10"/><line x1="480.46" y1="311.14" x2="483.65" y2="312.56" style="fill:none;stroke:#231f20;stroke-miterlimit:10"/><path d="M308.69,451.32s-54.85-17.82-64.36,79.58" transform="translate(0.5 0.5)" style="fill:none;stroke:#231f20;stroke-miterlimit:10"/></g></svg>