<svg id="Capa_1" data-name="Capa 1" xmlns="http://www.w3.org/2000/svg" viewBox="0 0 181.41 344.04"><title>titov8</title><path d="M123.18,344.65c0-.09,0-.35-.05-.68-.73-11.23-.51-37-.1-41a2.14,2.14,0,0,0-.41-1.72,2.06,2.06,0,0,0-1.6-.41c-2.43.16-17.7.23-20,0a2,2,0,0,0-1.49.35,1.87,1.87,0,0,0-.46,1.36c0,2-1.48,37.45-.72,41.73,0,.33.15.61.27,1.36a3.31,3.31,0,0,0,.33,1.3,2,2,0,0,0,.8.69c1,.53,4.87,4.18,7.28,9.16.71,1.45,1.19,3.62,2.15,7.94a3.31,3.31,0,0,1-.24,2.67c-.41.55-1.09.84-2.5,1a10.55,10.55,0,0,1-4.74-.1c-5-1.22-22.63-.57-32.24.52-1.54.17-4.44.53-5.62-1-1-1.36-.27-3.46.53-5.63,3.08-8.33,10.34-13.5,11.44-13.87a1.46,1.46,0,0,0,.74-.51,1.83,1.83,0,0,0,.25-1.2c0-.78.09-1.56,0-2.32-.32-2.39-.08-39.19,0-42.11a1.77,1.77,0,0,0-.45-1.41,1.55,1.55,0,0,0-1.11-.2,10,10,0,0,1-3.59-.53c-2.08-.61-2.74-4.63-2.86-5.35-1.1-6.64-7.74-40-10.92-40.11-1.8-.08-3.57,10.41-4.15,13.86-1.08,6.41-2.65,16.27.12,27.92,1.14,4.77,1.72,4.49,3.11,10.47,0,0,1.05,4.53,1.05,18.42a4.89,4.89,0,0,1-.51,2.33,6.23,6.23,0,0,1-3.62,2.71c-8.26,3-17.6,2.23-20,2a5.78,5.78,0,0,1-3.32-1.19,5.63,5.63,0,0,1-1.75-2.93C27.44,323.63,26.88,317,26.6,314c-.43-4.52-.88-7.66.1-12.1.07-.32.12-.53.17-.72a127.17,127.17,0,0,0,2.61-17.4c1-13.5-.16-17.35,1.05-27.7a137.48,137.48,0,0,1,6.81-28.6c2.52-6.81,5.54-13,5.59-19.91s.08-10.53-.47-12c-.39-1-1.2-2.87-.38-4s3.09-1.06,4.05-1c10.72.88,21.53-.93,32.26-.21a2.16,2.16,0,0,0,1.68-.45,2.12,2.12,0,0,0,.4-1.66c-.21-2.62-.21-19.55-.11-21.51a1.82,1.82,0,0,0-.39-1.39,1.89,1.89,0,0,0-1.52-.36c-8.29.83-16.69-.64-25,0-14.43,1-2.24-.33-17.44-1a4.25,4.25,0,0,1-3.1-1.21,4.52,4.52,0,0,1-.61-3.49c2-14.82.46-16.47,1.17-19.69a2,2,0,0,0-.19-1.59,1.48,1.48,0,0,0-.84-.52s-2.14-1.19-6.35-3.57c-2.71-1.53-3.37-6-4.29-12.05a68,68,0,0,1,.73-20.69c.58-3,1.37-5.71,3.09-7.16,1-.81,1.88-1.7,2.87-2.5A5.71,5.71,0,0,0,30,89.93a4.77,4.77,0,0,0,.61-2.78c-.49-11.49-.21-23-.46-34.5a10.35,10.35,0,0,0-.47-2.93,10.64,10.64,0,0,0-2.06-3.67c-1.93-2.41-3.57-8.77-.87-13.73,3-5.59,10.16-6.85,13.07-6.2a11,11,0,0,1,3.25,1.35,10.64,10.64,0,0,1,2.16,2C48.79,33.9,46.35,45.55,44,47.79a5.15,5.15,0,0,0-1.28,1.8,5.07,5.07,0,0,0-.4,2.16c.11,15.21.19,25.16-.12,27a3.49,3.49,0,0,0,.21,2c.14.32.37.83.66.86.78.08,1.4-3.28,3-7.42a28.76,28.76,0,0,1,4.67-8.49,22.26,22.26,0,0,1,3.1-3.11,22.11,22.11,0,0,1,11.56-4.43c16.92-2,53.54-1.12,69.34-1.72,4.08-.15,9.61.41,20.68,1.54,3.09.32,5.91.65,9.07,2.38a23.77,23.77,0,0,1,8.73,9,39,39,0,0,1,3.21,7.15,58.61,58.61,0,0,0,2.26,6.2c1,2.44,1.38,2.76,1.58,2.72.57-.11.42-3.15.35-4.69,0,0-.06-1.68-.1-28.52a6.76,6.76,0,0,0-.43-2.46,7,7,0,0,0-1.6-2.43c-1.91-2-6.06-13.48-.31-18.79,3.49-3.22,9.88-3.47,13.74-.73,6.05,4.31,4.08,14.77,2.42,19.4-.56,1.57-.8,1.67-1.62,3.51-7.14,16-.43,33.75-.76,37.23a2.7,2.7,0,0,0,.32,1.7,2.47,2.47,0,0,0,1,.91,32.2,32.2,0,0,1,3.84,3c1.74,1.3,2.64,4,3.4,7.8,2.1,10.7.83,19-.22,25.4-.38,2.37-.75,4-2.06,5.56a16.3,16.3,0,0,1-7.5,4.74,3.21,3.21,0,0,0-1.93,1,3.26,3.26,0,0,0-.57,2.16c.63,16.19,1,19,1,19A3.61,3.61,0,0,1,185.1,164c-4.5,0-9,1.24-13.47.82-41.67-3.83-28.55-.67-30.81-.67-.3,0,.45.91.29,1.21a3.7,3.7,0,0,0-.42,1.77c.24,2.82.19,18.4,0,20.77a2,2,0,0,0,.39,1.56,2,2,0,0,0,1.54.4c5.15-.37,27.15,1.51,34.26.16a6.65,6.65,0,0,1,2.75.12c.58.15,1.66.44,2,1.26a2,2,0,0,1-.09,1.52c-.56,1.44-.77,10.33,1.55,23.56,3.53,20.25,8.17,23.25,9.83,41,.86,9.27,1.3,13.9.9,18.95a74.27,74.27,0,0,0,0,17c0,.13.21,1.39.61,3.91,2.1,13.53,2.16,13.79,2.23,15,.28,4.68-.27,7.59-1.36,13.42-.31,1.67-.76,3.74-2.47,5.14-1.32,1.09-2.84,1.31-5.34,1.44a58.37,58.37,0,0,1-17.1-1.89,5.48,5.48,0,0,1-5-6.74c.5-8.58,1.49-17.13,1.88-20.9,0-.17,0-.36.08-.75,3.5-34-.28-35.25.18-42.6.05-.69.24-3.12-1-3.91a1.16,1.16,0,0,0-.71-.2c-1.14.18-1.58,3.1-1.72,4-2.47,16.08-9.08,30.81-10.48,38.21a2.35,2.35,0,0,1-2.7,2.16c-1.9,0-4,.06-5,.71-1.54,1-1.07,4.23-.95,5.13,1.53,11.24-1,33.85-.4,38.36,0,.21.09.62.15,1a8,8,0,0,0,.6,2.47,3.27,3.27,0,0,0,1.78,1.29c2.93,1.15,6.77,6,8.76,9.45,1.33,2.31,1.66,3.9,2.34,7.08a3.17,3.17,0,0,1-.25,2.57,3.11,3.11,0,0,1-2.39.89c-3.72.17-5.58.25-7-.08-7.14-1.67-26.17-.53-30.76-.16-1.15.09-3.89.33-5-1.19-.36-.5-.64-1.38.33-5.06a28.63,28.63,0,0,1,2.31-6.56c1.66-3.21,4.44-6.88,6.14-8a3.13,3.13,0,0,0,1.08-1,3.55,3.55,0,0,0,.46-2.08" transform="translate(-20.83 -25.46)" style="fill:#fff;stroke:#000;stroke-miterlimit:10"/><path d="M71.22,289.34q-6.78-25.43-13.54-50.85c-3.69-13.9-7.34-27.81-11.07-41.7-.44-1.63-.45-2.27,1.6-2.3,37.84-.47,75.68-.91,113.52-.8h15.68c-2.3,8.7-4.49,17.05-6.71,25.4q-9.24,34.69-18.51,69.39a4.84,4.84,0,0,1-.43.89c-1,.84-2.15.76-3.32.8-24.3.75-48.62.47-72.93.49-1.53,0-3.24.35-4.29-1.32" transform="translate(-20.83 -25.46)" style="fill:#fff;stroke:#000;stroke-miterlimit:10"/><path d="M71.22,289.34q-6.78-25.43-13.54-50.85c-3.69-13.9-7.34-27.81-11.07-41.7-.44-1.63-.45-2.27,1.6-2.3,37.84-.47,75.68-.91,113.52-.8h15.68c-2.3,8.7-4.49,17.05-6.71,25.4q-9.24,34.69-18.51,69.39a4.84,4.84,0,0,1-.43.89c-1,.84-2.15.76-3.32.8-24.3.75-48.62.47-72.93.49C74,290.66,72.27,291,71.22,289.34Z" transform="translate(-20.83 -25.46)" style="fill:#fff;stroke:#000;stroke-miterlimit:10"/><path d="M46.82,317.6a4.49,4.49,0,0,0-1.25,3.7,39.66,39.66,0,0,0,.11,4.5c.34,2.49-1.53,2-2.86,2.35-1.85.52-1.88-.87-2.07-1.94-.42-2.29-.5-4.64-1.41-6.83-.18-.44-.25-1-1-1.3a6.2,6.2,0,0,0-.94,4.29,25.21,25.21,0,0,1,.28,3c-.05,1.15.84,2.84-1.45,3-1.94.14-3.9.15-4.23-2.32-.56-4.12-1-8.26-1.28-12.41-.2-3.55-1-7.1-.21-10.7.23-1,.33-1.59,1.55-1.72,5.73-.61,11.48-.38,17.21-.7a2.72,2.72,0,0,1,3,2.7c.87,6.94,1.72,13.88,1.92,20.88.07,2.58-1.71,2.58-3.48,2.89-2.22.39-1.93-1.21-2.16-2.45-.43-2.31-.27-4.78-1.72-6.92" transform="translate(-20.83 -25.46)" style="fill:#fff;stroke:#000;stroke-miterlimit:10"/><path d="M184.48,318.1c-1.38,2.39-1.32,5.11-1.8,7.7-.32,1.74-.9,2.84-3.12,2.35-1.45-.31-1.9-.83-1.9-2.23,0-2.07.67-4.15.09-6.21-.15-.53-.43-1.34-.79-1.42-.76-.18-1.05.65-1.32,1.23a14,14,0,0,0-.83,4.89c-.09,1,.36,2.64-1.49,2.54s-4,.21-4.16-2.45a35.4,35.4,0,0,1,.16-5.73c.45-4.89,1-9.77,1.53-14.65.36-2.91,1.43-3.74,4.31-3.66,4.83.15,9.65.3,14.48.5,2.94.12,3.55.68,3.37,3.64-.38,6.65-.82,13.3-1.39,19.93-.28,3.25-1,3.67-3.72,3.91-2.25.2-2.45-.95-2.36-2.66.09-1.89,1-3.74.34-5.68a2.79,2.79,0,0,0-1.4-2" transform="translate(-20.83 -25.46)" style="fill:#fff;stroke:#000;stroke-miterlimit:10"/><path d="M154.12,364.57c-12.25,0-24.24,0-36.23,0-1,0-1.27-.36-1.08-1.33a25.82,25.82,0,0,1,4.45-10.46,4.21,4.21,0,0,1,3.19-1.76,92.62,92.62,0,0,1,17.7.21c4.8.62,8.17,3.52,10,8,.71,1.66,1.24,3.41,1.92,5.32" transform="translate(-20.83 -25.46)" style="fill:#fff;stroke:#000;stroke-miterlimit:10"/><path d="M105.85,364.57c-12.29,0-24.1,0-35.91,0-1.5,0-1.77-.4-1.52-1.87,1.17-7,5.28-10.94,12.9-11.5,5.13-.38,10.31-.19,15.46-.19a4.78,4.78,0,0,1,4.54,3c1.54,3.39,2.94,6.83,4.53,10.56" transform="translate(-20.83 -25.46)" style="fill:#fff;stroke:#000;stroke-miterlimit:10"/><path d="M111,188.75H87.2c-1.26,0-2.8.19-2.4-1.79.31-1.53-1.48-4.15,2-4.26,5.91-.19,11.81-.5,17.72-.58,7.15-.11,14.31-.06,21.47,0,3,0,6,.23,9,.31,1.17,0,1.65.55,1.61,1.69s0,2,0,3-.37,1.62-1.6,1.61c-8-.05-16,0-24,0Z" transform="translate(-20.83 -25.46)" style="fill:#fff;stroke:#000;stroke-miterlimit:10"/><path d="M185.87,118.69c-1.15-7.64-2.27-15.28-3.47-22.91-.26-1.61,0-2.37,1.8-2.7,6.05-1.13,10.81,1.76,12.13,7.78a52,52,0,0,1,.9,18.32,24.12,24.12,0,0,1-9.76,1.14c-1,0-1.43-.73-1.6-1.63" transform="translate(-20.83 -25.46)" style="fill:#fff;stroke:#000;stroke-miterlimit:10"/><path d="M185.87,118.69c-1.15-7.64-2.27-15.28-3.47-22.91-.26-1.61,0-2.37,1.8-2.7,6.05-1.13,10.81,1.76,12.13,7.78a52,52,0,0,1,.9,18.32,24.12,24.12,0,0,1-9.76,1.14C186.5,120.28,186,119.59,185.87,118.69Z" transform="translate(-20.83 -25.46)" style="fill:#fff;stroke:#000;stroke-miterlimit:10"/><path d="M26.06,103.11a13.67,13.67,0,0,1,1.14-4.32,9.46,9.46,0,0,1,11.29-5.6c.84.21,1.09.6,1,1.39q-2.2,14.06-4.39,28.1c-2.5,1.43-5.14.93-7.74.45a1.82,1.82,0,0,1-1.44-2.06c.11-6-.21-12,.17-18" transform="translate(-20.83 -25.46)" style="fill:#fff;stroke:#000;stroke-miterlimit:10"/><path d="M26.06,103.11a13.67,13.67,0,0,1,1.14-4.32,9.46,9.46,0,0,1,11.29-5.6c.84.21,1.09.6,1,1.39q-2.2,14.06-4.39,28.1c-2.5,1.43-5.14.93-7.74.45a1.82,1.82,0,0,1-1.44-2.06C26,115.08,25.68,109.09,26.06,103.11Z" transform="translate(-20.83 -25.46)" style="fill:#fff;stroke:#000;stroke-miterlimit:10"/><path d="M172,257c-.87.29-1.18-.39-1.44-1.15a65.37,65.37,0,0,1-2.63-9.34,1.71,1.71,0,0,1,1.25-2.26c4.79-1.9,9.54-3.89,14.28-5.89,1.16-.49,1.58-.19,1.86,1,.87,3.72,1.84,7.41,2.79,11.11.24.88.3,1.54-.73,2A49.83,49.83,0,0,1,172,257" transform="translate(-20.83 -25.46)" style="fill:#fff;stroke:#000;stroke-miterlimit:10"/><path d="M51.36,257a50.14,50.14,0,0,1-15.16-4.41c-1.11-.52-1.18-1.22-.92-2.2q1.48-5.77,2.95-11.56c.25-1,.77-1.46,1.73-.84a41.42,41.42,0,0,0,13.95,5.75c1.7.36,1.91,1.66,1.52,3.12-.77,2.88-1.58,5.75-2.35,8.64-.3,1.15-.9,1.74-1.72,1.5" transform="translate(-20.83 -25.46)" style="fill:#fff;stroke:#000;stroke-miterlimit:10"/><path d="M44.05,273.53a31.57,31.57,0,0,1-9-1.65c-1.29-.37-2-.93-1.81-2.43.39-4.14.68-8.28.91-12.43.07-1.25.64-1.37,1.59-1.1,4.71,1.34,9.41,2.71,14.12,4a1.59,1.59,0,0,1,1.27,2.21c-.7,3.25-1.37,6.5-2,9.76a1.7,1.7,0,0,1-1.83,1.61c-1.08,0-2.15,0-3.23,0" transform="translate(-20.83 -25.46)" style="fill:#fff;stroke:#000;stroke-miterlimit:10"/><path d="M189.78,265.5c0,6.26,0,6.26-5.86,7.53a14.49,14.49,0,0,1-1.46.29c-7.93,1-8,1-9.23-6.86-.32-1.94-1.74-4.17-.7-5.74s3.6-1.38,5.48-2c2.85-.91,5.78-1.58,8.59-2.59,2-.72,2.51.1,2.68,1.85a44.85,44.85,0,0,1,.5,7.5" transform="translate(-20.83 -25.46)" style="fill:#fff;stroke:#000;stroke-miterlimit:10"/><path d="M189.78,280c0,4.91,0,4.85-5,5.35-3,.3-6,.42-9,.43-1.19,0-1.67-.41-1.59-1.6.07-.91,0-1.83,0-2.75,0-4.59,0-4.58,4.51-5.08,2.89-.32,5.78-.62,8.66-1.05,1.86-.29,2.65.25,2.37,2.2a17.36,17.36,0,0,0,0,2.5" transform="translate(-20.83 -25.46)" style="fill:#fff;stroke:#000;stroke-miterlimit:10"/><path d="M44.36,285.78c-3.19.14-6.29-.6-9.43-.94-1-.11-1.39-.67-1.37-1.67,0-2.08.07-4.17,0-6.25,0-1.33.44-1.78,1.76-1.61,4.12.54,8.45.43,12.31,1.72,2.83,1,.89,4.48,1.35,6.82.27,1.4-.52,2-1.86,1.93-.92,0-1.83,0-2.75,0" transform="translate(-20.83 -25.46)" style="fill:#fff;stroke:#000;stroke-miterlimit:10"/><path d="M184.81,297.32c-3.4-.15-6.79-.32-10.18-.45-.95,0-1.39-.42-1.27-1.38a6.26,6.26,0,0,1,.15-1c.53-1.74-.46-4,.94-5.22s3.37-.37,5.08-.56c2.89-.31,5.78-.51,8.67-.82,1.19-.13,1.65.25,1.6,1.48a45.37,45.37,0,0,0,0,5.47c.14,1.8-.56,2.38-2.26,2.19a25,25,0,0,0-2.74,0v.29" transform="translate(-20.83 -25.46)" style="fill:#fff;stroke:#000;stroke-miterlimit:10"/><path d="M29.54,35.53c1-3.3,3-5.66,6.51-5.91,6.62-.47,6.9,2.35,7.52,8.6a9.14,9.14,0,0,1-.43,2.42c-3,2.68-7.11,3-10.12.38-1.66-1.42-4.05-2.58-3.48-5.49" transform="translate(-20.83 -25.46)" style="fill:#fff;stroke:#000;stroke-miterlimit:10"/><path d="M33.58,292.35c0-4.52,0-4.48,4.42-4.09,3,.26,6,.5,9,.56,1.6,0,2.33.46,2.58,2.15.86,5.91.89,6-5,6.14-2.73.07-5.47-.19-8.19,0-2.15.12-3.14-.46-2.77-2.73a12.12,12.12,0,0,0,0-2" transform="translate(-20.83 -25.46)" style="fill:#fff;stroke:#000;stroke-miterlimit:10"/><path d="M134.08,324.84c2.12.22,4.81-.85,6.1.42s.41,4.11.46,6.24c.08,3.26,0,3.31-3.3,3.31-2.66,0-5.32-.13-8-.19-1.46,0-2.4-.5-2.08-2.2a4.7,4.7,0,0,0,0-.75c.11-2.15-.9-4.93.39-6.28s4.26-.25,6.4-.55" transform="translate(-20.83 -25.46)" style="fill:#fff;stroke:#000;stroke-miterlimit:10"/><path d="M188.74,54.68c.55,7.82-.13,15.61-.41,23.42-.12,3.16-.28,6.31-.27,9.47,0,1.68-1,1.53-2.11,1.65-1.43.16-1.17-.78-1.17-1.57q0-16.47.08-33a2.92,2.92,0,0,1,3.88,0" transform="translate(-20.83 -25.46)" style="fill:#fff;stroke:#000;stroke-miterlimit:10"/><path d="M133.92,321.55c-6.63,0-6.63,0-6.63-6.54,0-3.2,0-3.2,3.2-3.2,2.74,0,5.49.06,8.23,0,1.4-.05,1.94.43,1.87,1.85-.09,2-.09,4,0,6,.08,1.47-.3,2.14-1.94,2s-3.15,0-4.73,0" transform="translate(-20.83 -25.46)" style="fill:#fff;stroke:#000;stroke-miterlimit:10"/><path d="M87.75,321.43c-2.13-.22-4.83.85-6.1-.42s-.21-4.13-.49-6.24c-.33-2.42.51-3.23,3-3a44.46,44.46,0,0,0,7.74,0c2.32-.2,2.93.7,2.69,2.82s.87,4.92-.42,6.29-4.25.26-6.38.56" transform="translate(-20.83 -25.46)" style="fill:#fff;stroke:#000;stroke-miterlimit:10"/><path d="M38.07,55.19c0,10.75,0,21.51.09,32.26,0,1.06-.15,1.85-1.43,1.8-.94,0-1.82,0-1.84-1.39-.15-10.9-1.22-21.78-.74-32.7a3,3,0,0,1,3.92,0" transform="translate(-20.83 -25.46)" style="fill:#fff;stroke:#000;stroke-miterlimit:10"/><path d="M179.69,35.05a6.36,6.36,0,0,1,10.36-4.32,8.5,8.5,0,0,1,3.77,6.91c-1.52,2.33-4,2.62-6.44,3.12a11.24,11.24,0,0,1-2.72.1c-4.84-.12-5.49-.87-5-5.81" transform="translate(-20.83 -25.46)" style="fill:#fff;stroke:#000;stroke-miterlimit:10"/><path d="M87.89,324.82c6.42,0,6.33,0,6.42,6.47,0,2.14-.64,2.7-2.67,2.58-2.81-.17-5.64-.11-8.45,0-1.46,0-2.16-.28-2-1.91a43.41,43.41,0,0,0,0-5.47c-.07-1.35.5-1.72,1.75-1.67,1.66.08,3.32,0,5,0" transform="translate(-20.83 -25.46)" style="fill:#fff;stroke:#000;stroke-miterlimit:10"/><path d="M134.19,308.83h-.75c-7.92-.27-5.86.15-6.18-6.82-.06-1.32.49-1.73,1.75-1.71,3.32.06,6.64,0,10,0,.41,0,1.09,0,1.18.19,1,2.28.48,4.71.38,7.05-.06,1.44-1.57,1.17-2.6,1.22-1.24,0-2.49,0-3.73,0Z" transform="translate(-20.83 -25.46)" style="fill:#fff;stroke:#000;stroke-miterlimit:10"/><path d="M87.56,308.33a23.76,23.76,0,0,0-3.48,0c-2.51.37-3-.72-3-3.05.17-4.84,0-4.85,4.86-4.84h6.22c1.39,0,2,.58,2,2.11.14,5.74.2,5.74-5.44,5.74H87.56" transform="translate(-20.83 -25.46)" style="fill:#fff;stroke:#000;stroke-miterlimit:10"/><path d="M87.79,344H86c-5,0-5.71-.94-4.8-5.89C81.43,337,82,337,82.8,337c3.34,0,6.67,0,10,0,1.24,0,1.51.54,1.58,1.65.36,5.38.39,5.37-6.59,5.37" transform="translate(-20.83 -25.46)" style="fill:#fff;stroke:#000;stroke-miterlimit:10"/><path d="M134.2,337.9c1.08,0,2.16,0,3.24,0,3.57,0,3.21-.48,3.23,3.15,0,3.19,0,3.19-3.29,3.19-2.66,0-5.33-.06-8,0-1.6.06-2.15-.48-2.15-2.15,0-4.21-.07-4.22,4.21-4.21Z" transform="translate(-20.83 -25.46)" style="fill:#fff;stroke:#000;stroke-miterlimit:10"/><path d="M112,137.31H65.68c-4.14,0-4.31-.18-4.25-4.41.21-13.5.48-27,.62-40.49,0-2.11.8-2.76,2.79-2.76,6.75,0,13.5-.18,20.25-.19q28.27,0,56.54,0c5.58,0,11.16-.16,16.75-.14,4.52,0,5,.51,5,5.06q-.06,18.5-.16,37c0,.17,0,.34,0,.5-.11,5.1-.37,5.36-5.43,5.36H112Z" transform="translate(-20.83 -25.46)" style="fill:#fff;stroke:#000;stroke-miterlimit:10"/><path d="M72.55,209.87c5.62,0,11.26.07,16.9,0q30.89-.47,61.76-1c3.31-.05,3.52.45,2.27,3.64-4.79,12.32-10.09,24.45-14.08,37.07-.49,1.57-1.14,2.26-2.89,2.28q-23.38.31-46.76.82c-1,0-1.53-.17-1.88-1.1Q80.21,231.27,72.51,211a5.77,5.77,0,0,1,0-1.1" transform="translate(-20.83 -25.46)" style="fill:#fff;stroke:#000;stroke-miterlimit:10"/><path d="M89.07,267.56c7.23,0,14.13.07,21,0,9.49-.12,19-.25,28.47-.6,2.29-.08,2.26.54,1.67,2.28-1.11,3.22-2.1,6.48-3.07,9.75a2.16,2.16,0,0,1-2.42,1.83c-13.58.2-27.16.49-40.73.79-1,0-1.65-.12-1.92-1.35-.87-4.05-1.91-8.06-3-12.69" transform="translate(-20.83 -25.46)" style="fill:#fff;stroke:#000;stroke-miterlimit:10"/><path d="M86,97.66c7.3-.59,15.33,6.3,15.25,15.12s-7.7,16.94-15.75,16.94c-8.84,0-16.31-6.77-16.28-14.8,0-9.55,7.64-17.84,16.78-17.26" transform="translate(-20.83 -25.46)" style="fill:#fff;stroke:#000;stroke-miterlimit:10"/><path d="M124.69,114.74c0-8.88,7.11-17.65,17.22-17.16a15.59,15.59,0,0,1,14.77,15.27c.08,8.85-8.1,16.89-16.67,16.91-7,0-16-7-15.32-15" transform="translate(-20.83 -25.46)" style="fill:#fff;stroke:#000;stroke-miterlimit:10"/><path d="M85.16,107.14c3.68,0,6,2.38,6,6.35,0,3.51-2.62,6.58-5.75,6.61-3.85.05-6.73-2.54-6.75-6,0-4,2.67-6.88,6.49-6.91" transform="translate(-20.83 -25.46)" style="fill:#fff;stroke:#000;stroke-miterlimit:10"/><path d="M140.08,107.7c4,0,6.23,2.12,6.2,5.84s-2.69,6.62-5.8,6.56a6.64,6.64,0,0,1-6.22-6.56,5.83,5.83,0,0,1,5.82-5.84" transform="translate(-20.83 -25.46)" style="fill:#fff;stroke:#000;stroke-miterlimit:10"/><path d="M159.87,151.5h-95A3.48,3.48,0,0,1,61.42,148v-2.89a3.47,3.47,0,0,1,3.47-3.46h95a3.46,3.46,0,0,1,3.46,3.46V148a3.47,3.47,0,0,1-3.46,3.46" transform="translate(-20.83 -25.46)" style="fill:#fff;stroke:#000;stroke-miterlimit:10"/><rect x="40.6" y="116.22" width="101.91" height="9.82" rx="3.47" style="fill:#fff;stroke:#000;stroke-linecap:round;stroke-linejoin:round"/><line x1="128.01" y1="115.69" x2="128.01" y2="125.54" style="fill:#fff;stroke:#000;stroke-linecap:round;stroke-linejoin:round"/><line x1="53.31" y1="115.68" x2="53.31" y2="125.52" style="fill:#fff;stroke:#000;stroke-linecap:round;stroke-linejoin:round"/><line x1="79.24" y1="115.68" x2="79.24" y2="125.52" style="fill:#fff;stroke:#000;stroke-linecap:round;stroke-linejoin:round"/><line x1="66.61" y1="115.68" x2="66.61" y2="125.52" style="fill:#fff;stroke:#000;stroke-linecap:round;stroke-linejoin:round"/><line x1="90.89" y1="115.68" x2="90.89" y2="125.52" style="fill:#fff;stroke:#000;stroke-linecap:round;stroke-linejoin:round"/><line x1="102.53" y1="115.68" x2="102.53" y2="125.52" style="fill:#fff;stroke:#000;stroke-linecap:round;stroke-linejoin:round"/><line x1="115.27" y1="115.68" x2="115.27" y2="125.52" style="fill:#fff;stroke:#000;stroke-linecap:round;stroke-linejoin:round"/><path d="M111.46,180.17H87.7c-1.26,0-2.81.2-2.41-1.78.31-1.54-1.47-4.16,2-4.27,5.9-.18,11.81-.49,17.72-.58,7.15-.1,14.31-.06,21.46,0,3,0,6,.23,9,.31,1.16,0,1.65.56,1.61,1.7s0,2,0,3-.38,1.61-1.61,1.6c-8,0-16,0-24,0Z" transform="translate(-20.83 -25.46)" style="fill:#fff;stroke:#000;stroke-miterlimit:10"/><path d="M111.46,171.13H87.7c-1.26,0-2.81.19-2.41-1.79.31-1.53-1.47-4.15,2-4.26,5.9-.19,11.81-.5,17.72-.58,7.15-.11,14.31-.06,21.46,0,3,0,6,.24,9,.31,1.16,0,1.65.56,1.61,1.7s0,2,0,3-.38,1.61-1.61,1.61c-8,0-16,0-24,0Z" transform="translate(-20.83 -25.46)" style="fill:#fff;stroke:#000;stroke-miterlimit:10"/></svg>