<svg id="Capa_1" data-name="Capa 1" xmlns="http://www.w3.org/2000/svg" viewBox="0 0 803 621"><title>titov2</title><g id="Color"><polygon points="307.67 237 411 265 389.33 344.67 325.33 327.33 307.67 237" style="fill:#fff;stroke:#000;stroke-miterlimit:10;stroke-width:2px"/><ellipse cx="518.92" cy="356.33" rx="3.08" ry="4.67" style="fill:none;stroke:#000;stroke-miterlimit:10;stroke-width:2px"/><ellipse cx="518.92" cy="356.33" rx="1.42" ry="2.15" style="fill:none;stroke:#000;stroke-miterlimit:10;stroke-width:2px"/><ellipse cx="528" cy="350.63" rx="3.08" ry="4.67" style="fill:none;stroke:#000;stroke-miterlimit:10;stroke-width:2px"/><ellipse cx="528" cy="350.63" rx="1.42" ry="2.15" style="fill:none;stroke:#000;stroke-miterlimit:10;stroke-width:2px"/><ellipse cx="537.29" cy="345.48" rx="3.08" ry="4.67" style="fill:none;stroke:#000;stroke-miterlimit:10;stroke-width:2px"/><ellipse cx="537.29" cy="345.48" rx="1.42" ry="2.15" style="fill:none;stroke:#000;stroke-miterlimit:10;stroke-width:2px"/><polyline points="541.68 337.75 541.68 351.67 513.38 368.14 512.71 350.14 528 341.61" style="fill:none;stroke:#000;stroke-miterlimit:10;stroke-width:2px"/><polygon points="324 251.33 396.67 269.33 382.67 307.67 336.33 296.67 324 251.33" style="fill:#fff;stroke:#000;stroke-miterlimit:10;stroke-width:2px"/><polygon points="338 310.5 382 322.67 377 334.67 340.33 322.58 338 310.5" style="fill:none;stroke:#000;stroke-miterlimit:10;stroke-width:2px"/><path d="M309.51,138.23l80.62,18a4.53,4.53,0,0,1,3.54,4.42V198.9a4.53,4.53,0,0,1-5.61,4.39l-80.61-19.78a4.51,4.51,0,0,1-3.45-4.39V142.65A4.52,4.52,0,0,1,309.51,138.23Z" transform="translate(11)" style="fill:#fff;stroke:#000;stroke-miterlimit:10;stroke-width:2px"/><ellipse cx="335" cy="164.67" rx="8" ry="10" style="fill:none;stroke:#000;stroke-miterlimit:10;stroke-width:2px"/><ellipse cx="383.67" cy="177.17" rx="8" ry="10" style="fill:none;stroke:#000;stroke-miterlimit:10;stroke-width:2px"/><ellipse cx="335" cy="165.16" rx="6.13" ry="7.66" style="fill:#fff;stroke:#000;stroke-miterlimit:10;stroke-width:2px"/><ellipse cx="282.25" cy="78.16" rx="5.75" ry="7.19" transform="translate(0.77 93.32) rotate(-18.45)" style="fill:none;stroke:#000;stroke-miterlimit:10;stroke-width:2px"/><ellipse cx="282.36" cy="78.5" rx="4.41" ry="5.51" transform="matrix(0.95, -0.32, 0.32, 0.95, 0.67, 93.38)" style="fill:none;stroke:#000;stroke-miterlimit:10;stroke-width:2px"/><ellipse cx="416.25" cy="106.75" rx="5.75" ry="7.19" transform="translate(-1.39 137.19) rotate(-18.45)" style="fill:none;stroke:#000;stroke-miterlimit:10;stroke-width:2px"/><ellipse cx="416.36" cy="107.09" rx="4.41" ry="5.51" transform="translate(-1.49 137.24) rotate(-18.45)" style="fill:none;stroke:#000;stroke-miterlimit:10;stroke-width:2px"/><ellipse cx="383.67" cy="177.17" rx="6.13" ry="7.66" style="fill:#fff;stroke:#000;stroke-miterlimit:10;stroke-width:2px"/><path d="M309.44,189.41c16.78,4,67.3,16.29,80.85,19.6a4.42,4.42,0,0,1,3.38,4.3v.41a4.43,4.43,0,0,1-5.46,4.31l-80.8-19.22A4.43,4.43,0,0,1,304,194.5v-.78A4.42,4.42,0,0,1,309.44,189.41Z" transform="translate(11)" style="fill:#fff;stroke:#000;stroke-miterlimit:10;stroke-width:2px"/><path d="M327.77,214.94c8.5,2,34.09,8.25,41,9.93a2.24,2.24,0,0,1,1.71,2.18v.2a2.26,2.26,0,0,1-2.77,2.19l-40.92-9.74a2.25,2.25,0,0,1-1.73-2.18v-.4A2.25,2.25,0,0,1,327.77,214.94Z" transform="translate(11)" style="fill:#fff;stroke:#000;stroke-miterlimit:10;stroke-width:2px"/><path d="M327.77,222.68c8.5,2,34.09,8.25,41,9.92a2.26,2.26,0,0,1,1.71,2.18V235a2.26,2.26,0,0,1-2.77,2.19l-40.92-9.74a2.26,2.26,0,0,1-1.73-2.19v-.39A2.24,2.24,0,0,1,327.77,222.68Z" transform="translate(11)" style="fill:#fff;stroke:#000;stroke-miterlimit:10;stroke-width:2px"/><path d="M327.77,230c8.5,2,34.09,8.25,41,9.93a2.24,2.24,0,0,1,1.71,2.18v.2a2.26,2.26,0,0,1-2.77,2.19l-40.92-9.74a2.25,2.25,0,0,1-1.73-2.18v-.4A2.24,2.24,0,0,1,327.77,230Z" transform="translate(11)" style="fill:#fff;stroke:#000;stroke-miterlimit:10;stroke-width:2px"/><path d="M245.5,222.83s3.78-2.62,10.92-.75L321,239v-6.5l-59.67-15.17s-3.16-1.18-7.66.83a51.36,51.36,0,0,0-8.17,4.67" transform="translate(11)" style="fill:none;stroke:#000;stroke-miterlimit:10;stroke-width:2px"/><path d="M321,466.35c-18.79,10-33.94,28.46-39.5,49.32-3.1,11.64-4.5,23.15-1.46,34.83,0,0-3.21-32.83,18.46-59.17,0,0,13.25-17.2,25.42-23.22Z" transform="translate(11)" style="fill:none;stroke:#000;stroke-miterlimit:10;stroke-width:2px"/><path d="M291.18,494,284,497.83s-6.17,4.17-10-2.08" transform="translate(11)" style="fill:none;stroke:#000;stroke-miterlimit:10;stroke-width:2px"/><path d="M279.29,545.55c-2,.19-3.81.59-5.66-2.43" transform="translate(11)" style="fill:none;stroke:#000;stroke-miterlimit:10;stroke-width:2px"/><path d="M290.24,540.41" transform="translate(11)" style="fill:none;stroke:#000;stroke-miterlimit:10;stroke-width:2px"/><path d="M450.67,520.33l6.83-4.83L463.75,285s1.58-17-13.08-18.5l-71.42-19V228.38" transform="translate(11)" style="fill:none;stroke:#000;stroke-miterlimit:10;stroke-width:2px"/><path d="M414.62,235.87l8.63-3.87V209.34l8-4.34s2.5-2.25,3-11.5a145.83,145.83,0,0,0,0-16.33s1.25-11.92-7.5-16.67l2.5-43.5s7.5-4.75,2.25-16.5c0,0-3.92-10.5-16.83-5.5" transform="translate(11)" style="fill:none;stroke:#000;stroke-miterlimit:10;stroke-width:2px"/><path d="M281.59,95.77l2.19.76a1.32,1.32,0,0,1,.89,1.25v30.65a1.32,1.32,0,0,1-2,1.15l-2.19-1.2a1.35,1.35,0,0,1-.69-1.16V97A1.33,1.33,0,0,1,281.59,95.77Z" transform="translate(11)" style="fill:none;stroke:#000;stroke-miterlimit:10;stroke-width:2px"/><path d="M414.54,124.6l2.19.75a1.33,1.33,0,0,1,.9,1.25v30.65a1.33,1.33,0,0,1-2,1.16l-2.18-1.21a1.3,1.3,0,0,1-.69-1.15v-30.2A1.32,1.32,0,0,1,414.54,124.6Z" transform="translate(11)" style="fill:none;stroke:#000;stroke-miterlimit:10;stroke-width:2px"/><path d="M284.67,136.17s-8-6.5-11,4.66V158s.33,6,8.58,5.33Z" transform="translate(11)" style="fill:#fff;stroke:#000;stroke-miterlimit:10;stroke-width:2px"/><path d="M411.17,164.67l4,29,8,.83s1.59-3,1.38-13.5S421.83,165,411.17,164.67Z" transform="translate(11)" style="fill:#fff;stroke:#000;stroke-miterlimit:10;stroke-width:2px"/><path d="M346.51,272.54a10.09,10.09,0,0,1,10.9,5.76s1,2.57-.81,9.57l-10.34,5.83s-8.33,2.84-10.83-6c0,0-3-8.33,2-10.33Z" transform="translate(11)" style="fill:#fff;stroke:#000;stroke-miterlimit:10;stroke-width:2px"/><path d="M264.33,433.5l8.93,2.5,6.78-5-13-5.26-.5-173.24c-.5-9,6.33-7,6.33-7" transform="translate(11)" style="fill:none;stroke:#000;stroke-miterlimit:10;stroke-width:2px"/><polyline points="292 438.88 291.04 431 284.26 436 285 442.5" style="fill:none;stroke:#000;stroke-miterlimit:10;stroke-width:2px"/><polyline points="275.33 433.5 276.15 440.48 285 442.5 291.91 438.13" style="fill:none;stroke:#000;stroke-miterlimit:10;stroke-width:2px"/><path d="M279.83,67.17l6.67-2.92s10-1.75,11.5,10.25S294.25,88,294.25,88l-.15,23.72" transform="translate(11)" style="fill:none;stroke:#000;stroke-miterlimit:10;stroke-width:2px"/><path d="M302.16,106.18c6.92-3.7,13.35-3.37,20.9-2.37a408.85,408.85,0,0,1,52.18,10c14,3.76,30.2,8,35.76,23.16" transform="translate(11)" style="fill:none;stroke:#000;stroke-miterlimit:10;stroke-width:2px"/><path d="M589,363.67l15.3-10s6.37-3.67,6.37-12.67l4.66-54.67s1.67-9.66-6-9.33L493,241l-23.67,10.33s-4.47,2.26-5.53,13.67l-.58,39.66" transform="translate(11)" style="fill:none;stroke:#000;stroke-miterlimit:10;stroke-width:2px"/><polyline points="377.87 345.01 285 404.33 364.5 427.5 364.5 436 371.5 438 371.5 430 444.25 453" style="fill:none;stroke:#000;stroke-miterlimit:10;stroke-width:2px"/><polygon points="304.5 437.19 296 434.68 296 419.25 304.5 422.25 304.5 437.19" style="fill:none;stroke:#000;stroke-miterlimit:10;stroke-width:2px"/><polygon points="373.13 455.12 364.63 452.96 364.63 439.63 373.13 442.22 373.13 455.12" style="fill:none;stroke:#000;stroke-miterlimit:10;stroke-width:2px"/><line x1="370.67" y1="429.68" x2="439.33" y2="383.46" style="fill:none;stroke:#000;stroke-miterlimit:10;stroke-width:2px"/><line x1="363.95" y1="427.92" x2="435.33" y2="379.5" style="fill:none;stroke:#000;stroke-miterlimit:10;stroke-width:2px"/><polyline points="360.17 376.5 359.33 376.5 357.12 379.69 364.63 381.5 368.17 377.83 366 376.5" style="fill:none;stroke:#000;stroke-miterlimit:10;stroke-width:2px"/><line x1="364.63" y1="381.5" x2="367.17" y2="420" style="fill:none;stroke:#000;stroke-miterlimit:10;stroke-width:2px"/><polyline points="357.12 379.69 358.5 419.25 367.17 420 370.67 416.17 368.17 377.83" style="fill:#fff;stroke:#000;stroke-miterlimit:10;stroke-width:2px"/><path d="M609.19,347.93c6.85,3.6,4.14,8.07,4.14,8.07a8.31,8.31,0,0,0-2.08,2.84A30.14,30.14,0,0,0,609,367L458.41,482l.31-10.67" transform="translate(11)" style="fill:none;stroke:#000;stroke-miterlimit:10;stroke-width:2px"/><path d="M607.33,284.83c-.16.5-4.83,55.5-4.83,55.5l-12,8.5,1.67-54.5Z" transform="translate(11)" style="fill:#fff;stroke:#000;stroke-miterlimit:10;stroke-width:2px"/><polygon points="484.13 366.5 492.75 367.63 487.88 416.13 477.75 416.13 484.13 366.5" style="fill:none;stroke:#000;stroke-miterlimit:10;stroke-width:2px"/><polygon points="499.5 367.63 496.38 406.57 503 409.25 508.38 406.57 511.13 367.63 506.13 370.38 499.5 367.63" style="fill:none;stroke:#000;stroke-miterlimit:10;stroke-width:2px"/><line x1="506.13" y1="370.38" x2="504.5" y2="409.25" style="fill:none;stroke:#000;stroke-miterlimit:10;stroke-width:2px"/><path d="M459.83,429.68" transform="translate(11)" style="fill:none"/><path d="M230.25,466.35l-8.5-4.35L213,467.5s-2,1.58-1.5,8.17L196.25,504.5l1.39.87,4.86,3.06,15.25-31.68L223,474.5l7.25-4Z" transform="translate(11)" style="fill:#fff;stroke:#000;stroke-miterlimit:10;stroke-width:2px"/><path d="M196.25,506.63,193,512.88s-1.5,2.37-4.75-3.88-9.75-29.5-6.25-56,19.75-59.33,29.25-69.54,26-36,59.25-41.21c0,0,43.25-5,61.25,30,0,0,4.29,4.32,4.5-1.75,0,0-8.5-23.5-44-32s-68,22.75-68,22.75-33.25,27.25-45,78.38,6.5,75.62,6.5,75.62,7.94,11.47,16.75-6.82" transform="translate(11)" style="fill:#fff;stroke:#000;stroke-miterlimit:10;stroke-width:2px"/><polygon points="338 374.36 345.5 375.88 350.63 371.63 348.63 409.13 343.5 412.63 336.63 409.63 338 374.36" style="fill:none;stroke:#000;stroke-miterlimit:10;stroke-width:2px"/><line x1="345.5" y1="375.88" x2="343.5" y2="412.63" style="fill:#fff;stroke:#000;stroke-miterlimit:10;stroke-width:2px"/><path d="M339.63,370.5" transform="translate(11)" style="fill:none;stroke:#000;stroke-miterlimit:10;stroke-width:2px"/><path d="M220.83,462l-1-1.17,22.84-10.33,3.9,1.69,5,1.91s2.24,5.57-5.59,7.9l-14,8.5h-1.75" transform="translate(11)" style="fill:#fff;stroke:#000;stroke-miterlimit:10;stroke-width:2px"/><path d="M242.67,450.5c-.53-.14-.67-8,4.83-12.5l17.83-12.67s6.34.67,4.84,6.34l-15.5,10.83s3.29,8.17-1.79,13.5C252.88,456,246,451.37,242.67,450.5Z" transform="translate(11)" style="fill:#fff;stroke:#000;stroke-miterlimit:10;stroke-width:2px"/><path d="M265.72,425.1S278,415.25,280,411.63s17.71-28,38.34-36.63,39.87-21.87,58-20.75,35.13,2.52,59.6,27.25" transform="translate(11)" style="fill:none;stroke:#000;stroke-miterlimit:10;stroke-width:2px"/><path d="M434.5,391.67S409,347.75,357.88,362.5c0,0-40.63,14-58.88,34.75,0,0-19.42,24.64-26.81,32.43" transform="translate(11)" style="fill:none;stroke:#000;stroke-miterlimit:10;stroke-width:2px"/><path d="M364.33,345.5l-9.58,34s-4.08,1.33-4.92,0c0,0,5.17-28.5,9.84-35.67" transform="translate(11)" style="fill:none;stroke:#000;stroke-miterlimit:10;stroke-width:2px"/><path d="M496.91,367.6c.62-11.49,3.18-23.22,6.27-34.31a177.47,177.47,0,0,1,12.94-33.12,115.78,115.78,0,0,1,17.6-25.76c28.78-31.66,37.38-77.94,7.78-109.74-24.67-26.5-65.67-33.5-111.5-32.67v5c36.34-.22,77.83,1.5,105.52,28.75,16.13,15.88,24.55,42.9,18.15,64.75-4.19,14.31-14.13,28.18-23.19,39.84-10.93,14.06-20,27.81-26.73,44.66-6.62,16.59-11.26,33.54-11.18,51.41l4.34,1.24Z" transform="translate(11)" style="fill:#fff;stroke:#000;stroke-miterlimit:10;stroke-width:2px"/><path d="M481.75,365.25s6.75-34.5,18.38-53.75,23.87-41.58,20.12-60.17-6.25-35.58-38.5-44.83V212s24.5,6.5,31,29S511,276.75,511,276.75s-13.25,29-21.25,43-13.75,39-13,45.5S481.75,365.25,481.75,365.25Z" transform="translate(11)" style="fill:#fff;stroke:#000;stroke-miterlimit:10;stroke-width:2px"/><path d="M480.25,206.5s-20.5,3.73-37.5,16.11c0,0-23.33,12.64-27.54,18.39l-17.46,11.5,7.75,2s57.55-42.75,74.75-42.25Z" transform="translate(11)" style="fill:#fff;stroke:#000;stroke-miterlimit:10;stroke-width:2px"/><path d="M463.22,317.9s13.3-12.57,24.87-19.23S530,277,528.33,251.33,490.67,182,490.67,182,464,151.12,428,138.12h14.29S491.67,166,513,201.67s21.33,39.33,20.67,54.66c0,0-1.84,35.67-53.42,51.34,0,0-13.48,9.33-17,21" transform="translate(11)" style="fill:#fff;stroke:#000;stroke-miterlimit:10;stroke-width:2px"/><line x1="603.17" y1="294.33" x2="477.75" y2="254.5" style="fill:none;stroke:#000;stroke-miterlimit:10;stroke-width:2px"/><line x1="552.64" y1="315.85" x2="534.53" y2="311.97" style="fill:none;stroke:#000;stroke-miterlimit:10;stroke-width:2px"/><line x1="531.9" y1="335.09" x2="550.01" y2="338.97" style="fill:none;stroke:#000;stroke-miterlimit:10;stroke-width:2px"/><path d="M584.1,335.57c-.6,5.25-2.94,9.29-5.22,9s-3.66-4.72-3.06-10c.45-3.94,1.88-7.19,3.53-8.47a2.32,2.32,0,0,1,1.69-.56C583.33,325.86,584.7,330.32,584.1,335.57Z" transform="translate(11)" style="fill:none;stroke:#000;stroke-miterlimit:10;stroke-width:2px"/><path d="M542.55,336.91c-2.29-.26-3.66-4.72-3.06-10,.45-3.94,1.88-7.2,3.53-8.47a2.32,2.32,0,0,1,1.69-.56" transform="translate(11)" style="fill:none;stroke:#000;stroke-miterlimit:10;stroke-width:2px"/><path d="M542.42,336.82c-1,1.47-2.23,2.28-3.41,2.15-2.78-.32-4.45-5.75-3.72-12.13.55-4.79,2.28-8.75,4.29-10.3a2.83,2.83,0,0,1,2.06-.69,3.07,3.07,0,0,1,2.14,1.51" transform="translate(11)" style="fill:none;stroke:#000;stroke-miterlimit:10;stroke-width:2px"/><path d="M520.9,335.09c-2.79-.32-4.45-5.75-3.72-12.14.54-4.78,2.28-8.75,4.28-10.3a2.88,2.88,0,0,1,2.07-.68" transform="translate(11)" style="fill:none;stroke:#000;stroke-miterlimit:10;stroke-width:2px"/><path d="M527.57,336.56c-2.1,4.39-4.87,7.05-7.61,6.74-4.76-.54-7.61-9.83-6.36-20.75.93-8.19,3.9-15,7.33-17.62a4.87,4.87,0,0,1,3.53-1.17c3,.34,5.31,4.27,6.22,9.92" transform="translate(11)" style="fill:none;stroke:#000;stroke-miterlimit:10;stroke-width:2px"/><line x1="554" y1="317.9" x2="591.63" y2="325.6" style="fill:none;stroke:#000;stroke-miterlimit:10;stroke-width:2px"/><line x1="554" y1="336.95" x2="589.38" y2="344.67" style="fill:none;stroke:#000;stroke-miterlimit:10;stroke-width:2px"/><path d="M584.1,335.57c-.6,5.25-2.94,9.29-5.22,9s-3.66-4.72-3.06-10c.45-3.94,1.88-7.19,3.53-8.47a2.32,2.32,0,0,1,1.69-.56C583.33,325.86,584.7,330.32,584.1,335.57Z" transform="translate(11)" style="fill:none;stroke:#000;stroke-miterlimit:10;stroke-width:2px"/><path d="M544.34,317.75a4.8,4.8,0,0,0-2.7-1.9,2.83,2.83,0,0,0-2.06.69c-2,1.55-3.74,5.51-4.29,10.3-.73,6.38.94,11.81,3.72,12.13a4.26,4.26,0,0,0,3.7-2l-.16,0c-2.29-.26-3.66-4.72-3.06-10,.45-3.94,1.88-7.2,3.53-8.47a2.32,2.32,0,0,1,1.69-.56" transform="translate(11)" style="fill:none;stroke:#000;stroke-miterlimit:10;stroke-width:2px"/><path d="M541.64,315.85,523.53,312a2.88,2.88,0,0,0-2.07.68c-2,1.55-3.74,5.52-4.28,10.3-.73,6.39.93,11.82,3.72,12.14L539,339" transform="translate(11)" style="fill:none;stroke:#000;stroke-miterlimit:10;stroke-width:2px"/><path d="M527.57,336.56c-2.1,4.39-4.87,7.05-7.61,6.74-4.76-.54-7.61-9.83-6.36-20.75.93-8.19,3.9-15,7.33-17.62a4.87,4.87,0,0,1,3.53-1.17c3,.34,5.31,4.27,6.22,9.92" transform="translate(11)" style="fill:none;stroke:#000;stroke-miterlimit:10;stroke-width:2px"/><path d="M509.93,345.48c-2.32-5.67-3.26-14.12-2.21-23.36,1.38-12.06,5.75-22.05,10.81-25.95a7.15,7.15,0,0,1,5.2-1.72c4.48.51,7.81,6.3,9.15,14.62V314" transform="translate(11)" style="fill:none;stroke:#000;stroke-miterlimit:10;stroke-width:2px"/><line x1="554" y1="336.95" x2="589.38" y2="344.67" style="fill:none;stroke:#000;stroke-miterlimit:10;stroke-width:2px"/><line x1="567.33" y1="346.67" x2="439.33" y2="438.33" style="fill:none;stroke:#000;stroke-miterlimit:10;stroke-width:2px"/><line x1="390.37" y1="359.47" x2="321.84" y2="403.65" style="fill:none;stroke:#000;stroke-miterlimit:10;stroke-width:2px"/><line x1="285" y1="404.33" x2="285" y2="417.25" style="fill:none;stroke:#000;stroke-miterlimit:10;stroke-width:2px"/><path d="M433.25,475c-.58-.17-8.92-3-8.92-3L418,476.67" transform="translate(11)" style="fill:none;stroke:#000;stroke-miterlimit:10;stroke-width:2px"/><path d="M634.5,339.5s-9.35-.36-15,7.17c0,0-16,21.25-18.5,47.91s5.39,35.36,8.69,37.47" transform="translate(11)" style="fill:none;stroke:#000;stroke-miterlimit:10;stroke-width:2px"/><rect width="803" height="621" style="fill:none"/><path d="M688.8,355.38c9.64,3.38,10.24,26.72,1.33,52.12s-23.94,43.25-33.58,39.87a7.26,7.26,0,0,1-1.46-.7" transform="translate(11)" style="fill:none;stroke:#000;stroke-miterlimit:10;stroke-width:2px"/><path d="M650.06,438.33c-7-4.26-2.79-18.66,5.15-43.07,7.59-23.3,19.94-35.81,29.59-36.08" transform="translate(11)" style="fill:none;stroke:#000;stroke-miterlimit:10;stroke-width:2px"/><line x1="254.42" y1="530.63" x2="264.24" y2="532.23" style="fill:none;stroke:#000;stroke-miterlimit:10;stroke-width:2px"/><path d="M430,491.67s-20.07,3.84-45-3.92" transform="translate(11)" style="fill:none;stroke:#000;stroke-miterlimit:10;stroke-width:2px"/><ellipse cx="363.18" cy="541.83" rx="58.16" ry="30.91" transform="translate(-271.95 631.26) rotate(-64.05)" style="fill:#fff;stroke:#000;stroke-miterlimit:10;stroke-width:2px"/><path d="M306.5,451.1s-22.44-9-36.33,10.73" transform="translate(11)" style="fill:none;stroke:#000;stroke-miterlimit:10;stroke-width:2px"/><path d="M257.66,457.15,224.5,476.67s-6,2.5-7.83,21.16c0,0,10.16,2.34,4.5,6.5v5.34l2.16,4.5-5.66-3a17.06,17.06,0,0,0,6.5,13.83l20.16,5.9s-1.4-27.57,8.55-42.9c0,0,9.29-19,17.29-26.17Z" transform="translate(11)" style="fill:#fff;stroke:#000;stroke-miterlimit:10;stroke-width:2px"/><line x1="235.5" y1="476.67" x2="263.88" y2="488" style="fill:none;stroke:#000;stroke-miterlimit:10;stroke-width:2px"/><line x1="600" y1="346.67" x2="470.48" y2="442.5" style="fill:none;stroke:#000;stroke-miterlimit:10;stroke-width:2px"/><line x1="405.96" y1="327.07" x2="449.5" y2="299.25" style="fill:none;stroke:#000;stroke-miterlimit:10;stroke-width:2px"/><path d="M388.64,489.54,344.47,468c-15.35-7.47-39.53,10.59-54,40.34S276.68,568.3,292,575.77l41.47,16.66" transform="translate(11)" style="fill:#fff;stroke:#000;stroke-miterlimit:10;stroke-width:2px"/><path d="M352.5,453.25,323,466.35s-1.5-22.1-29.75-13.1c0,0-29,10.25-38,56.5,0,0-3,17-2.25,21.15s2,13.1,6,17.35l14.63-5.13s-9.88-6.37.37-47.37l47-29.4,4.6,2.77s10-4.66,18.87-1.08l10.41-5.16V452.5Z" transform="translate(11)" style="fill:#fff;stroke:#000;stroke-miterlimit:10;stroke-width:2px"/><polyline points="591.81 343.83 600 346.67 600 374.36 585.67 384.33 585.67 387.67 578.67 393.52 574 391.67 488.33 457 488.33 461.33 481 466.36 477 465 469.72 470.66" style="fill:none;stroke:#000;stroke-miterlimit:10;stroke-width:2px"/><path d="M366.86,345l14.64,4.16,17.17-69.67,34.66,9.17s7.67-.34,4.34,19.66l-4,174-15.34-4.66-1,8.66L432.67,491l-1,12.67H416.33c.67,0,.67,6,.67,6l33.67,10.66L456,298s3.33-24.33-10.67-26l-72-20,1.34-24.67,38,8.67s4.66,1,4-5l.33-19s14.33.33,12-27c0,0,0-21-9.67-21.67l1.67-42s6.33-4.33,5.67-13.66-8.34-12-12-12.67S401.5,105.33,411,119.67V157s-2.67-28-20.5-32.33L349.75,115l-46.08-9s-10-.67-17.17,20.17V91.33s6-3,5.5-11.66c0,0,.5-13.17-12.17-12.5,0,0-7.83,1.33-7.5,10.83,0,0-1.16,4.33,4.84,12.67V130.5s-7,1.67-6.5,17.33v14.5s0,12.84,10.67,15V201.5s-.84,1.67,6.33,3.67l33.33,8V239l-66.17-17.33s-10.66-3.34-12.16,6.66,0,222.17,0,222.17l17.33,7L259.5,255s-.67-12,13.33-9.5l23.84,6.5,13.83,77Z" transform="translate(11)" style="fill:none;stroke:#000;stroke-miterlimit:10;stroke-width:2px"/><path d="M379.25,228.38" transform="translate(11)" style="fill:none;stroke:#000;stroke-miterlimit:10;stroke-width:2px"/><path d="M398.38,501.11s22.95,3.89,33.29,2.56" transform="translate(11)" style="fill:none;stroke:#000;stroke-miterlimit:10;stroke-width:2px"/><polyline points="392.5 349.17 401.5 345.63 416.25 282.25" style="fill:none;stroke:#000;stroke-miterlimit:10;stroke-width:2px"/><line x1="444.33" y1="288.67" x2="445.47" y2="268.98" style="fill:none;stroke:#000;stroke-miterlimit:10;stroke-width:2px"/><line x1="278.17" y1="245.31" x2="280" y2="225.38" style="fill:none;stroke:#000;stroke-miterlimit:10;stroke-width:2px"/><line x1="384.33" y1="252" x2="332" y2="239" style="fill:none;stroke:#000;stroke-miterlimit:10;stroke-width:2px"/><path d="M688.8,355.38l-46.92-15.54C632,336.73,617.4,355,609.37,380.62s-6.29,50.44,3.63,53.55l32.47,9.52,2.79,1.08,7.83,2.7" transform="translate(11)" style="fill:none;stroke:#000;stroke-miterlimit:10;stroke-width:2px"/></g></svg>