<svg id="Capa_1" data-name="Capa 1" xmlns="http://www.w3.org/2000/svg" viewBox="0 0 524.12 533.01"><title>tito27</title><g id="Color"><path d="M435.82,131.7c7.58-16,26.94-23.78,43.65-23.87A134.65,134.65,0,0,1,518,113.44c26.78,7.87,55.65,23.41,65,51.4,4.32,13,4.66,27,2.39,40.41-6.25,37-25.9,94.63-25.33,111.38" transform="translate(-174.13 -63.35)" style="fill:none;stroke:#231f20;stroke-miterlimit:10"/><path d="M433.17,142.66c.06-1,.18-2.13.36-3.27" transform="translate(-174.13 -63.35)" style="fill:none;stroke:#231f20;stroke-miterlimit:10"/><path d="M448.19,219.39c-1.09-4.64-2.08-9.51-2.59-12.89-3.1-20.75-11.4-49.78-11.4-49.78s-.69-4.95-1.11-10.53" transform="translate(-174.13 -63.35)" style="fill:none;stroke:#231f20;stroke-miterlimit:10"/><path d="M436,148.81a45.28,45.28,0,0,0,1.48,7.48c5,20.14,9.6,40.85,13.68,61.06" transform="translate(-174.13 -63.35)" style="fill:none;stroke:#231f20;stroke-miterlimit:10"/><path d="M436.93,140.88c-.19.93-.5,2.8-.61,3.8" transform="translate(-174.13 -63.35)" style="fill:none;stroke:#231f20;stroke-miterlimit:10"/><path d="M556.39,316s2.39-22.69,6.34-36.52c3.72-13,8-25.87,11.81-38.87a173.56,173.56,0,0,0,4.83-20.36c1-6.46,1.89-13,2.72-19.47a101.76,101.76,0,0,0,.92-20c0-.67-.1-1.35-.17-2a64.61,64.61,0,0,0-2.26-11.76c-3.32-11.24-10.31-20.32-19.13-27.85a97.08,97.08,0,0,0-19.13-12.7c-11.48-5.83-24.14-9.24-36.61-12.25l-.6-.15a90.13,90.13,0,0,0-26.83-2.56,52.41,52.41,0,0,0-31.89,13.11,31.23,31.23,0,0,0-6.31,7.88" transform="translate(-174.13 -63.35)" style="fill:none;stroke:#231f20;stroke-miterlimit:10"/><path d="M488.48,108.22c7.6-.9,15.59-.45,28.55,1.53a134.29,134.29,0,0,1,43.5,14.82c13.64,7.38,26.89,16.73,34.13,30.85,6.57,12.81,8.62,27.45,7.39,41.69-1.62,18.61-7.19,37-12,55-4.19,15.69-8.81,31.32-12.19,47.21-1.11,5.21-2.35,11.93-2.17,17.3" transform="translate(-174.13 -63.35)" style="fill:none;stroke:#231f20;stroke-miterlimit:10"/><path d="M450.93,133c1.9-4.7,5.29-8.67,9-12s8.09-6.75,12.88-8.71" transform="translate(-174.13 -63.35)" style="fill:none;stroke:#231f20;stroke-miterlimit:10"/><path d="M449,141.68a30.16,30.16,0,0,1,.58-4.24" transform="translate(-174.13 -63.35)" style="fill:none;stroke:#231f20;stroke-miterlimit:10"/><path d="M451,156.72a52,52,0,0,1-2.11-9.56" transform="translate(-174.13 -63.35)" style="fill:none;stroke:#231f20;stroke-miterlimit:10"/><path d="M462.11,212.5c-.24-1.9-.54-4.17-.86-6-2.32-13.08-6.61-32.39-8.61-42.77" transform="translate(-174.13 -63.35)" style="fill:none;stroke:#231f20;stroke-miterlimit:10"/><path d="M465.63,217a114.57,114.57,0,0,1,1.12,20v12.5l-3.53,1.83a253.61,253.61,0,0,0-.49-33.33" transform="translate(-174.13 -63.35)" style="fill:none;stroke:#231f20;stroke-miterlimit:10"/><path d="M455.92,167.86c3.36,14,6.86,29.76,9,43.76" transform="translate(-174.13 -63.35)" style="fill:none;stroke:#231f20;stroke-miterlimit:10"/><path d="M451.6,148.81a50.28,50.28,0,0,0,1.47,7.48c.18.68.62,2.63.8,3.33" transform="translate(-174.13 -63.35)" style="fill:none;stroke:#231f20;stroke-miterlimit:10"/><path d="M453.47,137.61a30.06,30.06,0,0,0-1.36,6.16" transform="translate(-174.13 -63.35)" style="fill:none;stroke:#231f20;stroke-miterlimit:10"/><path d="M491.6,111.7a47.8,47.8,0,0,0-23.6,8.37,33.79,33.79,0,0,0-12.67,13.2" transform="translate(-174.13 -63.35)" style="fill:none;stroke:#231f20;stroke-miterlimit:10"/><path d="M572.27,316.63s2.15-23.3,6.11-37.13c4.56-16,10.31-31.6,14.2-47.77,3.77-15.68,7.09-33.37,6.17-49.53-1.42-25.12-17.33-43.24-39-54.53-9.49-5-19.6-7.15-29.46-11A77.11,77.11,0,0,0,512.57,112" transform="translate(-174.13 -63.35)" style="fill:none;stroke:#231f20;stroke-miterlimit:10"/><path d="M452.5,224.32q.76,3.85,1.5,7.68l9.22,33v9.75s-7.88-27.08-13.33-49" transform="translate(-174.13 -63.35)" style="fill:none;stroke:#231f20;stroke-miterlimit:10"/><polyline points="138.79 320.4 138.87 322.23 138.87 326.49 131.25 329.63 129.38 329.3" style="fill:none;stroke:#231f20;stroke-miterlimit:10"/><path d="M312.92,383.75" transform="translate(-174.13 -63.35)" style="fill:none;stroke:#231f20;stroke-miterlimit:10"/><line x1="136.71" y1="287.99" x2="138.55" y2="314.48" style="fill:none;stroke:#231f20;stroke-miterlimit:10"/><path d="M301.81,346.35" transform="translate(-174.13 -63.35)" style="fill:none;stroke:#231f20;stroke-miterlimit:10"/><path d="M305.38,393" transform="translate(-174.13 -63.35)" style="fill:none;stroke:#231f20;stroke-miterlimit:10"/><path d="M346.72,280.1a10.09,10.09,0,0,1,10.89,5.77s1,2.57-.81,9.57l-10.33,5.83s-8.34,2.83-10.84-6c0,0-3-8.33,2-10.33Z" transform="translate(-174.13 -63.35)" style="fill:none;stroke:#231f20;stroke-miterlimit:10"/><polygon points="122.54 173.65 225.87 201.65 204.21 281.32 140.21 263.99 122.54 173.65" style="fill:none;stroke:#231f20;stroke-miterlimit:10"/><ellipse cx="333.79" cy="292.98" rx="3.08" ry="4.67" style="fill:none;stroke:#231f20;stroke-miterlimit:10"/><ellipse cx="333.79" cy="292.98" rx="1.42" ry="2.15" style="fill:none;stroke:#231f20;stroke-miterlimit:10"/><ellipse cx="342.88" cy="287.28" rx="3.08" ry="4.67" style="fill:none;stroke:#231f20;stroke-miterlimit:10"/><ellipse cx="342.88" cy="287.28" rx="1.42" ry="2.15" style="fill:none;stroke:#231f20;stroke-miterlimit:10"/><ellipse cx="352.16" cy="282.13" rx="3.08" ry="4.67" style="fill:none;stroke:#231f20;stroke-miterlimit:10"/><ellipse cx="352.16" cy="282.13" rx="1.42" ry="2.15" style="fill:none;stroke:#231f20;stroke-miterlimit:10"/><polyline points="356.55 274.4 356.55 288.32 328.25 304.79 327.58 286.79 355.9 274.4" style="fill:none;stroke:#231f20;stroke-miterlimit:10"/><polyline points="164 236.36 151.21 233.32 138.87 187.99 211.54 205.99 197.54 244.32 171.64 238.17" style="fill:none;stroke:#231f20;stroke-miterlimit:10"/><polygon points="152.87 247.15 196.87 259.32 191.87 271.32 155.21 259.24 152.87 247.15" style="fill:none;stroke:#231f20;stroke-miterlimit:10"/><path d="M309.51,138.23l80.62,18a4.53,4.53,0,0,1,3.54,4.42V198.9a4.53,4.53,0,0,1-5.61,4.39l-80.61-19.78a4.51,4.51,0,0,1-3.45-4.39V142.65A4.52,4.52,0,0,1,309.51,138.23Z" transform="translate(-174.13 -63.35)" style="fill:none;stroke:#231f20;stroke-miterlimit:10"/><ellipse cx="149.87" cy="101.32" rx="8" ry="10" style="fill:none;stroke:#231f20;stroke-miterlimit:10"/><ellipse cx="198.54" cy="113.82" rx="8" ry="10" style="fill:none;stroke:#231f20;stroke-miterlimit:10"/><ellipse cx="149.87" cy="101.81" rx="6.13" ry="7.66" style="fill:none;stroke:#231f20;stroke-miterlimit:10"/><ellipse cx="282.25" cy="78.16" rx="5.75" ry="7.19" transform="translate(-184.36 29.97) rotate(-18.45)" style="fill:#fff;stroke:#231f20;stroke-miterlimit:10"/><ellipse cx="282.36" cy="78.5" rx="4.41" ry="5.51" transform="matrix(0.95, -0.32, 0.32, 0.95, -184.46, 30.03)" style="fill:#fff;stroke:#231f20;stroke-miterlimit:10"/><ellipse cx="416.25" cy="106.75" rx="5.75" ry="7.19" transform="translate(-186.52 73.84) rotate(-18.45)" style="fill:none;stroke:#231f20;stroke-miterlimit:10"/><ellipse cx="416.36" cy="107.09" rx="4.41" ry="5.51" transform="translate(-186.62 73.9) rotate(-18.45)" style="fill:#fff;stroke:#231f20;stroke-miterlimit:10"/><ellipse cx="198.54" cy="113.82" rx="6.13" ry="7.66" style="fill:none;stroke:#231f20;stroke-miterlimit:10"/><path d="M309.44,189.41c16.78,4,67.3,16.29,80.85,19.6a4.42,4.42,0,0,1,3.38,4.3v.41a4.43,4.43,0,0,1-5.46,4.31l-80.8-19.22A4.43,4.43,0,0,1,304,194.5v-.78A4.42,4.42,0,0,1,309.44,189.41Z" transform="translate(-174.13 -63.35)" style="fill:none;stroke:#231f20;stroke-miterlimit:10"/><path d="M327.77,214.94c8.5,2,34.09,8.25,41,9.93a2.24,2.24,0,0,1,1.71,2.18v.2a2.26,2.26,0,0,1-2.77,2.19l-40.92-9.74a2.25,2.25,0,0,1-1.73-2.18v-.4A2.25,2.25,0,0,1,327.77,214.94Z" transform="translate(-174.13 -63.35)" style="fill:none;stroke:#231f20;stroke-miterlimit:10"/><path d="M327.77,222.68c8.5,2,34.09,8.25,41,9.92a2.26,2.26,0,0,1,1.71,2.18V235a2.26,2.26,0,0,1-2.77,2.19l-40.92-9.74a2.26,2.26,0,0,1-1.73-2.19v-.39A2.24,2.24,0,0,1,327.77,222.68Z" transform="translate(-174.13 -63.35)" style="fill:none;stroke:#231f20;stroke-miterlimit:10"/><path d="M327.77,230c8.5,2,34.09,8.25,41,9.93a2.24,2.24,0,0,1,1.71,2.18v.2a2.26,2.26,0,0,1-2.77,2.19l-40.92-9.74a2.25,2.25,0,0,1-1.73-2.18v-.4A2.24,2.24,0,0,1,327.77,230Z" transform="translate(-174.13 -63.35)" style="fill:#fff;stroke:#231f20;stroke-miterlimit:10"/><path d="M245.5,222.83s3.78-2.62,10.92-.75L321,239v-6.5l-59.67-15.17s-3.16-1.18-7.66.83a51.36,51.36,0,0,0-8.17,4.67" transform="translate(-174.13 -63.35)" style="fill:none;stroke:#231f20;stroke-miterlimit:10"/><path d="M311,479.48l-27,18.35s-6.17,4.17-10-2.08" transform="translate(-174.13 -63.35)" style="fill:none;stroke:#231f20;stroke-miterlimit:10"/><path d="M279.29,545.55c-2,.19-3.81.59-5.66-2.43" transform="translate(-174.13 -63.35)" style="fill:none;stroke:#231f20;stroke-miterlimit:10"/><path d="M290.24,540.41" transform="translate(-174.13 -63.35)" style="fill:none;stroke:#231f20;stroke-miterlimit:10"/><path d="M450.67,520.33l6.83-4.83L463.75,285s1.58-17-13.08-18.5l-71.42-19V228.38" transform="translate(-174.13 -63.35)" style="fill:none;stroke:#231f20;stroke-miterlimit:10"/><path d="M414.62,235.87l8.63-3.87V209.34l8-4.34s2.5-2.25,3-11.5a145.83,145.83,0,0,0,0-16.33s1.25-11.92-7.5-16.67l2.5-43.5s7.5-4.75,2.25-16.5c0,0-3.92-10.5-16.83-5.5" transform="translate(-174.13 -63.35)" style="fill:none;stroke:#231f20;stroke-miterlimit:10"/><path d="M281.59,95.77l2.19.76a1.32,1.32,0,0,1,.89,1.25v30.65a1.32,1.32,0,0,1-2,1.15l-2.19-1.2a1.35,1.35,0,0,1-.69-1.16V97A1.33,1.33,0,0,1,281.59,95.77Z" transform="translate(-174.13 -63.35)" style="fill:none;stroke:#231f20;stroke-miterlimit:10"/><path d="M414.54,124.6l2.19.75a1.33,1.33,0,0,1,.9,1.25v30.65a1.33,1.33,0,0,1-2,1.16l-2.18-1.21a1.3,1.3,0,0,1-.69-1.15v-30.2A1.32,1.32,0,0,1,414.54,124.6Z" transform="translate(-174.13 -63.35)" style="fill:none;stroke:#231f20;stroke-miterlimit:10"/><path d="M284.67,136.17s-8-6.5-11,4.66V158s.33,6,8.58,5.33Z" transform="translate(-174.13 -63.35)" style="fill:none;stroke:#231f20;stroke-miterlimit:10"/><path d="M411.17,164.67l4,29,8,.83s1.59-3,1.38-13.5S421.83,165,411.17,164.67Z" transform="translate(-174.13 -63.35)" style="fill:none;stroke:#231f20;stroke-miterlimit:10"/><path d="M266.74,338l-.24-85.5c-.5-9,6.33-7,6.33-7" transform="translate(-174.13 -63.35)" style="fill:none;stroke:#231f20;stroke-miterlimit:10"/><line x1="92.87" y1="362.39" x2="92.63" y2="279.07" style="fill:none;stroke:#231f20;stroke-miterlimit:10"/><polyline points="92.66 370.84 99.29 372.32 105.91 367.65 98.67 364.73" style="fill:none;stroke:#231f20;stroke-miterlimit:10"/><polyline points="106.87 375.53 105.91 367.65 99.13 372.65 99.87 379.15" style="fill:none;stroke:#231f20;stroke-miterlimit:10"/><polyline points="86.36 375.08 99.87 379.15 106.78 374.78" style="fill:none;stroke:#231f20;stroke-miterlimit:10"/><path d="M279.83,67.17l6.67-2.92s10-1.75,11.5,10.25S294.25,88,294.25,88l-.15,23.72" transform="translate(-174.13 -63.35)" style="fill:none;stroke:#231f20;stroke-miterlimit:10"/><path d="M302.16,106.18c6.92-3.7,13.35-3.37,20.9-2.37a408.85,408.85,0,0,1,52.18,10c14,3.76,30.2,8,35.76,23.16" transform="translate(-174.13 -63.35)" style="fill:none;stroke:#231f20;stroke-miterlimit:10"/><path d="M488.8,242.83l-19.47,8.5s-4.47,2.26-5.53,13.67l-.58,39.66" transform="translate(-174.13 -63.35)" style="fill:none;stroke:#231f20;stroke-miterlimit:10"/><polyline points="321.32 178.41 318.87 177.65 317.14 178.41" style="fill:none;stroke:#231f20;stroke-miterlimit:10"/><line x1="340.18" y1="184.24" x2="324.79" y2="179.48" style="fill:none;stroke:#231f20;stroke-miterlimit:10"/><line x1="354.28" y1="188.61" x2="346.06" y2="186.06" style="fill:none;stroke:#231f20;stroke-miterlimit:10"/><line x1="367.15" y1="192.59" x2="359.65" y2="190.29" style="fill:none;stroke:#231f20;stroke-miterlimit:10"/><line x1="393.3" y1="200.68" x2="370.81" y2="193.72" style="fill:none;stroke:#231f20;stroke-miterlimit:10"/><path d="M567.42,264" transform="translate(-174.13 -63.35)" style="fill:none;stroke:#231f20;stroke-miterlimit:10"/><path d="M570.58,265" transform="translate(-174.13 -63.35)" style="fill:none;stroke:#231f20;stroke-miterlimit:10"/><line x1="407.58" y1="205.1" x2="396.45" y2="201.66" style="fill:none;stroke:#231f20;stroke-miterlimit:10"/><path d="M589,363.67l15.3-10s6.37-3.67,6.37-12.67l2.5-55.5s3.83-8.83-3.84-8.5l-23.94-7.41" transform="translate(-174.13 -63.35)" style="fill:none;stroke:#231f20;stroke-miterlimit:10"/><polyline points="115.72 345.6 179.37 364.15 179.37 372.65 186.37 374.65 186.37 366.65 259.12 389.65" style="fill:none;stroke:#231f20;stroke-miterlimit:10"/><polyline points="125.22 324.34 99.87 340.98 108.91 343.62" style="fill:none;stroke:#231f20;stroke-miterlimit:10"/><line x1="182.38" y1="287.99" x2="160.36" y2="303.56" style="fill:none;stroke:#231f20;stroke-miterlimit:10"/><polygon points="119.37 373.84 110.87 371.33 110.87 355.9 119.37 358.9 119.37 373.84" style="fill:#fff;stroke:#231f20;stroke-miterlimit:10"/><polygon points="188 391.77 179.5 389.61 179.5 376.28 188 378.87 188 391.77" style="fill:#fff;stroke:#231f20;stroke-miterlimit:10"/><line x1="302.41" y1="282.05" x2="306.07" y2="279.42" style="fill:none;stroke:#231f20;stroke-miterlimit:10"/><line x1="280.57" y1="297.81" x2="297.68" y2="285.47" style="fill:none;stroke:#231f20;stroke-miterlimit:10"/><line x1="257.55" y1="313.96" x2="262.15" y2="311.09" style="fill:none;stroke:#231f20;stroke-miterlimit:10"/><line x1="185.54" y1="366.33" x2="252.74" y2="317.87" style="fill:none;stroke:#231f20;stroke-miterlimit:10"/><path d="M435.28,390.41" transform="translate(-174.13 -63.35)" style="fill:none;stroke:#231f20;stroke-miterlimit:10"/><path d="M366.61,436.62" transform="translate(-174.13 -63.35)" style="fill:none;stroke:#231f20;stroke-miterlimit:10"/><path d="M436.28,391.41" transform="translate(-174.13 -63.35)" style="fill:none;stroke:#231f20;stroke-miterlimit:10"/><path d="M367.61,437.63" transform="translate(-174.13 -63.35)" style="fill:none;stroke:#231f20;stroke-miterlimit:10"/><path d="M440.35,395.48" transform="translate(-174.13 -63.35)" style="fill:none;stroke:#231f20;stroke-miterlimit:10"/><path d="M371.69,441.7" transform="translate(-174.13 -63.35)" style="fill:none;stroke:#231f20;stroke-miterlimit:10"/><line x1="302.52" y1="277.25" x2="308.14" y2="273.27" style="fill:none;stroke:#231f20;stroke-miterlimit:10"/><line x1="287.83" y1="287.61" x2="297.68" y2="280.66" style="fill:none;stroke:#231f20;stroke-miterlimit:10"/><line x1="254.58" y1="311.09" x2="261.86" y2="305.95" style="fill:none;stroke:#231f20;stroke-miterlimit:10"/><line x1="178.82" y1="364.57" x2="249.25" y2="314.85" style="fill:none;stroke:#231f20;stroke-miterlimit:10"/><polyline points="176.5 313.02 175.32 312.66 171.99 316.34 178.92 318.87 183.04 314.49 180.63 313.88" style="fill:none;stroke:#231f20;stroke-miterlimit:10"/><polyline points="185.47 351.62 183.37 314.49 178.92 318.87 179.96 356.65 185.47 351.62 179.96 356.65 173.32 354.48 173.07 347.17 173.03 346.11 171.99 316.34 178.92 318.87 179.96 356.43" style="fill:#fff;stroke:#231f20;stroke-miterlimit:10"/><line x1="173.01" y1="345.7" x2="173.03" y2="346.11" style="fill:none;stroke:#231f20;stroke-miterlimit:10"/><path d="M607.17,287.93c-2.87,2.9-2.87,55.39-2.87,55.39l-12.8,8.35.64-54.93Z" transform="translate(-174.13 -63.35)" style="fill:none;stroke:#231f20;stroke-miterlimit:10"/><polygon points="299 303.15 307.62 304.28 302.75 352.78 292.62 352.78 299 303.15" style="fill:#fff;stroke:#231f20;stroke-miterlimit:10"/><polyline points="312.59 326.46 311.25 343.22 317.87 345.9 323.25 343.22 326 304.28 321 307.03 314.37 304.28 312.59 326.46" style="fill:#fff;stroke:#231f20;stroke-miterlimit:10"/><line x1="321" y1="307.03" x2="319.37" y2="345.9" style="fill:none;stroke:#231f20;stroke-miterlimit:10"/><path d="M459.83,429.68" transform="translate(-174.13 -63.35)" style="fill:none;stroke:#231f20;stroke-miterlimit:10"/><path d="M230.25,466.35l-8.5-4.35L213,467.5s-2,1.58-1.5,8.17L196.25,504.5l1.39.87,4.86,3.06,15.25-31.68L223,474.5l7.25-4Z" transform="translate(-174.13 -63.35)" style="fill:none;stroke:#231f20;stroke-miterlimit:10"/><path d="M334.94,367.3c-3.94-6.91-15.79-22.36-42.69-28.8-35.5-8.5-68,22.75-68,22.75s-33.25,27.25-45,78.38,6.5,75.62,6.5,75.62,7.94,11.47,16.75-6.82" transform="translate(-174.13 -63.35)" style="fill:none;stroke:#231f20;stroke-miterlimit:10"/><path d="M197.64,505.37,193,512.88s-1.5,2.37-4.75-3.88-9.75-29.5-6.25-56,19.75-59.33,29.25-69.54,26-36,59.25-41.21c0,0,41-4.74,59.78,27.32" transform="translate(-174.13 -63.35)" style="fill:none;stroke:#231f20;stroke-miterlimit:10"/><polyline points="156.16 311.27 160 309.45 165.43 306.67 161.44 345.14 156.36 348.71 149.44 345.8 153.88 312.49" style="fill:#fff;stroke:#231f20;stroke-miterlimit:10"/><line x1="160.36" y1="309.13" x2="156.36" y2="348.71" style="fill:#fff;stroke:#231f20;stroke-miterlimit:10"/><path d="M339.63,370.5" transform="translate(-174.13 -63.35)" style="fill:none;stroke:#231f20;stroke-miterlimit:10"/><path d="M220.83,462l-1-1.17,22.84-10.33,3.9,1.69,5,1.91s2.24,5.57-5.59,7.9l-14,8.5h-1.75" transform="translate(-174.13 -63.35)" style="fill:none;stroke:#231f20;stroke-miterlimit:10"/><path d="M242.67,450.5c-.53-.14-.67-8,4.83-12.5l17.83-12.67s5.45-2.06,4.26,7.21l-13.95,9.21a16,16,0,0,1-4,12.35A65.3,65.3,0,0,0,242.67,450.5Z" transform="translate(-174.13 -63.35)" style="fill:none;stroke:#231f20;stroke-miterlimit:10"/><path d="M354.5,358.27c1.6-6.06,3.42-11.75,5.17-14.44" transform="translate(-174.13 -63.35)" style="fill:none;stroke:#231f20;stroke-miterlimit:10"/><path d="M359.68,362,354,379.29s-3.37,1.54-4.21.21c0,0,1.17-6.89,3.12-15.16" transform="translate(-174.13 -63.35)" style="fill:none;stroke:#231f20;stroke-miterlimit:10"/><line x1="190.21" y1="282.15" x2="187.21" y2="292.79" style="fill:none;stroke:#231f20;stroke-miterlimit:10"/><path d="M502.54,294.73c-5.86,3.27-13,8.85-22,13.6,0,0-13.73,8.67-17.28,20.34" transform="translate(-174.13 -63.35)" style="fill:none;stroke:#231f20;stroke-miterlimit:10"/><path d="M463.22,317.9s13.3-12.57,24.87-19.23c4.4-2.54,10.66-5.67,17.7-10.74" transform="translate(-174.13 -63.35)" style="fill:none;stroke:#231f20;stroke-miterlimit:10"/><line x1="292.62" y1="191.15" x2="313.83" y2="198.01" style="fill:none;stroke:#231f20;stroke-miterlimit:10"/><line x1="339.37" y1="206.28" x2="318.21" y2="199.43" style="fill:none;stroke:#231f20;stroke-miterlimit:10"/><line x1="348.19" y1="209.13" x2="345.02" y2="208.11" style="fill:none;stroke:#231f20;stroke-miterlimit:10"/><line x1="367.51" y1="252.5" x2="349.4" y2="248.62" style="fill:none;stroke:#231f20;stroke-miterlimit:10"/><line x1="346.77" y1="271.74" x2="364.88" y2="275.62" style="fill:none;stroke:#231f20;stroke-miterlimit:10"/><path d="M584.1,335.57c-.6,5.25-2.94,9.29-5.22,9s-3.66-4.72-3.06-10c.45-3.94,1.88-7.19,3.53-8.47a2.32,2.32,0,0,1,1.69-.56C583.33,325.86,584.7,330.32,584.1,335.57Z" transform="translate(-174.13 -63.35)" style="fill:none;stroke:#231f20;stroke-miterlimit:10"/><path d="M542.55,336.91c-2.29-.26-3.66-4.72-3.06-10,.45-3.94,1.88-7.2,3.53-8.47a2.32,2.32,0,0,1,1.69-.56" transform="translate(-174.13 -63.35)" style="fill:none;stroke:#231f20;stroke-miterlimit:10"/><path d="M542.42,336.82c-1,1.47-2.23,2.28-3.41,2.15-2.78-.32-4.45-5.75-3.72-12.13.55-4.79,2.28-8.75,4.29-10.3a2.83,2.83,0,0,1,2.06-.69,3.07,3.07,0,0,1,2.14,1.51" transform="translate(-174.13 -63.35)" style="fill:none;stroke:#231f20;stroke-miterlimit:10"/><path d="M520.9,335.09c-2.79-.32-4.45-5.75-3.72-12.14.54-4.78,2.28-8.75,4.28-10.3a2.88,2.88,0,0,1,2.07-.68" transform="translate(-174.13 -63.35)" style="fill:none;stroke:#231f20;stroke-miterlimit:10"/><path d="M578.38,325.61" transform="translate(-174.13 -63.35)" style="fill:none;stroke:#231f20;stroke-miterlimit:10"/><path d="M543,317.9" transform="translate(-174.13 -63.35)" style="fill:none;stroke:#231f20;stroke-miterlimit:10"/><line x1="368.87" y1="273.6" x2="404.25" y2="281.32" style="fill:none;stroke:#231f20;stroke-miterlimit:10"/><line x1="367.51" y1="252.5" x2="349.4" y2="248.62" style="fill:none;stroke:#231f20;stroke-miterlimit:10"/><line x1="346.77" y1="271.74" x2="364.88" y2="275.62" style="fill:none;stroke:#231f20;stroke-miterlimit:10"/><path d="M584.1,335.57c-.6,5.25-2.94,9.29-5.22,9s-3.66-4.72-3.06-10c.45-3.94,1.88-7.19,3.53-8.47a2.32,2.32,0,0,1,1.69-.56C583.33,325.86,584.7,330.32,584.1,335.57Z" transform="translate(-174.13 -63.35)" style="fill:none;stroke:#231f20;stroke-miterlimit:10"/><path d="M542.55,336.91c-2.29-.26-3.66-4.72-3.06-10,.45-3.94,1.88-7.2,3.53-8.47.55-.42.74-.63,1.31-.56" transform="translate(-174.13 -63.35)" style="fill:none;stroke:#231f20;stroke-miterlimit:10"/><path d="M542.42,336.82c-1,1.47-2.23,2.28-3.41,2.15-2.78-.32-4.45-5.75-3.72-12.13.55-4.79,2.28-8.75,4.29-10.3a2.83,2.83,0,0,1,2.06-.69,2.58,2.58,0,0,1,2.35,2.26" transform="translate(-174.13 -63.35)" style="fill:none;stroke:#231f20;stroke-miterlimit:10"/><path d="M520.9,335.09c-2.79-.32-4.45-5.75-3.72-12.14.54-4.78,2.28-8.75,4.28-10.3a2.88,2.88,0,0,1,2.07-.68" transform="translate(-174.13 -63.35)" style="fill:none;stroke:#231f20;stroke-miterlimit:10"/><path d="M526.77,336.35c-1.95,4.08-4.6,4.75-7.14,4.46-4.42-.5-6.62-8.06-5.46-18.2.86-7.6,3.62-13.9,6.81-16.36a4.48,4.48,0,0,1,3.27-1.08c2.83.32,4.93,2.95,5.77,8.19" transform="translate(-174.13 -63.35)" style="fill:none;stroke:#231f20;stroke-miterlimit:10"/><path d="M510.08,346c-2.31-5.66-3.41-14.6-2.36-23.84,1.38-12.06,5.75-22.05,10.81-25.95a7.15,7.15,0,0,1,5.2-1.72c4.48.51,7.81,6.3,9.15,14.62V314" transform="translate(-174.13 -63.35)" style="fill:none;stroke:#231f20;stroke-miterlimit:10"/><line x1="368.87" y1="254.55" x2="406.91" y2="262.25" style="fill:none;stroke:#231f20;stroke-miterlimit:10"/><line x1="367.91" y1="273.45" x2="403.29" y2="281.17" style="fill:none;stroke:#231f20;stroke-miterlimit:10"/><polygon points="286.55 353.05 286.25 350.8 293.25 345.94 293.3 348.21 286.55 353.05" style="fill:none;stroke:#231f20;stroke-miterlimit:10;opacity:0.5"/><polygon points="304.16 340.3 303.99 338.1 311.81 332.5 311.69 335.03 304.16 340.3" style="fill:none;stroke:#231f20;stroke-miterlimit:10;opacity:0.5"/><polygon points="324.2 325.96 324.22 323.8 378.11 285.99 380.42 286.63 324.2 325.96" style="fill:none;stroke:#231f20;stroke-miterlimit:10;opacity:0.5"/><line x1="152.6" y1="325.04" x2="128.1" y2="340.83" style="fill:none;stroke:#231f20;stroke-miterlimit:10;opacity:0.5"/><line x1="177" y1="309.31" x2="165.5" y2="316.72" style="fill:none;stroke:#231f20;stroke-miterlimit:10;opacity:0.5"/><line x1="194.95" y1="297.18" x2="183.85" y2="304.71" style="fill:none;stroke:#231f20;stroke-miterlimit:10;opacity:0.5"/><line x1="210.53" y1="286.62" x2="204.05" y2="291.02" style="fill:none;stroke:#231f20;stroke-miterlimit:10;opacity:0.5"/><line x1="225.92" y1="276.43" x2="223.69" y2="277.91" style="fill:none;stroke:#231f20;stroke-miterlimit:10;opacity:0.5"/><line x1="242.17" y1="265.58" x2="234.74" y2="270.54" style="fill:none;stroke:#231f20;stroke-miterlimit:10;opacity:0.5"/><line x1="256.87" y1="255.78" x2="246.7" y2="262.56" style="fill:none;stroke:#231f20;stroke-miterlimit:10;opacity:0.5"/><line x1="262.85" y1="251.06" x2="256.87" y2="255.78" style="fill:none;stroke:#231f20;stroke-miterlimit:10;opacity:0.5"/><line x1="99.87" y1="340.98" x2="99.87" y2="355.4" style="fill:none;stroke:#231f20;stroke-miterlimit:10"/><path d="M433.25,475c-.58-.17-8.92-3-8.92-3l-6,5.67" transform="translate(-174.13 -63.35)" style="fill:none;stroke:#231f20;stroke-miterlimit:10"/><path d="M634.5,339.5s-9.35-.36-15,7.17c0,0-16,21.25-18.5,47.91s5.39,35.36,8.69,37.47" transform="translate(-174.13 -63.35)" style="fill:none;stroke:#231f20;stroke-miterlimit:10"/><polyline points="302.39 276.9 301.93 295.13 297.37 296.12 297.37 256.6 300.14 256.6 302.91 256.6 302.39 276.9" style="fill:none;stroke:#231f20;stroke-miterlimit:10"/><line x1="302.32" y1="247.96" x2="300.14" y2="256.6" style="fill:none;stroke:#231f20;stroke-miterlimit:10"/><line x1="307.51" y1="244.32" x2="302.91" y2="256.6" style="fill:none;stroke:#231f20;stroke-miterlimit:10"/><path d="M478.22,305.31s19.95-52.17,5.35-92.17l5.52,1.74s7.88,44.84-5,86.24" transform="translate(-174.13 -63.35)" style="fill:none;stroke:#231f20;stroke-miterlimit:10"/><line x1="106.22" y1="370.15" x2="165.5" y2="389.65" style="fill:none;stroke:#231f20;stroke-miterlimit:10"/><line x1="179.5" y1="392.69" x2="244.21" y2="414.32" style="fill:none;stroke:#231f20;stroke-miterlimit:10"/><path d="M584.21,344.61l1.54-46.11s-1-7.14,3.25-10.57L609.33,277" transform="translate(-174.13 -63.35)" style="fill:none;stroke:#231f20;stroke-miterlimit:10"/><path d="M498.12,398.14" transform="translate(-174.13 -63.35)" style="fill:none;stroke:#231f20;stroke-miterlimit:10;opacity:0.5"/><polyline points="317.92 346.29 286.81 368.49 286.47 362.91 312.44 344.08" style="fill:none;stroke:#231f20;stroke-miterlimit:10;opacity:0.5"/><line x1="323.36" y1="341.67" x2="317.6" y2="345.79" style="fill:none;stroke:#231f20;stroke-miterlimit:10;opacity:0.5"/><polyline points="324.15 335.59 390.57 287.44 397.66 289.39 323.53 342.29" style="fill:none;stroke:#231f20;stroke-miterlimit:10;opacity:0.5"/><polygon points="121.64 338.96 123.12 335.96 129.38 329.3 134.56 330.53 121.64 338.96" style="fill:none;stroke:#231f20;stroke-miterlimit:10;opacity:0.5"/><path d="M304.4,394.25" transform="translate(-174.13 -63.35)" style="fill:none;stroke:#231f20;stroke-miterlimit:10;opacity:0.5"/><polygon points="137.88 328.32 138.87 321.7 153.88 312.49 153.45 318.58 137.88 328.32" style="fill:none;stroke:#231f20;stroke-miterlimit:10;opacity:0.5"/><polygon points="165.35 311.01 165.43 306.67 178.19 301.24 178.21 302.57 165.35 311.01" style="fill:none;stroke:#231f20;stroke-miterlimit:10;opacity:0.5"/><polygon points="195.69 291.22 188.31 292.09 199.37 284.51 204.3 285.99 195.69 291.22" style="fill:none;stroke:#231f20;stroke-miterlimit:10;opacity:0.5"/><line x1="401.55" y1="289.6" x2="285.48" y2="374.28" style="fill:none;stroke:#231f20;stroke-miterlimit:10;opacity:0.5"/><path d="M274,416.25" transform="translate(-174.13 -63.35)" style="fill:none;stroke:#231f20;stroke-miterlimit:10"/><path d="M436.64,312.05" transform="translate(-174.13 -63.35)" style="fill:none;stroke:#231f20;stroke-miterlimit:10"/><path d="M382.39,299.25" transform="translate(-174.13 -63.35)" style="fill:none;stroke:#231f20;stroke-miterlimit:10"/><path d="M604.3,350.14" transform="translate(-174.13 -63.35)" style="fill:none;stroke:#231f20;stroke-miterlimit:10"/><polygon points="136.72 340.85 143.16 336.64 150.87 339.82 144.76 343.82 136.72 340.85" style="fill:#fff;stroke:#231f20;stroke-miterlimit:10"/><polygon points="160.31 349.59 165.64 346.11 172.02 348.74 166.96 352.05 160.31 349.59" style="fill:#fff;stroke:#231f20;stroke-miterlimit:10"/><polyline points="150.88 337.03 146.4 335.38 151.44 332.09" style="fill:#fff;stroke:#231f20;stroke-miterlimit:10"/><polyline points="162.47 336.15 168.86 338.78 163.79 342.08 161.83 341.36" style="fill:#fff;stroke:#231f20;stroke-miterlimit:10"/><polyline points="185.42 346.17 186.89 345.22 193.27 347.85 188.21 351.15 185.65 350.21" style="fill:#fff;stroke:#231f20;stroke-miterlimit:10"/><polyline points="163.48 327.69 166.84 329.07 163 331.58" style="fill:#fff;stroke:#231f20;stroke-miterlimit:10"/><polyline points="172.53 336.63 165.87 334.17 171.21 330.69 172.32 331.15" style="fill:#fff;stroke:#231f20;stroke-miterlimit:10"/><polyline points="173.01 345.7 169.2 344.44 172.89 342.04" style="fill:#fff;stroke:#231f20;stroke-miterlimit:10"/><polyline points="184.79 336.02 189.23 337.85 184.85 340.71" style="fill:#fff;stroke:#231f20;stroke-miterlimit:10"/><polygon points="190.29 343.24 195.62 339.76 202 342.39 196.94 345.7 190.29 343.24" style="fill:#fff;stroke:#231f20;stroke-miterlimit:10"/><polyline points="172.32 325.95 171.42 326.54 163.38 323.57 169.83 319.37 172.13 320.32" style="fill:#fff;stroke:#231f20;stroke-miterlimit:10"/><polyline points="184.28 325.8 187.04 326.93 184.33 328.71" style="fill:#fff;stroke:#231f20;stroke-miterlimit:10"/><polygon points="186.97 332.31 192.3 328.84 198.69 331.47 193.62 334.77 186.97 332.31" style="fill:#fff;stroke:#231f20;stroke-miterlimit:10"/><polygon points="199.74 336.85 205.07 333.38 211.45 336 206.39 339.31 199.74 336.85" style="fill:#fff;stroke:#231f20;stroke-miterlimit:10"/><polygon points="183.81 322.35 189.14 318.87 195.52 321.5 190.46 324.81 183.81 322.35" style="fill:#fff;stroke:#231f20;stroke-miterlimit:10"/><polygon points="195.45 326.88 200.78 323.4 207.17 326.04 202.1 329.34 195.45 326.88" style="fill:#fff;stroke:#231f20;stroke-miterlimit:10"/><polygon points="208.22 331.42 213.55 327.94 219.93 330.57 214.87 333.88 208.22 331.42" style="fill:#fff;stroke:#231f20;stroke-miterlimit:10"/><polygon points="181.79 312.64 187.12 309.17 193.5 311.8 188.44 315.11 181.79 312.64" style="fill:#fff;stroke:#231f20;stroke-miterlimit:10"/><polygon points="192.54 316.89 197.87 313.42 204.25 316.05 199.19 319.35 192.54 316.89" style="fill:#fff;stroke:#231f20;stroke-miterlimit:10"/><polygon points="204.18 321.43 209.52 317.95 215.9 320.58 210.84 323.88 204.18 321.43" style="fill:#fff;stroke:#231f20;stroke-miterlimit:10"/><polygon points="216.95 325.96 222.28 322.49 228.66 325.12 223.6 328.42 216.95 325.96" style="fill:#fff;stroke:#231f20;stroke-miterlimit:10"/><polygon points="189.23 306.48 195.68 302.28 203.39 305.46 197.27 309.45 189.23 306.48" style="fill:#fff;stroke:#231f20;stroke-miterlimit:10"/><polygon points="201.17 310.69 206.51 307.22 212.89 309.85 207.83 313.15 201.17 310.69" style="fill:#fff;stroke:#231f20;stroke-miterlimit:10"/><polygon points="212.82 315.23 218.15 311.75 224.53 314.38 219.47 317.69 212.82 315.23" style="fill:#fff;stroke:#231f20;stroke-miterlimit:10"/><polygon points="225.59 319.76 230.92 316.29 237.3 318.92 232.24 322.22 225.59 319.76" style="fill:#fff;stroke:#231f20;stroke-miterlimit:10"/><polygon points="198.91 301.01 204.24 297.54 210.62 300.17 205.56 303.47 198.91 301.01" style="fill:#fff;stroke:#231f20;stroke-miterlimit:10"/><polygon points="209.66 305.26 214.99 301.78 221.37 304.41 216.31 307.72 209.66 305.26" style="fill:none;stroke:#231f20;stroke-miterlimit:10"/><polygon points="221.3 309.79 226.63 306.32 233.01 308.95 227.95 312.25 221.3 309.79" style="fill:none;stroke:#231f20;stroke-miterlimit:10"/><polygon points="234.07 314.33 239.4 310.85 245.78 313.48 240.72 316.79 234.07 314.33" style="fill:#fff;stroke:#231f20;stroke-miterlimit:10"/><polyline points="215.98 296.92 214.29 298.02 209.73 296.33" style="fill:none;stroke:#231f20;stroke-miterlimit:10"/><polyline points="227.54 300.63 225.04 302.26 218.39 299.81 220.89 298.17" style="fill:none;stroke:#231f20;stroke-miterlimit:10"/><polyline points="237.98 305.95 236.69 306.8 230.03 304.34 232.36 302.82" style="fill:none;stroke:#231f20;stroke-miterlimit:10"/><polyline points="248.13 305.4 254.51 308.03 252.4 309.41" style="fill:none;stroke:#231f20;stroke-miterlimit:10"/><polygon points="214.81 289.57 221.26 285.37 228.97 288.55 222.85 292.55 214.81 289.57" style="fill:none;stroke:#231f20;stroke-miterlimit:10"/><polygon points="226.75 293.79 232.09 290.31 238.47 292.94 233.41 296.25 226.75 293.79" style="fill:none;stroke:#231f20;stroke-miterlimit:10"/><polygon points="238.4 298.32 243.73 294.84 250.11 297.47 245.05 300.78 238.4 298.32" style="fill:#fff;stroke:#231f20;stroke-miterlimit:10"/><polygon points="251.17 302.86 256.5 299.38 262.88 302.01 257.82 305.32 251.17 302.86" style="fill:#fff;stroke:#231f20;stroke-miterlimit:10"/><polygon points="224.49 284.11 229.82 280.63 236.2 283.26 231.14 286.57 224.49 284.11" style="fill:none;stroke:#231f20;stroke-miterlimit:10"/><polygon points="235.24 288.35 240.57 284.88 246.95 287.51 241.89 290.81 235.24 288.35" style="fill:#fff;stroke:#231f20;stroke-miterlimit:10"/><polygon points="246.88 292.89 252.21 289.41 258.6 292.04 253.53 295.35 246.88 292.89" style="fill:#fff;stroke:#231f20;stroke-miterlimit:10"/><polyline points="262.59 298.51 259.65 297.42 262.75 295.4" style="fill:none;stroke:#231f20;stroke-miterlimit:10"/><polygon points="233.22 278.65 238.55 275.17 244.93 277.8 239.87 281.11 233.22 278.65" style="fill:#fff;stroke:#231f20;stroke-miterlimit:10"/><polygon points="242.6 272.35 247.94 268.87 254.31 271.5 249.25 274.81 242.6 272.35" style="fill:#fff;stroke:#231f20;stroke-miterlimit:10"/><polygon points="251.01 266.86 256.35 263.38 262.73 266.01 257.67 269.32 251.01 266.86" style="fill:#fff;stroke:#231f20;stroke-miterlimit:10"/><polygon points="243.97 282.9 249.3 279.42 255.68 282.05 250.62 285.36 243.97 282.9" style="fill:#fff;stroke:#231f20;stroke-miterlimit:10"/><polygon points="251.01 276.25 256.35 272.77 262.73 275.4 257.67 278.71 251.01 276.25" style="fill:#fff;stroke:#231f20;stroke-miterlimit:10"/><polyline points="263.34 289.19 262.26 289.89 255.61 287.43 260.94 283.95 263.19 284.88" style="fill:#fff;stroke:#231f20;stroke-miterlimit:10"/><polyline points="307.61 303.16 309.79 303.9 307.65 305.51" style="fill:none;stroke:#231f20;stroke-miterlimit:10;opacity:0.1"/><polygon points="202.46 363.07 207.57 359.26 214.1 361.49 209.26 365.11 202.46 363.07" style="fill:#fff;stroke:#231f20;stroke-miterlimit:10"/><polygon points="213.45 366.63 218.56 362.83 225.09 365.06 220.25 368.67 213.45 366.63" style="fill:#fff;stroke:#231f20;stroke-miterlimit:10"/><polygon points="225.36 370.43 230.47 366.62 237 368.85 232.16 372.47 225.36 370.43" style="fill:#fff;stroke:#231f20;stroke-miterlimit:10"/><polygon points="238.39 374.16 243.49 370.36 250.02 372.58 245.18 376.2 238.39 374.16" style="fill:#fff;stroke:#231f20;stroke-miterlimit:10"/><polygon points="211.5 357.46 216.6 353.65 223.14 355.88 218.29 359.5 211.5 357.46" style="fill:#fff;stroke:#231f20;stroke-miterlimit:10"/><polygon points="222.49 361.02 227.59 357.22 234.13 359.44 229.28 363.06 222.49 361.02" style="fill:#fff;stroke:#231f20;stroke-miterlimit:10"/><polygon points="234.13 364.82 239.23 361.01 245.76 363.24 240.92 366.86 234.13 364.82" style="fill:#fff;stroke:#231f20;stroke-miterlimit:10"/><polygon points="245.53 368.68 250.64 364.87 257.17 367.1 252.33 370.72 245.53 368.68" style="fill:#fff;stroke:#231f20;stroke-miterlimit:10"/><polyline points="261 363.61 259.31 364.87 252.52 362.83 257.62 359.03 260.73 360.09" style="fill:#fff;stroke:#231f20;stroke-miterlimit:10"/><polygon points="220.32 350.97 225.52 347.1 232.17 349.37 227.24 353.05 220.32 350.97" style="fill:#fff;stroke:#231f20;stroke-miterlimit:10"/><polygon points="231.31 354.47 236.42 350.67 242.95 352.89 238.1 356.51 231.31 354.47" style="fill:#fff;stroke:#231f20;stroke-miterlimit:10"/><polygon points="243.22 358.27 248.32 354.46 254.86 356.69 250.01 360.31 243.22 358.27" style="fill:#fff;stroke:#231f20;stroke-miterlimit:10"/><polygon points="244.36 333.15 249.46 329.35 255.99 331.57 251.15 335.19 244.36 333.15" style="fill:#fff;stroke:#231f20;stroke-miterlimit:10"/><polyline points="261.69 338.62 255.35 336.72 260.45 332.92 261.88 333.4" style="fill:#fff;stroke:#231f20;stroke-miterlimit:10"/><polyline points="286.47 340.81 291.92 342.67 287.07 346.28 286.27 346.04" style="fill:#fff;stroke:#231f20;stroke-miterlimit:10"/><polyline points="261.86 328.33 260.19 329.58 253.39 327.54 258.08 324.05" style="fill:#fff;stroke:#231f20;stroke-miterlimit:10"/><polyline points="294.22 340.8 287.43 338.76 292.53 334.96 294.81 335.73" style="fill:#fff;stroke:#231f20;stroke-miterlimit:10"/><polyline points="295.88 326.49 291.9 330.39 287.08 328.49" style="fill:#fff;stroke:#231f20;stroke-miterlimit:10"/><polyline points="286.9 327.01 290.22 324.55 296 326.52" style="fill:none;stroke:#231f20;stroke-miterlimit:10"/><polyline points="305.23 328.79 307.89 329.69 304.88 331.94" style="fill:none;stroke:#231f20;stroke-miterlimit:10"/><polyline points="287.47 314.55 291.93 316.07 287.09 319.69" style="fill:#fff;stroke:#231f20;stroke-miterlimit:10"/><polyline points="296.47 322.72 292.2 321.44 297.12 317.78" style="fill:#fff;stroke:#231f20;stroke-miterlimit:10"/><polyline points="312.68 326.72 312.02 327.21 305.23 325.17 310.33 321.37 312.93 322.25" style="fill:#fff;stroke:#231f20;stroke-miterlimit:10"/><polyline points="287.33 305.99 289.98 306.89 287.25 308.92" style="fill:#fff;stroke:#231f20;stroke-miterlimit:10"/><polyline points="297.86 312.78 296.12 314.07 289.33 312.04 294.43 308.23 297.97 309.44" style="fill:#fff;stroke:#231f20;stroke-miterlimit:10"/><polyline points="306.78 312.27 312.61 314.25 306.54 319.07" style="fill:#fff;stroke:#231f20;stroke-miterlimit:10"/><polyline points="287.97 301.32 292.27 298.11 298.8 300.34 293.95 303.96 288.11 302.2" style="fill:#fff;stroke:#231f20;stroke-miterlimit:10"/><polyline points="313.88 310.43 310.06 309.28 314.07 306.29" style="fill:#fff;stroke:#231f20;stroke-miterlimit:10"/><polyline points="325.4 309.07 326.3 308.4 332.83 310.62 327.99 314.24 325.59 313.52" style="fill:#fff;stroke:#231f20;stroke-miterlimit:10"/><polygon points="328.76 304.79 334.5 301.74 341.03 303.97 336.18 307.58 328.76 304.79" style="fill:#fff;stroke:#231f20;stroke-miterlimit:10"/><polygon points="338.48 299 344.3 295.43 350.81 297.65 345.27 301.03 338.48 299" style="fill:#fff;stroke:#231f20;stroke-miterlimit:10"/><polygon points="348.51 292.69 354.85 289.31 361 291.4 355.31 294.73 348.51 292.69" style="fill:#fff;stroke:#231f20;stroke-miterlimit:10"/><polygon points="229.36 345.29 234.46 341.49 241 343.71 236.15 347.33 229.36 345.29" style="fill:#fff;stroke:#231f20;stroke-miterlimit:10"/><polygon points="240.35 348.86 245.45 345.06 251.99 347.28 247.14 350.9 240.35 348.86" style="fill:#fff;stroke:#231f20;stroke-miterlimit:10"/><polyline points="261.23 352.86 258.78 354.69 251.99 352.66 257.09 348.85 261.13 350.23" style="fill:#fff;stroke:#231f20;stroke-miterlimit:10"/><polygon points="237.44 338.42 242.54 334.62 249.08 336.84 244.23 340.46 237.44 338.42" style="fill:#fff;stroke:#231f20;stroke-miterlimit:10"/><polygon points="248.43 341.99 253.53 338.19 260.07 340.41 255.22 344.03 248.43 341.99" style="fill:#fff;stroke:#231f20;stroke-miterlimit:10"/><path d="M462.73,275.78S451,244.67,472.3,250" transform="translate(-174.13 -63.35)" style="fill:none;stroke:#231f20;stroke-miterlimit:10"/><path d="M278.94,455.12a107.94,107.94,0,0,1-18.85-14.81" transform="translate(-174.13 -63.35)" style="fill:none;stroke:#231f20;stroke-miterlimit:10"/><path d="M271.26,460.66c-7-4.78-5.64-4.05-11.17-9.56" transform="translate(-174.13 -63.35)" style="fill:none;stroke:#231f20;stroke-miterlimit:10"/><path d="M278.94,455.12" transform="translate(-174.13 -63.35)" style="fill:none;stroke:#231f20;stroke-miterlimit:10"/><path d="M432.67,491a423,423,0,0,1-46-3.23" transform="translate(-174.13 -63.35)" style="fill:none;stroke:#231f20;stroke-miterlimit:10"/><ellipse cx="363.18" cy="541.83" rx="58.16" ry="30.91" transform="translate(-457.08 567.91) rotate(-64.05)" style="fill:#fff;stroke:#231f20;stroke-miterlimit:10"/><path d="M686.48,354.73l-44.6-14.89C632,336.73,617.4,355,609.37,380.62s-6.29,50.44,3.63,53.55l44.39,13.37" transform="translate(-174.13 -63.35)" style="fill:none;stroke:#231f20;stroke-miterlimit:10"/><ellipse cx="672.67" cy="401.38" rx="48.74" ry="18.5" transform="translate(-102.78 840.02) rotate(-70.68)" style="fill:none;stroke:#231f20;stroke-miterlimit:10"/><line x1="69.29" y1="467.28" x2="79.11" y2="468.88" style="fill:none;stroke:#231f20;stroke-miterlimit:10"/><polyline points="327.58 286.79 324.69 286.18 332.83 281.87" style="fill:none;stroke:#231f20;stroke-miterlimit:10"/><line x1="326" y1="281.08" x2="335.69" y2="282.2" style="fill:none;stroke:#231f20;stroke-miterlimit:10"/><polyline points="325.02 286.79 326 301.78 328.25 304.79" style="fill:none;stroke:#231f20;stroke-miterlimit:10"/><path d="M208.93,495.06c-3.9,13.69,2.9,24.31,15.24,29.94" transform="translate(-174.13 -63.35)" style="fill:none;stroke:#231f20;stroke-miterlimit:10"/><path d="M485.38,306s-5.13,9.22-.88,24.81" transform="translate(-174.13 -63.35)" style="fill:none;stroke:#231f20;stroke-miterlimit:10"/><polyline points="319.37 345.9 321 307.03 314.37 304.28 318.46 300.32 323.07 300.32 326 304.28" style="fill:#fff;stroke:#231f20;stroke-miterlimit:10"/><path d="M496.08,344.43l-4.21-.31s-1.09-.29-3.37-5" transform="translate(-174.13 -63.35)" style="fill:none;stroke:#231f20;stroke-miterlimit:10"/><line x1="349.6" y1="231.1" x2="343.98" y2="231.1" style="fill:none;stroke:#231f20;stroke-miterlimit:10"/><line x1="339.11" y1="230.39" x2="336.07" y2="230.39" style="fill:none;stroke:#231f20;stroke-miterlimit:10"/><path d="M296.67,252s-6.29,12.92-2.1,43.08,6.52,46,6.52,46" transform="translate(-174.13 -63.35)" style="fill:none;stroke:#231f20;stroke-miterlimit:10"/><path d="M306.75,343.23s-6.75-31.38-8.25-46.68-2.73-27.91,0-32.05" transform="translate(-174.13 -63.35)" style="fill:none;stroke:#231f20;stroke-miterlimit:10"/><path d="M419.71,435.1" transform="translate(-174.13 -63.35)" style="fill:none;stroke:#231f20;stroke-miterlimit:10"/><path d="M423.52,432" transform="translate(-174.13 -63.35)" style="fill:none;stroke:#231f20;stroke-miterlimit:10"/><path d="M425.56,443c-.14.28-3.25,4.37-3.25,4.37" transform="translate(-174.13 -63.35)" style="fill:none;stroke:#231f20;stroke-miterlimit:10"/><line x1="247.18" y1="380.93" x2="252.43" y2="382.93" style="fill:none;stroke:#231f20;stroke-miterlimit:10"/><line x1="124.23" y1="342.59" x2="129.7" y2="343.85" style="fill:none;stroke:#231f20;stroke-miterlimit:10"/><line x1="254.21" y1="375.46" x2="260.12" y2="371.09" style="fill:none;stroke:#231f20;stroke-miterlimit:10;opacity:0.5"/><path d="M257.66,457.15,224.5,476.67s-6,2.5-7.83,21.16c0,0,10.16,2.34,4.5,6.5v5.34l2.16,4.5-5.66-3a17.06,17.06,0,0,0,6.5,13.83l20.16,5.9s1.84-24.57,9.3-43.08c0,0,7.87-20,16.54-26Z" transform="translate(-174.13 -63.35)" style="fill:none;stroke:#231f20;stroke-miterlimit:10"/><line x1="50.37" y1="413.32" x2="78.75" y2="424.65" style="fill:none;stroke:#231f20;stroke-miterlimit:10"/><line x1="414.87" y1="283.32" x2="285.35" y2="379.15" style="fill:none;stroke:#231f20;stroke-miterlimit:10"/><line x1="249.13" y1="245.64" x2="264.38" y2="235.91" style="fill:none;stroke:#231f20;stroke-miterlimit:10"/><path d="M418,312.38" transform="translate(-174.13 -63.35)" style="fill:none;stroke:#231f20;stroke-miterlimit:10"/><path d="M418,312.38" transform="translate(-174.13 -63.35)" style="fill:none;stroke:#231f20;stroke-miterlimit:10"/><path d="M414.9,314.33" transform="translate(-174.13 -63.35)" style="fill:none;stroke:#231f20;stroke-miterlimit:10"/><line x1="233.61" y1="255.56" x2="240.09" y2="251.42" style="fill:none;stroke:#231f20;stroke-miterlimit:10"/><line x1="220.83" y1="263.72" x2="229.65" y2="258.09" style="fill:none;stroke:#231f20;stroke-miterlimit:10"/><path d="M388.64,489.54,344.47,468c-15.35-7.47-39.53,10.59-54,40.34S276.68,568.3,292,575.77l49.48,19.67" transform="translate(-174.13 -63.35)" style="fill:none;stroke:#231f20;stroke-miterlimit:10"/><path d="M352.5,453.25,321,466.35c1.64-8.09-6.84-14.52-13.95-15.39-17.05-2.08-31.65,12.86-39.77,26.15-8.39,13.73-12.89,29.87-14,45.87-.55,7.82.24,5.28.47,13.4L274,543.69s-10.25-6.94,0-47.94l47-29.4,4.6,2.77s10-4.66,18.87-1.08l9.16-4.54V453Z" transform="translate(-174.13 -63.35)" style="fill:none;stroke:#231f20;stroke-miterlimit:10"/><path d="M458.72,483.16s127-97,134.78-102.49c6.37-4.48,15.87-10.52,13.67-9.74-.83.67-4.93,17.23-5.49,18.38C600,392.78,458.24,499.6,458.24,499.6l.48-16.44" transform="translate(-174.13 -63.35)" style="fill:none;stroke:#231f20;stroke-miterlimit:10"/><polyline points="406.91 280.83 414.87 283.32 414.87 311.01" style="fill:none;stroke:#231f20;stroke-miterlimit:10"/><line x1="293.68" y1="243.72" x2="299.5" y2="245.54" style="fill:none;stroke:#231f20;stroke-miterlimit:10"/><path d="M259.71,339.92,259.5,255s-.67-12,13.33-9.5l23.84,6.5,13.83,77,56.36,16" transform="translate(-174.13 -63.35)" style="fill:none;stroke:#231f20;stroke-miterlimit:10"/><line x1="85.8" y1="365.82" x2="85.59" y2="281.46" style="fill:none;stroke:#231f20;stroke-miterlimit:10"/><polyline points="77.76 390.88 85.87 394.15 85.83 375.46" style="fill:none;stroke:#231f20;stroke-miterlimit:10"/><path d="M242.14,353.21c.19,48,.49,92.11.53,97.29" transform="translate(-174.13 -63.35)" style="fill:none;stroke:#231f20;stroke-miterlimit:10"/><path d="M366.86,345l14.64,4.16,17.17-69.67,34.66,9.17s7.67-.34,4.34,19.66l-4,174-15.34-4.66-1,8.66L432.67,491l-1,12.67H416.33c.67,0,.67,6,.67,6l33.67,10.66L456,298s3.33-24.33-10.67-26l-72-20,1.34-24.67,38,8.67s4.66,1,4-5l.33-19s14.33.33,12-27c0,0,0-21-9.67-21.67l1.67-42s6.33-4.33,5.67-13.66-8.34-12-12-12.67S401.5,105.33,411,119.67V157s-2.67-28-20.5-32.33L349.75,115l-46.08-9s-10-.67-17.17,20.17V91.33s6-3,5.5-11.66c0,0,.5-13.17-12.17-12.5,0,0-7.83,1.33-7.5,10.83,0,0-1.16,4.33,4.84,12.67V130.5s-7,1.67-6.5,17.33v14.5s0,12.84,10.67,15V201.5s-.84,1.67,6.33,3.67l33.33,8V239l-66.17-17.33s-10.66-3.34-12.16,6.66c-.78,5.19-.73,63.64-.52,119.91" transform="translate(-174.13 -63.35)" style="fill:none;stroke:#231f20;stroke-miterlimit:10"/><path d="M379.25,228.38" transform="translate(-174.13 -63.35)" style="fill:none;stroke:#231f20;stroke-miterlimit:10"/><path d="M398.38,501.11s22.95,3.89,33.29,2.56" transform="translate(-174.13 -63.35)" style="fill:none;stroke:#231f20;stroke-miterlimit:10"/><polygon points="207.37 285.82 216.37 282.28 231.12 218.9 224.54 216.15 207.37 285.82" style="fill:none;stroke:#231f20;stroke-miterlimit:10"/><polyline points="146.76 398.49 169.37 387.75 179.5 389.61" style="fill:none;stroke:#231f20;stroke-miterlimit:10"/><path d="M503.88,200.25c-1,5-1.3,10.28-2.35,15" transform="translate(-174.13 -63.35)" style="fill:none;stroke:#231f20;stroke-miterlimit:10"/><path d="M509.89,150a275.35,275.35,0,0,1-2.6,34.85c-.33,2.27-.7,4.57-1.09,6.87" transform="translate(-174.13 -63.35)" style="fill:none;stroke:#231f20;stroke-miterlimit:10"/><path d="M505,114.35a112.22,112.22,0,0,1,5.06,29.24" transform="translate(-174.13 -63.35)" style="fill:#fff;stroke:#231f20;stroke-miterlimit:10"/><path d="M511.66,109c-2.47-7.08-5.88-14-10.83-19.69A34.71,34.71,0,0,0,492.24,82c-9.55-5.56-21.88-6.41-32.41-3.47a68.89,68.89,0,0,0-18.33,8.51,110.22,110.22,0,0,0-12.7,9.54l3.94,7.29c6.15-8,14.58-15.37,23.75-19.68a30.65,30.65,0,0,1,22-1.84c7.89,2.48,13.77,8.93,18.22,15.66a74,74,0,0,1,5.48,10" transform="translate(-174.13 -63.35)" style="fill:none;stroke:#231f20;stroke-miterlimit:10"/><path d="M517,147.43c.07-2.72,0-6.65,0-9.31a134.58,134.58,0,0,0-3.22-21.88" transform="translate(-174.13 -63.35)" style="fill:none;stroke:#231f20;stroke-miterlimit:10"/><path d="M510.52,197.6a334.82,334.82,0,0,0,6.22-44.32" transform="translate(-174.13 -63.35)" style="fill:none;stroke:#231f20;stroke-miterlimit:10"/><path d="M505.81,218.14c.94-3.73,1.88-7.61,2.78-11.6" transform="translate(-174.13 -63.35)" style="fill:none;stroke:#231f20;stroke-miterlimit:10"/><path d="M503.88,225.54c-1.68,6.22-3,10.91-4.55,15.84l-.41,1.45a197.37,197.37,0,0,1-8.1,21.8l1.51-13.3s3.77-12.83,7.78-29.88" transform="translate(-174.13 -63.35)" style="fill:none;stroke:#231f20;stroke-miterlimit:10"/><path d="M508.54,206.53c9.32,14.22,18.95,31.81,19.79,44.8.71,10.86-4.31,19.81-11.22,27L511.58,291c22.73-16.71,22.09-34.67,22.09-34.67,0-.93.08-1.83.11-2.69" transform="translate(-174.13 -63.35)" style="fill:none;stroke:#231f20;stroke-miterlimit:10"/><path d="M433.58,139.4c33.15,14,57.09,42.6,57.09,42.6-.37-.48,6.67,7.85,17.87,24.53" transform="translate(-174.13 -63.35)" style="fill:none;stroke:#231f20;stroke-miterlimit:10"/><path d="M434,137.15l-5.9.09c1.85.67,3.69,1.39,5.49,2.16" transform="translate(-174.13 -63.35)" style="fill:none;stroke:#231f20;stroke-miterlimit:10"/><path d="M448.91,141.67c-4.64-3-7.49-4.63-7.49-4.63l-7.43.11" transform="translate(-174.13 -63.35)" style="fill:none;stroke:#231f20;stroke-miterlimit:10"/><path d="M533.78,253.64c.52-14.38-6.2-27.43-13.1-39.59-17.13-30.19-42.1-53.12-71-71.88" transform="translate(-174.13 -63.35)" style="fill:none;stroke:#231f20;stroke-miterlimit:10"/><path d="M481.75,208.33" transform="translate(-174.13 -63.35)" style="fill:none;stroke:#231f20;stroke-miterlimit:10"/><path d="M482.88,206.67l-1.13-.17h0s-18.92-41.59-53.91-63.87v-3c37,18.91,57.74,67.41,57.74,67.41l-2.7-.41" transform="translate(-174.13 -63.35)" style="fill:none;stroke:#231f20;stroke-miterlimit:10"/><path d="M481.67,212.71c-10.42-.9-21,6.27-29.63,11.23a494.18,494.18,0,0,0-44.66,29.28,4.52,4.52,0,0,1-2.09,1,4.61,4.61,0,0,1-1.51-.19l-6-1.44c22.71-16.7,45.85-33.62,72.43-43a39.52,39.52,0,0,1,10.46-2.5c6.18-.4,11.64,2.78,16.87,5.68a42.45,42.45,0,0,1,10.29,7.81c7.8,8.22,10,19,12.17,29.67l.21,1c3.75,18.59-8.5,40.92-20.12,60.17s-19.14,56-19.14,56l-5.74-1c-.75-6.5,6.5-32.75,14.5-46.75s21.25-43,21.25-43,8.25-13.25,1.75-35.75C509,227.85,495.92,214,481.67,212.71Z" transform="translate(-174.13 -63.35)" style="fill:none;stroke:#231f20;stroke-miterlimit:10"/><polyline points="241.87 301.42 241.87 266.35 244.93 266.35 248.13 266.35 248.13 304.81" style="fill:none;stroke:#231f20;stroke-miterlimit:10"/><path d="M416.13,328.67c.12-2.89-.77-12.69-12.65-38.83l.51-6.45s18,38.11,17,45.28l-5,1a4.11,4.11,0,0,0,.13-1" transform="translate(-174.13 -63.35)" style="fill:none;stroke:#231f20;stroke-miterlimit:10"/><polyline points="222.59 293.5 224.49 268.87 220.51 267.64 217.39 282.58 210.53 286.62 210.29 291.11" style="fill:none;stroke:#231f20;stroke-miterlimit:10"/><path d="M396.27,362.73" transform="translate(-174.13 -63.35)" style="fill:none;stroke:#231f20;stroke-miterlimit:10"/><polyline points="210.31 296.18 210.02 301.46 215.98 306.32 221.87 302.82 222.14 299.38" style="fill:none;stroke:#231f20;stroke-miterlimit:10"/><path d="M384.07,360.88" transform="translate(-174.13 -63.35)" style="fill:none;stroke:#231f20;stroke-miterlimit:10"/><path d="M384.48,353.24" transform="translate(-174.13 -63.35)" style="fill:none;stroke:#231f20;stroke-miterlimit:10"/><line x1="234.74" y1="270.54" x2="233.22" y2="296.67" style="fill:none;stroke:#231f20;stroke-miterlimit:10"/><polyline points="224.49 293.25 227.97 262.1 231.44 265.32 235.24 262.1 234.74 270.54" style="fill:none;stroke:#231f20;stroke-miterlimit:10"/><path d="M406.36,367.65" transform="translate(-174.13 -63.35)" style="fill:none;stroke:#231f20;stroke-miterlimit:10"/><polyline points="223.81 299.32 222.66 309.61 222.66 309.61 228.66 312.52 232.1 306.51 232.4 302.31" style="fill:none;stroke:#231f20;stroke-miterlimit:10"/><path d="M397.81,363.85" transform="translate(-174.13 -63.35)" style="fill:none;stroke:#231f20;stroke-miterlimit:10"/><path d="M398.62,357.17" transform="translate(-174.13 -63.35)" style="fill:none;stroke:#231f20;stroke-miterlimit:10"/><path d="M407.38,319c.41,3.51.52,6.49.07,8.12l-1.88,1.6L403.88,326s-.25-16.2-2.94-25.23l1.83-5.69A238.89,238.89,0,0,1,407.38,319" transform="translate(-174.13 -63.35)" style="fill:none;stroke:#231f20;stroke-miterlimit:10"/><line x1="229.36" y1="301.42" x2="228.66" y2="313.42" style="fill:none;stroke:#231f20;stroke-miterlimit:10"/><path d="M403.48,364.77" transform="translate(-174.13 -63.35)" style="fill:none;stroke:#231f20;stroke-miterlimit:10"/><path d="M403.86,358.19" transform="translate(-174.13 -63.35)" style="fill:none;stroke:#231f20;stroke-miterlimit:10"/><line x1="231.44" y1="265.32" x2="229.66" y2="296.18" style="fill:none;stroke:#231f20;stroke-miterlimit:10"/><line x1="321" y1="307.03" x2="326.63" y2="304.18" style="fill:none;stroke:#231f20;stroke-miterlimit:10"/><line x1="305.83" y1="247.29" x2="309.02" y2="248.71" style="fill:none;stroke:#231f20;stroke-miterlimit:10"/><path d="M308.69,451.32s-54.85-17.82-64.36,79.58" transform="translate(-174.13 -63.35)" style="fill:none;stroke:#231f20;stroke-miterlimit:10"/><line x1="430.83" y1="290.18" x2="439.31" y2="292.98" style="fill:none;stroke:#231f20;stroke-miterlimit:10"/><path d="M306.75,349" transform="translate(-174.13 -63.35)" style="fill:none;stroke:#231f20;stroke-miterlimit:10"/><path d="M305.75,392.65" transform="translate(-174.13 -63.35)" style="fill:none;stroke:#231f20;stroke-miterlimit:10"/><line x1="215.98" y1="305.5" x2="216.95" y2="297.81" style="fill:none;stroke:#231f20;stroke-miterlimit:10"/><line x1="217.39" y1="282.58" x2="216.95" y2="291.53" style="fill:none;stroke:#231f20;stroke-miterlimit:10"/><line x1="242.6" y1="250.01" x2="249.13" y2="245.64" style="fill:none;stroke:#231f20;stroke-miterlimit:10"/><line x1="387.46" y1="220.12" x2="357.34" y2="211.61" style="fill:none;stroke:#231f20;stroke-miterlimit:10"/><line x1="402.02" y1="224.48" x2="391.77" y2="221.41" style="fill:none;stroke:#231f20;stroke-miterlimit:10"/><line x1="412.58" y1="227.65" x2="405.83" y2="225.62" style="fill:none;stroke:#231f20;stroke-miterlimit:10"/><path d="M435,392.79a44.29,44.29,0,0,0-3.25-5.15c-7.83-10.51-32.44-37.1-73.87-25.14a224,224,0,0,0-27.59,12.12c-11.21,5.87-23.36,13.62-31.29,22.63,0,0-20.08,26-28.6,33l-2.95-4.32S278,415.25,280,411.63s17.71-28,38.34-36.63c1.1-.46,2.2-.94,3.3-1.43,11.49-5.08,22.54-11.3,33.22-15.3,7.33-2.75,14.49-4.45,21.48-4,17,1.06,33.09,2.36,55.29,23.06,1.42,1.32,2.85,2.71,4.31,4.19" transform="translate(-174.13 -63.35)" style="fill:none;stroke:#231f20;stroke-miterlimit:10"/><path d="M497.2,363.67c.76-.12,2.7-15.07,3-16.77,1.19-6.11,2.53-12.19,4.13-18.21,3.24-12.12,6.63-24.57,13.72-33.8,5.65-7.36,9.76-15.78,15.68-22.87a139.72,139.72,0,0,0,15.44-21.91c15-26.87,12.07-65.05-10-87.34-10.55-10.67-24.35-17.63-38.4-22.47-23-7.92-48.05-6.21-72.23-9l-.67,5.85c.23-1.94,39.06,1.32,42.82,1.81A138.49,138.49,0,0,1,510.13,150c12.68,5.77,24.43,14.15,32,26.09a74,74,0,0,1,11,48.07c-2.1,16.87-10.87,31.77-20.94,45.11-8.71,11.55-18.41,21.75-24.76,34.89-9,18.58-11.51,39.95-14.68,60.18Z" transform="translate(-174.13 -63.35)" style="fill:none;stroke:#231f20;stroke-miterlimit:10"/><path d="M544,318.11s-8.67,8.62-2,18.69l36.34,7.87s-8.65-9.19,2.17-19.06Z" transform="translate(-174.13 -63.35)" style="fill:#fff;stroke:#231f20;stroke-miterlimit:10"/><path d="M543.78,317.36s-.87-1.91-4.2-.82-.57-.28-.57-.28-5.87,10.32-3.44,17.9,6.07,3.61,6.07,3.61.92.35-.48-1.65C541.16,336.12,537,325.63,543.78,317.36Z" transform="translate(-174.13 -63.35)" style="fill:#fff;stroke:#231f20;stroke-miterlimit:10"/><path d="M540.5,315.17l-10.59-2-6.38-1.2s-6.67,1.65-6.48,12.4,3.85,10.72,3.85,10.72l16.43,3.52S531.13,325.71,540.5,315.17Z" transform="translate(-174.13 -63.35)" style="fill:none;stroke:#231f20;stroke-miterlimit:10"/><path d="M530,311.7s-2-9.7-8.69-5.7-7.47,20.73-7.47,20.73-.65,12.66,7,14.14c0,0,4.06-.62,5.39-4.25l-6.19-1.82s-5.81-5.3-2.45-14.61,5.88-8.22,5.88-8.22l6.38,1.2Z" transform="translate(-174.13 -63.35)" style="fill:#fff;stroke:#231f20;stroke-miterlimit:10"/><path d="M522.26,340.66,510.08,346s-5.88-16.07-1.23-32.6,11.67-20.3,14.88-18.91,9.87,6.66,9.15,19.52l-2.2-.65s-1.6-10.16-7.47-8.66-10,13-9.29,24S516.86,341.15,522.26,340.66Z" transform="translate(-174.13 -63.35)" style="fill:#fff;stroke:#231f20;stroke-miterlimit:10"/><path d="M530.68,351.67l-27.79,16.47-2.83-4-.91-14.53,7.81-4.38,3,1.73,20-9.2Zm-22.56-.48c-1.74,0-3.15,2.33-3.15,5.2s1.41,5.19,3.15,5.19,3.16-2.32,3.16-5.19S509.87,351.19,508.12,351.19Zm9.12-5.42c-1.74,0-3.15,2.32-3.15,5.19s1.41,5.2,3.15,5.2,3.16-2.33,3.16-5.2S519,345.77,517.24,345.77Zm9-5.2c-1.74,0-3.15,2.33-3.15,5.2s1.41,5.19,3.15,5.19,3.15-2.32,3.15-5.19S528,340.57,526.29,340.57Z" transform="translate(-174.13 -63.35)" style="fill:#fff;stroke:#231f20;stroke-miterlimit:10"/><path d="M583.89,337c-1.08,5.22-4.1,8-6.15,7.58s-2.83-5-1.74-10.21,3.63-9.1,5.68-8.68S585,331.73,583.89,337Z" transform="translate(-174.13 -63.35)" style="fill:#fff;stroke:#231f20;stroke-miterlimit:10"/><line x1="314.35" y1="195.87" x2="289.09" y2="244.34" style="fill:none;stroke:#231f20;stroke-miterlimit:10"/><path d="M503.88,225.54c-1.68,6.22-3,10.91-4.55,15.84l-.41,1.45a197.37,197.37,0,0,1-8.1,21.8l1.51-13.3s3.77-12.83,7.78-29.88" transform="translate(-174.13 -63.35)" style="fill:#fff;stroke:#231f20;stroke-miterlimit:10"/><polygon points="329.75 136.9 334.76 143.76 331.75 154.53 327.1 151.71 329.75 136.9" style="fill:#fff;stroke:#231f20;stroke-miterlimit:10"/><path d="M510.13,150l6.61,3.31s-4,39.52-6.22,44.25l-4.32-5.9S510.59,153.42,510.13,150Z" transform="translate(-174.13 -63.35)" style="fill:#fff;stroke:#231f20;stroke-miterlimit:10"/><path d="M517.15,147.12s.29-19.24-3.26-30.82c-.83-.86-8.86-2-8.86-2s5.44,20.86,5.06,29.24Z" transform="translate(-174.13 -63.35)" style="fill:none;stroke:#231f20;stroke-miterlimit:10"/><path d="M511.66,109c-2.47-7.08-5.88-14-10.83-19.69A34.71,34.71,0,0,0,492.24,82c-9.55-5.56-21.88-6.41-32.41-3.47a68.89,68.89,0,0,0-18.33,8.51,110.22,110.22,0,0,0-12.7,9.54l3.94,7.29c6.15-8,14.58-15.37,23.75-19.68a30.65,30.65,0,0,1,22-1.84c7.89,2.48,13.77,8.93,18.22,15.66a74,74,0,0,1,5.48,10" transform="translate(-174.13 -63.35)" style="fill:#fff;stroke:#231f20;stroke-miterlimit:10"/><polygon points="241.87 266.35 248.13 266.35 247.91 304.75 241.87 300.5 241.87 266.35" style="fill:#fff;stroke:#231f20;stroke-miterlimit:10"/><path d="M408.73,326l-3.48,3.72-3.15-4.25-4.29,30.69s8.89,3.72,9.54,4.17Z" transform="translate(-174.13 -63.35)" style="fill:#fff;stroke:#231f20;stroke-miterlimit:10"/><polyline points="210.04 286.57 216.95 282.84 221.3 267.88 224.49 268.87 222.85 292.55 210.29 290.81 210.04 286.57" style="fill:#fff;stroke:#231f20;stroke-miterlimit:10"/><path d="M384.39,360.31s8.27.89,11.88,2.42l-.27,3.44-5.89,3.49-6-4.85Z" transform="translate(-174.13 -63.35)" style="fill:#fff;stroke:#231f20;stroke-miterlimit:10"/><polygon points="223.81 299.38 222.81 310.19 228.66 312.52 232.1 306.51 232.4 303.47 223.81 299.38" style="fill:#fff;stroke:#231f20;stroke-miterlimit:10"/><polygon points="297.37 256.6 302.91 256.6 302.41 290.81 301.93 295.13 297.37 296.12 297.37 256.6" style="fill:#fff;stroke:#231f20;stroke-miterlimit:10"/><polygon points="289.03 243.39 294 243.39 293.51 268.83 293.03 272.04 288.47 272.77 289.03 243.39" style="fill:#fff;stroke:#231f20;stroke-miterlimit:10"/><polygon points="395.82 252.91 404.25 251.82 399.44 286.79 392.04 285.13 395.82 252.91" style="fill:#fff;stroke:#231f20;stroke-miterlimit:10"/><polygon points="380.47 252.91 388.89 251.82 384.08 286.79 376.68 285.13 380.47 252.91" style="fill:#fff;stroke:#231f20;stroke-miterlimit:10"/><path d="M296.06,253.55s-4.79,18.2-.91,45.7,5.94,42,5.94,42l5.66,2.71s-9.64-40.52-10.08-64.79c-.28-15.36,2.34-15,2.4-14.69S296.06,253.55,296.06,253.55Z" transform="translate(-174.13 -63.35)" style="fill:#fff;stroke:#231f20;stroke-miterlimit:10"/><path d="M244.33,530.9s4.31-37.34,8.91-42L225,476.33s-6.67,1.17-8.33,21.5c0,0,9.16,1.9,6,5.78l-1.5,1.39v3.43l1.75,4.89-5.25-2.15s.54,9.64,5.6,13.07Z" transform="translate(-174.13 -63.35)" style="fill:none;stroke:#231f20;stroke-miterlimit:10;opacity:0.5"/><path d="M270.17,461.83l-11.74-5L225,476.33,252.88,488S265,464.67,270.17,461.83Z" transform="translate(-174.13 -63.35)" style="fill:#fff;stroke:#231f20;stroke-miterlimit:10;opacity:0.2"/><polygon points="178.37 389.9 170.43 386.84 146.76 398.49 146.87 403.01 178.37 389.9" style="fill:#fff;stroke:#231f20;stroke-miterlimit:10"/><path d="M353.63,453l-.68,9.71-8.39,5.06s-10.36-4.29-19.21,1.24L321,466.35Z" transform="translate(-174.13 -63.35)" style="fill:#fff;stroke:#231f20;stroke-miterlimit:10"/><path d="M273.63,543.12l-19.9-6.74S247,518.31,262.52,486s31.35-36.52,46.17-34.77S321,466.35,321,466.35l-46.36,28.71S263.25,534.5,273.63,543.12Z" transform="translate(-174.13 -63.35)" style="fill:none;stroke:#231f20;stroke-miterlimit:10"/><path d="M302.72,450.19s-29.46-3.69-45.42,29.29c-15,31-13,51.42-13,51.42l8.91,1.33S257.66,456.55,302.72,450.19Z" transform="translate(-174.13 -63.35)" style="fill:#fff;stroke:#231f20;stroke-miterlimit:10"/><path d="M321,466.35l-47.37,29.34s3.86,9.1,14.45-.63L309,481.28,323.57,469Z" transform="translate(-174.13 -63.35)" style="fill:#fff;stroke:#231f20;stroke-miterlimit:10"/><path d="M273.63,495.69s-9.71,43.34,2.83,50l2.83-.13s.45-28.88,28.08-63.22L285.19,497S278.94,502.38,273.63,495.69Z" transform="translate(-174.13 -63.35)" style="fill:#fff;stroke:#231f20;stroke-miterlimit:10"/><path d="M474.44,319.8c.37-1.5,8.84-32.79,8.84-32.79s5.22-21.16,5.35-33.34-.59-19.61-.55-20.17-4.45-20.56-4.45-20.56l-5.28-13.34s-18.1-27-18.25-27.35c-2.59-6.5-25.4-25-25.4-25L427,141.4v-3s15.66,8.09,22.46,16.66c6.05,4.68,20.47,24.17,20.47,24.17s12.75,22.4,15.82,27.81,4.62,15.1,4.62,15.1l1.47,31.15-1.15,19.15A77.45,77.45,0,0,1,488.08,288c-2.34,8.92-10.91,32-10.91,32Z" transform="translate(-174.13 -63.35)" style="fill:#fff;stroke:#231f20;stroke-miterlimit:10"/><path d="M471.2,249.79s-10.82-3.48-11.61,8.14a42.37,42.37,0,0,0,3.63,20.26,37.11,37.11,0,0,1,1.08-15.59C466.75,254.5,466.08,250.08,471.2,249.79Z" transform="translate(-174.13 -63.35)" style="fill:none;stroke:#231f20;stroke-miterlimit:10"/><path d="M403.09,296.43s5.34,21.21,4.62,30.64l-2.14,1.6L403.88,326s-.06-21.33-3.3-23.67C400.58,302.33,401.36,294.37,403.09,296.43Z" transform="translate(-174.13 -63.35)" style="fill:#fff;stroke:#231f20;stroke-miterlimit:10"/><path d="M463.22,329.7c-.55-1.71,4.81-16.94,25.28-25.58l13.21-8.91s26.94-10.71,30.95-31.46c0,0,5.91-15.86-4.09-34.25s-14.43-25.93-14.43-25.93L498.07,182,476.65,161.9l-35-25.11-13.83.21L442,143.33s20.46,9.38,33.56,23.52,30.51,31.57,41.47,55,24.16,45.78-16.27,69.12-37.87,28.8-37.87,28.8Z" transform="translate(-174.13 -63.35)" style="fill:#fff;stroke:#231f20;stroke-miterlimit:10"/><path d="M404.47,285.58s16.65,34.8,16.61,37.92-.07,5.17-.07,5.17l-4.28.88s-2.15-9.37-2-11.66c.14-2.5-10.17-28.05-11.61-27.37Z" transform="translate(-174.13 -63.35)" style="fill:#fff;stroke:#231f20;stroke-miterlimit:10"/><path d="M360.08,343.56a9.87,9.87,0,0,1,4.84.9L354.4,378.2l-3.77-1.83S357.24,344.51,360.08,343.56Z" transform="translate(-174.13 -63.35)" style="fill:#fff;stroke:#231f20;stroke-miterlimit:10"/><path d="M435,392.72s-23.95-43.47-72.28-31.47c-22.09,5.48-44.12,17.52-60.36,33.46-11.53,11.32-20.95,24.5-32.6,35.78l-2.67-5.13a201.13,201.13,0,0,0,15.79-18.22c7.51-9.9,15.95-19.18,26.21-26.31,11.1-7.71,24.15-12.78,36.32-18.63,15.61-7.51,30.11-9.18,47.11-6.33,30,5,43.76,26.28,43.76,26.28Z" transform="translate(-174.13 -63.35)" style="fill:#fff;stroke:#231f20;stroke-miterlimit:10"/><polygon points="224.63 215.84 231.12 217.89 216.95 282.84 207.47 285.51 224.63 215.84" style="fill:none;stroke:#231f20;stroke-miterlimit:10"/><line x1="313.24" y1="204.54" x2="294" y2="243.39" style="fill:none;stroke:#231f20;stroke-miterlimit:10"/><path d="M398.2,252.2s5.16,1.75,7.3,2.3c3.88-4.71,52.52-33.71,52.52-33.71,5.67-3.48,12.55-7.42,19.25-8,8.33-.7,16.77,2.84,22.82,8.46,7.94,7.36,13.16,18.61,14.88,29.23,2,12.26-2.87,24.18-8.1,35l-10.79,22.34c-14.58,17.5-20.83,58.66-20.83,58.66l5.74,1s8.16-30.54,9.16-33.39c9-25.64,30.57-49.32,30.75-77.51.13-21.32-13.91-44.48-36-49.4-6.74-1.5-14.58,2.24-20.77,4.63a177.27,177.27,0,0,0-21.68,10.25c-13.84,7.66-26.8,16.8-39.41,26.33Q400.62,250.28,398.2,252.2Z" transform="translate(-174.13 -63.35)" style="fill:#fff;stroke:#231f20;stroke-miterlimit:10"/><path d="M497.2,363.67c.76-.12,2.7-15.07,3-16.77,1.19-6.11,2.53-12.19,4.13-18.21,3.24-12.12,6.63-24.57,13.72-33.8,5.65-7.36,9.76-15.78,15.68-22.87a139.72,139.72,0,0,0,15.44-21.91c15-26.87,12.07-65.05-10-87.34-10.55-10.67-24.35-17.63-38.4-22.47-23-7.92-48.05-6.21-72.23-9l-.67,5.85c.23-1.94,39.06,1.32,42.82,1.81A138.49,138.49,0,0,1,510.13,150c12.68,5.77,24.43,14.15,32,26.09a74,74,0,0,1,11,48.07c-2.1,16.87-10.87,31.77-20.94,45.11-8.71,11.55-18.41,21.75-24.76,34.89-9,18.58-11.51,39.95-14.68,60.18Z" transform="translate(-174.13 -63.35)" style="fill:#fff;stroke:#231f20;stroke-miterlimit:10"/><path d="M223.27,524.24c.55.23-4.6-5.74-5.6-13.07l5.66,3-2.16-4.5V505s2.88-2.72.19-5.28-4.69-1.89-4.69-1.89,1-15.55,7.5-20.16l33.49-20.52-5.77-2.93s.78,5.11-5.89,7.78l-14,8.5h-1.75s-9.58,5.17-12.5,6.25l-9.35,20.48S202.71,515.64,223.27,524.24Z" transform="translate(-174.13 -63.35)" style="fill:#fff;stroke:#231f20;stroke-miterlimit:10"/><path d="M242.76,450.19l9.13,4s1.24,6.16-5.89,7.78l-14,8.5-15.33,6L202.5,508.43l-5.92-4.55,14.54-27.49L213,467.5l7.83-5.5-1-1.17Z" transform="translate(-174.13 -63.35)" style="fill:#fff;stroke:#231f20;stroke-miterlimit:10"/><path d="M267,425.42l-1.69-.27a.16.16,0,0,0-.13,0L247.38,438s-5.68,3.6-4.63,12.08a.19.19,0,0,0,.11.15l8.91,3.94a.19.19,0,0,0,.21,0c.66-.7,4.88-5.51,3.68-12.14a.18.18,0,0,1,.07-.18l13.78-9.21a.19.19,0,0,0,.08-.16v-3.21a.17.17,0,0,0,0-.1l-2.42-3.63A.22.22,0,0,0,267,425.42Z" transform="translate(-174.13 -63.35)" style="fill:none;stroke:#231f20;stroke-miterlimit:10"/><polygon points="98.67 364.73 105.84 367.43 106.78 374.02 99.31 378.35 98.67 371.69 92.75 370.62 94.54 368.86 94.72 367.03 98.67 364.73" style="fill:#fff;stroke:#231f20;stroke-miterlimit:10"/><polygon points="93.32 371.21 86.57 375.14 99.87 379.9 99.29 372.26 93.32 371.21" style="fill:none;stroke:#231f20;stroke-miterlimit:10"/><polygon points="259.12 412.09 250.21 408.65 245.06 414.53 259.12 419.21 259.12 412.09" style="fill:none;stroke:#231f20;stroke-miterlimit:10"/><path d="M260.09,440.31" transform="translate(-174.13 -63.35)" style="fill:none;stroke:#231f20;stroke-miterlimit:10"/><path d="M280.46,434.44l57.85,18.13-17.42,9.26s-4.55-14.58-28.22-11.33c0,0-9.58,1.9-13.73,4.62,0,0-17.25-12.24-18.85-14.81s.6-1.82.6-1.82L274,443.25l6.91-5.12Z" transform="translate(-174.13 -63.35)" style="fill:#fff;stroke:#231f20;stroke-miterlimit:10"/><polygon points="179.5 392.69 243.22 414.32 243.3 422.67 254.21 427.12 212.54 424.87 170.43 404.38 178.82 399.32 179.5 392.69" style="fill:#fff;stroke:#231f20;stroke-miterlimit:10"/><polygon points="284.82 405.51 291.87 401.65 295.87 403.01 303.2 397.99 303.2 393.65 388.87 328.32 393.54 330.17 400.54 324.32 400.54 320.99 414.87 311.01 414.87 285.13 285.7 378.89 284.82 405.51" style="fill:none;stroke:#231f20;stroke-miterlimit:10"/><path d="M458.17,499.39,601.43,390.91s2.87-8.58,5.72-19.17l-4.82,2.62L458.7,483.83" transform="translate(-174.13 -63.35)" style="fill:#fff;stroke:#231f20;stroke-miterlimit:10"/><path d="M432.76,490.69c1.89-.31-45.54-2.85-45.54-2.85s9.5,5.33,11.39,13.31c0,0,29,3.18,33.15,2.2Z" transform="translate(-174.13 -63.35)" style="fill:#fff;stroke:#231f20;stroke-miterlimit:10"/><polygon points="85.97 376.96 104.25 391.77 96.57 397.15 86.36 388.14 85.97 376.96" style="fill:none;stroke:#231f20;stroke-miterlimit:10"/><line x1="317.54" y1="178.23" x2="314.68" y2="179.48" style="fill:none;stroke:#231f20;stroke-miterlimit:10"/><path d="M491.67,241.58" transform="translate(-174.13 -63.35)" style="fill:none;stroke:#231f20;stroke-miterlimit:10"/><path d="M495.45,241.76" transform="translate(-174.13 -63.35)" style="fill:none;stroke:#231f20;stroke-miterlimit:10"/><line x1="324.79" y1="179.48" x2="321.32" y2="178.41" style="fill:none;stroke:#231f20;stroke-miterlimit:10"/><path d="M589.22,287.93,609.33,277s6.31-2.64,4.11,10.93L610.67,341s.5,6.74-7.71,14.37l-13.71,7.88,0-16.58-5-2.06,1.54-48.36S584.43,289.36,589.22,287.93Zm17.29.19c.41.55-13,6.21-13.76,7.63s-1.5,55.92-1.5,55.92l13.71-8.9S604,294,606.51,288.12Z" transform="translate(-174.13 -63.35)" style="fill:#fff;stroke:#231f20;stroke-miterlimit:10;opacity:0.5"/><path d="M197.36,505.82s-6.2,17.21-10.48,0-10.26-39.69-3.1-62.57,19.91-56.21,42.73-77.06,42.12-30.49,75.3-19.84c0,0,20.55,9.6,28.47,23.22l4.21-2.66s-20-33-61.66-29.47C214.5,346.35,190,407.75,190,407.75s-23.34,55-12.5,86.27,14.17,29.5,25,14.41Z" transform="translate(-174.13 -63.35)" style="fill:#fff;stroke:#231f20;stroke-miterlimit:10"/><path d="M312.68,377.83l-1.45-26.18s-7.16-5.26-12.32-4.7l2.18,38.36" transform="translate(-174.13 -63.35)" style="fill:#fff;stroke:#231f20;stroke-miterlimit:10"/><polyline points="130.79 329.63 138.87 326.49 138.27 313.57" style="fill:#fff;stroke:#231f20;stroke-miterlimit:10"/><line x1="126.96" y1="321.97" x2="130.79" y2="329.64" style="fill:#fff;stroke:#231f20;stroke-miterlimit:10"/><polygon points="122.64 173.34 225.97 201.34 204.3 281.01 140.3 263.67 122.64 173.34" style="fill:none;stroke:#231f20;stroke-miterlimit:10"/><polyline points="164.1 236.04 151.3 233.01 138.97 187.67 211.63 205.67 197.63 244.01 171.74 237.86" style="fill:#fff;stroke:#231f20;stroke-miterlimit:10"/><polygon points="152.97 246.84 196.04 258.92 191.32 270.79 155.3 258.92 152.97 246.84" style="fill:#fff;stroke:#231f20;stroke-miterlimit:10"/><path d="M309.61,137.92l80.61,18a4.53,4.53,0,0,1,3.54,4.42v38.26a4.52,4.52,0,0,1-5.6,4.4L307.54,183.2a4.53,4.53,0,0,1-3.44-4.4V142.33A4.52,4.52,0,0,1,309.61,137.92Z" transform="translate(-174.13 -63.35)" style="fill:#fff;stroke:#231f20;stroke-miterlimit:10"/><path d="M332.1,164.35c0,5.53-3.58,10-8,10s-8-4.47-8-10,3.58-10,8-10S332.1,158.83,332.1,164.35Zm-8-7.16c-3.39,0-6.13,3.43-6.13,7.66s2.74,7.66,6.13,7.66,6.12-3.43,6.12-7.66S327.48,157.19,324.1,157.19Z" transform="translate(-174.13 -63.35)" style="fill:#fff;stroke:#231f20;stroke-miterlimit:10"/><path d="M380.76,176.85c0,5.53-3.58,10-8,10s-8-4.47-8-10,3.59-10,8-10S380.76,171.33,380.76,176.85Zm-8-7.16c-3.38,0-6.12,3.43-6.12,7.66s2.74,7.66,6.12,7.66,6.13-3.43,6.13-7.66S376.15,169.69,372.76,169.69Z" transform="translate(-174.13 -63.35)" style="fill:#fff;stroke:#231f20;stroke-miterlimit:10"/><path d="M309.54,189.09c16.78,4,67.3,16.3,80.85,19.61a4.42,4.42,0,0,1,3.37,4.3v.41a4.43,4.43,0,0,1-5.46,4.31L307.5,198.5a4.44,4.44,0,0,1-3.4-4.31v-.78A4.43,4.43,0,0,1,309.54,189.09Z" transform="translate(-174.13 -63.35)" style="fill:#fff;stroke:#231f20;stroke-miterlimit:10"/><path d="M327.87,214.63c8.49,2,34.08,8.25,40.94,9.92a2.24,2.24,0,0,1,1.71,2.18v.21a2.25,2.25,0,0,1-2.76,2.19l-40.92-9.74a2.23,2.23,0,0,1-1.73-2.18v-.4A2.24,2.24,0,0,1,327.87,214.63Z" transform="translate(-174.13 -63.35)" style="fill:#fff;stroke:#231f20;stroke-miterlimit:10"/><path d="M327.87,222.36c8.49,2,34.08,8.26,40.94,9.93a2.24,2.24,0,0,1,1.71,2.18v.21a2.24,2.24,0,0,1-2.76,2.18l-40.92-9.73a2.25,2.25,0,0,1-1.73-2.19v-.39A2.25,2.25,0,0,1,327.87,222.36Z" transform="translate(-174.13 -63.35)" style="fill:#fff;stroke:#231f20;stroke-miterlimit:10"/><path d="M327.87,229.67c8.49,2,34.08,8.26,40.94,9.93a2.24,2.24,0,0,1,1.71,2.18V242a2.24,2.24,0,0,1-2.76,2.18l-40.92-9.73a2.25,2.25,0,0,1-1.73-2.19v-.39A2.25,2.25,0,0,1,327.87,229.67Z" transform="translate(-174.13 -63.35)" style="fill:none;stroke:#231f20;stroke-miterlimit:10"/><path d="M245.6,222.51s3.78-2.61,10.91-.74l64.59,16.92v-6.5L261.43,217s-3.17-1.18-7.67.82a51,51,0,0,0-8.16,4.67" transform="translate(-174.13 -63.35)" style="fill:none;stroke:#231f20;stroke-miterlimit:10"/><path d="M445.43,271.69c11.33,0,11,19,11,19L451.76,523l5.84-7.83,6.25-230.5s1.58-17-13.09-18.5l-71.41-19V228.07l-4.5-.63-1.42,24.25,72,20" transform="translate(-174.13 -63.35)" style="fill:#fff;stroke:#231f20;stroke-miterlimit:10"/><path d="M414.72,235.55l8.63-3.86V209l8-4.34s2.5-2.25,3-11.5a146,146,0,0,0,0-16.34s1.25-11.91-7.5-16.66l2.5-43.5s7.5-4.75,2.25-16.5c0,0-3.92-10.5-16.84-5.5,0,0,16.17,2.83,10.84,20.66L421.1,121l-1.67,42s6.67-.5,9.17,16.25-1.84,25.58-1.84,25.58-5.66,7.67-9.66,6.84C417.1,211.69,418.67,229.59,414.72,235.55Z" transform="translate(-174.13 -63.35)" style="fill:#fff;stroke:#231f20;stroke-miterlimit:10"/><path d="M281.68,95.46l2.19.75a1.32,1.32,0,0,1,.89,1.25v30.65a1.32,1.32,0,0,1-2,1.16l-2.19-1.21a1.31,1.31,0,0,1-.68-1.15V96.71A1.32,1.32,0,0,1,281.68,95.46Z" transform="translate(-174.13 -63.35)" style="fill:#fff;stroke:#231f20;stroke-miterlimit:10"/><path d="M414.64,124.29l2.19.75a1.33,1.33,0,0,1,.89,1.25v30.65a1.32,1.32,0,0,1-2,1.16l-2.19-1.21a1.31,1.31,0,0,1-.68-1.16V125.54A1.32,1.32,0,0,1,414.64,124.29Z" transform="translate(-174.13 -63.35)" style="fill:#fff;stroke:#231f20;stroke-miterlimit:10"/><path d="M284.76,135.85s-8-6.5-11,4.67v17.17s.34,6,8.59,5.33Z" transform="translate(-174.13 -63.35)" style="fill:#fff;stroke:#231f20;stroke-miterlimit:10"/><path d="M411.26,164.35l4.05,29,7.95.84s1.6-3,1.38-13.5S421.93,164.69,411.26,164.35Z" transform="translate(-174.13 -63.35)" style="fill:#fff;stroke:#231f20;stroke-miterlimit:10"/><path d="M346.81,279.79a10.09,10.09,0,0,1,10.9,5.77s1,2.57-.81,9.57L346.56,301s-8.33,2.83-10.83-6c0,0-3-8.33,2-10.33Z" transform="translate(-174.13 -63.35)" style="fill:#fff;stroke:#231f20;stroke-miterlimit:10"/><path d="M272.93,245.19s-6.83-2-6.33,7l.24,85.5v4.41l.24,83.33-6.5,3-.89-175.53s2.94-10.49,13.23-7.74" transform="translate(-174.13 -63.35)" style="fill:none;stroke:#231f20;stroke-miterlimit:10"/><path d="M294.2,111.41l.15-23.72s5.25-1.5,3.75-13.5-11.5-10.25-11.5-10.25l-6.67,2.91s11.83-1,12.17,12.5c0,0,.5,9.17-5.5,11.67v34.83S291,114,294.2,111.41Z" transform="translate(-174.13 -63.35)" style="fill:none;stroke:#231f20;stroke-miterlimit:10"/><path d="M411.1,136.69c-5.56-15.17-21.75-19.4-35.76-23.16a407.45,407.45,0,0,0-52.18-10c-7.55-1-14-1.33-20.91,2.37l73,13.89s20.5,4.43,26.67,12.59,8.5,19.17,8.5,19.17Z" transform="translate(-174.13 -63.35)" style="fill:#fff;stroke:#231f20;stroke-miterlimit:10"/><path d="M685.14,353.83l-44.6-14.89c-9.92-3.11-24.48,15.15-32.51,40.78s-6.3,50.44,3.63,53.55l44.39,13.38" transform="translate(-174.13 -63.35)" style="fill:none;stroke:#231f20;stroke-miterlimit:10"/><ellipse cx="673.98" cy="401.41" rx="48.74" ry="18.5" transform="translate(-101.94 841.28) rotate(-70.68)" style="fill:#fff;stroke:#231f20;stroke-miterlimit:10"/><path d="M385.7,487.75l-41.14-20c-15.35-7.47-39.53,10.59-54,40.34s-13.77,59.92,1.58,67.39l49.48,19.66" transform="translate(-174.13 -63.35)" style="fill:none;stroke:#231f20;stroke-miterlimit:10"/><line x1="214.6" y1="425.88" x2="211.58" y2="424.41" style="fill:none;stroke:#231f20;stroke-miterlimit:10"/><path d="M260.1,457.19l-17.34-7s-.43-209.76-.16-220,9.5-9.5,9.5-9.5l14.16,3.63C287,227,321.1,238.69,321.1,238.69v4.59l-24.34-6.59L314.43,327l32,8.48-.91,3.1-34.9-9.91-13.84-77-23.83-6.5s-13.84-3.64-13.34,12.43.51,199.57.51,199.57" transform="translate(-174.13 -63.35)" style="fill:#fff;stroke:#231f20;stroke-miterlimit:10"/><path d="M373.43,251.69l72,20c14,1.66,10.67,26,10.67,26L450.76,520,417.1,509.35s0-6-.67-6h15.33l1-12.66L417.43,486l1-8.67L433.76,482l4-174c3.34-20-4.33-19.67-4.33-19.67l-34.67-9.16L381.6,348.85,345.5,338.6l.91-3.1,32,8.85,21.67-79.66-27.25-7.58.58-5.42,0-.67" transform="translate(-174.13 -63.35)" style="fill:#fff;stroke:#231f20;stroke-miterlimit:10"/><ellipse cx="363.28" cy="541.52" rx="58.16" ry="30.91" transform="translate(-456.74 567.82) rotate(-64.05)" style="fill:none;stroke:#231f20;stroke-miterlimit:10"/><path d="M372.85,257.11,374.76,227l38,8.67s4.67,1,4-5l.34-19s14.33.33,12-27c0,0,0-21-9.67-21.67l1.67-42s6.33-4.33,5.66-13.67-8.33-12-12-12.66S401.6,105,411.1,119.35v37.34s-2.67-28-20.5-32.34l-40.75-9.66-46.09-9s-10-.67-17.16,20.16V91s6-3,5.5-11.67c0,0,.5-13.16-12.17-12.5,0,0-7.83,1.34-7.5,10.84,0,0-1.17,4.33,4.83,12.66v39.84s-7,1.66-6.5,17.33V162s0,12.83,10.67,15v24.17s-.83,1.66,6.33,3.66l33.34,8v30.43" transform="translate(-174.13 -63.35)" style="fill:none;stroke:#231f20;stroke-miterlimit:10"/><path d="M521.16,294.73l-19.45-.55L484.5,304.66s-7.43,26.26,7.37,39.46L510,347S499,310.13,521.16,294.73Z" transform="translate(-174.13 -63.35)" style="fill:#fff;stroke:#231f20;stroke-miterlimit:10"/><path d="M586.19,290.84l-2,53.77-3.17-.43s8-12.24.52-18.57l-36.85-7.7s.88-1.21-3.07-2.06L532.88,314s3-16.08-9.15-19.52-28.61.28-28.61.28l-10.37,5.48-1.6,11.85-19.87-6.41.62-39.45s.35-7,2.85-11.7Z" transform="translate(-174.13 -63.35)" style="fill:none;stroke:#231f20;stroke-miterlimit:10"/><polyline points="313.24 204.54 294 243.39 289.09 245.3 314.35 195.88" style="fill:#fff;stroke:#231f20;stroke-miterlimit:10"/><path d="M488.8,242.83l-19.47,8.5-2.58,3.17,120,36.5s2.29-3.83,4.79-4.41S609.33,277,609.33,277L498.92,242.83" transform="translate(-174.13 -63.35)" style="fill:none;stroke:#231f20;stroke-miterlimit:10"/><path d="M575.67,316c-.87-1.2.48-6.14.48-6.14l1.59-10,3.77-16.05s5.38-17.1,9.88-36.67c6.83-16.77,10.52-48.54,10.52-48.54s7.22-42.34-26.7-64.34c-3.64-2.36-6.58-5.3-10.41-7.47a131.34,131.34,0,0,0-12.48-6.16,152.37,152.37,0,0,0-27.22-8.93q-5-1.17-10.13-2c-13.11-2.22-26.87-3-39.44,1.36s-24.45,14.35-26.88,27.42c-1.6,8.6,1.3,17.56,3.39,26.05,6.88,28,12.4,56.79,10.45,85.59,1.19-.21,3.07-.38,4.26-.59,1.47-25.18-2-48.5-9.37-74.06-2.77-9.53-5.77-20.14-5.55-30.06a23.5,23.5,0,0,1,5.27-15.07c2.74-3.52,6.37-7.56,10.27-9.74a75.4,75.4,0,0,1,17.48-7.5c9.5-2.5,19.44-2.07,29-.35s38.3,12.06,42.68,14.16,9,4.05,12.81,6.84a89.88,89.88,0,0,1,13,11.68c5.77,6.23,11.49,14.39,13.83,22.64,6.75,23.84-2.75,59.75-2.75,59.75L578.8,278s-5.21,27.11-6.53,38.6C572.27,316.63,576.38,317,575.67,316Z" transform="translate(-174.13 -63.35)" style="fill:#fff;stroke:#231f20;stroke-miterlimit:10"/><path d="M560,315.39,562.29,299s4.39-18.2,14.25-53.37S587,190,587,190a64.67,64.67,0,0,0-32.06-59.5c-24-14.49-41.4-17.89-41.4-17.89s-22-6-40.58-4.5c-2.09.14-17.59,0-32.24,16.07s-4.11,39.17-4.11,39.17l9.45,45.7,16.92,66.66,1-6.08-13.32-54.23-5.82-27.3-7.73-32.06S432,135.9,447.38,123.65c13.19-10.54,23-11.21,24.48-11.34,23.25-2.11,18.06-.92,38.1,3.07s42.71,17.17,42.71,17.17,24.33,15.62,28.77,37.78S578,228.84,578,228.84l-16.72,54.57-4.53,33.22Z" transform="translate(-174.13 -63.35)" style="fill:#fff;stroke:#231f20;stroke-miterlimit:10"/><polygon points="217.96 277.34 219.5 271.32 256.04 246.86 263.18 248.28 217.96 277.34" style="fill:none;stroke:#231f20;stroke-miterlimit:10;opacity:0.5"/><polygon points="284.82 405.51 284.59 419.81 431.87 308.4 439.31 292.99 430.83 290.18 415.12 299.9 414.87 311.01 401.55 320.28 400.54 322.72 393.54 330.17 388.87 328.32 303.2 393.65 303.2 397.99 295.87 403.01 291.87 401.65 284.82 405.51" style="fill:#fff;stroke:#231f20;stroke-miterlimit:10"/></g></svg>