<svg id="Capa_1" data-name="Capa 1" xmlns="http://www.w3.org/2000/svg" viewBox="0 0 314.94 597.05"><title>titov7</title><path d="M216,616.78c0-.15,0-.61-.08-1.18-1.26-19.48-.88-64.23-.17-71.17a3.77,3.77,0,0,0-.71-3,3.54,3.54,0,0,0-2.79-.72c-4.2.29-30.69.41-34.72,0a3.35,3.35,0,0,0-2.58.6,3.24,3.24,0,0,0-.8,2.35c0,3.5-2.56,65-1.26,72.39.1.58.27,1.06.48,2.37a5.49,5.49,0,0,0,.58,2.26,3.26,3.26,0,0,0,1.39,1.19c1.76.92,8.43,7.25,12.63,15.89,1.22,2.52,2.05,6.27,3.71,13.78.26,1.18.67,3.17-.41,4.63-.7.94-1.88,1.46-4.33,1.78-3.28.43-4.91.64-8.22-.18-8.59-2.12-39.27-1-55.93.9-2.67.3-7.7.93-9.75-1.8-1.76-2.35-.47-6,.93-9.77,5.33-14.44,17.93-23.4,19.83-24.06a2.56,2.56,0,0,0,1.29-.88,3.09,3.09,0,0,0,.42-2.08c-.06-1.34.16-2.7,0-4-.55-4.14-.13-68,0-73.05a3,3,0,0,0-.79-2.43,2.57,2.57,0,0,0-1.93-.34,17.73,17.73,0,0,1-6.21-.94c-3.62-1.06-4.76-8-5-9.28-1.91-11.5-13.43-69.32-18.94-69.57-3.12-.13-6.19,18.06-7.2,24-1.87,11.12-4.59,28.22.21,48.43,2,8.28,3,7.79,5.39,18.17,0,0,1.82,7.85,1.82,32a8.44,8.44,0,0,1-.88,4c-1.48,2.85-4.47,4-6.27,4.7-14.35,5.22-30.54,3.86-34.77,3.51a10,10,0,0,1-5.77-2.07,9.85,9.85,0,0,1-3-5.08c-2.22-7.87-3.19-19.42-3.68-24.61-.74-7.85-1.52-13.29.17-21,.12-.54.21-.91.3-1.25a221.3,221.3,0,0,0,4.53-30.17c1.74-23.43-.27-30.11,1.83-48.05a240.16,240.16,0,0,1,11.8-49.63c4.37-11.8,9.61-22.55,9.7-34.53.09-12.18.14-18.27-.82-20.82-.67-1.81-2.08-5-.66-7s5.38-1.83,7-1.7c18.59,1.52,37.34-1.61,56-.37a2.94,2.94,0,0,0,3.62-3.66c-.38-4.53-.38-33.9-.2-37.31a3.16,3.16,0,0,0-.67-2.41,3.35,3.35,0,0,0-2.64-.63C124,306.5,109.46,304,95,305c-25,1.81-3.9-.57-30.25-1.76-1,0-3.76-.16-5.38-2.11s-1.24-4.72-1.06-6c3.5-25.71.79-28.58,2-34.17a3.45,3.45,0,0,0-.32-2.75,2.66,2.66,0,0,0-1.47-.9c-.06,0-3.71-2.07-11-6.19-4.7-2.66-5.86-10.35-7.45-20.91a118,118,0,0,1,1.26-35.88c1-5.23,2.39-9.92,5.38-12.43,1.68-1.41,3.25-3,5-4.33a10.23,10.23,0,0,0,2.64-2.61,8.17,8.17,0,0,0,1.06-4.82c-.84-19.93-.37-39.9-.8-59.85a18,18,0,0,0-.81-5.07,18.68,18.68,0,0,0-3.58-6.38c-3.35-4.17-6.19-15.2-1.5-23.81C54,65.3,66.35,63.11,71.4,64.23a18.94,18.94,0,0,1,5.65,2.35A18.6,18.6,0,0,1,80.8,70c6.16,7.7,1.94,27.91-2.08,31.79a8.92,8.92,0,0,0-2.92,6.87c.21,26.38.35,43.65-.2,46.86A6.09,6.09,0,0,0,76,159.1c.25.55.65,1.45,1.16,1.5,1.34.14,2.42-5.7,5.21-12.87A50.31,50.31,0,0,1,90.43,133a40.12,40.12,0,0,1,5.38-5.4c7.5-6.08,16.31-7.25,20-7.68,29.36-3.41,92.88-2,120.28-3,7.09-.27,16.68.71,35.87,2.67,5.37.55,10.27,1.12,15.74,4.13,8.83,4.84,13.58,13,15.15,15.65a67.39,67.39,0,0,1,5.56,12.4,106.91,106.91,0,0,0,3.92,10.75c1.81,4.22,2.4,4.78,2.75,4.72,1-.19.72-5.47.61-8.15,0,0-.11-2.9-.18-49.46a11.73,11.73,0,0,0-.74-4.26,12.15,12.15,0,0,0-2.78-4.23c-3.31-3.43-10.52-23.38-.54-32.59,6.05-5.59,17.14-6,23.83-1.26,10.5,7.48,7.08,25.62,4.21,33.65-1,2.72-1.39,2.89-2.82,6.09-12.39,27.73-.74,58.54-1.32,64.59a4.66,4.66,0,0,0,.56,2.94,4.36,4.36,0,0,0,1.79,1.58c2.49,1.3,4.39,3.51,6.65,5.19,3,2.24,4.59,6.84,5.9,13.52,3.65,18.57,1.44,32.94-.37,44.07-.66,4.1-1.3,7-3.57,9.65s-7.76,7-13,8.21a4.79,4.79,0,0,0-4.33,5.53c1.09,28.09,1.64,32.89,1.64,32.89.19,1.55.47,4.33-1.2,6.23s-4.8,2-6,2c-7.8,0-15.6,2.14-23.36,1.43-72.29-6.66-49.53-1.17-53.45-1.17-.52,0,.78,1.57.51,2.09a6.56,6.56,0,0,0-.74,3.08c.42,4.89.33,31.92,0,36a3.51,3.51,0,0,0,.68,2.71,3.42,3.42,0,0,0,2.66.7c9-.65,47.1,2.61,59.44.27a11.64,11.64,0,0,1,4.76.21c1,.26,2.89.76,3.51,2.18a3.5,3.5,0,0,1-.15,2.64c-1,2.49-1.33,17.92,2.68,40.88,6.13,35.11,14.17,40.32,17.05,71.09,1.5,16.08,2.25,24.12,1.57,32.87-.47,6.16-1.72,16.2,0,29.51,0,.22.37,2.41,1.05,6.78,3.65,23.47,3.75,23.93,3.87,26.07.48,8.1-.46,13.16-2.36,23.27-.54,2.9-1.31,6.48-4.27,8.91-2.3,1.9-4.93,2.28-9.27,2.5-4.12.21-14.08.49-29.67-3.27-2.4-.58-5.3-1.35-7.16-3.87s-1.71-5.48-1.58-7.84c.87-14.87,2.58-29.71,3.27-36.25,0-.28.06-.62.13-1.29,6.07-59-.48-61.15.32-73.9.08-1.2.4-5.41-1.74-6.78a1.83,1.83,0,0,0-1.23-.34c-2,.3-2.74,5.36-3,6.94-4.3,27.9-15.76,53.45-18.18,66.29a4.81,4.81,0,0,1-1.56,2.93,4.89,4.89,0,0,1-3.13.82c-3.3.05-7,.1-8.66,1.23-2.66,1.8-1.85,7.33-1.64,8.89,2.64,19.5-1.65,58.72-.7,66.55,0,.35.15,1.08.26,1.75.38,2.31.58,3.48,1.05,4.29a5.66,5.66,0,0,0,3.08,2.23c5.08,2,11.75,10.35,15.2,16.39,2.3,4,2.89,6.77,4.05,12.29.26,1.23.61,3.11-.43,4.45s-3,1.49-4.14,1.54c-6.45.3-9.68.45-12.13-.13-12.39-2.91-45.39-.91-53.36-.28-2,.15-6.74.57-8.58-2.06-.62-.88-1.12-2.39.57-8.77a49.49,49.49,0,0,1,4-11.4c2.88-5.56,7.7-11.92,10.65-13.79a5.52,5.52,0,0,0,1.86-1.8,6.11,6.11,0,0,0,.82-3.59" transform="translate(-38.33 -62.96)" style="fill:#fff;stroke:#000;stroke-miterlimit:10;stroke-width:2px"/><path d="M125.88,520.84q-11.76-44.12-23.49-88.22C96,408.52,89.65,384.39,83.18,360.3c-.76-2.84-.78-3.95,2.79-4,65.63-.83,131.27-1.6,196.91-1.4,8.93,0,17.86,0,27.2,0-4,15.09-7.79,29.58-11.64,44.06q-16,60.19-32.1,120.37a8.75,8.75,0,0,1-.75,1.54c-1.68,1.46-3.74,1.33-5.76,1.39-42.16,1.3-84.34.82-126.51.85-2.65,0-5.62.61-7.44-2.28" transform="translate(-38.33 -62.96)" style="fill:#fff;stroke:#000;stroke-miterlimit:10;stroke-width:2px"/><path d="M125.88,520.84q-11.76-44.12-23.49-88.22C96,408.52,89.65,384.39,83.18,360.3c-.76-2.84-.78-3.95,2.79-4,65.63-.83,131.27-1.6,196.91-1.4,8.93,0,17.86,0,27.2,0-4,15.09-7.79,29.58-11.64,44.06q-16,60.19-32.1,120.37a8.75,8.75,0,0,1-.75,1.54c-1.68,1.46-3.74,1.33-5.76,1.39-42.16,1.3-84.34.82-126.51.85C130.67,523.12,127.7,523.73,125.88,520.84Z" transform="translate(-38.33 -62.96)" style="fill:#fff;stroke:#000;stroke-miterlimit:10;stroke-width:2px"/><path d="M83.56,569.86c-2,1.82-2.19,4.09-2.17,6.42a63.14,63.14,0,0,0,.19,7.79c.58,4.32-2.66,3.44-5,4.09-3.21.9-3.27-1.52-3.61-3.37-.72-4-.85-8.06-2.43-11.84-.32-.77-.43-1.72-1.76-2.26-1.59,2.21-1.84,4.77-1.63,7.44a43.43,43.43,0,0,1,.49,5.17c-.09,2,1.45,4.93-2.52,5.2-3.37.24-6.76.25-7.34-4-1-7.15-1.82-14.33-2.22-21.53-.34-6.16-1.8-12.32-.36-18.56.39-1.73.57-2.76,2.69-3,9.93-1.06,19.91-.66,29.86-1.2,2.88-.16,4.81,1.51,5.2,4.68,1.51,12,3,24.07,3.32,36.22.13,4.46-3,4.47-6,5-3.83.68-3.33-2.1-3.73-4.25-.75-4-.47-8.29-3-12" transform="translate(-38.33 -62.96)" style="fill:#fff;stroke:#000;stroke-miterlimit:10;stroke-width:2px"/><path d="M322.35,570.72c-2.4,4.15-2.3,8.87-3.13,13.36-.56,3-1.56,4.92-5.41,4.08-2.52-.55-3.3-1.44-3.3-3.88,0-3.59,1.16-7.19.16-10.77-.26-.92-.75-2.32-1.37-2.47-1.33-.31-1.83,1.14-2.29,2.15-1.22,2.68-1.21,5.59-1.45,8.47-.14,1.77.64,4.58-2.57,4.42-3-.16-6.92.36-7.23-4.26a62.19,62.19,0,0,1,.28-9.93c.79-8.48,1.65-17,2.67-25.42.61-5.05,2.46-6.5,7.46-6.34,8.38.26,16.75.51,25.12.85,5.11.21,6.16,1.19,5.86,6.33-.67,11.53-1.44,23.06-2.43,34.57-.48,5.63-1.79,6.36-6.44,6.78-3.91.35-4.26-1.65-4.11-4.62.16-3.28,1.68-6.48.6-9.84-.44-1.39-.85-2.77-2.42-3.48" transform="translate(-38.33 -62.96)" style="fill:#fff;stroke:#000;stroke-miterlimit:10;stroke-width:2px"/><path d="M269.68,651.33c-21.25,0-42.05,0-62.84,0-1.81,0-2.21-.63-1.89-2.31a44.91,44.91,0,0,1,7.73-18.15,7.26,7.26,0,0,1,5.53-3c10.24-.67,20.52-1,30.7.36,8.33,1.07,14.18,6.1,17.45,13.88,1.21,2.9,2.14,5.92,3.32,9.24" transform="translate(-38.33 -62.96)" style="fill:#fff;stroke:#000;stroke-miterlimit:10;stroke-width:2px"/><path d="M186,651.33c-21.31,0-41.8,0-62.3,0-2.6,0-3.06-.69-2.63-3.24,2-12.13,9.17-19,22.37-19.95,8.9-.66,17.88-.33,26.83-.33a8.29,8.29,0,0,1,7.87,5.16c2.66,5.87,5.1,11.84,7.86,18.31" transform="translate(-38.33 -62.96)" style="fill:#fff;stroke:#000;stroke-miterlimit:10;stroke-width:2px"/><path d="M194.81,346.34H153.6c-2.18,0-4.87.34-4.17-3.1.53-2.66-2.56-7.2,3.45-7.39,10.25-.33,20.49-.87,30.74-1,12.41-.18,24.83-.1,37.24,0,5.2,0,10.39.4,15.58.54,2,.05,2.86,1,2.79,2.94-.06,1.73-.06,3.47,0,5.2.07,2-.65,2.8-2.79,2.79-13.88-.09-27.76,0-41.64,0Z" transform="translate(-38.33 -62.96)" style="fill:#fff;stroke:#000;stroke-miterlimit:10;stroke-width:2px"/><path d="M324.76,224.81c-2-13.25-3.94-26.51-6-39.75-.44-2.78,0-4.1,3.13-4.68,10.49-1.95,18.76,3.06,21,13.5a90.14,90.14,0,0,1,1.55,31.79c-5.47,2.1-11.18,2.17-16.92,2-1.68-.07-2.48-1.26-2.77-2.83" transform="translate(-38.33 -62.96)" style="fill:#fff;stroke:#000;stroke-miterlimit:10;stroke-width:2px"/><path d="M324.76,224.81c-2-13.25-3.94-26.51-6-39.75-.44-2.78,0-4.1,3.13-4.68,10.49-1.95,18.76,3.06,21,13.5a90.14,90.14,0,0,1,1.55,31.79c-5.47,2.1-11.18,2.17-16.92,2C325.85,227.57,325.05,226.38,324.76,224.81Z" transform="translate(-38.33 -62.96)" style="fill:#fff;stroke:#000;stroke-miterlimit:10;stroke-width:2px"/><path d="M47.54,197.79a24,24,0,0,1,2-7.51,16.43,16.43,0,0,1,19.58-9.71c1.46.38,1.9,1.05,1.68,2.43Q67,207.36,63.17,231.74c-4.34,2.48-8.92,1.61-13.43.77-1.7-.31-2.53-1.7-2.5-3.57.2-10.38-.35-20.77.3-31.15" transform="translate(-38.33 -62.96)" style="fill:#fff;stroke:#000;stroke-miterlimit:10;stroke-width:2px"/><path d="M47.54,197.79a24,24,0,0,1,2-7.51,16.43,16.43,0,0,1,19.58-9.71c1.46.38,1.9,1.05,1.68,2.43Q67,207.36,63.17,231.74c-4.34,2.48-8.92,1.61-13.43.77-1.7-.31-2.53-1.7-2.5-3.57C47.44,218.56,46.89,208.17,47.54,197.79Z" transform="translate(-38.33 -62.96)" style="fill:#fff;stroke:#000;stroke-miterlimit:10;stroke-width:2px"/><path d="M300.6,464.71c-1.5.5-2-.68-2.49-2a112.28,112.28,0,0,1-4.56-16.2c-.38-2,.09-3.12,2.16-3.94,8.31-3.28,16.55-6.73,24.78-10.21,2-.85,2.74-.32,3.22,1.74,1.51,6.44,3.19,12.85,4.85,19.26.4,1.53.52,2.69-1.28,3.53a86.33,86.33,0,0,1-26.68,7.8" transform="translate(-38.33 -62.96)" style="fill:#fff;stroke:#000;stroke-miterlimit:10;stroke-width:2px"/><path d="M91.42,464.69A86.26,86.26,0,0,1,65.13,457c-1.92-.89-2-2.1-1.6-3.8q2.58-10,5.12-20.07c.44-1.77,1.34-2.51,3-1.44a71.9,71.9,0,0,0,24.2,10c3,.63,3.31,2.88,2.63,5.41-1.33,5-2.74,10-4.07,15-.52,2-1.56,3-3,2.6" transform="translate(-38.33 -62.96)" style="fill:#fff;stroke:#000;stroke-miterlimit:10;stroke-width:2px"/><path d="M78.75,493.4c-5.41.07-10.54-1.38-15.68-2.85-2.23-.65-3.37-1.63-3.13-4.23.67-7.17,1.18-14.36,1.58-21.55.12-2.17,1.12-2.37,2.76-1.9,8.17,2.32,16.32,4.69,24.49,7,2.12.59,2.65,1.78,2.21,3.83-1.21,5.63-2.38,11.26-3.45,16.92-.36,1.89-1.35,2.78-3.18,2.81s-3.73,0-5.6,0" transform="translate(-38.33 -62.96)" style="fill:#fff;stroke:#000;stroke-miterlimit:10;stroke-width:2px"/><path d="M331.53,479.47c0,10.86,0,10.87-10.15,13.07-.85.18-1.69.41-2.55.51-13.75,1.67-13.79,1.67-16-11.9-.55-3.38-3-7.25-1.21-10s6.23-2.38,9.5-3.43c4.94-1.58,10-2.74,14.9-4.49,3.49-1.25,4.36.17,4.66,3.21.45,4.59,1.17,9.17.85,13" transform="translate(-38.33 -62.96)" style="fill:#fff;stroke:#000;stroke-miterlimit:10;stroke-width:2px"/><path d="M331.54,504.67c0,8.53,0,8.42-8.63,9.29a152.75,152.75,0,0,1-15.56.74c-2.06,0-2.9-.7-2.75-2.77.12-1.58,0-3.17,0-4.76,0-8,0-7.95,7.81-8.82,5-.56,10-1.07,15-1.83,3.22-.49,4.6.45,4.11,3.82a29.78,29.78,0,0,0,0,4.33" transform="translate(-38.33 -62.96)" style="fill:#fff;stroke:#000;stroke-miterlimit:10;stroke-width:2px"/><path d="M79.28,514.65c-5.53.25-10.9-1-16.35-1.62-1.82-.19-2.41-1.17-2.38-2.9.07-3.61.12-7.23,0-10.84-.08-2.31.76-3.09,3-2.79,7.15.94,14.66.74,21.36,3,4.91,1.65,1.55,7.78,2.34,11.82.48,2.43-.9,3.42-3.23,3.36-1.59,0-3.18,0-4.77,0" transform="translate(-38.33 -62.96)" style="fill:#fff;stroke:#000;stroke-miterlimit:10;stroke-width:2px"/><path d="M322.91,534.68c-5.88-.27-11.77-.56-17.66-.79-1.64-.06-2.41-.72-2.19-2.39a10.55,10.55,0,0,1,.25-1.7c.92-3-.8-7,1.64-9.06,2.19-1.85,5.83-.64,8.82-1,5-.54,10-.9,15-1.44,2.07-.22,2.86.45,2.78,2.57a79.23,79.23,0,0,0,0,9.5c.25,3.12-1,4.13-3.93,3.79a44,44,0,0,0-4.74,0c0,.17,0,.34,0,.51" transform="translate(-38.33 -62.96)" style="fill:#fff;stroke:#000;stroke-miterlimit:10;stroke-width:2px"/><path d="M53.57,80.55c1.69-5.72,5.2-9.82,11.3-10.25,11.48-.81,12,4.09,13,14.92.14,1.36-.48,2.8-.75,4.2-5.24,4.65-12.33,5.14-17.55.66-2.87-2.46-7-4.48-6-9.53" transform="translate(-38.33 -62.96)" style="fill:#fff;stroke:#000;stroke-miterlimit:10;stroke-width:2px"/><path d="M60.58,526.06c0-7.85,0-7.78,7.67-7.11,5.17.46,10.35.88,15.54,1,2.77.05,4,.8,4.47,3.74,1.49,10.25,1.56,10.36-8.7,10.65-4.73.13-9.49-.33-14.21-.06-3.73.22-5.45-.8-4.8-4.73a22.18,22.18,0,0,0,0-3.46" transform="translate(-38.33 -62.96)" style="fill:#fff;stroke:#000;stroke-miterlimit:10;stroke-width:2px"/><path d="M234.92,582.42c3.68.38,8.33-1.47,10.57.73,2.44,2.4.72,7.12.81,10.82.14,5.65,0,5.73-5.73,5.75-4.62,0-9.23-.24-13.84-.34-2.53,0-4.16-.88-3.61-3.83a9.21,9.21,0,0,0,0-1.29c.19-3.73-1.56-8.55.67-10.89,2.46-2.58,7.39-.44,11.11-1" transform="translate(-38.33 -62.96)" style="fill:#fff;stroke:#000;stroke-miterlimit:10;stroke-width:2px"/><path d="M329.72,113.77c1,13.56-.21,27.09-.7,40.63-.2,5.48-.48,11-.46,16.43,0,2.91-1.77,2.65-3.67,2.86-2.47.28-2-1.35-2-2.72q.06-28.58.15-57.17a5.05,5.05,0,0,1,6.71,0" transform="translate(-38.33 -62.96)" style="fill:#fff;stroke:#000;stroke-miterlimit:10;stroke-width:2px"/><path d="M234.64,576.71c-11.51,0-11.51,0-11.5-11.35,0-5.55,0-5.55,5.55-5.55,4.75,0,9.52.11,14.27,0,2.44-.08,3.36.74,3.25,3.21-.15,3.46-.16,6.93,0,10.38.12,2.55-.53,3.71-3.37,3.41s-5.47,0-8.21-.06" transform="translate(-38.33 -62.96)" style="fill:#fff;stroke:#000;stroke-miterlimit:10;stroke-width:2px"/><path d="M154.54,576.5c-3.69-.38-8.37,1.47-10.57-.74-2.39-2.39-.36-7.15-.85-10.82-.57-4.19.88-5.6,5.13-5.22a77.23,77.23,0,0,0,13.43,0c4-.34,5.08,1.22,4.67,4.9s1.51,8.54-.73,10.91c-2.45,2.61-7.37.44-11.08,1" transform="translate(-38.33 -62.96)" style="fill:#fff;stroke:#000;stroke-miterlimit:10;stroke-width:2px"/><path d="M68.37,114.66q.07,28,.16,56c0,1.82-.25,3.19-2.49,3.12-1.62-.05-3.14,0-3.18-2.42-.27-18.91-2.12-37.79-1.3-56.73,2.29-1.6,4.56-1.71,6.81.06" transform="translate(-38.33 -62.96)" style="fill:#fff;stroke:#000;stroke-miterlimit:10;stroke-width:2px"/><path d="M314,79.72c1.07-8.82,10.75-12.93,18-7.49,3.91,2.94,6.51,6.82,6.55,12-2.64,4.05-7,4.55-11.18,5.42a20.57,20.57,0,0,1-4.71.18c-8.4-.21-9.52-1.52-8.63-10.09" transform="translate(-38.33 -62.96)" style="fill:#fff;stroke:#000;stroke-miterlimit:10;stroke-width:2px"/><path d="M154.79,582.38c11.14,0,11,0,11.15,11.23.05,3.7-1.13,4.67-4.64,4.46-4.87-.29-9.79-.18-14.67,0-2.51.08-3.73-.49-3.52-3.31a77,77,0,0,0,0-9.49c-.12-2.35.87-3,3-2.89,2.88.13,5.76,0,8.64,0" transform="translate(-38.33 -62.96)" style="fill:#fff;stroke:#000;stroke-miterlimit:10;stroke-width:2px"/><path d="M235.11,554.64h-1.3c-13.74-.47-10.17.26-10.73-11.82-.1-2.29.86-3,3-3,5.75.09,11.51,0,17.26,0,.7,0,1.89,0,2,.33,1.75,4,.85,8.16.67,12.23-.11,2.5-2.73,2-4.52,2.1-2.15.1-4.31,0-6.46,0Z" transform="translate(-38.33 -62.96)" style="fill:#fff;stroke:#000;stroke-miterlimit:10;stroke-width:2px"/><path d="M154.22,553.77a41.93,41.93,0,0,0-6,.05c-4.35.64-5.26-1.25-5.12-5.28.3-8.4.08-8.41,8.43-8.41,3.59,0,7.19,0,10.79,0,2.42,0,3.45,1,3.52,3.67.26,9.95.36,9.95-9.42,9.95h-2.16" transform="translate(-38.33 -62.96)" style="fill:#fff;stroke:#000;stroke-miterlimit:10;stroke-width:2px"/><path d="M154.61,615.6h-3c-8.62,0-9.89-1.64-8.33-10.21.33-1.83,1.33-1.95,2.71-1.95,5.79,0,11.57.07,17.36,0,2.14,0,2.61.94,2.73,2.87.62,9.33.68,9.32-11.44,9.32" transform="translate(-38.33 -62.96)" style="fill:#fff;stroke:#000;stroke-miterlimit:10;stroke-width:2px"/><path d="M235.12,605.06c1.87,0,3.75,0,5.62,0,6.19.08,5.57-.82,5.6,5.48,0,5.52,0,5.52-5.7,5.53-4.62,0-9.24-.11-13.85,0-2.78.09-3.74-.84-3.73-3.73,0-7.32-.12-7.32,7.29-7.32Z" transform="translate(-38.33 -62.96)" style="fill:#fff;stroke:#000;stroke-miterlimit:10;stroke-width:2px"/><path d="M196.55,257.11H116.27c-7.18,0-7.49-.3-7.37-7.66.36-23.41.82-46.82,1.06-70.23,0-3.65,1.4-4.78,4.85-4.79,11.71,0,23.41-.3,35.13-.32,32.69-.06,65.37,0,98.07-.05,9.68,0,19.36-.28,29.05-.25,7.85,0,8.63.89,8.6,8.77q-.12,32.11-.28,64.22c0,.28,0,.57,0,.86-.19,8.85-.64,9.3-9.42,9.3H196.55Z" transform="translate(-38.33 -62.96)" style="fill:#fff;stroke:#000;stroke-miterlimit:10;stroke-width:2px"/><path d="M128.19,383c9.74,0,19.53.12,29.31,0q53.57-.79,107.14-1.71c5.73-.09,6.09.77,3.93,6.32-8.31,21.36-17.5,42.41-24.42,64.3-.86,2.72-2,3.91-5,3.95q-40.55.54-81.09,1.42c-1.72,0-2.67-.29-3.28-1.9q-13.29-35.23-26.63-70.46a8.94,8.94,0,0,1,.07-1.9" transform="translate(-38.33 -62.96)" style="fill:#fff;stroke:#000;stroke-miterlimit:10;stroke-width:2px"/><path d="M156.84,483.06c12.53,0,24.5.11,36.46,0,16.47-.2,32.94-.43,49.4-1,4-.14,3.91.93,2.88,3.94-1.91,5.59-3.64,11.25-5.31,16.92-.66,2.23-1.67,3.15-4.22,3.18-23.55.34-47.1.85-70.64,1.36-1.8,0-2.87-.2-3.33-2.33-1.52-7-3.31-14-5.24-22" transform="translate(-38.33 -62.96)" style="fill:#fff;stroke:#000;stroke-miterlimit:10;stroke-width:2px"/><path d="M151.44,188.33c12.67-1,26.6,10.94,26.46,26.23-.13,15.06-13.37,29.39-27.32,29.39-15.35,0-28.29-11.75-28.25-25.67,0-16.58,13.25-30.95,29.11-29.95" transform="translate(-38.33 -62.96)" style="fill:#fff;stroke:#000;stroke-miterlimit:10;stroke-width:2px"/><path d="M218.63,218c0-15.39,12.33-30.61,29.86-29.76,13.81.67,25.52,12.17,25.63,26.49C274.25,230,260.07,244,245.21,244c-12.13,0-27.85-12.19-26.58-26.06" transform="translate(-38.33 -62.96)" style="fill:#fff;stroke:#000;stroke-miterlimit:10;stroke-width:2px"/><path d="M150.05,204.78c6.39,0,10.34,4.13,10.44,11,.08,6.08-4.55,11.4-10,11.46-6.69.08-11.7-4.41-11.72-10.5,0-7,4.62-11.93,11.25-12" transform="translate(-38.33 -62.96)" style="fill:#fff;stroke:#000;stroke-miterlimit:10;stroke-width:2px"/><path d="M245.32,205.75c6.88,0,10.81,3.68,10.76,10.12,0,6.25-4.67,11.49-10,11.39-5.77-.1-10.72-5.32-10.8-11.38a10.1,10.1,0,0,1,10.09-10.13" transform="translate(-38.33 -62.96)" style="fill:#fff;stroke:#000;stroke-miterlimit:10;stroke-width:2px"/><path d="M279.65,281.73H114.89a6,6,0,0,1-6-6v-5a6,6,0,0,1,6-6H279.65a6,6,0,0,1,6,6v5a6,6,0,0,1-6,6" transform="translate(-38.33 -62.96)" style="fill:#fff;stroke:#000;stroke-miterlimit:10;stroke-width:2px"/><rect x="70.55" y="201.74" width="176.78" height="17.03" rx="6.01" style="fill:#fff;stroke:#000;stroke-linecap:round;stroke-linejoin:round;stroke-width:2px"/><line x1="222.19" y1="200.82" x2="222.19" y2="217.9" style="fill:#fff;stroke:#000;stroke-linecap:round;stroke-linejoin:round;stroke-width:2px"/><line x1="92.61" y1="200.79" x2="92.61" y2="217.88" style="fill:#fff;stroke:#000;stroke-linecap:round;stroke-linejoin:round;stroke-width:2px"/><line x1="137.59" y1="200.79" x2="137.59" y2="217.88" style="fill:#fff;stroke:#000;stroke-linecap:round;stroke-linejoin:round;stroke-width:2px"/><line x1="115.67" y1="200.79" x2="115.67" y2="217.88" style="fill:#fff;stroke:#000;stroke-linecap:round;stroke-linejoin:round;stroke-width:2px"/><line x1="157.79" y1="200.79" x2="157.79" y2="217.88" style="fill:#fff;stroke:#000;stroke-linecap:round;stroke-linejoin:round;stroke-width:2px"/><line x1="177.99" y1="200.79" x2="177.99" y2="217.88" style="fill:#fff;stroke:#000;stroke-linecap:round;stroke-linejoin:round;stroke-width:2px"/><line x1="200.09" y1="200.79" x2="200.09" y2="217.88" style="fill:#fff;stroke:#000;stroke-linecap:round;stroke-linejoin:round;stroke-width:2px"/><path d="M195.67,331.47q-20.61,0-41.21,0c-2.18,0-4.86.33-4.17-3.1.53-2.67-2.56-7.21,3.45-7.4,10.25-.33,20.49-.86,30.74-1,12.41-.18,24.83-.1,37.24,0,5.2,0,10.39.4,15.59.54,2,0,2.86,1,2.79,2.94-.07,1.74-.07,3.47,0,5.21.07,2-.65,2.8-2.79,2.78-13.88-.08-27.76,0-41.64,0Z" transform="translate(-38.33 -62.96)" style="fill:#fff;stroke:#000;stroke-miterlimit:10;stroke-width:2px"/><path d="M195.67,315.77H154.46c-2.18,0-4.86.34-4.17-3.09.53-2.67-2.56-7.21,3.45-7.4,10.25-.33,20.49-.86,30.74-1,12.41-.18,24.83-.1,37.24,0,5.2,0,10.39.4,15.59.54,2,0,2.86,1,2.79,2.94-.07,1.73-.07,3.47,0,5.21.07,2-.65,2.79-2.79,2.78-13.88-.08-27.76,0-41.64,0Z" transform="translate(-38.33 -62.96)" style="fill:#fff;stroke:#000;stroke-miterlimit:10;stroke-width:2px"/></svg>