<svg id="Capa_1" data-name="Capa 1" xmlns="http://www.w3.org/2000/svg" viewBox="0 0 788 622"><title>tito25</title><g id="Color"><path d="M435.82,131.7c7.58-16,26.94-23.78,43.65-23.87A134.65,134.65,0,0,1,518,113.44c26.78,7.87,55.65,23.41,65,51.4,4.32,13,4.66,27,2.39,40.41-6.25,37-25.9,94.63-25.33,111.38" transform="translate(-4.5 0.5)" style="fill:none;stroke:#231f20;stroke-miterlimit:10"/><path d="M433.17,142.66c.06-1,.18-2.13.36-3.27" transform="translate(-4.5 0.5)" style="fill:none;stroke:#231f20;stroke-miterlimit:10"/><path d="M448.19,219.39c-1.09-4.64-2.08-9.51-2.59-12.89-3.1-20.75-11.4-49.78-11.4-49.78s-.69-4.95-1.11-10.53" transform="translate(-4.5 0.5)" style="fill:none;stroke:#231f20;stroke-miterlimit:10"/><path d="M436,148.81a45.28,45.28,0,0,0,1.48,7.48c5,20.14,9.6,40.85,13.68,61.06" transform="translate(-4.5 0.5)" style="fill:none;stroke:#231f20;stroke-miterlimit:10"/><path d="M436.93,140.88c-.19.93-.5,2.8-.61,3.8" transform="translate(-4.5 0.5)" style="fill:none;stroke:#231f20;stroke-miterlimit:10"/><path d="M556.39,316s2.39-22.69,6.34-36.52c3.72-13,8-25.87,11.81-38.87a173.56,173.56,0,0,0,4.83-20.36c1-6.46,1.89-13,2.72-19.47a101.76,101.76,0,0,0,.92-20c0-.67-.1-1.35-.17-2a64.61,64.61,0,0,0-2.26-11.76c-3.32-11.24-10.31-20.32-19.13-27.85a97.08,97.08,0,0,0-19.13-12.7c-11.48-5.83-24.14-9.24-36.61-12.25l-.6-.15a90.13,90.13,0,0,0-26.83-2.56,52.41,52.41,0,0,0-31.89,13.11,31.23,31.23,0,0,0-6.31,7.88" transform="translate(-4.5 0.5)" style="fill:none;stroke:#231f20;stroke-miterlimit:10"/><path d="M488.48,108.22c7.6-.9,15.59-.45,28.55,1.53a134.29,134.29,0,0,1,43.5,14.82c13.64,7.38,26.89,16.73,34.13,30.85,6.57,12.81,8.62,27.45,7.39,41.69-1.62,18.61-7.19,37-12,55-4.19,15.69-8.81,31.32-12.19,47.21-1.11,5.21-2.35,11.93-2.17,17.3" transform="translate(-4.5 0.5)" style="fill:none;stroke:#231f20;stroke-miterlimit:10"/><path d="M450.93,133c1.9-4.7,5.29-8.67,9-12s8.09-6.75,12.88-8.71" transform="translate(-4.5 0.5)" style="fill:none;stroke:#231f20;stroke-miterlimit:10"/><path d="M449,141.68a30.16,30.16,0,0,1,.58-4.24" transform="translate(-4.5 0.5)" style="fill:none;stroke:#231f20;stroke-miterlimit:10"/><path d="M451,156.72a52,52,0,0,1-2.11-9.56" transform="translate(-4.5 0.5)" style="fill:none;stroke:#231f20;stroke-miterlimit:10"/><path d="M462.11,212.5c-.24-1.9-.54-4.17-.86-6-2.32-13.08-6.61-32.39-8.61-42.77" transform="translate(-4.5 0.5)" style="fill:none;stroke:#231f20;stroke-miterlimit:10"/><path d="M465.63,217a114.57,114.57,0,0,1,1.12,20v12.5l-3.53,1.83a253.61,253.61,0,0,0-.49-33.33" transform="translate(-4.5 0.5)" style="fill:none;stroke:#231f20;stroke-miterlimit:10"/><path d="M455.92,167.86c3.36,14,6.86,29.76,9,43.76" transform="translate(-4.5 0.5)" style="fill:none;stroke:#231f20;stroke-miterlimit:10"/><path d="M451.6,148.81a50.28,50.28,0,0,0,1.47,7.48c.18.68.62,2.63.8,3.33" transform="translate(-4.5 0.5)" style="fill:none;stroke:#231f20;stroke-miterlimit:10"/><path d="M453.47,137.61a30.06,30.06,0,0,0-1.36,6.16" transform="translate(-4.5 0.5)" style="fill:none;stroke:#231f20;stroke-miterlimit:10"/><path d="M491.6,111.7a47.8,47.8,0,0,0-23.6,8.37,33.79,33.79,0,0,0-12.67,13.2" transform="translate(-4.5 0.5)" style="fill:none;stroke:#231f20;stroke-miterlimit:10"/><path d="M572.27,316.63s2.15-23.3,6.11-37.13c4.56-16,10.31-31.6,14.2-47.77,3.77-15.68,7.09-33.37,6.17-49.53-1.42-25.12-17.33-43.24-39-54.53-9.49-5-19.6-7.15-29.46-11A77.11,77.11,0,0,0,512.57,112" transform="translate(-4.5 0.5)" style="fill:none;stroke:#231f20;stroke-miterlimit:10"/><path d="M452.5,224.32q.76,3.85,1.5,7.68l9.22,33v9.75s-7.88-27.08-13.33-49" transform="translate(-4.5 0.5)" style="fill:none;stroke:#231f20;stroke-miterlimit:10"/><polyline points="308.42 384.25 308.5 386.07 308.5 390.33 300.88 393.48 299.01 393.15" style="fill:none;stroke:#231f20;stroke-miterlimit:10"/><path d="M312.92,383.75" transform="translate(-4.5 0.5)" style="fill:none;stroke:#231f20;stroke-miterlimit:10"/><line x1="306.34" y1="351.84" x2="308.18" y2="378.33" style="fill:none;stroke:#231f20;stroke-miterlimit:10"/><path d="M301.81,346.35" transform="translate(-4.5 0.5)" style="fill:none;stroke:#231f20;stroke-miterlimit:10"/><path d="M305.38,393" transform="translate(-4.5 0.5)" style="fill:none;stroke:#231f20;stroke-miterlimit:10"/><path d="M346.72,280.1a10.09,10.09,0,0,1,10.89,5.77s1,2.57-.81,9.57l-10.33,5.83s-8.34,2.83-10.84-6c0,0-3-8.33,2-10.33Z" transform="translate(-4.5 0.5)" style="fill:none;stroke:#231f20;stroke-miterlimit:10"/><polygon points="292.17 237.5 395.5 265.5 373.83 345.17 309.83 327.83 292.17 237.5" style="fill:none;stroke:#231f20;stroke-miterlimit:10"/><ellipse cx="503.42" cy="356.83" rx="3.08" ry="4.67" style="fill:none;stroke:#231f20;stroke-miterlimit:10"/><ellipse cx="503.42" cy="356.83" rx="1.42" ry="2.15" style="fill:none;stroke:#231f20;stroke-miterlimit:10"/><ellipse cx="512.5" cy="351.13" rx="3.08" ry="4.67" style="fill:none;stroke:#231f20;stroke-miterlimit:10"/><ellipse cx="512.5" cy="351.13" rx="1.42" ry="2.15" style="fill:none;stroke:#231f20;stroke-miterlimit:10"/><ellipse cx="521.79" cy="345.98" rx="3.08" ry="4.67" style="fill:none;stroke:#231f20;stroke-miterlimit:10"/><ellipse cx="521.79" cy="345.98" rx="1.42" ry="2.15" style="fill:none;stroke:#231f20;stroke-miterlimit:10"/><polyline points="526.18 338.25 526.18 352.17 497.88 368.64 497.21 350.64 525.52 338.25" style="fill:none;stroke:#231f20;stroke-miterlimit:10"/><polyline points="333.63 300.2 320.83 297.17 308.5 251.83 381.17 269.83 367.17 308.17 341.27 302.02" style="fill:none;stroke:#231f20;stroke-miterlimit:10"/><polygon points="322.5 311 366.5 323.17 361.5 335.17 324.83 323.08 322.5 311" style="fill:none;stroke:#231f20;stroke-miterlimit:10"/><path d="M309.51,138.23l80.62,18a4.53,4.53,0,0,1,3.54,4.42V198.9a4.53,4.53,0,0,1-5.61,4.39l-80.61-19.78a4.51,4.51,0,0,1-3.45-4.39V142.65A4.52,4.52,0,0,1,309.51,138.23Z" transform="translate(-4.5 0.5)" style="fill:none;stroke:#231f20;stroke-miterlimit:10"/><ellipse cx="319.5" cy="165.17" rx="8" ry="10" style="fill:none;stroke:#231f20;stroke-miterlimit:10"/><ellipse cx="368.17" cy="177.67" rx="8" ry="10" style="fill:none;stroke:#231f20;stroke-miterlimit:10"/><ellipse cx="319.5" cy="165.66" rx="6.13" ry="7.66" style="fill:none;stroke:#231f20;stroke-miterlimit:10"/><ellipse cx="282.25" cy="78.16" rx="5.75" ry="7.19" transform="translate(-14.73 93.82) rotate(-18.45)" style="fill:#fff;stroke:#231f20;stroke-miterlimit:10"/><ellipse cx="282.36" cy="78.5" rx="4.41" ry="5.51" transform="matrix(0.95, -0.32, 0.32, 0.95, -14.83, 93.88)" style="fill:#fff;stroke:#231f20;stroke-miterlimit:10"/><ellipse cx="416.25" cy="106.75" rx="5.75" ry="7.19" transform="translate(-16.89 137.69) rotate(-18.45)" style="fill:none;stroke:#231f20;stroke-miterlimit:10"/><ellipse cx="416.36" cy="107.09" rx="4.41" ry="5.51" transform="translate(-16.99 137.74) rotate(-18.45)" style="fill:#fff;stroke:#231f20;stroke-miterlimit:10"/><ellipse cx="368.17" cy="177.67" rx="6.13" ry="7.66" style="fill:none;stroke:#231f20;stroke-miterlimit:10"/><path d="M309.44,189.41c16.78,4,67.3,16.29,80.85,19.6a4.42,4.42,0,0,1,3.38,4.3v.41a4.43,4.43,0,0,1-5.46,4.31l-80.8-19.22A4.43,4.43,0,0,1,304,194.5v-.78A4.42,4.42,0,0,1,309.44,189.41Z" transform="translate(-4.5 0.5)" style="fill:none;stroke:#231f20;stroke-miterlimit:10"/><path d="M327.77,214.94c8.5,2,34.09,8.25,41,9.93a2.24,2.24,0,0,1,1.71,2.18v.2a2.26,2.26,0,0,1-2.77,2.19l-40.92-9.74a2.25,2.25,0,0,1-1.73-2.18v-.4A2.25,2.25,0,0,1,327.77,214.94Z" transform="translate(-4.5 0.5)" style="fill:none;stroke:#231f20;stroke-miterlimit:10"/><path d="M327.77,222.68c8.5,2,34.09,8.25,41,9.92a2.26,2.26,0,0,1,1.71,2.18V235a2.26,2.26,0,0,1-2.77,2.19l-40.92-9.74a2.26,2.26,0,0,1-1.73-2.19v-.39A2.24,2.24,0,0,1,327.77,222.68Z" transform="translate(-4.5 0.5)" style="fill:none;stroke:#231f20;stroke-miterlimit:10"/><path d="M327.77,230c8.5,2,34.09,8.25,41,9.93a2.24,2.24,0,0,1,1.71,2.18v.2a2.26,2.26,0,0,1-2.77,2.19l-40.92-9.74a2.25,2.25,0,0,1-1.73-2.18v-.4A2.24,2.24,0,0,1,327.77,230Z" transform="translate(-4.5 0.5)" style="fill:#fff;stroke:#231f20;stroke-miterlimit:10"/><path d="M245.5,222.83s3.78-2.62,10.92-.75L321,239v-6.5l-59.67-15.17s-3.16-1.18-7.66.83a51.36,51.36,0,0,0-8.17,4.67" transform="translate(-4.5 0.5)" style="fill:none;stroke:#231f20;stroke-miterlimit:10"/><path d="M311,479.48l-27,18.35s-6.17,4.17-10-2.08" transform="translate(-4.5 0.5)" style="fill:none;stroke:#231f20;stroke-miterlimit:10"/><path d="M279.29,545.55c-2,.19-3.81.59-5.66-2.43" transform="translate(-4.5 0.5)" style="fill:none;stroke:#231f20;stroke-miterlimit:10"/><path d="M290.24,540.41" transform="translate(-4.5 0.5)" style="fill:none;stroke:#231f20;stroke-miterlimit:10"/><path d="M450.67,520.33l6.83-4.83L463.75,285s1.58-17-13.08-18.5l-71.42-19V228.38" transform="translate(-4.5 0.5)" style="fill:none;stroke:#231f20;stroke-miterlimit:10"/><path d="M414.62,235.87l8.63-3.87V209.34l8-4.34s2.5-2.25,3-11.5a145.83,145.83,0,0,0,0-16.33s1.25-11.92-7.5-16.67l2.5-43.5s7.5-4.75,2.25-16.5c0,0-3.92-10.5-16.83-5.5" transform="translate(-4.5 0.5)" style="fill:none;stroke:#231f20;stroke-miterlimit:10"/><path d="M281.59,95.77l2.19.76a1.32,1.32,0,0,1,.89,1.25v30.65a1.32,1.32,0,0,1-2,1.15l-2.19-1.2a1.35,1.35,0,0,1-.69-1.16V97A1.33,1.33,0,0,1,281.59,95.77Z" transform="translate(-4.5 0.5)" style="fill:none;stroke:#231f20;stroke-miterlimit:10"/><path d="M414.54,124.6l2.19.75a1.33,1.33,0,0,1,.9,1.25v30.65a1.33,1.33,0,0,1-2,1.16l-2.18-1.21a1.3,1.3,0,0,1-.69-1.15v-30.2A1.32,1.32,0,0,1,414.54,124.6Z" transform="translate(-4.5 0.5)" style="fill:none;stroke:#231f20;stroke-miterlimit:10"/><path d="M284.67,136.17s-8-6.5-11,4.66V158s.33,6,8.58,5.33Z" transform="translate(-4.5 0.5)" style="fill:none;stroke:#231f20;stroke-miterlimit:10"/><path d="M411.17,164.67l4,29,8,.83s1.59-3,1.38-13.5S421.83,165,411.17,164.67Z" transform="translate(-4.5 0.5)" style="fill:none;stroke:#231f20;stroke-miterlimit:10"/><path d="M266.74,338l-.24-85.5c-.5-9,6.33-7,6.33-7" transform="translate(-4.5 0.5)" style="fill:none;stroke:#231f20;stroke-miterlimit:10"/><line x1="262.5" y1="426.24" x2="262.26" y2="342.92" style="fill:none;stroke:#231f20;stroke-miterlimit:10"/><polyline points="262.29 434.69 268.92 436.17 275.54 431.5 268.3 428.58" style="fill:none;stroke:#231f20;stroke-miterlimit:10"/><polyline points="276.5 439.38 275.54 431.5 268.76 436.5 269.5 443" style="fill:none;stroke:#231f20;stroke-miterlimit:10"/><polyline points="255.99 438.93 269.5 443 276.41 438.63" style="fill:none;stroke:#231f20;stroke-miterlimit:10"/><path d="M279.83,67.17l6.67-2.92s10-1.75,11.5,10.25S294.25,88,294.25,88l-.15,23.72" transform="translate(-4.5 0.5)" style="fill:none;stroke:#231f20;stroke-miterlimit:10"/><path d="M302.16,106.18c6.92-3.7,13.35-3.37,20.9-2.37a408.85,408.85,0,0,1,52.18,10c14,3.76,30.2,8,35.76,23.16" transform="translate(-4.5 0.5)" style="fill:none;stroke:#231f20;stroke-miterlimit:10"/><path d="M488.8,242.83l-19.47,8.5s-4.47,2.26-5.53,13.67l-.58,39.66" transform="translate(-4.5 0.5)" style="fill:none;stroke:#231f20;stroke-miterlimit:10"/><polyline points="490.95 242.26 488.5 241.5 486.76 242.26" style="fill:none;stroke:#231f20;stroke-miterlimit:10"/><line x1="509.8" y1="248.09" x2="494.42" y2="243.33" style="fill:none;stroke:#231f20;stroke-miterlimit:10"/><line x1="523.91" y1="252.46" x2="515.69" y2="249.91" style="fill:none;stroke:#231f20;stroke-miterlimit:10"/><line x1="536.77" y1="256.44" x2="529.28" y2="254.14" style="fill:none;stroke:#231f20;stroke-miterlimit:10"/><line x1="562.92" y1="264.53" x2="540.43" y2="257.57" style="fill:none;stroke:#231f20;stroke-miterlimit:10"/><path d="M567.42,264" transform="translate(-4.5 0.5)" style="fill:none;stroke:#231f20;stroke-miterlimit:10"/><path d="M570.58,265" transform="translate(-4.5 0.5)" style="fill:none;stroke:#231f20;stroke-miterlimit:10"/><line x1="577.21" y1="268.95" x2="566.08" y2="265.51" style="fill:none;stroke:#231f20;stroke-miterlimit:10"/><path d="M589,363.67l15.3-10s6.37-3.67,6.37-12.67l2.5-55.5s3.83-8.83-3.84-8.5l-23.94-7.41" transform="translate(-4.5 0.5)" style="fill:none;stroke:#231f20;stroke-miterlimit:10"/><polyline points="285.35 409.45 349 428 349 436.5 356 438.5 356 430.5 428.75 453.5" style="fill:none;stroke:#231f20;stroke-miterlimit:10"/><polyline points="294.84 388.19 269.5 404.83 278.54 407.46" style="fill:none;stroke:#231f20;stroke-miterlimit:10"/><line x1="352.01" y1="351.84" x2="329.99" y2="367.41" style="fill:none;stroke:#231f20;stroke-miterlimit:10"/><polygon points="289 437.69 280.5 435.18 280.5 419.75 289 422.75 289 437.69" style="fill:#fff;stroke:#231f20;stroke-miterlimit:10"/><polygon points="357.63 455.62 349.13 453.46 349.13 440.13 357.63 442.72 357.63 455.62" style="fill:#fff;stroke:#231f20;stroke-miterlimit:10"/><line x1="472.04" y1="345.9" x2="475.7" y2="343.27" style="fill:none;stroke:#231f20;stroke-miterlimit:10"/><line x1="450.19" y1="361.66" x2="467.31" y2="349.32" style="fill:none;stroke:#231f20;stroke-miterlimit:10"/><line x1="427.17" y1="377.81" x2="431.78" y2="374.94" style="fill:none;stroke:#231f20;stroke-miterlimit:10"/><line x1="355.17" y1="430.18" x2="422.37" y2="381.72" style="fill:none;stroke:#231f20;stroke-miterlimit:10"/><path d="M435.28,390.41" transform="translate(-4.5 0.5)" style="fill:none;stroke:#231f20;stroke-miterlimit:10"/><path d="M366.61,436.62" transform="translate(-4.5 0.5)" style="fill:none;stroke:#231f20;stroke-miterlimit:10"/><path d="M436.28,391.41" transform="translate(-4.5 0.5)" style="fill:none;stroke:#231f20;stroke-miterlimit:10"/><path d="M367.61,437.63" transform="translate(-4.5 0.5)" style="fill:none;stroke:#231f20;stroke-miterlimit:10"/><path d="M440.35,395.48" transform="translate(-4.5 0.5)" style="fill:none;stroke:#231f20;stroke-miterlimit:10"/><path d="M371.69,441.7" transform="translate(-4.5 0.5)" style="fill:none;stroke:#231f20;stroke-miterlimit:10"/><line x1="472.15" y1="341.09" x2="477.77" y2="337.12" style="fill:none;stroke:#231f20;stroke-miterlimit:10"/><line x1="457.46" y1="351.46" x2="467.31" y2="344.51" style="fill:none;stroke:#231f20;stroke-miterlimit:10"/><line x1="424.21" y1="374.94" x2="431.48" y2="369.8" style="fill:none;stroke:#231f20;stroke-miterlimit:10"/><line x1="348.45" y1="428.42" x2="418.87" y2="378.7" style="fill:none;stroke:#231f20;stroke-miterlimit:10"/><polyline points="346.13 376.87 344.95 376.51 341.62 380.19 348.55 382.72 352.67 378.33 350.26 377.73" style="fill:none;stroke:#231f20;stroke-miterlimit:10"/><polyline points="355.1 415.46 353 378.33 348.55 382.72 349.58 420.5 355.1 415.46 349.58 420.5 342.95 418.33 342.69 411.02 342.66 409.96 341.62 380.19 348.55 382.72 349.59 420.28" style="fill:#fff;stroke:#231f20;stroke-miterlimit:10"/><line x1="342.64" y1="409.55" x2="342.66" y2="409.96" style="fill:none;stroke:#231f20;stroke-miterlimit:10"/><path d="M607.17,287.93c-2.87,2.9-2.87,55.39-2.87,55.39l-12.8,8.35.64-54.93Z" transform="translate(-4.5 0.5)" style="fill:none;stroke:#231f20;stroke-miterlimit:10"/><polygon points="468.63 367 477.25 368.13 472.38 416.63 462.25 416.63 468.63 367" style="fill:#fff;stroke:#231f20;stroke-miterlimit:10"/><polyline points="482.22 390.31 480.88 407.07 487.5 409.75 492.88 407.07 495.63 368.13 490.63 370.88 484 368.13 482.22 390.31" style="fill:#fff;stroke:#231f20;stroke-miterlimit:10"/><line x1="490.63" y1="370.88" x2="489" y2="409.75" style="fill:none;stroke:#231f20;stroke-miterlimit:10"/><path d="M459.83,429.68" transform="translate(-4.5 0.5)" style="fill:none;stroke:#231f20;stroke-miterlimit:10"/><path d="M230.25,466.35l-8.5-4.35L213,467.5s-2,1.58-1.5,8.17L196.25,504.5l1.39.87,4.86,3.06,15.25-31.68L223,474.5l7.25-4Z" transform="translate(-4.5 0.5)" style="fill:none;stroke:#231f20;stroke-miterlimit:10"/><path d="M334.94,367.3c-3.94-6.91-15.79-22.36-42.69-28.8-35.5-8.5-68,22.75-68,22.75s-33.25,27.25-45,78.38,6.5,75.62,6.5,75.62,7.94,11.47,16.75-6.82" transform="translate(-4.5 0.5)" style="fill:none;stroke:#231f20;stroke-miterlimit:10"/><path d="M197.64,505.37,193,512.88s-1.5,2.37-4.75-3.88-9.75-29.5-6.25-56,19.75-59.33,29.25-69.54,26-36,59.25-41.21c0,0,41-4.74,59.78,27.32" transform="translate(-4.5 0.5)" style="fill:none;stroke:#231f20;stroke-miterlimit:10"/><polyline points="325.79 375.12 329.63 373.3 335.06 370.52 331.06 408.99 325.99 412.56 319.07 409.65 323.5 376.34" style="fill:#fff;stroke:#231f20;stroke-miterlimit:10"/><line x1="329.99" y1="372.98" x2="325.99" y2="412.56" style="fill:#fff;stroke:#231f20;stroke-miterlimit:10"/><path d="M339.63,370.5" transform="translate(-4.5 0.5)" style="fill:none;stroke:#231f20;stroke-miterlimit:10"/><path d="M220.83,462l-1-1.17,22.84-10.33,3.9,1.69,5,1.91s2.24,5.57-5.59,7.9l-14,8.5h-1.75" transform="translate(-4.5 0.5)" style="fill:none;stroke:#231f20;stroke-miterlimit:10"/><path d="M242.67,450.5c-.53-.14-.67-8,4.83-12.5l17.83-12.67s5.45-2.06,4.26,7.21l-13.95,9.21a16,16,0,0,1-4,12.35A65.3,65.3,0,0,0,242.67,450.5Z" transform="translate(-4.5 0.5)" style="fill:none;stroke:#231f20;stroke-miterlimit:10"/><path d="M354.5,358.27c1.6-6.06,3.42-11.75,5.17-14.44" transform="translate(-4.5 0.5)" style="fill:none;stroke:#231f20;stroke-miterlimit:10"/><path d="M359.68,362,354,379.29s-3.37,1.54-4.21.21c0,0,1.17-6.89,3.12-15.16" transform="translate(-4.5 0.5)" style="fill:none;stroke:#231f20;stroke-miterlimit:10"/><line x1="359.83" y1="346" x2="356.83" y2="356.64" style="fill:none;stroke:#231f20;stroke-miterlimit:10"/><path d="M502.54,294.73c-5.86,3.27-13,8.85-22,13.6,0,0-13.73,8.67-17.28,20.34" transform="translate(-4.5 0.5)" style="fill:none;stroke:#231f20;stroke-miterlimit:10"/><path d="M463.22,317.9s13.3-12.57,24.87-19.23c4.4-2.54,10.66-5.67,17.7-10.74" transform="translate(-4.5 0.5)" style="fill:none;stroke:#231f20;stroke-miterlimit:10"/><line x1="462.25" y1="255" x2="483.45" y2="261.86" style="fill:none;stroke:#231f20;stroke-miterlimit:10"/><line x1="509" y1="270.13" x2="487.84" y2="263.28" style="fill:none;stroke:#231f20;stroke-miterlimit:10"/><line x1="517.82" y1="272.98" x2="514.65" y2="271.96" style="fill:none;stroke:#231f20;stroke-miterlimit:10"/><line x1="537.14" y1="316.35" x2="519.03" y2="312.47" style="fill:none;stroke:#231f20;stroke-miterlimit:10"/><line x1="516.4" y1="335.59" x2="534.51" y2="339.47" style="fill:none;stroke:#231f20;stroke-miterlimit:10"/><path d="M584.1,335.57c-.6,5.25-2.94,9.29-5.22,9s-3.66-4.72-3.06-10c.45-3.94,1.88-7.19,3.53-8.47a2.32,2.32,0,0,1,1.69-.56C583.33,325.86,584.7,330.32,584.1,335.57Z" transform="translate(-4.5 0.5)" style="fill:none;stroke:#231f20;stroke-miterlimit:10"/><path d="M542.55,336.91c-2.29-.26-3.66-4.72-3.06-10,.45-3.94,1.88-7.2,3.53-8.47a2.32,2.32,0,0,1,1.69-.56" transform="translate(-4.5 0.5)" style="fill:none;stroke:#231f20;stroke-miterlimit:10"/><path d="M542.42,336.82c-1,1.47-2.23,2.28-3.41,2.15-2.78-.32-4.45-5.75-3.72-12.13.55-4.79,2.28-8.75,4.29-10.3a2.83,2.83,0,0,1,2.06-.69,3.07,3.07,0,0,1,2.14,1.51" transform="translate(-4.5 0.5)" style="fill:none;stroke:#231f20;stroke-miterlimit:10"/><path d="M520.9,335.09c-2.79-.32-4.45-5.75-3.72-12.14.54-4.78,2.28-8.75,4.28-10.3a2.88,2.88,0,0,1,2.07-.68" transform="translate(-4.5 0.5)" style="fill:none;stroke:#231f20;stroke-miterlimit:10"/><path d="M578.38,325.61" transform="translate(-4.5 0.5)" style="fill:none;stroke:#231f20;stroke-miterlimit:10"/><path d="M543,317.9" transform="translate(-4.5 0.5)" style="fill:none;stroke:#231f20;stroke-miterlimit:10"/><line x1="538.5" y1="337.45" x2="573.88" y2="345.17" style="fill:none;stroke:#231f20;stroke-miterlimit:10"/><line x1="537.14" y1="316.35" x2="519.03" y2="312.47" style="fill:none;stroke:#231f20;stroke-miterlimit:10"/><line x1="516.4" y1="335.59" x2="534.51" y2="339.47" style="fill:none;stroke:#231f20;stroke-miterlimit:10"/><path d="M584.1,335.57c-.6,5.25-2.94,9.29-5.22,9s-3.66-4.72-3.06-10c.45-3.94,1.88-7.19,3.53-8.47a2.32,2.32,0,0,1,1.69-.56C583.33,325.86,584.7,330.32,584.1,335.57Z" transform="translate(-4.5 0.5)" style="fill:none;stroke:#231f20;stroke-miterlimit:10"/><path d="M542.55,336.91c-2.29-.26-3.66-4.72-3.06-10,.45-3.94,1.88-7.2,3.53-8.47.55-.42.74-.63,1.31-.56" transform="translate(-4.5 0.5)" style="fill:none;stroke:#231f20;stroke-miterlimit:10"/><path d="M542.42,336.82c-1,1.47-2.23,2.28-3.41,2.15-2.78-.32-4.45-5.75-3.72-12.13.55-4.79,2.28-8.75,4.29-10.3a2.83,2.83,0,0,1,2.06-.69,2.58,2.58,0,0,1,2.35,2.26" transform="translate(-4.5 0.5)" style="fill:none;stroke:#231f20;stroke-miterlimit:10"/><path d="M520.9,335.09c-2.79-.32-4.45-5.75-3.72-12.14.54-4.78,2.28-8.75,4.28-10.3a2.88,2.88,0,0,1,2.07-.68" transform="translate(-4.5 0.5)" style="fill:none;stroke:#231f20;stroke-miterlimit:10"/><path d="M526.77,336.35c-1.95,4.08-4.6,4.75-7.14,4.46-4.42-.5-6.62-8.06-5.46-18.2.86-7.6,3.62-13.9,6.81-16.36a4.48,4.48,0,0,1,3.27-1.08c2.83.32,4.93,2.95,5.77,8.19" transform="translate(-4.5 0.5)" style="fill:none;stroke:#231f20;stroke-miterlimit:10"/><path d="M510.08,346c-2.31-5.66-3.41-14.6-2.36-23.84,1.38-12.06,5.75-22.05,10.81-25.95a7.15,7.15,0,0,1,5.2-1.72c4.48.51,7.81,6.3,9.15,14.62V314" transform="translate(-4.5 0.5)" style="fill:none;stroke:#231f20;stroke-miterlimit:10"/><line x1="538.5" y1="318.4" x2="576.54" y2="326.1" style="fill:none;stroke:#231f20;stroke-miterlimit:10"/><line x1="537.54" y1="337.3" x2="572.91" y2="345.02" style="fill:none;stroke:#231f20;stroke-miterlimit:10"/><polygon points="456.18 416.9 455.88 414.65 462.88 409.79 462.93 412.06 456.18 416.9" style="fill:none;stroke:#231f20;stroke-miterlimit:10;opacity:0.5"/><polygon points="473.79 404.15 473.62 401.95 481.44 396.35 481.32 398.87 473.79 404.15" style="fill:none;stroke:#231f20;stroke-miterlimit:10;opacity:0.5"/><polygon points="493.83 389.81 493.85 387.65 547.74 349.83 550.05 350.48 493.83 389.81" style="fill:none;stroke:#231f20;stroke-miterlimit:10;opacity:0.5"/><line x1="322.23" y1="388.88" x2="297.73" y2="404.68" style="fill:none;stroke:#231f20;stroke-miterlimit:10;opacity:0.5"/><line x1="346.63" y1="373.16" x2="335.13" y2="380.57" style="fill:none;stroke:#231f20;stroke-miterlimit:10;opacity:0.5"/><line x1="364.58" y1="361.03" x2="353.48" y2="368.55" style="fill:none;stroke:#231f20;stroke-miterlimit:10;opacity:0.5"/><line x1="380.16" y1="350.47" x2="373.68" y2="354.86" style="fill:none;stroke:#231f20;stroke-miterlimit:10;opacity:0.5"/><line x1="395.55" y1="340.28" x2="393.32" y2="341.76" style="fill:none;stroke:#231f20;stroke-miterlimit:10;opacity:0.5"/><line x1="411.8" y1="329.43" x2="404.37" y2="334.39" style="fill:none;stroke:#231f20;stroke-miterlimit:10;opacity:0.5"/><line x1="426.5" y1="319.63" x2="416.33" y2="326.41" style="fill:none;stroke:#231f20;stroke-miterlimit:10;opacity:0.5"/><line x1="432.48" y1="314.91" x2="426.5" y2="319.63" style="fill:none;stroke:#231f20;stroke-miterlimit:10;opacity:0.5"/><line x1="269.5" y1="404.83" x2="269.5" y2="419.25" style="fill:none;stroke:#231f20;stroke-miterlimit:10"/><path d="M433.25,475c-.58-.17-8.92-3-8.92-3l-6,5.67" transform="translate(-4.5 0.5)" style="fill:none;stroke:#231f20;stroke-miterlimit:10"/><path d="M634.5,339.5s-9.35-.36-15,7.17c0,0-16,21.25-18.5,47.91s5.39,35.36,8.69,37.47" transform="translate(-4.5 0.5)" style="fill:none;stroke:#231f20;stroke-miterlimit:10"/><polyline points="472.02 340.75 471.56 358.98 467 359.97 467 320.44 469.77 320.44 472.54 320.44 472.02 340.75" style="fill:none;stroke:#231f20;stroke-miterlimit:10"/><line x1="471.94" y1="311.8" x2="469.77" y2="320.44" style="fill:none;stroke:#231f20;stroke-miterlimit:10"/><line x1="477.14" y1="308.17" x2="472.53" y2="320.44" style="fill:none;stroke:#231f20;stroke-miterlimit:10"/><path d="M478.22,305.31s19.95-52.17,5.35-92.17l5.52,1.74s7.88,44.84-5,86.24" transform="translate(-4.5 0.5)" style="fill:none;stroke:#231f20;stroke-miterlimit:10"/><line x1="275.85" y1="434" x2="335.13" y2="453.5" style="fill:none;stroke:#231f20;stroke-miterlimit:10"/><line x1="349.13" y1="456.54" x2="413.83" y2="478.17" style="fill:none;stroke:#231f20;stroke-miterlimit:10"/><path d="M584.21,344.61l1.54-46.11s-1-7.14,3.25-10.57L609.33,277" transform="translate(-4.5 0.5)" style="fill:none;stroke:#231f20;stroke-miterlimit:10"/><path d="M498.12,398.14" transform="translate(-4.5 0.5)" style="fill:none;stroke:#231f20;stroke-miterlimit:10;opacity:0.5"/><polyline points="487.55 410.14 456.44 432.34 456.1 426.75 482.07 407.93" style="fill:none;stroke:#231f20;stroke-miterlimit:10;opacity:0.5"/><line x1="492.98" y1="405.52" x2="487.23" y2="409.64" style="fill:none;stroke:#231f20;stroke-miterlimit:10;opacity:0.5"/><polyline points="493.78 399.44 560.2 351.29 567.29 353.24 493.16 406.13" style="fill:none;stroke:#231f20;stroke-miterlimit:10;opacity:0.5"/><polygon points="291.26 402.81 292.75 399.81 299.01 393.15 304.19 394.38 291.26 402.81" style="fill:none;stroke:#231f20;stroke-miterlimit:10;opacity:0.5"/><path d="M304.4,394.25" transform="translate(-4.5 0.5)" style="fill:none;stroke:#231f20;stroke-miterlimit:10;opacity:0.5"/><polygon points="307.51 392.17 308.5 385.55 323.5 376.34 323.07 382.43 307.51 392.17" style="fill:none;stroke:#231f20;stroke-miterlimit:10;opacity:0.5"/><polygon points="334.98 374.86 335.06 370.52 347.82 365.08 347.84 366.42 334.98 374.86" style="fill:none;stroke:#231f20;stroke-miterlimit:10;opacity:0.5"/><polygon points="365.32 355.07 357.94 355.94 369 348.36 373.93 349.84 365.32 355.07" style="fill:none;stroke:#231f20;stroke-miterlimit:10;opacity:0.5"/><line x1="571.18" y1="353.44" x2="455.11" y2="438.13" style="fill:none;stroke:#231f20;stroke-miterlimit:10;opacity:0.5"/><path d="M274,416.25" transform="translate(-4.5 0.5)" style="fill:none;stroke:#231f20;stroke-miterlimit:10"/><path d="M436.64,312.05" transform="translate(-4.5 0.5)" style="fill:none;stroke:#231f20;stroke-miterlimit:10"/><path d="M382.39,299.25" transform="translate(-4.5 0.5)" style="fill:none;stroke:#231f20;stroke-miterlimit:10"/><path d="M604.3,350.14" transform="translate(-4.5 0.5)" style="fill:none;stroke:#231f20;stroke-miterlimit:10"/><polygon points="306.35 404.69 312.79 400.49 320.5 403.67 314.39 407.67 306.35 404.69" style="fill:#fff;stroke:#231f20;stroke-miterlimit:10"/><polygon points="329.94 413.44 335.27 409.96 341.65 412.59 336.59 415.9 329.94 413.44" style="fill:#fff;stroke:#231f20;stroke-miterlimit:10"/><polyline points="320.5 400.88 316.02 399.23 321.06 395.94" style="fill:#fff;stroke:#231f20;stroke-miterlimit:10"/><polyline points="332.1 400 338.48 402.63 333.42 405.93 331.45 405.2" style="fill:#fff;stroke:#231f20;stroke-miterlimit:10"/><polyline points="355.05 410.02 356.52 409.07 362.9 411.7 357.83 415 355.28 414.06" style="fill:#fff;stroke:#231f20;stroke-miterlimit:10"/><polyline points="333.11 391.54 336.47 392.92 332.63 395.43" style="fill:#fff;stroke:#231f20;stroke-miterlimit:10"/><polyline points="342.15 400.48 335.5 398.02 340.83 394.54 341.94 395" style="fill:#fff;stroke:#231f20;stroke-miterlimit:10"/><polyline points="342.64 409.55 338.83 408.29 342.51 405.88" style="fill:#fff;stroke:#231f20;stroke-miterlimit:10"/><polyline points="354.42 399.87 358.86 401.7 354.48 404.56" style="fill:#fff;stroke:#231f20;stroke-miterlimit:10"/><polygon points="359.91 407.09 365.25 403.61 371.63 406.24 366.57 409.55 359.91 407.09" style="fill:#fff;stroke:#231f20;stroke-miterlimit:10"/><polyline points="341.95 389.8 341.05 390.39 333.01 387.42 339.45 383.22 341.76 384.17" style="fill:#fff;stroke:#231f20;stroke-miterlimit:10"/><polyline points="353.9 389.64 356.67 390.78 353.95 392.56" style="fill:#fff;stroke:#231f20;stroke-miterlimit:10"/><polygon points="356.6 396.16 361.93 392.69 368.31 395.31 363.25 398.62 356.6 396.16" style="fill:#fff;stroke:#231f20;stroke-miterlimit:10"/><polygon points="369.37 400.7 374.7 397.22 381.08 399.85 376.02 403.16 369.37 400.7" style="fill:#fff;stroke:#231f20;stroke-miterlimit:10"/><polygon points="353.43 386.2 358.77 382.72 365.15 385.35 360.09 388.66 353.43 386.2" style="fill:#fff;stroke:#231f20;stroke-miterlimit:10"/><polygon points="365.08 390.73 370.41 387.25 376.79 389.88 371.73 393.19 365.08 390.73" style="fill:#fff;stroke:#231f20;stroke-miterlimit:10"/><polygon points="377.85 395.27 383.18 391.79 389.56 394.42 384.5 397.73 377.85 395.27" style="fill:#fff;stroke:#231f20;stroke-miterlimit:10"/><polygon points="351.42 376.49 356.75 373.02 363.13 375.65 358.07 378.95 351.42 376.49" style="fill:#fff;stroke:#231f20;stroke-miterlimit:10"/><polygon points="362.16 380.74 367.5 377.26 373.88 379.89 368.82 383.2 362.16 380.74" style="fill:#fff;stroke:#231f20;stroke-miterlimit:10"/><polygon points="373.81 385.27 379.14 381.8 385.52 384.43 380.46 387.73 373.81 385.27" style="fill:#fff;stroke:#231f20;stroke-miterlimit:10"/><polygon points="386.58 389.81 391.91 386.33 398.29 388.96 393.23 392.27 386.58 389.81" style="fill:#fff;stroke:#231f20;stroke-miterlimit:10"/><polygon points="358.86 370.33 365.3 366.13 373.01 369.31 366.9 373.3 358.86 370.33" style="fill:#fff;stroke:#231f20;stroke-miterlimit:10"/><polygon points="370.8 374.54 376.13 371.06 382.52 373.69 377.45 377 370.8 374.54" style="fill:#fff;stroke:#231f20;stroke-miterlimit:10"/><polygon points="382.45 379.07 387.78 375.6 394.16 378.23 389.1 381.53 382.45 379.07" style="fill:#fff;stroke:#231f20;stroke-miterlimit:10"/><polygon points="395.21 383.61 400.55 380.13 406.93 382.76 401.87 386.07 395.21 383.61" style="fill:#fff;stroke:#231f20;stroke-miterlimit:10"/><polygon points="368.54 364.86 373.87 361.38 380.25 364.01 375.19 367.32 368.54 364.86" style="fill:#fff;stroke:#231f20;stroke-miterlimit:10"/><polygon points="379.28 369.11 384.62 365.63 391 368.26 385.94 371.57 379.28 369.11" style="fill:none;stroke:#231f20;stroke-miterlimit:10"/><polygon points="390.93 373.64 396.26 370.17 402.64 372.8 397.58 376.1 390.93 373.64" style="fill:none;stroke:#231f20;stroke-miterlimit:10"/><polygon points="403.69 378.18 409.03 374.7 415.41 377.33 410.35 380.64 403.69 378.18" style="fill:#fff;stroke:#231f20;stroke-miterlimit:10"/><polyline points="385.61 360.76 383.92 361.87 379.36 360.18" style="fill:none;stroke:#231f20;stroke-miterlimit:10"/><polyline points="397.17 364.48 394.67 366.11 388.01 363.65 390.51 362.02" style="fill:none;stroke:#231f20;stroke-miterlimit:10"/><polyline points="407.61 369.8 406.31 370.64 399.66 368.19 401.99 366.67" style="fill:none;stroke:#231f20;stroke-miterlimit:10"/><polyline points="417.76 369.25 424.14 371.88 422.02 373.26" style="fill:none;stroke:#231f20;stroke-miterlimit:10"/><polygon points="384.44 353.42 390.88 349.22 398.59 352.4 392.48 356.39 384.44 353.42" style="fill:none;stroke:#231f20;stroke-miterlimit:10"/><polygon points="396.38 357.63 401.71 354.16 408.1 356.79 403.04 360.09 396.38 357.63" style="fill:none;stroke:#231f20;stroke-miterlimit:10"/><polygon points="408.03 362.17 413.36 358.69 419.74 361.32 414.68 364.63 408.03 362.17" style="fill:#fff;stroke:#231f20;stroke-miterlimit:10"/><polygon points="420.8 366.7 426.13 363.23 432.51 365.86 427.45 369.16 420.8 366.7" style="fill:#fff;stroke:#231f20;stroke-miterlimit:10"/><polygon points="394.12 347.95 399.45 344.48 405.83 347.11 400.77 350.42 394.12 347.95" style="fill:none;stroke:#231f20;stroke-miterlimit:10"/><polygon points="404.86 352.2 410.2 348.73 416.58 351.36 411.51 354.66 404.86 352.2" style="fill:#fff;stroke:#231f20;stroke-miterlimit:10"/><polygon points="416.51 356.74 421.84 353.26 428.22 355.89 423.16 359.19 416.51 356.74" style="fill:#fff;stroke:#231f20;stroke-miterlimit:10"/><polyline points="432.22 362.36 429.27 361.27 432.38 359.25" style="fill:none;stroke:#231f20;stroke-miterlimit:10"/><polygon points="402.85 342.5 408.18 339.02 414.56 341.65 409.5 344.96 402.85 342.5" style="fill:#fff;stroke:#231f20;stroke-miterlimit:10"/><polygon points="412.23 336.19 417.56 332.72 423.94 335.35 418.88 338.65 412.23 336.19" style="fill:#fff;stroke:#231f20;stroke-miterlimit:10"/><polygon points="420.64 330.71 425.98 327.23 432.36 329.86 427.3 333.17 420.64 330.71" style="fill:#fff;stroke:#231f20;stroke-miterlimit:10"/><polygon points="413.59 346.75 418.93 343.27 425.31 345.9 420.25 349.2 413.59 346.75" style="fill:#fff;stroke:#231f20;stroke-miterlimit:10"/><polygon points="420.64 340.1 425.98 336.62 432.36 339.25 427.3 342.56 420.64 340.1" style="fill:#fff;stroke:#231f20;stroke-miterlimit:10"/><polyline points="432.97 353.03 431.89 353.74 425.24 351.28 430.57 347.8 432.82 348.73" style="fill:#fff;stroke:#231f20;stroke-miterlimit:10"/><polyline points="477.24 367.01 479.42 367.75 477.27 369.35" style="fill:none;stroke:#231f20;stroke-miterlimit:10;opacity:0.1"/><polygon points="372.09 426.92 377.2 423.11 383.73 425.34 378.89 428.95 372.09 426.92" style="fill:#fff;stroke:#231f20;stroke-miterlimit:10"/><polygon points="383.08 430.48 388.19 426.68 394.72 428.9 389.88 432.52 383.08 430.48" style="fill:#fff;stroke:#231f20;stroke-miterlimit:10"/><polygon points="394.99 434.28 400.09 430.47 406.63 432.7 401.78 436.32 394.99 434.28" style="fill:#fff;stroke:#231f20;stroke-miterlimit:10"/><polygon points="408.01 438.01 413.12 434.2 419.65 436.43 414.81 440.05 408.01 438.01" style="fill:#fff;stroke:#231f20;stroke-miterlimit:10"/><polygon points="381.13 421.31 386.23 417.5 392.77 419.73 387.92 423.34 381.13 421.31" style="fill:#fff;stroke:#231f20;stroke-miterlimit:10"/><polygon points="392.12 424.87 397.22 421.07 403.76 423.29 398.91 426.91 392.12 424.87" style="fill:#fff;stroke:#231f20;stroke-miterlimit:10"/><polygon points="403.76 428.67 408.86 424.86 415.39 427.09 410.55 430.7 403.76 428.67" style="fill:#fff;stroke:#231f20;stroke-miterlimit:10"/><polygon points="415.16 432.53 420.27 428.72 426.8 430.95 421.96 434.56 415.16 432.53" style="fill:#fff;stroke:#231f20;stroke-miterlimit:10"/><polyline points="430.63 427.46 428.94 428.72 422.14 426.68 427.25 422.88 430.35 423.94" style="fill:#fff;stroke:#231f20;stroke-miterlimit:10"/><polygon points="389.95 414.82 395.15 410.95 401.8 413.21 396.87 416.9 389.95 414.82" style="fill:#fff;stroke:#231f20;stroke-miterlimit:10"/><polygon points="400.94 418.32 406.05 414.52 412.58 416.74 407.73 420.36 400.94 418.32" style="fill:#fff;stroke:#231f20;stroke-miterlimit:10"/><polygon points="412.85 422.12 417.95 418.31 424.49 420.54 419.64 424.15 412.85 422.12" style="fill:#fff;stroke:#231f20;stroke-miterlimit:10"/><polygon points="413.99 397 419.09 393.2 425.62 395.42 420.78 399.04 413.99 397" style="fill:#fff;stroke:#231f20;stroke-miterlimit:10"/><polyline points="431.32 402.47 424.97 400.57 430.08 396.76 431.5 397.25" style="fill:#fff;stroke:#231f20;stroke-miterlimit:10"/><polyline points="456.1 404.66 461.54 406.51 456.7 410.13 455.89 409.89" style="fill:#fff;stroke:#231f20;stroke-miterlimit:10"/><polyline points="431.48 392.18 429.81 393.43 423.02 391.39 427.7 387.9" style="fill:#fff;stroke:#231f20;stroke-miterlimit:10"/><polyline points="463.85 404.65 457.05 402.61 462.16 398.81 464.44 399.58" style="fill:#fff;stroke:#231f20;stroke-miterlimit:10"/><polyline points="465.51 390.34 461.53 394.24 456.71 392.34" style="fill:#fff;stroke:#231f20;stroke-miterlimit:10"/><polyline points="456.53 390.86 459.84 388.4 465.63 390.37" style="fill:none;stroke:#231f20;stroke-miterlimit:10"/><polyline points="474.86 392.64 477.51 393.54 474.51 395.79" style="fill:none;stroke:#231f20;stroke-miterlimit:10"/><polyline points="457.1 378.4 461.56 379.92 456.71 383.53" style="fill:#fff;stroke:#231f20;stroke-miterlimit:10"/><polyline points="466.1 386.57 461.83 385.29 466.75 381.63" style="fill:#fff;stroke:#231f20;stroke-miterlimit:10"/><polyline points="482.31 390.57 481.65 391.06 474.85 389.02 479.96 385.21 482.56 386.1" style="fill:#fff;stroke:#231f20;stroke-miterlimit:10"/><polyline points="456.96 369.84 459.61 370.74 456.88 372.77" style="fill:#fff;stroke:#231f20;stroke-miterlimit:10"/><polyline points="467.49 376.62 465.75 377.92 458.96 375.88 464.06 372.08 467.6 373.28" style="fill:#fff;stroke:#231f20;stroke-miterlimit:10"/><polyline points="476.41 376.12 482.23 378.1 476.17 382.92" style="fill:#fff;stroke:#231f20;stroke-miterlimit:10"/><polyline points="457.59 365.17 461.89 361.96 468.43 364.19 463.58 367.8 457.73 366.05" style="fill:#fff;stroke:#231f20;stroke-miterlimit:10"/><polyline points="483.51 374.27 479.69 373.13 483.7 370.14" style="fill:#fff;stroke:#231f20;stroke-miterlimit:10"/><polyline points="495.03 372.91 495.93 372.25 502.46 374.47 497.62 378.09 495.22 377.37" style="fill:#fff;stroke:#231f20;stroke-miterlimit:10"/><polygon points="498.39 368.64 504.12 365.59 510.66 367.82 505.81 371.43 498.39 368.64" style="fill:#fff;stroke:#231f20;stroke-miterlimit:10"/><polygon points="508.11 362.84 513.93 359.28 520.43 361.5 514.9 364.88 508.11 362.84" style="fill:#fff;stroke:#231f20;stroke-miterlimit:10"/><polygon points="518.14 356.54 524.48 353.16 530.63 355.25 524.93 358.58 518.14 356.54" style="fill:#fff;stroke:#231f20;stroke-miterlimit:10"/><polygon points="398.99 409.14 404.09 405.34 410.62 407.56 405.78 411.18 398.99 409.14" style="fill:#fff;stroke:#231f20;stroke-miterlimit:10"/><polygon points="409.98 412.71 415.08 408.91 421.61 411.13 416.77 414.75 409.98 412.71" style="fill:#fff;stroke:#231f20;stroke-miterlimit:10"/><polyline points="430.86 416.71 428.41 418.54 421.61 416.5 426.72 412.7 430.75 414.07" style="fill:#fff;stroke:#231f20;stroke-miterlimit:10"/><polygon points="407.07 402.27 412.17 398.47 418.71 400.69 413.86 404.31 407.07 402.27" style="fill:#fff;stroke:#231f20;stroke-miterlimit:10"/><polygon points="418.06 405.84 423.16 402.03 429.7 404.26 424.85 407.88 418.06 405.84" style="fill:#fff;stroke:#231f20;stroke-miterlimit:10"/><path d="M462.73,275.78S451,244.67,472.3,250" transform="translate(-4.5 0.5)" style="fill:none;stroke:#231f20;stroke-miterlimit:10"/><path d="M278.94,455.12a107.94,107.94,0,0,1-18.85-14.81" transform="translate(-4.5 0.5)" style="fill:none;stroke:#231f20;stroke-miterlimit:10"/><path d="M271.26,460.66c-7-4.78-5.64-4.05-11.17-9.56" transform="translate(-4.5 0.5)" style="fill:none;stroke:#231f20;stroke-miterlimit:10"/><path d="M278.94,455.12" transform="translate(-4.5 0.5)" style="fill:none;stroke:#231f20;stroke-miterlimit:10"/><path d="M432.67,491a423,423,0,0,1-46-3.23" transform="translate(-4.5 0.5)" style="fill:none;stroke:#231f20;stroke-miterlimit:10"/><ellipse cx="363.18" cy="541.83" rx="58.16" ry="30.91" transform="translate(-287.45 631.76) rotate(-64.05)" style="fill:#fff;stroke:#231f20;stroke-miterlimit:10"/><path d="M686.48,354.73l-44.6-14.89C632,336.73,617.4,355,609.37,380.62s-6.29,50.44,3.63,53.55l44.39,13.37" transform="translate(-4.5 0.5)" style="fill:none;stroke:#231f20;stroke-miterlimit:10"/><ellipse cx="672.67" cy="401.38" rx="48.74" ry="18.5" transform="translate(66.85 903.87) rotate(-70.68)" style="fill:none;stroke:#231f20;stroke-miterlimit:10"/><line x1="238.92" y1="531.13" x2="248.74" y2="532.73" style="fill:none;stroke:#231f20;stroke-miterlimit:10"/><polyline points="497.21 350.64 494.32 350.03 502.46 345.72" style="fill:none;stroke:#231f20;stroke-miterlimit:10"/><line x1="495.63" y1="344.93" x2="505.31" y2="346.05" style="fill:none;stroke:#231f20;stroke-miterlimit:10"/><polyline points="494.65 350.64 495.63 365.63 497.88 368.64" style="fill:none;stroke:#231f20;stroke-miterlimit:10"/><path d="M208.93,495.06c-3.9,13.69,2.9,24.31,15.24,29.94" transform="translate(-4.5 0.5)" style="fill:none;stroke:#231f20;stroke-miterlimit:10"/><path d="M485.38,306s-5.13,9.22-.88,24.81" transform="translate(-4.5 0.5)" style="fill:none;stroke:#231f20;stroke-miterlimit:10"/><polyline points="489 409.75 490.63 370.88 484 368.13 488.09 364.17 492.7 364.17 495.63 368.13" style="fill:#fff;stroke:#231f20;stroke-miterlimit:10"/><path d="M496.08,344.43l-4.21-.31s-1.09-.29-3.37-5" transform="translate(-4.5 0.5)" style="fill:none;stroke:#231f20;stroke-miterlimit:10"/><line x1="519.23" y1="294.95" x2="513.61" y2="294.95" style="fill:none;stroke:#231f20;stroke-miterlimit:10"/><line x1="508.74" y1="294.24" x2="505.7" y2="294.24" style="fill:none;stroke:#231f20;stroke-miterlimit:10"/><path d="M296.67,252s-6.29,12.92-2.1,43.08,6.52,46,6.52,46" transform="translate(-4.5 0.5)" style="fill:none;stroke:#231f20;stroke-miterlimit:10"/><path d="M306.75,343.23s-6.75-31.38-8.25-46.68-2.73-27.91,0-32.05" transform="translate(-4.5 0.5)" style="fill:none;stroke:#231f20;stroke-miterlimit:10"/><path d="M419.71,435.1" transform="translate(-4.5 0.5)" style="fill:none;stroke:#231f20;stroke-miterlimit:10"/><path d="M423.52,432" transform="translate(-4.5 0.5)" style="fill:none;stroke:#231f20;stroke-miterlimit:10"/><path d="M425.56,443c-.14.28-3.25,4.37-3.25,4.37" transform="translate(-4.5 0.5)" style="fill:none;stroke:#231f20;stroke-miterlimit:10"/><line x1="416.81" y1="444.78" x2="422.05" y2="446.78" style="fill:none;stroke:#231f20;stroke-miterlimit:10"/><line x1="293.86" y1="406.44" x2="299.33" y2="407.7" style="fill:none;stroke:#231f20;stroke-miterlimit:10"/><line x1="423.83" y1="439.31" x2="429.75" y2="434.94" style="fill:none;stroke:#231f20;stroke-miterlimit:10;opacity:0.5"/><path d="M257.66,457.15,224.5,476.67s-6,2.5-7.83,21.16c0,0,10.16,2.34,4.5,6.5v5.34l2.16,4.5-5.66-3a17.06,17.06,0,0,0,6.5,13.83l20.16,5.9s1.84-24.57,9.3-43.08c0,0,7.87-20,16.54-26Z" transform="translate(-4.5 0.5)" style="fill:none;stroke:#231f20;stroke-miterlimit:10"/><line x1="220" y1="477.17" x2="248.38" y2="488.5" style="fill:none;stroke:#231f20;stroke-miterlimit:10"/><line x1="584.5" y1="347.17" x2="454.98" y2="443" style="fill:none;stroke:#231f20;stroke-miterlimit:10"/><line x1="418.76" y1="309.49" x2="434" y2="299.75" style="fill:none;stroke:#231f20;stroke-miterlimit:10"/><path d="M418,312.38" transform="translate(-4.5 0.5)" style="fill:none;stroke:#231f20;stroke-miterlimit:10"/><path d="M418,312.38" transform="translate(-4.5 0.5)" style="fill:none;stroke:#231f20;stroke-miterlimit:10"/><path d="M414.9,314.33" transform="translate(-4.5 0.5)" style="fill:none;stroke:#231f20;stroke-miterlimit:10"/><line x1="403.24" y1="319.4" x2="409.72" y2="315.27" style="fill:none;stroke:#231f20;stroke-miterlimit:10"/><line x1="390.46" y1="327.57" x2="399.28" y2="321.93" style="fill:none;stroke:#231f20;stroke-miterlimit:10"/><path d="M388.64,489.54,344.47,468c-15.35-7.47-39.53,10.59-54,40.34S276.68,568.3,292,575.77l49.48,19.67" transform="translate(-4.5 0.5)" style="fill:none;stroke:#231f20;stroke-miterlimit:10"/><path d="M352.5,453.25,321,466.35c1.64-8.09-6.84-14.52-13.95-15.39-17.05-2.08-31.65,12.86-39.77,26.15-8.39,13.73-12.89,29.87-14,45.87-.55,7.82.24,5.28.47,13.4L274,543.69s-10.25-6.94,0-47.94l47-29.4,4.6,2.77s10-4.66,18.87-1.08l9.16-4.54V453Z" transform="translate(-4.5 0.5)" style="fill:none;stroke:#231f20;stroke-miterlimit:10"/><path d="M458.72,483.16s127-97,134.78-102.49c6.37-4.48,15.87-10.52,13.67-9.74-.83.67-4.93,17.23-5.49,18.38C600,392.78,458.24,499.6,458.24,499.6l.48-16.44" transform="translate(-4.5 0.5)" style="fill:none;stroke:#231f20;stroke-miterlimit:10"/><polyline points="576.54 344.68 584.5 347.17 584.5 374.86" style="fill:none;stroke:#231f20;stroke-miterlimit:10"/><line x1="463.31" y1="307.57" x2="469.12" y2="309.39" style="fill:none;stroke:#231f20;stroke-miterlimit:10"/><path d="M259.71,339.92,259.5,255s-.67-12,13.33-9.5l23.84,6.5,13.83,77,56.36,16" transform="translate(-4.5 0.5)" style="fill:none;stroke:#231f20;stroke-miterlimit:10"/><line x1="255.43" y1="429.67" x2="255.22" y2="345.31" style="fill:none;stroke:#231f20;stroke-miterlimit:10"/><polyline points="247.39 454.72 255.5 458 255.45 439.3" style="fill:none;stroke:#231f20;stroke-miterlimit:10"/><path d="M242.14,353.21c.19,48,.49,92.11.53,97.29" transform="translate(-4.5 0.5)" style="fill:none;stroke:#231f20;stroke-miterlimit:10"/><path d="M366.86,345l14.64,4.16,17.17-69.67,34.66,9.17s7.67-.34,4.34,19.66l-4,174-15.34-4.66-1,8.66L432.67,491l-1,12.67H416.33c.67,0,.67,6,.67,6l33.67,10.66L456,298s3.33-24.33-10.67-26l-72-20,1.34-24.67,38,8.67s4.66,1,4-5l.33-19s14.33.33,12-27c0,0,0-21-9.67-21.67l1.67-42s6.33-4.33,5.67-13.66-8.34-12-12-12.67S401.5,105.33,411,119.67V157s-2.67-28-20.5-32.33L349.75,115l-46.08-9s-10-.67-17.17,20.17V91.33s6-3,5.5-11.66c0,0,.5-13.17-12.17-12.5,0,0-7.83,1.33-7.5,10.83,0,0-1.16,4.33,4.84,12.67V130.5s-7,1.67-6.5,17.33v14.5s0,12.84,10.67,15V201.5s-.84,1.67,6.33,3.67l33.33,8V239l-66.17-17.33s-10.66-3.34-12.16,6.66c-.78,5.19-.73,63.64-.52,119.91" transform="translate(-4.5 0.5)" style="fill:none;stroke:#231f20;stroke-miterlimit:10"/><path d="M379.25,228.38" transform="translate(-4.5 0.5)" style="fill:none;stroke:#231f20;stroke-miterlimit:10"/><path d="M398.38,501.11s22.95,3.89,33.29,2.56" transform="translate(-4.5 0.5)" style="fill:none;stroke:#231f20;stroke-miterlimit:10"/><polygon points="377 349.67 386 346.13 400.75 282.75 394.17 280 377 349.67" style="fill:none;stroke:#231f20;stroke-miterlimit:10"/><polyline points="316.39 462.33 339 451.6 349.13 453.46" style="fill:none;stroke:#231f20;stroke-miterlimit:10"/><path d="M503.88,200.25c-1,5-1.3,10.28-2.35,15" transform="translate(-4.5 0.5)" style="fill:none;stroke:#231f20;stroke-miterlimit:10"/><path d="M509.89,150a275.35,275.35,0,0,1-2.6,34.85c-.33,2.27-.7,4.57-1.09,6.87" transform="translate(-4.5 0.5)" style="fill:none;stroke:#231f20;stroke-miterlimit:10"/><path d="M505,114.35a112.22,112.22,0,0,1,5.06,29.24" transform="translate(-4.5 0.5)" style="fill:#fff;stroke:#231f20;stroke-miterlimit:10"/><path d="M511.66,109c-2.47-7.08-5.88-14-10.83-19.69A34.71,34.71,0,0,0,492.24,82c-9.55-5.56-21.88-6.41-32.41-3.47a68.89,68.89,0,0,0-18.33,8.51,110.22,110.22,0,0,0-12.7,9.54l3.94,7.29c6.15-8,14.58-15.37,23.75-19.68a30.65,30.65,0,0,1,22-1.84c7.89,2.48,13.77,8.93,18.22,15.66a74,74,0,0,1,5.48,10" transform="translate(-4.5 0.5)" style="fill:none;stroke:#231f20;stroke-miterlimit:10"/><path d="M517,147.43c.07-2.72,0-6.65,0-9.31a134.58,134.58,0,0,0-3.22-21.88" transform="translate(-4.5 0.5)" style="fill:none;stroke:#231f20;stroke-miterlimit:10"/><path d="M510.52,197.6a334.82,334.82,0,0,0,6.22-44.32" transform="translate(-4.5 0.5)" style="fill:none;stroke:#231f20;stroke-miterlimit:10"/><path d="M505.81,218.14c.94-3.73,1.88-7.61,2.78-11.6" transform="translate(-4.5 0.5)" style="fill:none;stroke:#231f20;stroke-miterlimit:10"/><path d="M503.88,225.54c-1.68,6.22-3,10.91-4.55,15.84l-.41,1.45a197.37,197.37,0,0,1-8.1,21.8l1.51-13.3s3.77-12.83,7.78-29.88" transform="translate(-4.5 0.5)" style="fill:none;stroke:#231f20;stroke-miterlimit:10"/><path d="M508.54,206.53c9.32,14.22,18.95,31.81,19.79,44.8.71,10.86-4.31,19.81-11.22,27L511.58,291c22.73-16.71,22.09-34.67,22.09-34.67,0-.93.08-1.83.11-2.69" transform="translate(-4.5 0.5)" style="fill:none;stroke:#231f20;stroke-miterlimit:10"/><path d="M433.58,139.4c33.15,14,57.09,42.6,57.09,42.6-.37-.48,6.67,7.85,17.87,24.53" transform="translate(-4.5 0.5)" style="fill:none;stroke:#231f20;stroke-miterlimit:10"/><path d="M434,137.15l-5.9.09c1.85.67,3.69,1.39,5.49,2.16" transform="translate(-4.5 0.5)" style="fill:none;stroke:#231f20;stroke-miterlimit:10"/><path d="M448.91,141.67c-4.64-3-7.49-4.63-7.49-4.63l-7.43.11" transform="translate(-4.5 0.5)" style="fill:none;stroke:#231f20;stroke-miterlimit:10"/><path d="M533.78,253.64c.52-14.38-6.2-27.43-13.1-39.59-17.13-30.19-42.1-53.12-71-71.88" transform="translate(-4.5 0.5)" style="fill:none;stroke:#231f20;stroke-miterlimit:10"/><path d="M481.75,208.33" transform="translate(-4.5 0.5)" style="fill:none;stroke:#231f20;stroke-miterlimit:10"/><path d="M482.88,206.67l-1.13-.17h0s-18.92-41.59-53.91-63.87v-3c37,18.91,57.74,67.41,57.74,67.41l-2.7-.41" transform="translate(-4.5 0.5)" style="fill:none;stroke:#231f20;stroke-miterlimit:10"/><path d="M481.67,212.71c-10.42-.9-21,6.27-29.63,11.23a494.18,494.18,0,0,0-44.66,29.28,4.52,4.52,0,0,1-2.09,1,4.61,4.61,0,0,1-1.51-.19l-6-1.44c22.71-16.7,45.85-33.62,72.43-43a39.52,39.52,0,0,1,10.46-2.5c6.18-.4,11.64,2.78,16.87,5.68a42.45,42.45,0,0,1,10.29,7.81c7.8,8.22,10,19,12.17,29.67l.21,1c3.75,18.59-8.5,40.92-20.12,60.17s-19.14,56-19.14,56l-5.74-1c-.75-6.5,6.5-32.75,14.5-46.75s21.25-43,21.25-43,8.25-13.25,1.75-35.75C509,227.85,495.92,214,481.67,212.71Z" transform="translate(-4.5 0.5)" style="fill:none;stroke:#231f20;stroke-miterlimit:10"/><polyline points="411.5 365.27 411.5 330.2 414.56 330.2 417.76 330.2 417.76 368.66" style="fill:none;stroke:#231f20;stroke-miterlimit:10"/><path d="M416.13,328.67c.12-2.89-.77-12.69-12.65-38.83l.51-6.45s18,38.11,17,45.28l-5,1a4.11,4.11,0,0,0,.13-1" transform="translate(-4.5 0.5)" style="fill:none;stroke:#231f20;stroke-miterlimit:10"/><polyline points="392.22 357.35 394.12 332.72 390.14 331.49 387.02 346.43 380.16 350.47 379.92 354.96" style="fill:none;stroke:#231f20;stroke-miterlimit:10"/><path d="M396.27,362.73" transform="translate(-4.5 0.5)" style="fill:none;stroke:#231f20;stroke-miterlimit:10"/><polyline points="379.93 360.03 379.65 365.31 385.61 370.17 391.5 366.67 391.76 363.23" style="fill:none;stroke:#231f20;stroke-miterlimit:10"/><path d="M384.07,360.88" transform="translate(-4.5 0.5)" style="fill:none;stroke:#231f20;stroke-miterlimit:10"/><path d="M384.48,353.24" transform="translate(-4.5 0.5)" style="fill:none;stroke:#231f20;stroke-miterlimit:10"/><line x1="404.37" y1="334.39" x2="402.85" y2="360.52" style="fill:none;stroke:#231f20;stroke-miterlimit:10"/><polyline points="394.12 357.1 397.6 325.95 401.07 329.17 404.86 325.95 404.37 334.39" style="fill:none;stroke:#231f20;stroke-miterlimit:10"/><path d="M406.36,367.65" transform="translate(-4.5 0.5)" style="fill:none;stroke:#231f20;stroke-miterlimit:10"/><polyline points="393.44 363.17 392.29 373.46 392.29 373.46 398.29 376.37 401.73 370.36 402.02 366.16" style="fill:none;stroke:#231f20;stroke-miterlimit:10"/><path d="M397.81,363.85" transform="translate(-4.5 0.5)" style="fill:none;stroke:#231f20;stroke-miterlimit:10"/><path d="M398.62,357.17" transform="translate(-4.5 0.5)" style="fill:none;stroke:#231f20;stroke-miterlimit:10"/><path d="M407.38,319c.41,3.51.52,6.49.07,8.12l-1.88,1.6L403.88,326s-.25-16.2-2.94-25.23l1.83-5.69A238.89,238.89,0,0,1,407.38,319" transform="translate(-4.5 0.5)" style="fill:none;stroke:#231f20;stroke-miterlimit:10"/><line x1="398.98" y1="365.27" x2="398.29" y2="377.26" style="fill:none;stroke:#231f20;stroke-miterlimit:10"/><path d="M403.48,364.77" transform="translate(-4.5 0.5)" style="fill:none;stroke:#231f20;stroke-miterlimit:10"/><path d="M403.86,358.19" transform="translate(-4.5 0.5)" style="fill:none;stroke:#231f20;stroke-miterlimit:10"/><line x1="401.07" y1="329.17" x2="399.29" y2="360.03" style="fill:none;stroke:#231f20;stroke-miterlimit:10"/><line x1="490.63" y1="370.88" x2="496.26" y2="368.03" style="fill:none;stroke:#231f20;stroke-miterlimit:10"/><line x1="475.46" y1="311.14" x2="478.65" y2="312.56" style="fill:none;stroke:#231f20;stroke-miterlimit:10"/><path d="M308.69,451.32s-54.85-17.82-64.36,79.58" transform="translate(-4.5 0.5)" style="fill:none;stroke:#231f20;stroke-miterlimit:10"/><line x1="600.46" y1="354.03" x2="608.94" y2="356.83" style="fill:none;stroke:#231f20;stroke-miterlimit:10"/><path d="M306.75,349" transform="translate(-4.5 0.5)" style="fill:none;stroke:#231f20;stroke-miterlimit:10"/><path d="M305.75,392.65" transform="translate(-4.5 0.5)" style="fill:none;stroke:#231f20;stroke-miterlimit:10"/><line x1="385.61" y1="369.35" x2="386.58" y2="361.66" style="fill:none;stroke:#231f20;stroke-miterlimit:10"/><line x1="387.02" y1="346.43" x2="386.58" y2="355.38" style="fill:none;stroke:#231f20;stroke-miterlimit:10"/><line x1="412.23" y1="313.86" x2="418.76" y2="309.49" style="fill:none;stroke:#231f20;stroke-miterlimit:10"/><line x1="557.09" y1="283.97" x2="526.97" y2="275.46" style="fill:none;stroke:#231f20;stroke-miterlimit:10"/><line x1="571.65" y1="288.33" x2="561.39" y2="285.26" style="fill:none;stroke:#231f20;stroke-miterlimit:10"/><line x1="582.21" y1="291.5" x2="575.45" y2="289.47" style="fill:none;stroke:#231f20;stroke-miterlimit:10"/><path d="M435,392.79a44.29,44.29,0,0,0-3.25-5.15c-7.83-10.51-32.44-37.1-73.87-25.14a224,224,0,0,0-27.59,12.12c-11.21,5.87-23.36,13.62-31.29,22.63,0,0-20.08,26-28.6,33l-2.95-4.32S278,415.25,280,411.63s17.71-28,38.34-36.63c1.1-.46,2.2-.94,3.3-1.43,11.49-5.08,22.54-11.3,33.22-15.3,7.33-2.75,14.49-4.45,21.48-4,17,1.06,33.09,2.36,55.29,23.06,1.42,1.32,2.85,2.71,4.31,4.19" transform="translate(-4.5 0.5)" style="fill:none;stroke:#231f20;stroke-miterlimit:10"/><path d="M497.2,363.67c.76-.12,2.7-15.07,3-16.77,1.19-6.11,2.53-12.19,4.13-18.21,3.24-12.12,6.63-24.57,13.72-33.8,5.65-7.36,9.76-15.78,15.68-22.87a139.72,139.72,0,0,0,15.44-21.91c15-26.87,12.07-65.05-10-87.34-10.55-10.67-24.35-17.63-38.4-22.47-23-7.92-48.05-6.21-72.23-9l-.67,5.85c.23-1.94,39.06,1.32,42.82,1.81A138.49,138.49,0,0,1,510.13,150c12.68,5.77,24.43,14.15,32,26.09a74,74,0,0,1,11,48.07c-2.1,16.87-10.87,31.77-20.94,45.11-8.71,11.55-18.41,21.75-24.76,34.89-9,18.58-11.51,39.95-14.68,60.18Z" transform="translate(-4.5 0.5)" style="fill:none;stroke:#231f20;stroke-miterlimit:10"/><path d="M544,318.11s-8.67,8.62-2,18.69l36.34,7.87s-8.65-9.19,2.17-19.06Z" transform="translate(-4.5 0.5)" style="fill:#fff;stroke:#231f20;stroke-miterlimit:10"/><path d="M543.78,317.36s-.87-1.91-4.2-.82-.57-.28-.57-.28-5.87,10.32-3.44,17.9,6.07,3.61,6.07,3.61.92.35-.48-1.65C541.16,336.12,537,325.63,543.78,317.36Z" transform="translate(-4.5 0.5)" style="fill:#fff;stroke:#231f20;stroke-miterlimit:10"/><path d="M540.5,315.17l-10.59-2-6.38-1.2s-6.67,1.65-6.48,12.4,3.85,10.72,3.85,10.72l16.43,3.52S531.13,325.71,540.5,315.17Z" transform="translate(-4.5 0.5)" style="fill:none;stroke:#231f20;stroke-miterlimit:10"/><path d="M530,311.7s-2-9.7-8.69-5.7-7.47,20.73-7.47,20.73-.65,12.66,7,14.14c0,0,4.06-.62,5.39-4.25l-6.19-1.82s-5.81-5.3-2.45-14.61,5.88-8.22,5.88-8.22l6.38,1.2Z" transform="translate(-4.5 0.5)" style="fill:#fff;stroke:#231f20;stroke-miterlimit:10"/><path d="M522.26,340.66,510.08,346s-5.88-16.07-1.23-32.6,11.67-20.3,14.88-18.91,9.87,6.66,9.15,19.52l-2.2-.65s-1.6-10.16-7.47-8.66-10,13-9.29,24S516.86,341.15,522.26,340.66Z" transform="translate(-4.5 0.5)" style="fill:#fff;stroke:#231f20;stroke-miterlimit:10"/><path d="M530.68,351.67l-27.79,16.47-2.83-4-.91-14.53,7.81-4.38,3,1.73,20-9.2Zm-22.56-.48c-1.74,0-3.15,2.33-3.15,5.2s1.41,5.19,3.15,5.19,3.16-2.32,3.16-5.19S509.87,351.19,508.12,351.19Zm9.12-5.42c-1.74,0-3.15,2.32-3.15,5.19s1.41,5.2,3.15,5.2,3.16-2.33,3.16-5.2S519,345.77,517.24,345.77Zm9-5.2c-1.74,0-3.15,2.33-3.15,5.2s1.41,5.19,3.15,5.19,3.15-2.32,3.15-5.19S528,340.57,526.29,340.57Z" transform="translate(-4.5 0.5)" style="fill:#fff;stroke:#231f20;stroke-miterlimit:10"/><path d="M583.89,337c-1.08,5.22-4.1,8-6.15,7.58s-2.83-5-1.74-10.21,3.63-9.1,5.68-8.68S585,331.73,583.89,337Z" transform="translate(-4.5 0.5)" style="fill:#fff;stroke:#231f20;stroke-miterlimit:10"/><line x1="483.98" y1="259.72" x2="458.72" y2="308.19" style="fill:none;stroke:#231f20;stroke-miterlimit:10"/><path d="M503.88,225.54c-1.68,6.22-3,10.91-4.55,15.84l-.41,1.45a197.37,197.37,0,0,1-8.1,21.8l1.51-13.3s3.77-12.83,7.78-29.88" transform="translate(-4.5 0.5)" style="fill:#fff;stroke:#231f20;stroke-miterlimit:10"/><polygon points="499.38 200.75 504.39 207.6 501.38 218.38 496.73 215.56 499.38 200.75" style="fill:#fff;stroke:#231f20;stroke-miterlimit:10"/><path d="M510.13,150l6.61,3.31s-4,39.52-6.22,44.25l-4.32-5.9S510.59,153.42,510.13,150Z" transform="translate(-4.5 0.5)" style="fill:#fff;stroke:#231f20;stroke-miterlimit:10"/><path d="M517.15,147.12s.29-19.24-3.26-30.82c-.83-.86-8.86-2-8.86-2s5.44,20.86,5.06,29.24Z" transform="translate(-4.5 0.5)" style="fill:none;stroke:#231f20;stroke-miterlimit:10"/><path d="M511.66,109c-2.47-7.08-5.88-14-10.83-19.69A34.71,34.71,0,0,0,492.24,82c-9.55-5.56-21.88-6.41-32.41-3.47a68.89,68.89,0,0,0-18.33,8.51,110.22,110.22,0,0,0-12.7,9.54l3.94,7.29c6.15-8,14.58-15.37,23.75-19.68a30.65,30.65,0,0,1,22-1.84c7.89,2.48,13.77,8.93,18.22,15.66a74,74,0,0,1,5.48,10" transform="translate(-4.5 0.5)" style="fill:#fff;stroke:#231f20;stroke-miterlimit:10"/><polygon points="411.5 330.2 417.76 330.2 417.54 368.6 411.5 364.35 411.5 330.2" style="fill:#fff;stroke:#231f20;stroke-miterlimit:10"/><path d="M408.73,326l-3.48,3.72-3.15-4.25-4.29,30.69s8.89,3.72,9.54,4.17Z" transform="translate(-4.5 0.5)" style="fill:#fff;stroke:#231f20;stroke-miterlimit:10"/><polyline points="379.67 350.42 386.58 346.69 390.93 331.73 394.12 332.72 392.48 356.39 379.92 354.66 379.67 350.42" style="fill:#fff;stroke:#231f20;stroke-miterlimit:10"/><path d="M384.39,360.31s8.27.89,11.88,2.42l-.27,3.44-5.89,3.49-6-4.85Z" transform="translate(-4.5 0.5)" style="fill:#fff;stroke:#231f20;stroke-miterlimit:10"/><polygon points="393.43 363.23 392.43 374.03 398.29 376.37 401.73 370.36 402.02 367.32 393.43 363.23" style="fill:#fff;stroke:#231f20;stroke-miterlimit:10"/><polygon points="467 320.44 472.54 320.44 472.04 354.66 471.56 358.98 467 359.97 467 320.44" style="fill:#fff;stroke:#231f20;stroke-miterlimit:10"/><polygon points="458.66 307.24 463.63 307.24 463.14 332.68 462.66 335.89 458.09 336.62 458.66 307.24" style="fill:#fff;stroke:#231f20;stroke-miterlimit:10"/><polygon points="565.45 316.75 573.88 315.67 569.07 350.64 561.67 348.98 565.45 316.75" style="fill:#fff;stroke:#231f20;stroke-miterlimit:10"/><polygon points="550.1 316.75 558.52 315.67 553.71 350.64 546.31 348.98 550.1 316.75" style="fill:#fff;stroke:#231f20;stroke-miterlimit:10"/><path d="M296.06,253.55s-4.79,18.2-.91,45.7,5.94,42,5.94,42l5.66,2.71s-9.64-40.52-10.08-64.79c-.28-15.36,2.34-15,2.4-14.69S296.06,253.55,296.06,253.55Z" transform="translate(-4.5 0.5)" style="fill:#fff;stroke:#231f20;stroke-miterlimit:10"/><path d="M244.33,530.9s4.31-37.34,8.91-42L225,476.33s-6.67,1.17-8.33,21.5c0,0,9.16,1.9,6,5.78l-1.5,1.39v3.43l1.75,4.89-5.25-2.15s.54,9.64,5.6,13.07Z" transform="translate(-4.5 0.5)" style="fill:none;stroke:#231f20;stroke-miterlimit:10;opacity:0.5"/><path d="M270.17,461.83l-11.74-5L225,476.33,252.88,488S265,464.67,270.17,461.83Z" transform="translate(-4.5 0.5)" style="fill:#fff;stroke:#231f20;stroke-miterlimit:10;opacity:0.2"/><polygon points="348 453.75 340.06 450.69 316.39 462.33 316.5 466.85 348 453.75" style="fill:#fff;stroke:#231f20;stroke-miterlimit:10"/><path d="M353.63,453l-.68,9.71-8.39,5.06s-10.36-4.29-19.21,1.24L321,466.35Z" transform="translate(-4.5 0.5)" style="fill:#fff;stroke:#231f20;stroke-miterlimit:10"/><path d="M273.63,543.12l-19.9-6.74S247,518.31,262.52,486s31.35-36.52,46.17-34.77S321,466.35,321,466.35l-46.36,28.71S263.25,534.5,273.63,543.12Z" transform="translate(-4.5 0.5)" style="fill:none;stroke:#231f20;stroke-miterlimit:10"/><path d="M302.72,450.19s-29.46-3.69-45.42,29.29c-15,31-13,51.42-13,51.42l8.91,1.33S257.66,456.55,302.72,450.19Z" transform="translate(-4.5 0.5)" style="fill:#fff;stroke:#231f20;stroke-miterlimit:10"/><path d="M321,466.35l-47.37,29.34s3.86,9.1,14.45-.63L309,481.28,323.57,469Z" transform="translate(-4.5 0.5)" style="fill:#fff;stroke:#231f20;stroke-miterlimit:10"/><path d="M273.63,495.69s-9.71,43.34,2.83,50l2.83-.13s.45-28.88,28.08-63.22L285.19,497S278.94,502.38,273.63,495.69Z" transform="translate(-4.5 0.5)" style="fill:#fff;stroke:#231f20;stroke-miterlimit:10"/><path d="M474.44,319.8c.37-1.5,8.84-32.79,8.84-32.79s5.22-21.16,5.35-33.34-.59-19.61-.55-20.17-4.45-20.56-4.45-20.56l-5.28-13.34s-18.1-27-18.25-27.35c-2.59-6.5-25.4-25-25.4-25L427,141.4v-3s15.66,8.09,22.46,16.66c6.05,4.68,20.47,24.17,20.47,24.17s12.75,22.4,15.82,27.81,4.62,15.1,4.62,15.1l1.47,31.15-1.15,19.15A77.45,77.45,0,0,1,488.08,288c-2.34,8.92-10.91,32-10.91,32Z" transform="translate(-4.5 0.5)" style="fill:#fff;stroke:#231f20;stroke-miterlimit:10"/><path d="M471.2,249.79s-10.82-3.48-11.61,8.14a42.37,42.37,0,0,0,3.63,20.26,37.11,37.11,0,0,1,1.08-15.59C466.75,254.5,466.08,250.08,471.2,249.79Z" transform="translate(-4.5 0.5)" style="fill:none;stroke:#231f20;stroke-miterlimit:10"/><path d="M403.09,296.43s5.34,21.21,4.62,30.64l-2.14,1.6L403.88,326s-.06-21.33-3.3-23.67C400.58,302.33,401.36,294.37,403.09,296.43Z" transform="translate(-4.5 0.5)" style="fill:#fff;stroke:#231f20;stroke-miterlimit:10"/><path d="M463.22,329.7c-.55-1.71,4.81-16.94,25.28-25.58l13.21-8.91s26.94-10.71,30.95-31.46c0,0,5.91-15.86-4.09-34.25s-14.43-25.93-14.43-25.93L498.07,182,476.65,161.9l-35-25.11-13.83.21L442,143.33s20.46,9.38,33.56,23.52,30.51,31.57,41.47,55,24.16,45.78-16.27,69.12-37.87,28.8-37.87,28.8Z" transform="translate(-4.5 0.5)" style="fill:#fff;stroke:#231f20;stroke-miterlimit:10"/><path d="M404.47,285.58s16.65,34.8,16.61,37.92-.07,5.17-.07,5.17l-4.28.88s-2.15-9.37-2-11.66c.14-2.5-10.17-28.05-11.61-27.37Z" transform="translate(-4.5 0.5)" style="fill:#fff;stroke:#231f20;stroke-miterlimit:10"/><path d="M360.08,343.56a9.87,9.87,0,0,1,4.84.9L354.4,378.2l-3.77-1.83S357.24,344.51,360.08,343.56Z" transform="translate(-4.5 0.5)" style="fill:#fff;stroke:#231f20;stroke-miterlimit:10"/><path d="M435,392.72s-23.95-43.47-72.28-31.47c-22.09,5.48-44.12,17.52-60.36,33.46-11.53,11.32-20.95,24.5-32.6,35.78l-2.67-5.13a201.13,201.13,0,0,0,15.79-18.22c7.51-9.9,15.95-19.18,26.21-26.31,11.1-7.71,24.15-12.78,36.32-18.63,15.61-7.51,30.11-9.18,47.11-6.33,30,5,43.76,26.28,43.76,26.28Z" transform="translate(-4.5 0.5)" style="fill:#fff;stroke:#231f20;stroke-miterlimit:10"/><polygon points="394.26 279.69 400.75 281.74 386.58 346.69 377.1 349.35 394.26 279.69" style="fill:none;stroke:#231f20;stroke-miterlimit:10"/><line x1="482.87" y1="268.39" x2="463.63" y2="307.24" style="fill:none;stroke:#231f20;stroke-miterlimit:10"/><path d="M398.2,252.2s5.16,1.75,7.3,2.3c3.88-4.71,52.52-33.71,52.52-33.71,5.67-3.48,12.55-7.42,19.25-8,8.33-.7,16.77,2.84,22.82,8.46,7.94,7.36,13.16,18.61,14.88,29.23,2,12.26-2.87,24.18-8.1,35l-10.79,22.34c-14.58,17.5-20.83,58.66-20.83,58.66l5.74,1s8.16-30.54,9.16-33.39c9-25.64,30.57-49.32,30.75-77.51.13-21.32-13.91-44.48-36-49.4-6.74-1.5-14.58,2.24-20.77,4.63a177.27,177.27,0,0,0-21.68,10.25c-13.84,7.66-26.8,16.8-39.41,26.33Q400.62,250.28,398.2,252.2Z" transform="translate(-4.5 0.5)" style="fill:#fff;stroke:#231f20;stroke-miterlimit:10"/><path d="M497.2,363.67c.76-.12,2.7-15.07,3-16.77,1.19-6.11,2.53-12.19,4.13-18.21,3.24-12.12,6.63-24.57,13.72-33.8,5.65-7.36,9.76-15.78,15.68-22.87a139.72,139.72,0,0,0,15.44-21.91c15-26.87,12.07-65.05-10-87.34-10.55-10.67-24.35-17.63-38.4-22.47-23-7.92-48.05-6.21-72.23-9l-.67,5.85c.23-1.94,39.06,1.32,42.82,1.81A138.49,138.49,0,0,1,510.13,150c12.68,5.77,24.43,14.15,32,26.09a74,74,0,0,1,11,48.07c-2.1,16.87-10.87,31.77-20.94,45.11-8.71,11.55-18.41,21.75-24.76,34.89-9,18.58-11.51,39.95-14.68,60.18Z" transform="translate(-4.5 0.5)" style="fill:#fff;stroke:#231f20;stroke-miterlimit:10"/><path d="M223.27,524.24c.55.23-4.6-5.74-5.6-13.07l5.66,3-2.16-4.5V505s2.88-2.72.19-5.28-4.69-1.89-4.69-1.89,1-15.55,7.5-20.16l33.49-20.52-5.77-2.93s.78,5.11-5.89,7.78l-14,8.5h-1.75s-9.58,5.17-12.5,6.25l-9.35,20.48S202.71,515.64,223.27,524.24Z" transform="translate(-4.5 0.5)" style="fill:#fff;stroke:#231f20;stroke-miterlimit:10"/><path d="M242.76,450.19l9.13,4s1.24,6.16-5.89,7.78l-14,8.5-15.33,6L202.5,508.43l-5.92-4.55,14.54-27.49L213,467.5l7.83-5.5-1-1.17Z" transform="translate(-4.5 0.5)" style="fill:#fff;stroke:#231f20;stroke-miterlimit:10"/><path d="M267,425.42l-1.69-.27a.16.16,0,0,0-.13,0L247.38,438s-5.68,3.6-4.63,12.08a.19.19,0,0,0,.11.15l8.91,3.94a.19.19,0,0,0,.21,0c.66-.7,4.88-5.51,3.68-12.14a.18.18,0,0,1,.07-.18l13.78-9.21a.19.19,0,0,0,.08-.16v-3.21a.17.17,0,0,0,0-.1l-2.42-3.63A.22.22,0,0,0,267,425.42Z" transform="translate(-4.5 0.5)" style="fill:none;stroke:#231f20;stroke-miterlimit:10"/><polygon points="268.3 428.58 275.47 431.28 276.41 437.87 268.94 442.2 268.3 435.54 262.38 434.46 264.17 432.71 264.35 430.88 268.3 428.58" style="fill:#fff;stroke:#231f20;stroke-miterlimit:10"/><polygon points="262.95 435.06 256.19 438.99 269.5 443.75 268.92 436.1 262.95 435.06" style="fill:none;stroke:#231f20;stroke-miterlimit:10"/><polygon points="428.75 475.94 419.83 472.5 414.69 478.38 428.75 483.06 428.75 475.94" style="fill:none;stroke:#231f20;stroke-miterlimit:10"/><path d="M260.09,440.31" transform="translate(-4.5 0.5)" style="fill:none;stroke:#231f20;stroke-miterlimit:10"/><path d="M280.46,434.44l57.85,18.13-17.42,9.26s-4.55-14.58-28.22-11.33c0,0-9.58,1.9-13.73,4.62,0,0-17.25-12.24-18.85-14.81s.6-1.82.6-1.82L274,443.25l6.91-5.12Z" transform="translate(-4.5 0.5)" style="fill:#fff;stroke:#231f20;stroke-miterlimit:10"/><polygon points="349.13 456.54 412.85 478.17 412.93 486.52 423.83 490.97 382.16 488.72 340.06 468.23 348.45 463.17 349.13 456.54" style="fill:#fff;stroke:#231f20;stroke-miterlimit:10"/><polygon points="454.45 469.36 461.5 465.5 465.5 466.86 472.83 461.83 472.83 457.5 558.5 392.17 563.17 394.02 570.17 388.17 570.17 384.83 584.5 374.86 584.5 348.98 455.33 442.74 454.45 469.36" style="fill:none;stroke:#231f20;stroke-miterlimit:10"/><path d="M458.17,499.39,601.43,390.91s2.87-8.58,5.72-19.17l-4.82,2.62L458.7,483.83" transform="translate(-4.5 0.5)" style="fill:#fff;stroke:#231f20;stroke-miterlimit:10"/><path d="M432.76,490.69c1.89-.31-45.54-2.85-45.54-2.85s9.5,5.33,11.39,13.31c0,0,29,3.18,33.15,2.2Z" transform="translate(-4.5 0.5)" style="fill:#fff;stroke:#231f20;stroke-miterlimit:10"/><polygon points="255.59 440.81 273.88 455.62 266.2 461 255.99 451.99 255.59 440.81" style="fill:none;stroke:#231f20;stroke-miterlimit:10"/><line x1="487.17" y1="242.08" x2="484.3" y2="243.33" style="fill:none;stroke:#231f20;stroke-miterlimit:10"/><path d="M491.67,241.58" transform="translate(-4.5 0.5)" style="fill:none;stroke:#231f20;stroke-miterlimit:10"/><path d="M495.45,241.76" transform="translate(-4.5 0.5)" style="fill:none;stroke:#231f20;stroke-miterlimit:10"/><line x1="494.42" y1="243.33" x2="490.95" y2="242.26" style="fill:none;stroke:#231f20;stroke-miterlimit:10"/><path d="M589.22,287.93,609.33,277s6.31-2.64,4.11,10.93L610.67,341s.5,6.74-7.71,14.37l-13.71,7.88,0-16.58-5-2.06,1.54-48.36S584.43,289.36,589.22,287.93Zm17.29.19c.41.55-13,6.21-13.76,7.63s-1.5,55.92-1.5,55.92l13.71-8.9S604,294,606.51,288.12Z" transform="translate(-4.5 0.5)" style="fill:#fff;stroke:#231f20;stroke-miterlimit:10;opacity:0.5"/><path d="M197.36,505.82s-6.2,17.21-10.48,0-10.26-39.69-3.1-62.57,19.91-56.21,42.73-77.06,42.12-30.49,75.3-19.84c0,0,20.55,9.6,28.47,23.22l4.21-2.66s-20-33-61.66-29.47C214.5,346.35,190,407.75,190,407.75s-23.34,55-12.5,86.27,14.17,29.5,25,14.41Z" transform="translate(-4.5 0.5)" style="fill:#fff;stroke:#231f20;stroke-miterlimit:10"/><path d="M312.68,377.83l-1.45-26.18s-7.16-5.26-12.32-4.7l2.18,38.36" transform="translate(-4.5 0.5)" style="fill:#fff;stroke:#231f20;stroke-miterlimit:10"/><polyline points="300.42 393.48 308.5 390.33 307.9 377.42" style="fill:#fff;stroke:#231f20;stroke-miterlimit:10"/><line x1="296.59" y1="385.81" x2="300.42" y2="393.48" style="fill:#fff;stroke:#231f20;stroke-miterlimit:10"/><polygon points="292.26 237.19 395.6 265.19 373.93 344.85 309.93 327.52 292.26 237.19" style="fill:none;stroke:#231f20;stroke-miterlimit:10"/><polyline points="333.72 299.89 320.93 296.85 308.6 251.52 381.26 269.52 367.26 307.85 341.36 301.71" style="fill:#fff;stroke:#231f20;stroke-miterlimit:10"/><polygon points="322.6 310.69 365.67 322.77 360.95 334.64 324.93 322.77 322.6 310.69" style="fill:#fff;stroke:#231f20;stroke-miterlimit:10"/><path d="M309.61,137.92l80.61,18a4.53,4.53,0,0,1,3.54,4.42v38.26a4.52,4.52,0,0,1-5.6,4.4L307.54,183.2a4.53,4.53,0,0,1-3.44-4.4V142.33A4.52,4.52,0,0,1,309.61,137.92Z" transform="translate(-4.5 0.5)" style="fill:#fff;stroke:#231f20;stroke-miterlimit:10"/><path d="M332.1,164.35c0,5.53-3.58,10-8,10s-8-4.47-8-10,3.58-10,8-10S332.1,158.83,332.1,164.35Zm-8-7.16c-3.39,0-6.13,3.43-6.13,7.66s2.74,7.66,6.13,7.66,6.12-3.43,6.12-7.66S327.48,157.19,324.1,157.19Z" transform="translate(-4.5 0.5)" style="fill:#fff;stroke:#231f20;stroke-miterlimit:10"/><path d="M380.76,176.85c0,5.53-3.58,10-8,10s-8-4.47-8-10,3.59-10,8-10S380.76,171.33,380.76,176.85Zm-8-7.16c-3.38,0-6.12,3.43-6.12,7.66s2.74,7.66,6.12,7.66,6.13-3.43,6.13-7.66S376.15,169.69,372.76,169.69Z" transform="translate(-4.5 0.5)" style="fill:#fff;stroke:#231f20;stroke-miterlimit:10"/><path d="M309.54,189.09c16.78,4,67.3,16.3,80.85,19.61a4.42,4.42,0,0,1,3.37,4.3v.41a4.43,4.43,0,0,1-5.46,4.31L307.5,198.5a4.44,4.44,0,0,1-3.4-4.31v-.78A4.43,4.43,0,0,1,309.54,189.09Z" transform="translate(-4.5 0.5)" style="fill:#fff;stroke:#231f20;stroke-miterlimit:10"/><path d="M327.87,214.63c8.49,2,34.08,8.25,40.94,9.92a2.24,2.24,0,0,1,1.71,2.18v.21a2.25,2.25,0,0,1-2.76,2.19l-40.92-9.74a2.23,2.23,0,0,1-1.73-2.18v-.4A2.24,2.24,0,0,1,327.87,214.63Z" transform="translate(-4.5 0.5)" style="fill:#fff;stroke:#231f20;stroke-miterlimit:10"/><path d="M327.87,222.36c8.49,2,34.08,8.26,40.94,9.93a2.24,2.24,0,0,1,1.71,2.18v.21a2.24,2.24,0,0,1-2.76,2.18l-40.92-9.73a2.25,2.25,0,0,1-1.73-2.19v-.39A2.25,2.25,0,0,1,327.87,222.36Z" transform="translate(-4.5 0.5)" style="fill:#fff;stroke:#231f20;stroke-miterlimit:10"/><path d="M327.87,229.67c8.49,2,34.08,8.26,40.94,9.93a2.24,2.24,0,0,1,1.71,2.18V242a2.24,2.24,0,0,1-2.76,2.18l-40.92-9.73a2.25,2.25,0,0,1-1.73-2.19v-.39A2.25,2.25,0,0,1,327.87,229.67Z" transform="translate(-4.5 0.5)" style="fill:none;stroke:#231f20;stroke-miterlimit:10"/><path d="M245.6,222.51s3.78-2.61,10.91-.74l64.59,16.92v-6.5L261.43,217s-3.17-1.18-7.67.82a51,51,0,0,0-8.16,4.67" transform="translate(-4.5 0.5)" style="fill:none;stroke:#231f20;stroke-miterlimit:10"/><path d="M445.43,271.69c11.33,0,11,19,11,19L451.76,523l5.84-7.83,6.25-230.5s1.58-17-13.09-18.5l-71.41-19V228.07l-4.5-.63-1.42,24.25,72,20" transform="translate(-4.5 0.5)" style="fill:#fff;stroke:#231f20;stroke-miterlimit:10"/><path d="M414.72,235.55l8.63-3.86V209l8-4.34s2.5-2.25,3-11.5a146,146,0,0,0,0-16.34s1.25-11.91-7.5-16.66l2.5-43.5s7.5-4.75,2.25-16.5c0,0-3.92-10.5-16.84-5.5,0,0,16.17,2.83,10.84,20.66L421.1,121l-1.67,42s6.67-.5,9.17,16.25-1.84,25.58-1.84,25.58-5.66,7.67-9.66,6.84C417.1,211.69,418.67,229.59,414.72,235.55Z" transform="translate(-4.5 0.5)" style="fill:#fff;stroke:#231f20;stroke-miterlimit:10"/><path d="M281.68,95.46l2.19.75a1.32,1.32,0,0,1,.89,1.25v30.65a1.32,1.32,0,0,1-2,1.16l-2.19-1.21a1.31,1.31,0,0,1-.68-1.15V96.71A1.32,1.32,0,0,1,281.68,95.46Z" transform="translate(-4.5 0.5)" style="fill:#fff;stroke:#231f20;stroke-miterlimit:10"/><path d="M414.64,124.29l2.19.75a1.33,1.33,0,0,1,.89,1.25v30.65a1.32,1.32,0,0,1-2,1.16l-2.19-1.21a1.31,1.31,0,0,1-.68-1.16V125.54A1.32,1.32,0,0,1,414.64,124.29Z" transform="translate(-4.5 0.5)" style="fill:#fff;stroke:#231f20;stroke-miterlimit:10"/><path d="M284.76,135.85s-8-6.5-11,4.67v17.17s.34,6,8.59,5.33Z" transform="translate(-4.5 0.5)" style="fill:#fff;stroke:#231f20;stroke-miterlimit:10"/><path d="M411.26,164.35l4.05,29,7.95.84s1.6-3,1.38-13.5S421.93,164.69,411.26,164.35Z" transform="translate(-4.5 0.5)" style="fill:#fff;stroke:#231f20;stroke-miterlimit:10"/><path d="M346.81,279.79a10.09,10.09,0,0,1,10.9,5.77s1,2.57-.81,9.57L346.56,301s-8.33,2.83-10.83-6c0,0-3-8.33,2-10.33Z" transform="translate(-4.5 0.5)" style="fill:#fff;stroke:#231f20;stroke-miterlimit:10"/><path d="M272.93,245.19s-6.83-2-6.33,7l.24,85.5v4.41l.24,83.33-6.5,3-.89-175.53s2.94-10.49,13.23-7.74" transform="translate(-4.5 0.5)" style="fill:none;stroke:#231f20;stroke-miterlimit:10"/><path d="M294.2,111.41l.15-23.72s5.25-1.5,3.75-13.5-11.5-10.25-11.5-10.25l-6.67,2.91s11.83-1,12.17,12.5c0,0,.5,9.17-5.5,11.67v34.83S291,114,294.2,111.41Z" transform="translate(-4.5 0.5)" style="fill:none;stroke:#231f20;stroke-miterlimit:10"/><path d="M411.1,136.69c-5.56-15.17-21.75-19.4-35.76-23.16a407.45,407.45,0,0,0-52.18-10c-7.55-1-14-1.33-20.91,2.37l73,13.89s20.5,4.43,26.67,12.59,8.5,19.17,8.5,19.17Z" transform="translate(-4.5 0.5)" style="fill:#fff;stroke:#231f20;stroke-miterlimit:10"/><path d="M685.14,353.83l-44.6-14.89c-9.92-3.11-24.48,15.15-32.51,40.78s-6.3,50.44,3.63,53.55l44.39,13.38" transform="translate(-4.5 0.5)" style="fill:none;stroke:#231f20;stroke-miterlimit:10"/><ellipse cx="673.98" cy="401.41" rx="48.74" ry="18.5" transform="translate(67.69 905.13) rotate(-70.68)" style="fill:#fff;stroke:#231f20;stroke-miterlimit:10"/><path d="M385.7,487.75l-41.14-20c-15.35-7.47-39.53,10.59-54,40.34s-13.77,59.92,1.58,67.39l49.48,19.66" transform="translate(-4.5 0.5)" style="fill:none;stroke:#231f20;stroke-miterlimit:10"/><line x1="384.23" y1="489.73" x2="381.2" y2="488.25" style="fill:none;stroke:#231f20;stroke-miterlimit:10"/><path d="M260.1,457.19l-17.34-7s-.43-209.76-.16-220,9.5-9.5,9.5-9.5l14.16,3.63C287,227,321.1,238.69,321.1,238.69v4.59l-24.34-6.59L314.43,327l32,8.48-.91,3.1-34.9-9.91-13.84-77-23.83-6.5s-13.84-3.64-13.34,12.43.51,199.57.51,199.57" transform="translate(-4.5 0.5)" style="fill:#fff;stroke:#231f20;stroke-miterlimit:10"/><path d="M373.43,251.69l72,20c14,1.66,10.67,26,10.67,26L450.76,520,417.1,509.35s0-6-.67-6h15.33l1-12.66L417.43,486l1-8.67L433.76,482l4-174c3.34-20-4.33-19.67-4.33-19.67l-34.67-9.16L381.6,348.85,345.5,338.6l.91-3.1,32,8.85,21.67-79.66-27.25-7.58.58-5.42,0-.67" transform="translate(-4.5 0.5)" style="fill:#fff;stroke:#231f20;stroke-miterlimit:10"/><ellipse cx="363.28" cy="541.52" rx="58.16" ry="30.91" transform="translate(-287.11 631.67) rotate(-64.05)" style="fill:none;stroke:#231f20;stroke-miterlimit:10"/><path d="M372.85,257.11,374.76,227l38,8.67s4.67,1,4-5l.34-19s14.33.33,12-27c0,0,0-21-9.67-21.67l1.67-42s6.33-4.33,5.66-13.67-8.33-12-12-12.66S401.6,105,411.1,119.35v37.34s-2.67-28-20.5-32.34l-40.75-9.66-46.09-9s-10-.67-17.16,20.16V91s6-3,5.5-11.67c0,0,.5-13.16-12.17-12.5,0,0-7.83,1.34-7.5,10.84,0,0-1.17,4.33,4.83,12.66v39.84s-7,1.66-6.5,17.33V162s0,12.83,10.67,15v24.17s-.83,1.66,6.33,3.66l33.34,8v30.43" transform="translate(-4.5 0.5)" style="fill:none;stroke:#231f20;stroke-miterlimit:10"/><rect x="0.5" y="0.5" width="787" height="621" style="fill:none;stroke:#231f20;stroke-miterlimit:10"/><path d="M521.16,294.73l-19.45-.55L484.5,304.66s-7.43,26.26,7.37,39.46L510,347S499,310.13,521.16,294.73Z" transform="translate(-4.5 0.5)" style="fill:#fff;stroke:#231f20;stroke-miterlimit:10"/><path d="M586.19,290.84l-2,53.77-3.17-.43s8-12.24.52-18.57l-36.85-7.7s.88-1.21-3.07-2.06L532.88,314s3-16.08-9.15-19.52-28.61.28-28.61.28l-10.37,5.48-1.6,11.85-19.87-6.41.62-39.45s.35-7,2.85-11.7Z" transform="translate(-4.5 0.5)" style="fill:none;stroke:#231f20;stroke-miterlimit:10"/><polyline points="482.87 268.39 463.63 307.24 458.72 309.15 483.98 259.72" style="fill:#fff;stroke:#231f20;stroke-miterlimit:10"/><path d="M488.8,242.83l-19.47,8.5-2.58,3.17,120,36.5s2.29-3.83,4.79-4.41S609.33,277,609.33,277L498.92,242.83" transform="translate(-4.5 0.5)" style="fill:none;stroke:#231f20;stroke-miterlimit:10"/><path d="M575.67,316c-.87-1.2.48-6.14.48-6.14l1.59-10,3.77-16.05s5.38-17.1,9.88-36.67c6.83-16.77,10.52-48.54,10.52-48.54s7.22-42.34-26.7-64.34c-3.64-2.36-6.58-5.3-10.41-7.47a131.34,131.34,0,0,0-12.48-6.16,152.37,152.37,0,0,0-27.22-8.93q-5-1.17-10.13-2c-13.11-2.22-26.87-3-39.44,1.36s-24.45,14.35-26.88,27.42c-1.6,8.6,1.3,17.56,3.39,26.05,6.88,28,12.4,56.79,10.45,85.59,1.19-.21,3.07-.38,4.26-.59,1.47-25.18-2-48.5-9.37-74.06-2.77-9.53-5.77-20.14-5.55-30.06a23.5,23.5,0,0,1,5.27-15.07c2.74-3.52,6.37-7.56,10.27-9.74a75.4,75.4,0,0,1,17.48-7.5c9.5-2.5,19.44-2.07,29-.35s38.3,12.06,42.68,14.16,9,4.05,12.81,6.84a89.88,89.88,0,0,1,13,11.68c5.77,6.23,11.49,14.39,13.83,22.64,6.75,23.84-2.75,59.75-2.75,59.75L578.8,278s-5.21,27.11-6.53,38.6C572.27,316.63,576.38,317,575.67,316Z" transform="translate(-4.5 0.5)" style="fill:#fff;stroke:#231f20;stroke-miterlimit:10"/><path d="M560,315.39,562.29,299s4.39-18.2,14.25-53.37S587,190,587,190a64.67,64.67,0,0,0-32.06-59.5c-24-14.49-41.4-17.89-41.4-17.89s-22-6-40.58-4.5c-2.09.14-17.59,0-32.24,16.07s-4.11,39.17-4.11,39.17l9.45,45.7,16.92,66.66,1-6.08-13.32-54.23-5.82-27.3-7.73-32.06S432,135.9,447.38,123.65c13.19-10.54,23-11.21,24.48-11.34,23.25-2.11,18.06-.92,38.1,3.07s42.71,17.17,42.71,17.17,24.33,15.62,28.77,37.78S578,228.84,578,228.84l-16.72,54.57-4.53,33.22Z" transform="translate(-4.5 0.5)" style="fill:#fff;stroke:#231f20;stroke-miterlimit:10"/><polygon points="387.59 341.19 389.13 335.17 425.67 310.71 432.81 312.13 387.59 341.19" style="fill:none;stroke:#231f20;stroke-miterlimit:10;opacity:0.5"/><polygon points="454.45 469.36 454.22 483.66 601.5 372.25 608.94 356.83 600.46 354.03 584.75 363.75 584.5 374.86 571.18 384.13 570.17 386.57 563.17 394.02 558.5 392.17 472.83 457.5 472.83 461.83 465.5 466.86 461.5 465.5 454.45 469.36" style="fill:#fff;stroke:#231f20;stroke-miterlimit:10"/></g></svg>